%FSLAX34Y34*%
G04 Gerber Fmt 3.4, Leading zero omitted, Abs format*
G04 (created by PCBNEW (2014-05-28 BZR 4896)-product) date Thu 29 May 2014 07:24:19 PM CEST*
%MOIN*%
G01*
G70*
G90*
G04 APERTURE LIST*
%ADD10C,0.005906*%
%ADD11C,0.007874*%
G04 APERTURE END LIST*
G54D10*
G54D11*
X27519Y-16456D02*
G75*
G03X26496Y-16456I-511J0D01*
G74*
G01*
X29409Y-16456D02*
G75*
G03X28385Y-16456I-511J0D01*
G74*
G01*
X29409Y-17519D02*
X29409Y-16456D01*
X28385Y-17519D02*
X28385Y-16456D01*
X27519Y-17519D02*
X27519Y-16456D01*
X26496Y-17519D02*
X26496Y-16456D01*
X26496Y-17519D02*
G75*
G03X27519Y-17519I511J0D01*
G74*
G01*
X28385Y-17519D02*
G75*
G03X29409Y-17519I511J0D01*
G74*
G01*
X22105Y-33248D02*
X22105Y-33023D01*
X22105Y-33136D02*
X22499Y-33136D01*
X22442Y-33098D01*
X22405Y-33061D01*
X22386Y-33023D01*
X22499Y-33492D02*
X22499Y-33530D01*
X22480Y-33567D01*
X22461Y-33586D01*
X22424Y-33605D01*
X22349Y-33623D01*
X22255Y-33623D01*
X22180Y-33605D01*
X22142Y-33586D01*
X22124Y-33567D01*
X22105Y-33530D01*
X22105Y-33492D01*
X22124Y-33455D01*
X22142Y-33436D01*
X22180Y-33417D01*
X22255Y-33398D01*
X22349Y-33398D01*
X22424Y-33417D01*
X22461Y-33436D01*
X22480Y-33455D01*
X22499Y-33492D01*
X22499Y-33867D02*
X22499Y-33905D01*
X22480Y-33942D01*
X22461Y-33961D01*
X22424Y-33980D01*
X22349Y-33998D01*
X22255Y-33998D01*
X22180Y-33980D01*
X22142Y-33961D01*
X22124Y-33942D01*
X22105Y-33905D01*
X22105Y-33867D01*
X22124Y-33830D01*
X22142Y-33811D01*
X22180Y-33792D01*
X22255Y-33773D01*
X22349Y-33773D01*
X22424Y-33792D01*
X22461Y-33811D01*
X22480Y-33830D01*
X22499Y-33867D01*
X22142Y-34167D02*
X22124Y-34186D01*
X22105Y-34167D01*
X22124Y-34148D01*
X22142Y-34167D01*
X22105Y-34167D01*
X22499Y-34430D02*
X22499Y-34467D01*
X22480Y-34505D01*
X22461Y-34523D01*
X22424Y-34542D01*
X22349Y-34561D01*
X22255Y-34561D01*
X22180Y-34542D01*
X22142Y-34523D01*
X22124Y-34505D01*
X22105Y-34467D01*
X22105Y-34430D01*
X22124Y-34392D01*
X22142Y-34373D01*
X22180Y-34355D01*
X22255Y-34336D01*
X22349Y-34336D01*
X22424Y-34355D01*
X22461Y-34373D01*
X22480Y-34392D01*
X22499Y-34430D01*
X22499Y-34805D02*
X22499Y-34842D01*
X22480Y-34880D01*
X22461Y-34898D01*
X22424Y-34917D01*
X22349Y-34936D01*
X22255Y-34936D01*
X22180Y-34917D01*
X22142Y-34898D01*
X22124Y-34880D01*
X22105Y-34842D01*
X22105Y-34805D01*
X22124Y-34767D01*
X22142Y-34748D01*
X22180Y-34730D01*
X22255Y-34711D01*
X22349Y-34711D01*
X22424Y-34730D01*
X22461Y-34748D01*
X22480Y-34767D01*
X22499Y-34805D01*
X22499Y-35179D02*
X22499Y-35217D01*
X22480Y-35254D01*
X22461Y-35273D01*
X22424Y-35292D01*
X22349Y-35311D01*
X22255Y-35311D01*
X22180Y-35292D01*
X22142Y-35273D01*
X22124Y-35254D01*
X22105Y-35217D01*
X22105Y-35179D01*
X22124Y-35142D01*
X22142Y-35123D01*
X22180Y-35104D01*
X22255Y-35086D01*
X22349Y-35086D01*
X22424Y-35104D01*
X22461Y-35123D01*
X22480Y-35142D01*
X22499Y-35179D01*
X22105Y-35779D02*
X22367Y-35779D01*
X22330Y-35779D02*
X22349Y-35798D01*
X22367Y-35836D01*
X22367Y-35892D01*
X22349Y-35929D01*
X22311Y-35948D01*
X22105Y-35948D01*
X22311Y-35948D02*
X22349Y-35967D01*
X22367Y-36004D01*
X22367Y-36061D01*
X22349Y-36098D01*
X22311Y-36117D01*
X22105Y-36117D01*
X22105Y-36304D02*
X22367Y-36304D01*
X22330Y-36304D02*
X22349Y-36323D01*
X22367Y-36361D01*
X22367Y-36417D01*
X22349Y-36454D01*
X22311Y-36473D01*
X22105Y-36473D01*
X22311Y-36473D02*
X22349Y-36492D01*
X22367Y-36529D01*
X22367Y-36586D01*
X22349Y-36623D01*
X22311Y-36642D01*
X22105Y-36642D01*
X22637Y-15157D02*
X22637Y-54527D01*
X23818Y-15157D02*
X21929Y-15157D01*
X23818Y-54527D02*
X21929Y-54527D01*
X22637Y-54527D02*
X22406Y-54084D01*
X22637Y-54527D02*
X22868Y-54084D01*
X22637Y-15157D02*
X22406Y-15600D01*
X22637Y-15157D02*
X22868Y-15600D01*
X26321Y-13758D02*
X26340Y-13740D01*
X26377Y-13721D01*
X26471Y-13721D01*
X26509Y-13740D01*
X26527Y-13758D01*
X26546Y-13796D01*
X26546Y-13833D01*
X26527Y-13890D01*
X26302Y-14115D01*
X26546Y-14115D01*
X26921Y-14115D02*
X26696Y-14115D01*
X26809Y-14115D02*
X26809Y-13721D01*
X26771Y-13777D01*
X26734Y-13815D01*
X26696Y-13833D01*
X27090Y-14077D02*
X27109Y-14096D01*
X27090Y-14115D01*
X27071Y-14096D01*
X27090Y-14077D01*
X27090Y-14115D01*
X27352Y-13721D02*
X27390Y-13721D01*
X27427Y-13740D01*
X27446Y-13758D01*
X27465Y-13796D01*
X27484Y-13871D01*
X27484Y-13965D01*
X27465Y-14040D01*
X27446Y-14077D01*
X27427Y-14096D01*
X27390Y-14115D01*
X27352Y-14115D01*
X27315Y-14096D01*
X27296Y-14077D01*
X27277Y-14040D01*
X27259Y-13965D01*
X27259Y-13871D01*
X27277Y-13796D01*
X27296Y-13758D01*
X27315Y-13740D01*
X27352Y-13721D01*
X27727Y-13721D02*
X27765Y-13721D01*
X27802Y-13740D01*
X27821Y-13758D01*
X27840Y-13796D01*
X27859Y-13871D01*
X27859Y-13965D01*
X27840Y-14040D01*
X27821Y-14077D01*
X27802Y-14096D01*
X27765Y-14115D01*
X27727Y-14115D01*
X27690Y-14096D01*
X27671Y-14077D01*
X27652Y-14040D01*
X27634Y-13965D01*
X27634Y-13871D01*
X27652Y-13796D01*
X27671Y-13758D01*
X27690Y-13740D01*
X27727Y-13721D01*
X28102Y-13721D02*
X28140Y-13721D01*
X28177Y-13740D01*
X28196Y-13758D01*
X28215Y-13796D01*
X28233Y-13871D01*
X28233Y-13965D01*
X28215Y-14040D01*
X28196Y-14077D01*
X28177Y-14096D01*
X28140Y-14115D01*
X28102Y-14115D01*
X28065Y-14096D01*
X28046Y-14077D01*
X28027Y-14040D01*
X28008Y-13965D01*
X28008Y-13871D01*
X28027Y-13796D01*
X28046Y-13758D01*
X28065Y-13740D01*
X28102Y-13721D01*
X28702Y-14115D02*
X28702Y-13852D01*
X28702Y-13890D02*
X28721Y-13871D01*
X28758Y-13852D01*
X28815Y-13852D01*
X28852Y-13871D01*
X28871Y-13908D01*
X28871Y-14115D01*
X28871Y-13908D02*
X28890Y-13871D01*
X28927Y-13852D01*
X28983Y-13852D01*
X29021Y-13871D01*
X29040Y-13908D01*
X29040Y-14115D01*
X29227Y-14115D02*
X29227Y-13852D01*
X29227Y-13890D02*
X29246Y-13871D01*
X29283Y-13852D01*
X29340Y-13852D01*
X29377Y-13871D01*
X29396Y-13908D01*
X29396Y-14115D01*
X29396Y-13908D02*
X29415Y-13871D01*
X29452Y-13852D01*
X29508Y-13852D01*
X29546Y-13871D01*
X29565Y-13908D01*
X29565Y-14115D01*
X23818Y-14291D02*
X32086Y-14291D01*
X23818Y-15157D02*
X23818Y-13582D01*
X32086Y-15157D02*
X32086Y-13582D01*
X32086Y-14291D02*
X31643Y-14522D01*
X32086Y-14291D02*
X31643Y-14060D01*
X23818Y-14291D02*
X24262Y-14522D01*
X23818Y-14291D02*
X24262Y-14060D01*
X28608Y-34842D02*
G75*
G03X28608Y-34842I-656J0D01*
G74*
G01*
X26968Y-34842D02*
X28937Y-34842D01*
X27952Y-33858D02*
X27952Y-35826D01*
X31299Y-48503D02*
G75*
G03X30275Y-48503I-511J0D01*
G74*
G01*
X30275Y-53228D02*
G75*
G03X31299Y-53228I511J0D01*
G74*
G01*
X31299Y-53228D02*
X31299Y-48503D01*
X30275Y-48503D02*
X30275Y-53228D01*
X24606Y-48503D02*
X24606Y-53228D01*
X25629Y-53228D02*
X25629Y-48503D01*
X24606Y-53228D02*
G75*
G03X25629Y-53228I511J0D01*
G74*
G01*
X25629Y-48503D02*
G75*
G03X24606Y-48503I-511J0D01*
G74*
G01*
X24606Y-21181D02*
X24606Y-16456D01*
X25629Y-16456D02*
X25629Y-21220D01*
X31299Y-21181D02*
X31299Y-16456D01*
X30275Y-16456D02*
X30275Y-21181D01*
X24606Y-21181D02*
G75*
G03X25629Y-21181I511J0D01*
G74*
G01*
X25629Y-16456D02*
G75*
G03X24606Y-16456I-511J0D01*
G74*
G01*
X30275Y-21181D02*
G75*
G03X31299Y-21181I511J0D01*
G74*
G01*
X31299Y-16456D02*
G75*
G03X30275Y-16456I-511J0D01*
G74*
G01*
M02*
