%FSLAX34Y34*%
G04 Gerber Fmt 3.4, Leading zero omitted, Abs format*
G04 (created by PCBNEW (2014-05-27 BZR 4891)-product) date Wed 28 May 2014 03:44:09 AM CEST*
%MOIN*%
G01*
G70*
G90*
G04 APERTURE LIST*
%ADD10C,0.005906*%
%ADD11R,0.033465X0.033465*%
%ADD12C,0.033465*%
%ADD13R,0.090551X0.060236*%
%ADD14R,0.124016X0.027559*%
%ADD15R,0.090551X0.022835*%
%ADD16R,0.055118X0.098425*%
%ADD17C,0.065000*%
%ADD18C,0.025000*%
%ADD19C,0.012000*%
%ADD20C,0.050000*%
%ADD21C,0.016000*%
%ADD22C,0.020000*%
%ADD23C,0.008000*%
G04 APERTURE END LIST*
G54D10*
G54D11*
X28452Y-51639D03*
G54D12*
X28452Y-52139D03*
X27952Y-51639D03*
X27952Y-52139D03*
X27452Y-51639D03*
X27452Y-52139D03*
G54D13*
X27952Y-45027D03*
G54D14*
X27952Y-44610D03*
G54D15*
X27952Y-45708D03*
G54D14*
X27952Y-45937D03*
G54D13*
X27952Y-40893D03*
G54D14*
X27952Y-40476D03*
G54D15*
X27952Y-41574D03*
G54D14*
X27952Y-41803D03*
G54D13*
X27952Y-36759D03*
G54D14*
X27952Y-36342D03*
G54D15*
X27952Y-37440D03*
G54D14*
X27952Y-37669D03*
G54D13*
X27952Y-32429D03*
G54D14*
X27952Y-32011D03*
G54D15*
X27952Y-33110D03*
G54D14*
X27952Y-33338D03*
G54D13*
X27952Y-28295D03*
G54D14*
X27952Y-27877D03*
G54D15*
X27952Y-28976D03*
G54D14*
X27952Y-29204D03*
G54D13*
X27952Y-24161D03*
G54D14*
X27952Y-23744D03*
G54D15*
X27952Y-24842D03*
G54D14*
X27952Y-25070D03*
G54D16*
X30511Y-40393D03*
X31220Y-40393D03*
X30314Y-29291D03*
X31023Y-29291D03*
G54D17*
X28452Y-19291D03*
X27452Y-19291D03*
G54D18*
X29488Y-49645D03*
X29960Y-40393D03*
X27371Y-46417D03*
X27670Y-46417D03*
X27952Y-46417D03*
X31299Y-23543D03*
X27007Y-22204D03*
X24803Y-40866D03*
X25748Y-40472D03*
X28464Y-50000D03*
X27952Y-48700D03*
X27165Y-47677D03*
X28188Y-47519D03*
X31023Y-34094D03*
X26377Y-44763D03*
X26771Y-43307D03*
X26417Y-26771D03*
X26417Y-26363D03*
X26417Y-25980D03*
X30275Y-48188D03*
X30944Y-41456D03*
X30669Y-30393D03*
G54D19*
X27452Y-52610D02*
X27559Y-52716D01*
X27559Y-52716D02*
X28582Y-52716D01*
X28582Y-52716D02*
X29488Y-51811D01*
X29488Y-51811D02*
X29488Y-49645D01*
X27452Y-52139D02*
X27452Y-52610D01*
X30511Y-40393D02*
X29960Y-40393D01*
G54D20*
X27952Y-46417D02*
X27371Y-46417D01*
X27952Y-45937D02*
X27952Y-46417D01*
G54D21*
X27047Y-22165D02*
X27007Y-22204D01*
X29921Y-22165D02*
X27047Y-22165D01*
X31299Y-23543D02*
X29921Y-22165D01*
G54D22*
X27952Y-45937D02*
X27952Y-45708D01*
G54D19*
X24803Y-40866D02*
X25354Y-40866D01*
X25354Y-40866D02*
X25748Y-40472D01*
G54D23*
X28464Y-50000D02*
X28452Y-50011D01*
G54D19*
X28452Y-50011D02*
X28452Y-51639D01*
X27952Y-48700D02*
X27952Y-51639D01*
X28726Y-52139D02*
X28897Y-51968D01*
X28897Y-51968D02*
X28897Y-49094D01*
X27795Y-47992D02*
X27480Y-47677D01*
X28897Y-49094D02*
X27795Y-47992D01*
X27480Y-47677D02*
X27165Y-47677D01*
X28452Y-52139D02*
X28726Y-52139D01*
X28188Y-47519D02*
X28188Y-47598D01*
X28188Y-47598D02*
X27795Y-47992D01*
X31023Y-29291D02*
X31023Y-34094D01*
G54D22*
X26377Y-44763D02*
X26811Y-44330D01*
X26811Y-44330D02*
X26811Y-43346D01*
X26811Y-43346D02*
X26771Y-43307D01*
G54D20*
X26417Y-24724D02*
X26980Y-24161D01*
X26980Y-24161D02*
X27952Y-24161D01*
X26417Y-25980D02*
X26417Y-24724D01*
X26417Y-26771D02*
X26417Y-25980D01*
G54D22*
X27952Y-24161D02*
X27952Y-23744D01*
G54D20*
X27952Y-44610D02*
X27952Y-41803D01*
G54D22*
X27952Y-45027D02*
X27952Y-44610D01*
X27952Y-41574D02*
X27952Y-41803D01*
G54D20*
X27952Y-40893D02*
X27952Y-37669D01*
G54D22*
X27952Y-40893D02*
X27952Y-40476D01*
X27952Y-37440D02*
X27952Y-37669D01*
G54D20*
X27952Y-36759D02*
X27952Y-33338D01*
G54D22*
X27952Y-36759D02*
X27952Y-36342D01*
X27952Y-33110D02*
X27952Y-33338D01*
G54D20*
X27952Y-32429D02*
X27952Y-29204D01*
G54D22*
X27952Y-32429D02*
X27952Y-32011D01*
X27952Y-28976D02*
X27952Y-29204D01*
G54D20*
X27952Y-28295D02*
X27952Y-25070D01*
G54D22*
X27952Y-28295D02*
X27952Y-27877D01*
X27952Y-24842D02*
X27952Y-25070D01*
G54D19*
X30314Y-34094D02*
X31220Y-35000D01*
X31220Y-35000D02*
X31220Y-40393D01*
X30314Y-30944D02*
X30314Y-34094D01*
X30314Y-30393D02*
X30314Y-30944D01*
X30314Y-29291D02*
X30314Y-30393D01*
X30275Y-48188D02*
X31220Y-47244D01*
X31220Y-41929D02*
X31220Y-41456D01*
X31220Y-47244D02*
X31220Y-41929D01*
X31181Y-41456D02*
X31220Y-41456D01*
X31220Y-41456D02*
X31181Y-41456D01*
X31220Y-41456D02*
X31220Y-40393D01*
X31220Y-41456D02*
X30944Y-41456D01*
X30314Y-30393D02*
X30669Y-30393D01*
M02*
