%FSLAX34Y34*%
G04 Gerber Fmt 3.4, Leading zero omitted, Abs format*
G04 (created by PCBNEW (2014-05-28 BZR 4896)-product) date Thu 29 May 2014 02:00:12 AM CEST*
%MOIN*%
G01*
G70*
G90*
G04 APERTURE LIST*
%ADD10C,0.005906*%
%ADD11C,0.009843*%
%ADD12R,0.027600X0.063000*%
%ADD13R,0.039400X0.086600*%
%ADD14R,0.070866X0.133858*%
%ADD15R,0.065000X0.065000*%
%ADD16C,0.065000*%
%ADD17R,0.059000X0.051100*%
%ADD18R,0.098400X0.177200*%
%ADD19R,0.051100X0.059000*%
%ADD20R,0.070866X0.070866*%
%ADD21R,0.039370X0.055118*%
%ADD22R,0.027559X0.086614*%
%ADD23R,0.039300X0.043300*%
%ADD24R,0.049213X0.025591*%
%ADD25R,0.019685X0.019685*%
%ADD26C,0.025000*%
%ADD27C,0.020000*%
%ADD28C,0.050000*%
%ADD29C,0.016000*%
%ADD30C,0.012000*%
%ADD31C,0.030000*%
%ADD32C,0.040000*%
%ADD33C,0.008000*%
%ADD34C,0.007874*%
G04 APERTURE END LIST*
G54D10*
G54D11*
X25071Y-41939D02*
X24771Y-41939D01*
X25071Y-41839D02*
X24771Y-41839D01*
X25071Y-41889D02*
X24771Y-41889D01*
G54D12*
X28031Y-24330D03*
G54D13*
X27440Y-24212D03*
G54D12*
X26849Y-24330D03*
X26849Y-22834D03*
X28031Y-22834D03*
G54D14*
X27440Y-23188D03*
G54D15*
X28952Y-52649D03*
G54D16*
X28952Y-53649D03*
X27952Y-52649D03*
X27952Y-53649D03*
X26952Y-52649D03*
X26952Y-53649D03*
G54D17*
X29960Y-23248D03*
X29960Y-23996D03*
G54D18*
X28719Y-26771D03*
X27185Y-26771D03*
G54D19*
X27854Y-20314D03*
X27106Y-20314D03*
X25964Y-41889D03*
X25216Y-41889D03*
X25964Y-45826D03*
X25216Y-45826D03*
X25964Y-44763D03*
X25216Y-44763D03*
X27854Y-21496D03*
X27106Y-21496D03*
G54D20*
X28937Y-24291D03*
X28937Y-22952D03*
G54D21*
X25216Y-22755D03*
X25964Y-22755D03*
X25590Y-23622D03*
G54D22*
X27202Y-48106D03*
X27702Y-48106D03*
X28202Y-48106D03*
X28702Y-48106D03*
X28702Y-51106D03*
X28202Y-51106D03*
X27702Y-51106D03*
X27202Y-51106D03*
G54D23*
X25256Y-24645D03*
X25924Y-24645D03*
G54D24*
X25078Y-43681D03*
X25078Y-43307D03*
X25078Y-42933D03*
X26102Y-42933D03*
X26102Y-43681D03*
X26102Y-43307D03*
G54D19*
X30295Y-29291D03*
X31043Y-29291D03*
X30295Y-40393D03*
X31043Y-40393D03*
G54D17*
X30905Y-23248D03*
X30905Y-23996D03*
G54D16*
X28452Y-19291D03*
X27452Y-19291D03*
G54D25*
X25071Y-41889D03*
X24771Y-41889D03*
G54D20*
X28937Y-20314D03*
X28937Y-21653D03*
G54D26*
X29803Y-40393D03*
X27952Y-46417D03*
X27670Y-46417D03*
X27371Y-46417D03*
X26496Y-22204D03*
X31417Y-22716D03*
X25590Y-41181D03*
X24803Y-41181D03*
X27795Y-47362D03*
X25787Y-47362D03*
X28110Y-49685D03*
X27598Y-48976D03*
X26771Y-43307D03*
X26377Y-44763D03*
X31023Y-33031D03*
X26574Y-49330D03*
X27992Y-50078D03*
X26417Y-25980D03*
X26417Y-26363D03*
X26417Y-26771D03*
X28110Y-48858D03*
X30669Y-30393D03*
X31062Y-41417D03*
X27637Y-23070D03*
X27244Y-23070D03*
X27440Y-22874D03*
X27637Y-22677D03*
X27244Y-22677D03*
G54D27*
X28702Y-47473D02*
X29488Y-46687D01*
X24685Y-43307D02*
X24606Y-43385D01*
X24606Y-43385D02*
X24606Y-43906D01*
X24606Y-43906D02*
X24968Y-44268D01*
X24968Y-44268D02*
X25216Y-44268D01*
X25216Y-44763D02*
X25216Y-44268D01*
X24771Y-41889D02*
X24685Y-41889D01*
X24685Y-41889D02*
X24606Y-41968D01*
X24606Y-41968D02*
X24606Y-43235D01*
X24677Y-43307D02*
X24685Y-43307D01*
X24606Y-43235D02*
X24677Y-43307D01*
X24685Y-43307D02*
X25078Y-43307D01*
X25216Y-44763D02*
X25216Y-45826D01*
X31043Y-30728D02*
X29488Y-32283D01*
X31043Y-29291D02*
X31043Y-30728D01*
X29488Y-32283D02*
X29488Y-40433D01*
X29488Y-46687D02*
X29488Y-40433D01*
X28702Y-47473D02*
X28702Y-48106D01*
X28198Y-46968D02*
X28702Y-47473D01*
X26771Y-46732D02*
X27007Y-46968D01*
X26630Y-44268D02*
X26771Y-44409D01*
X27007Y-46968D02*
X28198Y-46968D01*
X26771Y-44409D02*
X26771Y-46732D01*
X25216Y-44268D02*
X26630Y-44268D01*
X28150Y-49291D02*
X28702Y-48739D01*
X26259Y-53543D02*
X26259Y-50841D01*
X28702Y-48739D02*
X28702Y-48106D01*
X27810Y-49291D02*
X28150Y-49291D01*
X26366Y-53649D02*
X26259Y-53543D01*
X26259Y-50841D02*
X27810Y-49291D01*
X26952Y-53649D02*
X26366Y-53649D01*
X29527Y-40393D02*
X29488Y-40433D01*
X29803Y-40393D02*
X29527Y-40393D01*
G54D28*
X27952Y-46417D02*
X27670Y-46417D01*
X27670Y-46417D02*
X27371Y-46417D01*
X30905Y-23996D02*
X30905Y-23996D01*
X30433Y-23996D02*
X30905Y-23996D01*
X29960Y-23996D02*
X30433Y-23996D01*
G54D29*
X26849Y-22834D02*
X26535Y-22834D01*
X26456Y-22755D02*
X26535Y-22834D01*
X26456Y-22244D02*
X26456Y-22755D01*
X26496Y-22204D02*
X26456Y-22244D01*
G54D28*
X30433Y-27930D02*
X30433Y-23996D01*
X27952Y-30411D02*
X30433Y-27930D01*
X27952Y-46417D02*
X27952Y-30411D01*
G54D30*
X30905Y-23996D02*
X30945Y-23996D01*
X30945Y-23996D02*
X31417Y-23523D01*
X31417Y-23523D02*
X31417Y-22893D01*
X31417Y-22893D02*
X31417Y-22716D01*
G54D27*
X28425Y-24291D02*
X28385Y-24330D01*
X28385Y-24330D02*
X28031Y-24330D01*
G54D28*
X29015Y-24291D02*
X28425Y-24291D01*
X29015Y-24291D02*
X29015Y-25196D01*
X28719Y-25385D02*
X28719Y-26771D01*
X28908Y-25196D02*
X28719Y-25385D01*
X29015Y-25196D02*
X28908Y-25196D01*
G54D30*
X24803Y-41181D02*
X24346Y-41637D01*
X24346Y-41637D02*
X24346Y-46275D01*
X24346Y-46275D02*
X25433Y-47362D01*
X25433Y-47362D02*
X25787Y-47362D01*
X28202Y-47494D02*
X28202Y-48106D01*
X28070Y-47362D02*
X28202Y-47494D01*
X27795Y-47362D02*
X28070Y-47362D01*
X25256Y-24665D02*
X24940Y-24982D01*
X25256Y-24645D02*
X25256Y-24665D01*
X24940Y-40470D02*
X24940Y-24982D01*
X25590Y-41121D02*
X24940Y-40470D01*
X25590Y-41181D02*
X25590Y-41121D01*
X27202Y-48580D02*
X27202Y-48106D01*
X27598Y-48976D02*
X27202Y-48580D01*
X27801Y-49685D02*
X28110Y-49685D01*
X26850Y-50635D02*
X27801Y-49685D01*
X26850Y-52087D02*
X26850Y-50635D01*
X26952Y-52189D02*
X26850Y-52087D01*
X26952Y-52649D02*
X26952Y-52189D01*
X28417Y-53184D02*
X27952Y-53649D01*
X29319Y-53184D02*
X28417Y-53184D01*
X29488Y-53016D02*
X29319Y-53184D01*
X29488Y-51574D02*
X29488Y-53016D01*
X29019Y-51106D02*
X29488Y-51574D01*
X28702Y-51106D02*
X29019Y-51106D01*
X28952Y-52338D02*
X28952Y-52649D01*
X28202Y-51588D02*
X28952Y-52338D01*
X28202Y-51106D02*
X28202Y-51588D01*
X27702Y-52399D02*
X27952Y-52649D01*
X27702Y-51106D02*
X27702Y-52399D01*
G54D27*
X30295Y-40393D02*
X30295Y-46988D01*
X30295Y-46988D02*
X29291Y-47992D01*
X29291Y-47992D02*
X29291Y-49987D01*
X29291Y-49987D02*
X28885Y-50393D01*
X31023Y-39015D02*
X30295Y-39744D01*
X30295Y-39744D02*
X30295Y-40393D01*
X25964Y-44763D02*
X26377Y-44763D01*
X26771Y-43307D02*
X26102Y-43307D01*
X25964Y-44763D02*
X25964Y-45826D01*
X29728Y-53333D02*
X29412Y-53649D01*
X29412Y-53649D02*
X28952Y-53649D01*
X29728Y-51236D02*
X29728Y-53333D01*
X28885Y-50393D02*
X29728Y-51236D01*
X27202Y-50711D02*
X27520Y-50393D01*
X27202Y-51106D02*
X27202Y-50711D01*
X25964Y-45826D02*
X25964Y-46358D01*
X26574Y-46968D02*
X26574Y-49330D01*
X25964Y-46358D02*
X26574Y-46968D01*
X27992Y-50384D02*
X28001Y-50393D01*
X27992Y-50078D02*
X27992Y-50384D01*
X28001Y-50393D02*
X28885Y-50393D01*
X27520Y-50393D02*
X28001Y-50393D01*
X31023Y-33031D02*
X31023Y-39015D01*
G54D28*
X28937Y-21653D02*
X28779Y-21496D01*
X28779Y-21496D02*
X28267Y-21496D01*
X28267Y-21496D02*
X27854Y-21496D01*
X28937Y-21653D02*
X29566Y-21653D01*
X29566Y-21653D02*
X30427Y-22513D01*
X30427Y-22513D02*
X30427Y-23248D01*
X28937Y-21653D02*
X28937Y-22952D01*
X28937Y-22952D02*
X28937Y-22952D01*
X27854Y-20314D02*
X27854Y-21496D01*
G54D27*
X25964Y-41889D02*
X25964Y-42381D01*
X25964Y-42381D02*
X26102Y-42519D01*
X26102Y-42519D02*
X26102Y-42933D01*
G54D30*
X26102Y-42933D02*
X25767Y-42933D01*
X25492Y-43681D02*
X25078Y-43681D01*
X25590Y-43582D02*
X25492Y-43681D01*
X25590Y-43110D02*
X25590Y-43582D01*
X25767Y-42933D02*
X25590Y-43110D01*
G54D31*
X28249Y-22834D02*
X28249Y-22834D01*
X28031Y-22834D02*
X28249Y-22834D01*
X28249Y-22834D02*
X28464Y-22834D01*
G54D28*
X28897Y-22834D02*
X29015Y-22952D01*
X28464Y-22834D02*
X28897Y-22834D01*
X30905Y-23248D02*
X30905Y-23248D01*
G54D27*
X29881Y-25236D02*
X29566Y-24921D01*
X29310Y-28327D02*
X29881Y-27755D01*
X25963Y-28327D02*
X29310Y-28327D01*
X25196Y-29094D02*
X25963Y-28327D01*
X25196Y-40275D02*
X25196Y-29094D01*
X29881Y-27755D02*
X29881Y-25236D01*
X25964Y-41043D02*
X25196Y-40275D01*
X25964Y-41889D02*
X25964Y-41043D01*
G54D28*
X30427Y-23248D02*
X30905Y-23248D01*
X29960Y-23248D02*
X30427Y-23248D01*
G54D30*
X29545Y-23248D02*
X29960Y-23248D01*
X29488Y-23305D02*
X29545Y-23248D01*
X29488Y-24842D02*
X29488Y-23305D01*
X29566Y-24921D02*
X29488Y-24842D01*
G54D28*
X26417Y-26771D02*
X26417Y-26363D01*
X26417Y-25980D02*
X26417Y-26363D01*
X27185Y-26771D02*
X26417Y-26771D01*
G54D29*
X26551Y-23855D02*
X26551Y-24330D01*
X25590Y-23622D02*
X26318Y-23622D01*
X26318Y-23622D02*
X26551Y-23855D01*
X26496Y-24430D02*
X26496Y-24386D01*
X26496Y-24386D02*
X26551Y-24330D01*
X26551Y-24330D02*
X26849Y-24330D01*
X25924Y-24645D02*
X26281Y-24645D01*
X26281Y-24645D02*
X26496Y-24430D01*
G54D30*
X31043Y-40393D02*
X31043Y-41397D01*
X31043Y-41397D02*
X31062Y-41417D01*
X27702Y-48106D02*
X27702Y-48450D01*
X27702Y-48450D02*
X28110Y-48858D01*
X30295Y-29704D02*
X30669Y-30078D01*
X30669Y-30078D02*
X30669Y-30393D01*
X30295Y-29704D02*
X30295Y-29291D01*
G54D28*
X27106Y-21496D02*
X27106Y-21991D01*
X27106Y-21991D02*
X27440Y-22325D01*
X27440Y-22325D02*
X27440Y-22697D01*
X27440Y-22697D02*
X27440Y-22874D01*
G54D32*
X25216Y-22578D02*
X26299Y-21496D01*
X26299Y-21496D02*
X27106Y-21496D01*
G54D28*
X27106Y-20314D02*
X27106Y-21496D01*
X27452Y-19291D02*
X27106Y-19637D01*
X27106Y-19637D02*
X27106Y-20314D01*
G54D33*
X27244Y-22677D02*
X27440Y-22874D01*
X27440Y-23188D02*
X27440Y-22874D01*
G54D30*
X27440Y-23188D02*
X27440Y-24212D01*
G54D27*
X25216Y-41143D02*
X25216Y-41889D01*
X24645Y-40572D02*
X25216Y-41143D01*
X24645Y-23802D02*
X24645Y-40572D01*
X25216Y-23231D02*
X24645Y-23802D01*
X25216Y-22755D02*
X25216Y-23231D01*
G54D31*
X25216Y-22755D02*
X25216Y-22578D01*
G54D28*
X28937Y-19775D02*
X28937Y-20314D01*
X28937Y-20314D02*
X28937Y-20314D01*
X28452Y-19291D02*
X28937Y-19775D01*
G54D34*
G36*
X31909Y-53337D02*
X31889Y-53541D01*
X31832Y-53728D01*
X31741Y-53901D01*
X31680Y-53976D01*
X31680Y-22690D01*
X31670Y-22640D01*
X31650Y-22592D01*
X31621Y-22549D01*
X31585Y-22513D01*
X31542Y-22484D01*
X31495Y-22464D01*
X31476Y-22460D01*
X31476Y-21181D01*
X31476Y-18290D01*
X31476Y-16456D01*
X31476Y-16456D01*
X31476Y-16455D01*
X31476Y-16448D01*
X31475Y-16440D01*
X31475Y-16432D01*
X31475Y-16429D01*
X31464Y-16330D01*
X31460Y-16314D01*
X31457Y-16299D01*
X31456Y-16296D01*
X31456Y-16296D01*
X31426Y-16201D01*
X31420Y-16186D01*
X31414Y-16171D01*
X31413Y-16169D01*
X31413Y-16169D01*
X31364Y-16082D01*
X31355Y-16068D01*
X31346Y-16055D01*
X31345Y-16053D01*
X31345Y-16053D01*
X31345Y-16053D01*
X31281Y-15977D01*
X31269Y-15965D01*
X31258Y-15954D01*
X31256Y-15952D01*
X31256Y-15952D01*
X31256Y-15952D01*
X31178Y-15890D01*
X31165Y-15881D01*
X31151Y-15872D01*
X31149Y-15871D01*
X31149Y-15871D01*
X31149Y-15871D01*
X31061Y-15825D01*
X31046Y-15819D01*
X31031Y-15812D01*
X31029Y-15812D01*
X31029Y-15812D01*
X31029Y-15812D01*
X30933Y-15783D01*
X30917Y-15780D01*
X30901Y-15777D01*
X30899Y-15777D01*
X30799Y-15768D01*
X30783Y-15768D01*
X30767Y-15768D01*
X30765Y-15768D01*
X30665Y-15779D01*
X30650Y-15782D01*
X30634Y-15785D01*
X30632Y-15786D01*
X30632Y-15786D01*
X30632Y-15786D01*
X30536Y-15815D01*
X30521Y-15821D01*
X30506Y-15827D01*
X30504Y-15829D01*
X30504Y-15829D01*
X30504Y-15829D01*
X30416Y-15876D01*
X30403Y-15885D01*
X30390Y-15894D01*
X30388Y-15895D01*
X30388Y-15895D01*
X30388Y-15895D01*
X30311Y-15959D01*
X30299Y-15970D01*
X30288Y-15982D01*
X30286Y-15984D01*
X30223Y-16061D01*
X30214Y-16074D01*
X30205Y-16088D01*
X30204Y-16090D01*
X30204Y-16090D01*
X30204Y-16090D01*
X30204Y-16090D01*
X30157Y-16178D01*
X30151Y-16193D01*
X30145Y-16208D01*
X30144Y-16210D01*
X30115Y-16306D01*
X30112Y-16321D01*
X30109Y-16337D01*
X30109Y-16339D01*
X30109Y-16339D01*
X30109Y-16339D01*
X30099Y-16439D01*
X30099Y-16446D01*
X30098Y-16454D01*
X30098Y-16456D01*
X30098Y-21181D01*
X30098Y-21181D01*
X30098Y-21182D01*
X30098Y-21189D01*
X30099Y-21197D01*
X30099Y-21205D01*
X30099Y-21207D01*
X30110Y-21307D01*
X30114Y-21322D01*
X30117Y-21338D01*
X30117Y-21341D01*
X30148Y-21436D01*
X30154Y-21451D01*
X30160Y-21465D01*
X30161Y-21468D01*
X30161Y-21468D01*
X30161Y-21468D01*
X30209Y-21555D01*
X30218Y-21568D01*
X30227Y-21582D01*
X30229Y-21584D01*
X30229Y-21584D01*
X30229Y-21584D01*
X30229Y-21584D01*
X30293Y-21660D01*
X30305Y-21671D01*
X30316Y-21683D01*
X30318Y-21684D01*
X30318Y-21684D01*
X30318Y-21684D01*
X30318Y-21684D01*
X30396Y-21747D01*
X30409Y-21756D01*
X30422Y-21765D01*
X30425Y-21766D01*
X30425Y-21766D01*
X30425Y-21766D01*
X30513Y-21812D01*
X30528Y-21818D01*
X30543Y-21824D01*
X30545Y-21825D01*
X30545Y-21825D01*
X30641Y-21853D01*
X30657Y-21856D01*
X30672Y-21860D01*
X30675Y-21860D01*
X30675Y-21860D01*
X30774Y-21869D01*
X30790Y-21869D01*
X30807Y-21869D01*
X30809Y-21869D01*
X30908Y-21858D01*
X30924Y-21855D01*
X30940Y-21852D01*
X30942Y-21851D01*
X30942Y-21851D01*
X30942Y-21851D01*
X30942Y-21851D01*
X31038Y-21822D01*
X31052Y-21815D01*
X31067Y-21809D01*
X31069Y-21808D01*
X31070Y-21808D01*
X31070Y-21808D01*
X31070Y-21808D01*
X31157Y-21761D01*
X31171Y-21752D01*
X31184Y-21743D01*
X31186Y-21741D01*
X31186Y-21741D01*
X31186Y-21741D01*
X31186Y-21741D01*
X31263Y-21678D01*
X31274Y-21666D01*
X31286Y-21655D01*
X31287Y-21653D01*
X31287Y-21653D01*
X31287Y-21653D01*
X31287Y-21653D01*
X31350Y-21576D01*
X31359Y-21562D01*
X31368Y-21549D01*
X31370Y-21547D01*
X31370Y-21547D01*
X31370Y-21547D01*
X31370Y-21547D01*
X31417Y-21459D01*
X31423Y-21444D01*
X31429Y-21429D01*
X31430Y-21427D01*
X31430Y-21427D01*
X31459Y-21331D01*
X31462Y-21315D01*
X31465Y-21300D01*
X31465Y-21297D01*
X31465Y-21297D01*
X31465Y-21297D01*
X31465Y-21297D01*
X31475Y-21198D01*
X31475Y-21191D01*
X31476Y-21183D01*
X31476Y-21181D01*
X31476Y-22460D01*
X31444Y-22453D01*
X31393Y-22453D01*
X31342Y-22463D01*
X31294Y-22482D01*
X31251Y-22510D01*
X31215Y-22546D01*
X31185Y-22589D01*
X31165Y-22636D01*
X31154Y-22687D01*
X31154Y-22738D01*
X31163Y-22789D01*
X31182Y-22837D01*
X31193Y-22854D01*
X31186Y-22854D01*
X30815Y-22854D01*
X30815Y-22513D01*
X30811Y-22478D01*
X30808Y-22442D01*
X30807Y-22440D01*
X30807Y-22438D01*
X30797Y-22404D01*
X30787Y-22369D01*
X30786Y-22368D01*
X30785Y-22366D01*
X30768Y-22334D01*
X30752Y-22302D01*
X30751Y-22301D01*
X30750Y-22299D01*
X30727Y-22271D01*
X30705Y-22243D01*
X30702Y-22240D01*
X30702Y-22240D01*
X30702Y-22240D01*
X30701Y-22239D01*
X29841Y-21379D01*
X29813Y-21356D01*
X29786Y-21333D01*
X29784Y-21332D01*
X29782Y-21331D01*
X29751Y-21314D01*
X29719Y-21297D01*
X29717Y-21296D01*
X29715Y-21295D01*
X29681Y-21285D01*
X29647Y-21274D01*
X29645Y-21273D01*
X29643Y-21273D01*
X29607Y-21269D01*
X29586Y-21267D01*
X29586Y-17519D01*
X29586Y-16456D01*
X29586Y-16456D01*
X29586Y-16455D01*
X29586Y-16448D01*
X29585Y-16440D01*
X29585Y-16432D01*
X29585Y-16429D01*
X29574Y-16330D01*
X29570Y-16314D01*
X29567Y-16299D01*
X29567Y-16296D01*
X29567Y-16296D01*
X29536Y-16201D01*
X29530Y-16186D01*
X29524Y-16171D01*
X29523Y-16169D01*
X29523Y-16169D01*
X29475Y-16082D01*
X29466Y-16068D01*
X29457Y-16055D01*
X29455Y-16053D01*
X29455Y-16053D01*
X29455Y-16053D01*
X29391Y-15977D01*
X29379Y-15965D01*
X29368Y-15954D01*
X29366Y-15952D01*
X29366Y-15952D01*
X29366Y-15952D01*
X29288Y-15890D01*
X29275Y-15881D01*
X29262Y-15872D01*
X29259Y-15871D01*
X29259Y-15871D01*
X29259Y-15871D01*
X29171Y-15825D01*
X29156Y-15819D01*
X29141Y-15812D01*
X29139Y-15812D01*
X29139Y-15812D01*
X29139Y-15812D01*
X29043Y-15783D01*
X29027Y-15780D01*
X29012Y-15777D01*
X29009Y-15777D01*
X28910Y-15768D01*
X28894Y-15768D01*
X28878Y-15768D01*
X28875Y-15768D01*
X28776Y-15779D01*
X28760Y-15782D01*
X28744Y-15785D01*
X28742Y-15786D01*
X28742Y-15786D01*
X28742Y-15786D01*
X28646Y-15815D01*
X28632Y-15821D01*
X28617Y-15827D01*
X28615Y-15829D01*
X28615Y-15829D01*
X28615Y-15829D01*
X28527Y-15876D01*
X28513Y-15885D01*
X28500Y-15894D01*
X28498Y-15895D01*
X28498Y-15895D01*
X28498Y-15895D01*
X28421Y-15959D01*
X28410Y-15970D01*
X28398Y-15982D01*
X28397Y-15984D01*
X28334Y-16061D01*
X28325Y-16074D01*
X28316Y-16088D01*
X28314Y-16090D01*
X28314Y-16090D01*
X28314Y-16090D01*
X28314Y-16090D01*
X28268Y-16178D01*
X28261Y-16193D01*
X28255Y-16208D01*
X28254Y-16210D01*
X28225Y-16306D01*
X28222Y-16321D01*
X28219Y-16337D01*
X28219Y-16339D01*
X28219Y-16339D01*
X28219Y-16339D01*
X28209Y-16439D01*
X28209Y-16446D01*
X28208Y-16454D01*
X28208Y-16456D01*
X28208Y-17519D01*
X28208Y-17519D01*
X28208Y-17520D01*
X28208Y-17528D01*
X28209Y-17536D01*
X28209Y-17544D01*
X28209Y-17546D01*
X28220Y-17645D01*
X28224Y-17661D01*
X28227Y-17677D01*
X28228Y-17679D01*
X28258Y-17774D01*
X28264Y-17789D01*
X28270Y-17804D01*
X28271Y-17806D01*
X28271Y-17806D01*
X28271Y-17806D01*
X28320Y-17894D01*
X28329Y-17907D01*
X28338Y-17920D01*
X28339Y-17922D01*
X28339Y-17922D01*
X28339Y-17922D01*
X28339Y-17922D01*
X28403Y-17999D01*
X28415Y-18010D01*
X28426Y-18021D01*
X28428Y-18023D01*
X28428Y-18023D01*
X28428Y-18023D01*
X28428Y-18023D01*
X28506Y-18086D01*
X28519Y-18094D01*
X28533Y-18103D01*
X28535Y-18104D01*
X28535Y-18104D01*
X28535Y-18104D01*
X28623Y-18151D01*
X28638Y-18157D01*
X28653Y-18163D01*
X28655Y-18164D01*
X28655Y-18164D01*
X28751Y-18192D01*
X28767Y-18195D01*
X28783Y-18198D01*
X28785Y-18198D01*
X28785Y-18198D01*
X28885Y-18207D01*
X28901Y-18207D01*
X28917Y-18207D01*
X28919Y-18207D01*
X29019Y-18197D01*
X29034Y-18194D01*
X29050Y-18190D01*
X29052Y-18190D01*
X29052Y-18190D01*
X29052Y-18190D01*
X29052Y-18190D01*
X29148Y-18160D01*
X29163Y-18154D01*
X29178Y-18148D01*
X29180Y-18147D01*
X29180Y-18147D01*
X29180Y-18147D01*
X29180Y-18147D01*
X29268Y-18099D01*
X29281Y-18090D01*
X29294Y-18082D01*
X29296Y-18080D01*
X29296Y-18080D01*
X29296Y-18080D01*
X29296Y-18080D01*
X29373Y-18016D01*
X29385Y-18005D01*
X29396Y-17994D01*
X29398Y-17992D01*
X29398Y-17992D01*
X29398Y-17992D01*
X29398Y-17992D01*
X29461Y-17914D01*
X29470Y-17901D01*
X29479Y-17888D01*
X29480Y-17886D01*
X29480Y-17886D01*
X29480Y-17886D01*
X29480Y-17886D01*
X29527Y-17797D01*
X29533Y-17783D01*
X29539Y-17768D01*
X29540Y-17765D01*
X29540Y-17765D01*
X29569Y-17670D01*
X29572Y-17654D01*
X29575Y-17638D01*
X29576Y-17636D01*
X29576Y-17636D01*
X29576Y-17636D01*
X29576Y-17636D01*
X29585Y-17536D01*
X29585Y-17529D01*
X29586Y-17522D01*
X29586Y-17519D01*
X29586Y-21267D01*
X29572Y-21265D01*
X29568Y-21265D01*
X29568Y-21265D01*
X29568Y-21265D01*
X29566Y-21265D01*
X29429Y-21265D01*
X29429Y-20682D01*
X29429Y-20655D01*
X29429Y-19947D01*
X29423Y-19920D01*
X29413Y-19895D01*
X29398Y-19872D01*
X29379Y-19853D01*
X29356Y-19838D01*
X29331Y-19828D01*
X29324Y-19826D01*
X29324Y-19775D01*
X29321Y-19739D01*
X29318Y-19704D01*
X29317Y-19702D01*
X29317Y-19700D01*
X29307Y-19665D01*
X29297Y-19631D01*
X29296Y-19629D01*
X29295Y-19627D01*
X29278Y-19596D01*
X29262Y-19564D01*
X29260Y-19562D01*
X29260Y-19560D01*
X29237Y-19533D01*
X29215Y-19505D01*
X29212Y-19502D01*
X29212Y-19502D01*
X29212Y-19502D01*
X29211Y-19501D01*
X28905Y-19195D01*
X28897Y-19156D01*
X28863Y-19073D01*
X28813Y-18997D01*
X28749Y-18933D01*
X28673Y-18882D01*
X28590Y-18847D01*
X28501Y-18828D01*
X28410Y-18828D01*
X28321Y-18845D01*
X28237Y-18879D01*
X28161Y-18928D01*
X28096Y-18992D01*
X28045Y-19067D01*
X28009Y-19150D01*
X27990Y-19239D01*
X27989Y-19330D01*
X28005Y-19419D01*
X28039Y-19503D01*
X28088Y-19580D01*
X28151Y-19645D01*
X28225Y-19697D01*
X28309Y-19733D01*
X28357Y-19744D01*
X28480Y-19867D01*
X28475Y-19872D01*
X28460Y-19895D01*
X28450Y-19920D01*
X28444Y-19947D01*
X28444Y-19974D01*
X28444Y-20682D01*
X28450Y-20709D01*
X28460Y-20734D01*
X28475Y-20757D01*
X28494Y-20776D01*
X28517Y-20791D01*
X28542Y-20801D01*
X28569Y-20807D01*
X28596Y-20807D01*
X29304Y-20807D01*
X29331Y-20801D01*
X29356Y-20791D01*
X29379Y-20776D01*
X29398Y-20757D01*
X29413Y-20734D01*
X29423Y-20709D01*
X29429Y-20682D01*
X29429Y-21265D01*
X29425Y-21265D01*
X29423Y-21259D01*
X29413Y-21233D01*
X29398Y-21211D01*
X29379Y-21192D01*
X29356Y-21177D01*
X29331Y-21166D01*
X29304Y-21161D01*
X29277Y-21161D01*
X28972Y-21161D01*
X28963Y-21156D01*
X28932Y-21139D01*
X28930Y-21139D01*
X28928Y-21138D01*
X28894Y-21127D01*
X28860Y-21116D01*
X28858Y-21116D01*
X28856Y-21115D01*
X28820Y-21112D01*
X28784Y-21108D01*
X28780Y-21108D01*
X28780Y-21108D01*
X28780Y-21108D01*
X28779Y-21108D01*
X28267Y-21108D01*
X28242Y-21108D01*
X28242Y-20650D01*
X28242Y-20650D01*
X28247Y-20623D01*
X28247Y-20596D01*
X28247Y-20006D01*
X28242Y-19979D01*
X28231Y-19954D01*
X28216Y-19932D01*
X28197Y-19912D01*
X28175Y-19897D01*
X28150Y-19887D01*
X28123Y-19882D01*
X28096Y-19882D01*
X27585Y-19882D01*
X27558Y-19887D01*
X27533Y-19897D01*
X27510Y-19912D01*
X27494Y-19929D01*
X27494Y-19798D01*
X27548Y-19744D01*
X27577Y-19739D01*
X27662Y-19706D01*
X27739Y-19657D01*
X27804Y-19595D01*
X27857Y-19521D01*
X27894Y-19438D01*
X27914Y-19349D01*
X27915Y-19245D01*
X27897Y-19156D01*
X27863Y-19073D01*
X27813Y-18997D01*
X27749Y-18933D01*
X27696Y-18897D01*
X27696Y-17519D01*
X27696Y-16456D01*
X27696Y-16456D01*
X27696Y-16455D01*
X27696Y-16448D01*
X27695Y-16440D01*
X27695Y-16432D01*
X27695Y-16429D01*
X27684Y-16330D01*
X27681Y-16314D01*
X27678Y-16299D01*
X27677Y-16296D01*
X27677Y-16296D01*
X27647Y-16201D01*
X27640Y-16186D01*
X27634Y-16171D01*
X27633Y-16169D01*
X27633Y-16169D01*
X27585Y-16082D01*
X27576Y-16068D01*
X27567Y-16055D01*
X27565Y-16053D01*
X27565Y-16053D01*
X27565Y-16053D01*
X27501Y-15977D01*
X27490Y-15965D01*
X27478Y-15954D01*
X27476Y-15952D01*
X27476Y-15952D01*
X27476Y-15952D01*
X27399Y-15890D01*
X27385Y-15881D01*
X27372Y-15872D01*
X27370Y-15871D01*
X27370Y-15871D01*
X27370Y-15871D01*
X27281Y-15825D01*
X27266Y-15819D01*
X27251Y-15812D01*
X27249Y-15812D01*
X27249Y-15812D01*
X27249Y-15812D01*
X27153Y-15783D01*
X27138Y-15780D01*
X27122Y-15777D01*
X27119Y-15777D01*
X27020Y-15768D01*
X27004Y-15768D01*
X26988Y-15768D01*
X26985Y-15768D01*
X26886Y-15779D01*
X26870Y-15782D01*
X26854Y-15785D01*
X26852Y-15786D01*
X26852Y-15786D01*
X26852Y-15786D01*
X26757Y-15815D01*
X26742Y-15821D01*
X26727Y-15827D01*
X26725Y-15829D01*
X26725Y-15829D01*
X26725Y-15829D01*
X26637Y-15876D01*
X26624Y-15885D01*
X26610Y-15894D01*
X26608Y-15895D01*
X26608Y-15895D01*
X26608Y-15895D01*
X26531Y-15959D01*
X26520Y-15970D01*
X26508Y-15982D01*
X26507Y-15984D01*
X26444Y-16061D01*
X26435Y-16074D01*
X26426Y-16088D01*
X26425Y-16090D01*
X26425Y-16090D01*
X26425Y-16090D01*
X26425Y-16090D01*
X26378Y-16178D01*
X26372Y-16193D01*
X26365Y-16208D01*
X26365Y-16210D01*
X26336Y-16306D01*
X26333Y-16321D01*
X26329Y-16337D01*
X26329Y-16339D01*
X26329Y-16339D01*
X26329Y-16339D01*
X26319Y-16439D01*
X26319Y-16446D01*
X26318Y-16454D01*
X26318Y-16456D01*
X26318Y-17519D01*
X26318Y-17519D01*
X26318Y-17520D01*
X26318Y-17528D01*
X26319Y-17536D01*
X26319Y-17544D01*
X26320Y-17546D01*
X26331Y-17645D01*
X26334Y-17661D01*
X26337Y-17677D01*
X26338Y-17679D01*
X26368Y-17774D01*
X26374Y-17789D01*
X26381Y-17804D01*
X26382Y-17806D01*
X26382Y-17806D01*
X26382Y-17806D01*
X26430Y-17894D01*
X26439Y-17907D01*
X26448Y-17920D01*
X26449Y-17922D01*
X26449Y-17922D01*
X26449Y-17922D01*
X26449Y-17922D01*
X26514Y-17999D01*
X26525Y-18010D01*
X26536Y-18021D01*
X26538Y-18023D01*
X26538Y-18023D01*
X26538Y-18023D01*
X26538Y-18023D01*
X26616Y-18086D01*
X26630Y-18094D01*
X26643Y-18103D01*
X26645Y-18104D01*
X26645Y-18104D01*
X26645Y-18104D01*
X26734Y-18151D01*
X26748Y-18157D01*
X26763Y-18163D01*
X26766Y-18164D01*
X26766Y-18164D01*
X26861Y-18192D01*
X26877Y-18195D01*
X26893Y-18198D01*
X26895Y-18198D01*
X26895Y-18198D01*
X26995Y-18207D01*
X27011Y-18207D01*
X27027Y-18207D01*
X27029Y-18207D01*
X27129Y-18197D01*
X27145Y-18194D01*
X27160Y-18190D01*
X27163Y-18190D01*
X27163Y-18190D01*
X27163Y-18190D01*
X27163Y-18190D01*
X27258Y-18160D01*
X27273Y-18154D01*
X27288Y-18148D01*
X27290Y-18147D01*
X27290Y-18147D01*
X27290Y-18147D01*
X27290Y-18147D01*
X27378Y-18099D01*
X27391Y-18090D01*
X27405Y-18082D01*
X27407Y-18080D01*
X27407Y-18080D01*
X27407Y-18080D01*
X27407Y-18080D01*
X27483Y-18016D01*
X27495Y-18005D01*
X27506Y-17994D01*
X27508Y-17992D01*
X27508Y-17992D01*
X27508Y-17992D01*
X27508Y-17992D01*
X27571Y-17914D01*
X27580Y-17901D01*
X27589Y-17888D01*
X27590Y-17886D01*
X27590Y-17886D01*
X27590Y-17886D01*
X27590Y-17886D01*
X27637Y-17797D01*
X27643Y-17783D01*
X27649Y-17768D01*
X27650Y-17765D01*
X27650Y-17765D01*
X27679Y-17670D01*
X27682Y-17654D01*
X27685Y-17638D01*
X27686Y-17636D01*
X27686Y-17636D01*
X27686Y-17636D01*
X27686Y-17636D01*
X27696Y-17536D01*
X27696Y-17529D01*
X27696Y-17522D01*
X27696Y-17519D01*
X27696Y-18897D01*
X27673Y-18882D01*
X27590Y-18847D01*
X27501Y-18828D01*
X27410Y-18828D01*
X27321Y-18845D01*
X27237Y-18879D01*
X27161Y-18928D01*
X27096Y-18992D01*
X27045Y-19067D01*
X27009Y-19150D01*
X26999Y-19195D01*
X26832Y-19363D01*
X26809Y-19391D01*
X26786Y-19418D01*
X26785Y-19420D01*
X26784Y-19422D01*
X26767Y-19453D01*
X26749Y-19485D01*
X26749Y-19486D01*
X26748Y-19488D01*
X26737Y-19523D01*
X26726Y-19557D01*
X26726Y-19559D01*
X26726Y-19561D01*
X26722Y-19596D01*
X26718Y-19632D01*
X26718Y-19636D01*
X26718Y-19636D01*
X26718Y-19636D01*
X26718Y-19637D01*
X26718Y-19979D01*
X26718Y-19979D01*
X26713Y-20006D01*
X26713Y-20033D01*
X26713Y-20623D01*
X26718Y-20650D01*
X26718Y-20650D01*
X26718Y-21158D01*
X26299Y-21158D01*
X26268Y-21161D01*
X26237Y-21164D01*
X26235Y-21164D01*
X26233Y-21164D01*
X26203Y-21173D01*
X26173Y-21182D01*
X26172Y-21183D01*
X26170Y-21183D01*
X26142Y-21198D01*
X26115Y-21212D01*
X26113Y-21213D01*
X26112Y-21214D01*
X26088Y-21234D01*
X26063Y-21253D01*
X26061Y-21256D01*
X26061Y-21256D01*
X26061Y-21256D01*
X26060Y-21257D01*
X25807Y-21510D01*
X25807Y-21181D01*
X25807Y-16456D01*
X25807Y-16456D01*
X25807Y-16455D01*
X25807Y-16448D01*
X25806Y-16440D01*
X25806Y-16432D01*
X25805Y-16429D01*
X25794Y-16330D01*
X25791Y-16314D01*
X25788Y-16299D01*
X25787Y-16296D01*
X25787Y-16296D01*
X25757Y-16201D01*
X25751Y-16186D01*
X25744Y-16171D01*
X25743Y-16169D01*
X25743Y-16169D01*
X25695Y-16082D01*
X25686Y-16068D01*
X25677Y-16055D01*
X25676Y-16053D01*
X25676Y-16053D01*
X25676Y-16053D01*
X25611Y-15977D01*
X25600Y-15965D01*
X25589Y-15954D01*
X25587Y-15952D01*
X25587Y-15952D01*
X25587Y-15952D01*
X25509Y-15890D01*
X25495Y-15881D01*
X25482Y-15872D01*
X25480Y-15871D01*
X25480Y-15871D01*
X25480Y-15871D01*
X25391Y-15825D01*
X25377Y-15819D01*
X25362Y-15812D01*
X25359Y-15812D01*
X25359Y-15812D01*
X25359Y-15812D01*
X25264Y-15783D01*
X25248Y-15780D01*
X25232Y-15777D01*
X25230Y-15777D01*
X25130Y-15768D01*
X25114Y-15768D01*
X25098Y-15768D01*
X25096Y-15768D01*
X24996Y-15779D01*
X24980Y-15782D01*
X24965Y-15785D01*
X24962Y-15786D01*
X24962Y-15786D01*
X24962Y-15786D01*
X24867Y-15815D01*
X24852Y-15821D01*
X24837Y-15827D01*
X24835Y-15829D01*
X24835Y-15829D01*
X24835Y-15829D01*
X24747Y-15876D01*
X24734Y-15885D01*
X24720Y-15894D01*
X24718Y-15895D01*
X24718Y-15895D01*
X24718Y-15895D01*
X24642Y-15959D01*
X24630Y-15970D01*
X24619Y-15982D01*
X24617Y-15984D01*
X24554Y-16061D01*
X24545Y-16074D01*
X24536Y-16088D01*
X24535Y-16090D01*
X24535Y-16090D01*
X24535Y-16090D01*
X24535Y-16090D01*
X24488Y-16178D01*
X24482Y-16193D01*
X24476Y-16208D01*
X24475Y-16210D01*
X24446Y-16306D01*
X24443Y-16321D01*
X24439Y-16337D01*
X24439Y-16339D01*
X24439Y-16339D01*
X24439Y-16339D01*
X24429Y-16439D01*
X24429Y-16446D01*
X24429Y-16454D01*
X24429Y-16456D01*
X24429Y-21181D01*
X24429Y-21181D01*
X24429Y-21182D01*
X24429Y-21189D01*
X24430Y-21197D01*
X24430Y-21205D01*
X24430Y-21207D01*
X24441Y-21307D01*
X24444Y-21322D01*
X24447Y-21338D01*
X24448Y-21341D01*
X24478Y-21436D01*
X24485Y-21451D01*
X24491Y-21465D01*
X24492Y-21468D01*
X24492Y-21468D01*
X24492Y-21468D01*
X24540Y-21555D01*
X24549Y-21568D01*
X24558Y-21582D01*
X24560Y-21584D01*
X24560Y-21584D01*
X24560Y-21584D01*
X24560Y-21584D01*
X24624Y-21660D01*
X24635Y-21671D01*
X24647Y-21683D01*
X24649Y-21684D01*
X24649Y-21684D01*
X24649Y-21684D01*
X24649Y-21684D01*
X24726Y-21747D01*
X24740Y-21756D01*
X24753Y-21765D01*
X24755Y-21766D01*
X24755Y-21766D01*
X24755Y-21766D01*
X24844Y-21812D01*
X24859Y-21818D01*
X24873Y-21824D01*
X24876Y-21825D01*
X24876Y-21825D01*
X24972Y-21853D01*
X24987Y-21856D01*
X25003Y-21860D01*
X25006Y-21860D01*
X25006Y-21860D01*
X25105Y-21869D01*
X25121Y-21869D01*
X25137Y-21869D01*
X25140Y-21869D01*
X25239Y-21858D01*
X25255Y-21855D01*
X25271Y-21852D01*
X25273Y-21851D01*
X25273Y-21851D01*
X25273Y-21851D01*
X25273Y-21851D01*
X25368Y-21822D01*
X25383Y-21815D01*
X25398Y-21809D01*
X25400Y-21808D01*
X25400Y-21808D01*
X25400Y-21808D01*
X25400Y-21808D01*
X25488Y-21761D01*
X25501Y-21752D01*
X25515Y-21743D01*
X25517Y-21741D01*
X25517Y-21741D01*
X25517Y-21741D01*
X25517Y-21741D01*
X25594Y-21678D01*
X25605Y-21666D01*
X25616Y-21655D01*
X25618Y-21653D01*
X25618Y-21653D01*
X25618Y-21653D01*
X25618Y-21653D01*
X25681Y-21576D01*
X25690Y-21562D01*
X25699Y-21549D01*
X25700Y-21547D01*
X25700Y-21547D01*
X25700Y-21547D01*
X25700Y-21547D01*
X25747Y-21459D01*
X25753Y-21444D01*
X25760Y-21429D01*
X25760Y-21427D01*
X25760Y-21427D01*
X25789Y-21331D01*
X25792Y-21315D01*
X25796Y-21300D01*
X25796Y-21297D01*
X25796Y-21297D01*
X25796Y-21297D01*
X25796Y-21297D01*
X25806Y-21198D01*
X25806Y-21191D01*
X25807Y-21183D01*
X25807Y-21181D01*
X25807Y-21510D01*
X24977Y-22339D01*
X24966Y-22353D01*
X24954Y-22358D01*
X24931Y-22373D01*
X24912Y-22392D01*
X24897Y-22415D01*
X24887Y-22440D01*
X24881Y-22466D01*
X24881Y-22493D01*
X24881Y-22546D01*
X24878Y-22577D01*
X24881Y-22610D01*
X24881Y-23045D01*
X24887Y-23071D01*
X24897Y-23096D01*
X24912Y-23119D01*
X24931Y-23138D01*
X24954Y-23153D01*
X24957Y-23154D01*
X24477Y-23634D01*
X24463Y-23651D01*
X24449Y-23668D01*
X24448Y-23669D01*
X24448Y-23670D01*
X24437Y-23689D01*
X24427Y-23708D01*
X24426Y-23709D01*
X24426Y-23710D01*
X24419Y-23731D01*
X24413Y-23752D01*
X24412Y-23754D01*
X24412Y-23755D01*
X24410Y-23777D01*
X24407Y-23799D01*
X24407Y-23801D01*
X24407Y-23801D01*
X24407Y-23801D01*
X24407Y-23802D01*
X24407Y-40572D01*
X24410Y-40594D01*
X24411Y-40615D01*
X24412Y-40617D01*
X24412Y-40618D01*
X24418Y-40639D01*
X24424Y-40660D01*
X24425Y-40661D01*
X24425Y-40662D01*
X24436Y-40682D01*
X24446Y-40701D01*
X24447Y-40702D01*
X24447Y-40703D01*
X24461Y-40720D01*
X24475Y-40738D01*
X24476Y-40739D01*
X24476Y-40739D01*
X24476Y-40739D01*
X24477Y-40740D01*
X24683Y-40946D01*
X24680Y-40947D01*
X24637Y-40975D01*
X24600Y-41011D01*
X24571Y-41053D01*
X24551Y-41101D01*
X24540Y-41151D01*
X24540Y-41163D01*
X24206Y-41498D01*
X24194Y-41512D01*
X24183Y-41526D01*
X24182Y-41527D01*
X24181Y-41527D01*
X24173Y-41544D01*
X24164Y-41560D01*
X24164Y-41561D01*
X24163Y-41561D01*
X24158Y-41579D01*
X24152Y-41596D01*
X24152Y-41597D01*
X24152Y-41598D01*
X24150Y-41617D01*
X24148Y-41635D01*
X24148Y-41637D01*
X24148Y-41637D01*
X24148Y-41637D01*
X24148Y-41637D01*
X24148Y-46275D01*
X24150Y-46293D01*
X24151Y-46311D01*
X24152Y-46312D01*
X24152Y-46313D01*
X24157Y-46331D01*
X24162Y-46348D01*
X24163Y-46349D01*
X24163Y-46350D01*
X24172Y-46366D01*
X24180Y-46383D01*
X24181Y-46383D01*
X24181Y-46384D01*
X24193Y-46399D01*
X24204Y-46413D01*
X24205Y-46414D01*
X24205Y-46414D01*
X24205Y-46414D01*
X24206Y-46415D01*
X25293Y-47502D01*
X25307Y-47513D01*
X25321Y-47525D01*
X25322Y-47525D01*
X25323Y-47526D01*
X25339Y-47535D01*
X25355Y-47544D01*
X25356Y-47544D01*
X25357Y-47544D01*
X25374Y-47550D01*
X25391Y-47555D01*
X25392Y-47555D01*
X25393Y-47556D01*
X25412Y-47557D01*
X25430Y-47559D01*
X25432Y-47559D01*
X25432Y-47559D01*
X25432Y-47559D01*
X25433Y-47560D01*
X25613Y-47560D01*
X25616Y-47563D01*
X25658Y-47592D01*
X25705Y-47613D01*
X25756Y-47624D01*
X25807Y-47625D01*
X25858Y-47616D01*
X25906Y-47597D01*
X25949Y-47570D01*
X25987Y-47534D01*
X26017Y-47492D01*
X26037Y-47445D01*
X26049Y-47395D01*
X26050Y-47336D01*
X26040Y-47285D01*
X26020Y-47238D01*
X25992Y-47195D01*
X25955Y-47158D01*
X25912Y-47129D01*
X25865Y-47109D01*
X25815Y-47099D01*
X25763Y-47099D01*
X25712Y-47108D01*
X25665Y-47128D01*
X25621Y-47156D01*
X25613Y-47164D01*
X25515Y-47164D01*
X25177Y-46826D01*
X25177Y-46239D01*
X25177Y-45866D01*
X25177Y-45787D01*
X25177Y-45413D01*
X25177Y-45176D01*
X25177Y-44803D01*
X25177Y-44724D01*
X25177Y-44350D01*
X25137Y-44311D01*
X24945Y-44311D01*
X24915Y-44317D01*
X24886Y-44329D01*
X24860Y-44346D01*
X24838Y-44368D01*
X24821Y-44394D01*
X24809Y-44422D01*
X24803Y-44453D01*
X24803Y-44484D01*
X24803Y-44685D01*
X24842Y-44724D01*
X25177Y-44724D01*
X25177Y-44803D01*
X24842Y-44803D01*
X24803Y-44842D01*
X24803Y-45043D01*
X24803Y-45074D01*
X24809Y-45104D01*
X24821Y-45133D01*
X24838Y-45159D01*
X24860Y-45181D01*
X24886Y-45198D01*
X24915Y-45210D01*
X24945Y-45216D01*
X25137Y-45216D01*
X25177Y-45176D01*
X25177Y-45413D01*
X25137Y-45374D01*
X24945Y-45374D01*
X24915Y-45380D01*
X24886Y-45392D01*
X24860Y-45409D01*
X24838Y-45431D01*
X24821Y-45457D01*
X24809Y-45485D01*
X24803Y-45516D01*
X24803Y-45547D01*
X24803Y-45748D01*
X24842Y-45787D01*
X25177Y-45787D01*
X25177Y-45866D01*
X24842Y-45866D01*
X24803Y-45905D01*
X24803Y-46106D01*
X24803Y-46137D01*
X24809Y-46167D01*
X24821Y-46196D01*
X24838Y-46222D01*
X24860Y-46244D01*
X24886Y-46261D01*
X24915Y-46273D01*
X24945Y-46279D01*
X25137Y-46279D01*
X25177Y-46239D01*
X25177Y-46826D01*
X24544Y-46193D01*
X24544Y-42078D01*
X24550Y-42088D01*
X24572Y-42110D01*
X24598Y-42127D01*
X24626Y-42139D01*
X24657Y-42145D01*
X24692Y-42145D01*
X24719Y-42118D01*
X24732Y-42122D01*
X24768Y-42126D01*
X24771Y-42126D01*
X24823Y-42126D01*
X24823Y-42198D01*
X24828Y-42224D01*
X24838Y-42250D01*
X24854Y-42272D01*
X24873Y-42291D01*
X24895Y-42306D01*
X24920Y-42317D01*
X24947Y-42322D01*
X24974Y-42322D01*
X25485Y-42322D01*
X25512Y-42317D01*
X25537Y-42306D01*
X25559Y-42291D01*
X25579Y-42272D01*
X25590Y-42255D01*
X25602Y-42272D01*
X25621Y-42291D01*
X25643Y-42306D01*
X25668Y-42317D01*
X25695Y-42322D01*
X25722Y-42322D01*
X25726Y-42322D01*
X25726Y-42381D01*
X25728Y-42403D01*
X25730Y-42425D01*
X25731Y-42426D01*
X25731Y-42428D01*
X25737Y-42449D01*
X25743Y-42470D01*
X25744Y-42471D01*
X25744Y-42472D01*
X25755Y-42491D01*
X25765Y-42511D01*
X25765Y-42512D01*
X25766Y-42513D01*
X25780Y-42530D01*
X25794Y-42547D01*
X25795Y-42549D01*
X25795Y-42549D01*
X25795Y-42549D01*
X25796Y-42550D01*
X25864Y-42618D01*
X25864Y-42667D01*
X25842Y-42667D01*
X25816Y-42672D01*
X25791Y-42683D01*
X25768Y-42698D01*
X25749Y-42717D01*
X25735Y-42738D01*
X25731Y-42738D01*
X25730Y-42738D01*
X25729Y-42739D01*
X25711Y-42744D01*
X25694Y-42749D01*
X25693Y-42749D01*
X25692Y-42750D01*
X25676Y-42758D01*
X25659Y-42767D01*
X25659Y-42767D01*
X25658Y-42768D01*
X25644Y-42779D01*
X25629Y-42791D01*
X25628Y-42792D01*
X25628Y-42792D01*
X25628Y-42792D01*
X25627Y-42793D01*
X25462Y-42958D01*
X25462Y-42791D01*
X25457Y-42764D01*
X25446Y-42739D01*
X25431Y-42717D01*
X25412Y-42698D01*
X25390Y-42683D01*
X25364Y-42672D01*
X25338Y-42667D01*
X25311Y-42667D01*
X24819Y-42667D01*
X24792Y-42672D01*
X24767Y-42683D01*
X24744Y-42698D01*
X24725Y-42717D01*
X24710Y-42739D01*
X24700Y-42764D01*
X24694Y-42791D01*
X24694Y-42818D01*
X24694Y-43074D01*
X24699Y-43095D01*
X24693Y-43104D01*
X24681Y-43133D01*
X24675Y-43163D01*
X24675Y-43228D01*
X24714Y-43267D01*
X25039Y-43267D01*
X25039Y-43259D01*
X25118Y-43259D01*
X25118Y-43267D01*
X25125Y-43267D01*
X25125Y-43346D01*
X25118Y-43346D01*
X25118Y-43354D01*
X25039Y-43354D01*
X25039Y-43346D01*
X24714Y-43346D01*
X24675Y-43385D01*
X24675Y-43450D01*
X24681Y-43480D01*
X24693Y-43509D01*
X24699Y-43518D01*
X24694Y-43539D01*
X24694Y-43566D01*
X24694Y-43822D01*
X24700Y-43849D01*
X24710Y-43874D01*
X24725Y-43896D01*
X24744Y-43916D01*
X24767Y-43931D01*
X24792Y-43941D01*
X24819Y-43946D01*
X24846Y-43946D01*
X25338Y-43946D01*
X25364Y-43941D01*
X25390Y-43931D01*
X25412Y-43916D01*
X25431Y-43896D01*
X25443Y-43878D01*
X25492Y-43878D01*
X25510Y-43877D01*
X25528Y-43875D01*
X25529Y-43875D01*
X25530Y-43875D01*
X25548Y-43869D01*
X25565Y-43864D01*
X25566Y-43864D01*
X25567Y-43863D01*
X25583Y-43855D01*
X25599Y-43846D01*
X25600Y-43846D01*
X25601Y-43845D01*
X25615Y-43834D01*
X25630Y-43822D01*
X25631Y-43821D01*
X25631Y-43821D01*
X25631Y-43821D01*
X25631Y-43820D01*
X25718Y-43734D01*
X25718Y-43822D01*
X25723Y-43849D01*
X25734Y-43874D01*
X25749Y-43896D01*
X25768Y-43916D01*
X25791Y-43931D01*
X25816Y-43941D01*
X25842Y-43946D01*
X25869Y-43946D01*
X26361Y-43946D01*
X26388Y-43941D01*
X26413Y-43931D01*
X26436Y-43916D01*
X26455Y-43896D01*
X26470Y-43874D01*
X26480Y-43849D01*
X26486Y-43822D01*
X26486Y-43795D01*
X26486Y-43544D01*
X26659Y-43544D01*
X26690Y-43558D01*
X26740Y-43569D01*
X26791Y-43570D01*
X26842Y-43561D01*
X26890Y-43542D01*
X26934Y-43515D01*
X26971Y-43479D01*
X27001Y-43437D01*
X27022Y-43390D01*
X27033Y-43340D01*
X27034Y-43281D01*
X27024Y-43230D01*
X27004Y-43183D01*
X26976Y-43140D01*
X26939Y-43103D01*
X26897Y-43074D01*
X26849Y-43054D01*
X26799Y-43044D01*
X26747Y-43044D01*
X26697Y-43053D01*
X26658Y-43069D01*
X26486Y-43069D01*
X26486Y-43047D01*
X26486Y-42791D01*
X26480Y-42764D01*
X26470Y-42739D01*
X26455Y-42717D01*
X26436Y-42698D01*
X26413Y-42683D01*
X26388Y-42672D01*
X26361Y-42667D01*
X26340Y-42667D01*
X26340Y-42519D01*
X26338Y-42497D01*
X26336Y-42475D01*
X26335Y-42474D01*
X26335Y-42473D01*
X26329Y-42452D01*
X26323Y-42431D01*
X26322Y-42430D01*
X26322Y-42429D01*
X26311Y-42409D01*
X26301Y-42390D01*
X26301Y-42389D01*
X26300Y-42388D01*
X26286Y-42371D01*
X26272Y-42353D01*
X26271Y-42352D01*
X26271Y-42352D01*
X26271Y-42352D01*
X26270Y-42351D01*
X26240Y-42321D01*
X26260Y-42317D01*
X26285Y-42306D01*
X26307Y-42291D01*
X26327Y-42272D01*
X26342Y-42250D01*
X26352Y-42224D01*
X26357Y-42198D01*
X26357Y-42171D01*
X26357Y-41581D01*
X26352Y-41554D01*
X26342Y-41529D01*
X26327Y-41506D01*
X26307Y-41487D01*
X26285Y-41472D01*
X26260Y-41462D01*
X26233Y-41456D01*
X26206Y-41456D01*
X26202Y-41456D01*
X26202Y-41043D01*
X26200Y-41021D01*
X26198Y-40999D01*
X26197Y-40998D01*
X26197Y-40997D01*
X26191Y-40976D01*
X26185Y-40955D01*
X26184Y-40953D01*
X26184Y-40952D01*
X26174Y-40933D01*
X26163Y-40913D01*
X26163Y-40912D01*
X26162Y-40911D01*
X26148Y-40894D01*
X26135Y-40877D01*
X26133Y-40875D01*
X26133Y-40875D01*
X26133Y-40875D01*
X26132Y-40875D01*
X25434Y-40177D01*
X25434Y-29192D01*
X26062Y-28565D01*
X29250Y-28565D01*
X27678Y-30137D01*
X27655Y-30164D01*
X27632Y-30192D01*
X27631Y-30193D01*
X27630Y-30195D01*
X27613Y-30227D01*
X27596Y-30258D01*
X27595Y-30260D01*
X27594Y-30262D01*
X27584Y-30296D01*
X27573Y-30330D01*
X27573Y-30332D01*
X27572Y-30334D01*
X27568Y-30370D01*
X27564Y-30405D01*
X27564Y-30409D01*
X27564Y-30409D01*
X27564Y-30409D01*
X27564Y-30411D01*
X27564Y-46029D01*
X27371Y-46029D01*
X27295Y-46036D01*
X27223Y-46058D01*
X27156Y-46094D01*
X27097Y-46142D01*
X27049Y-46200D01*
X27013Y-46267D01*
X26991Y-46339D01*
X26983Y-46414D01*
X26990Y-46489D01*
X27011Y-46562D01*
X27046Y-46629D01*
X27094Y-46688D01*
X27152Y-46737D01*
X27218Y-46773D01*
X27290Y-46796D01*
X27365Y-46805D01*
X27371Y-46805D01*
X27670Y-46805D01*
X27952Y-46805D01*
X27989Y-46801D01*
X28025Y-46798D01*
X28026Y-46797D01*
X28028Y-46797D01*
X28063Y-46787D01*
X28098Y-46776D01*
X28099Y-46776D01*
X28100Y-46775D01*
X28132Y-46758D01*
X28165Y-46741D01*
X28166Y-46740D01*
X28167Y-46740D01*
X28195Y-46717D01*
X28224Y-46694D01*
X28224Y-46693D01*
X28226Y-46692D01*
X28249Y-46664D01*
X28272Y-46636D01*
X28273Y-46635D01*
X28274Y-46634D01*
X28291Y-46602D01*
X28309Y-46570D01*
X28309Y-46568D01*
X28310Y-46567D01*
X28321Y-46532D01*
X28332Y-46497D01*
X28332Y-46496D01*
X28332Y-46495D01*
X28336Y-46458D01*
X28340Y-46422D01*
X28340Y-46420D01*
X28340Y-46420D01*
X28340Y-46419D01*
X28340Y-46417D01*
X28340Y-30571D01*
X29901Y-29010D01*
X29901Y-29599D01*
X29907Y-29626D01*
X29917Y-29651D01*
X29932Y-29674D01*
X29951Y-29693D01*
X29974Y-29708D01*
X29999Y-29718D01*
X30026Y-29724D01*
X30053Y-29724D01*
X30099Y-29724D01*
X30100Y-29741D01*
X30101Y-29742D01*
X30101Y-29743D01*
X30106Y-29760D01*
X30111Y-29778D01*
X30112Y-29779D01*
X30112Y-29780D01*
X30121Y-29796D01*
X30129Y-29812D01*
X30130Y-29813D01*
X30130Y-29814D01*
X30142Y-29828D01*
X30153Y-29842D01*
X30154Y-29844D01*
X30154Y-29844D01*
X30154Y-29844D01*
X30155Y-29844D01*
X30471Y-30160D01*
X30471Y-30219D01*
X30467Y-30223D01*
X30437Y-30266D01*
X30417Y-30313D01*
X30406Y-30364D01*
X30406Y-30415D01*
X30415Y-30466D01*
X30434Y-30514D01*
X30462Y-30557D01*
X30498Y-30594D01*
X30540Y-30624D01*
X30587Y-30644D01*
X30638Y-30655D01*
X30689Y-30656D01*
X30740Y-30648D01*
X30788Y-30629D01*
X30831Y-30601D01*
X30869Y-30566D01*
X30898Y-30524D01*
X30919Y-30477D01*
X30931Y-30426D01*
X30932Y-30367D01*
X30922Y-30317D01*
X30902Y-30269D01*
X30873Y-30226D01*
X30867Y-30219D01*
X30867Y-30078D01*
X30865Y-30060D01*
X30863Y-30042D01*
X30863Y-30041D01*
X30863Y-30040D01*
X30858Y-30022D01*
X30852Y-30005D01*
X30852Y-30004D01*
X30852Y-30003D01*
X30843Y-29987D01*
X30835Y-29971D01*
X30834Y-29970D01*
X30834Y-29969D01*
X30822Y-29955D01*
X30811Y-29940D01*
X30809Y-29939D01*
X30809Y-29939D01*
X30809Y-29939D01*
X30809Y-29938D01*
X30589Y-29719D01*
X30590Y-29718D01*
X30616Y-29708D01*
X30638Y-29693D01*
X30657Y-29674D01*
X30665Y-29686D01*
X30687Y-29708D01*
X30713Y-29725D01*
X30741Y-29737D01*
X30772Y-29743D01*
X30964Y-29743D01*
X31003Y-29704D01*
X31003Y-29330D01*
X30996Y-29330D01*
X30996Y-29251D01*
X31003Y-29251D01*
X31003Y-28878D01*
X30964Y-28838D01*
X30772Y-28838D01*
X30741Y-28844D01*
X30713Y-28856D01*
X30687Y-28874D01*
X30665Y-28895D01*
X30657Y-28908D01*
X30638Y-28889D01*
X30616Y-28874D01*
X30590Y-28863D01*
X30564Y-28858D01*
X30537Y-28858D01*
X30053Y-28858D01*
X30707Y-28205D01*
X30729Y-28177D01*
X30753Y-28150D01*
X30753Y-28148D01*
X30755Y-28146D01*
X30772Y-28115D01*
X30789Y-28083D01*
X30790Y-28081D01*
X30791Y-28080D01*
X30801Y-28045D01*
X30812Y-28011D01*
X30812Y-28009D01*
X30813Y-28007D01*
X30816Y-27971D01*
X30820Y-27936D01*
X30820Y-27932D01*
X30820Y-27932D01*
X30820Y-27932D01*
X30820Y-27930D01*
X30820Y-24389D01*
X31214Y-24389D01*
X31240Y-24384D01*
X31265Y-24373D01*
X31288Y-24358D01*
X31307Y-24339D01*
X31322Y-24316D01*
X31333Y-24291D01*
X31338Y-24265D01*
X31338Y-24237D01*
X31338Y-23882D01*
X31557Y-23663D01*
X31568Y-23649D01*
X31580Y-23635D01*
X31581Y-23634D01*
X31581Y-23633D01*
X31590Y-23617D01*
X31599Y-23601D01*
X31599Y-23600D01*
X31599Y-23599D01*
X31605Y-23582D01*
X31610Y-23564D01*
X31610Y-23563D01*
X31611Y-23562D01*
X31613Y-23544D01*
X31615Y-23526D01*
X31615Y-23524D01*
X31615Y-23524D01*
X31615Y-23524D01*
X31615Y-23523D01*
X31615Y-22893D01*
X31615Y-22891D01*
X31617Y-22889D01*
X31646Y-22846D01*
X31667Y-22799D01*
X31679Y-22749D01*
X31680Y-22690D01*
X31680Y-53976D01*
X31617Y-54053D01*
X31476Y-54169D01*
X31476Y-53228D01*
X31476Y-48502D01*
X31476Y-48502D01*
X31476Y-48495D01*
X31475Y-48487D01*
X31475Y-48479D01*
X31475Y-48477D01*
X31464Y-48377D01*
X31460Y-48362D01*
X31457Y-48346D01*
X31456Y-48343D01*
X31456Y-48343D01*
X31456Y-48341D01*
X31456Y-29601D01*
X31456Y-29570D01*
X31456Y-29370D01*
X31456Y-29212D01*
X31456Y-29011D01*
X31456Y-28980D01*
X31450Y-28950D01*
X31438Y-28921D01*
X31421Y-28895D01*
X31399Y-28874D01*
X31373Y-28856D01*
X31344Y-28844D01*
X31314Y-28838D01*
X31122Y-28838D01*
X31082Y-28878D01*
X31082Y-29251D01*
X31416Y-29251D01*
X31456Y-29212D01*
X31456Y-29370D01*
X31416Y-29330D01*
X31082Y-29330D01*
X31082Y-29704D01*
X31122Y-29743D01*
X31314Y-29743D01*
X31344Y-29737D01*
X31373Y-29725D01*
X31399Y-29708D01*
X31421Y-29686D01*
X31438Y-29660D01*
X31450Y-29632D01*
X31456Y-29601D01*
X31456Y-48341D01*
X31436Y-48279D01*
X31436Y-40702D01*
X31436Y-40675D01*
X31436Y-40085D01*
X31431Y-40058D01*
X31420Y-40033D01*
X31405Y-40010D01*
X31386Y-39991D01*
X31364Y-39976D01*
X31338Y-39966D01*
X31312Y-39960D01*
X31285Y-39960D01*
X30774Y-39960D01*
X30747Y-39966D01*
X30722Y-39976D01*
X30699Y-39991D01*
X30680Y-40010D01*
X30669Y-40028D01*
X30657Y-40010D01*
X30638Y-39991D01*
X30616Y-39976D01*
X30590Y-39966D01*
X30564Y-39960D01*
X30537Y-39960D01*
X30533Y-39960D01*
X30533Y-39842D01*
X31191Y-39183D01*
X31205Y-39166D01*
X31219Y-39150D01*
X31220Y-39148D01*
X31221Y-39148D01*
X31231Y-39128D01*
X31242Y-39109D01*
X31242Y-39108D01*
X31243Y-39107D01*
X31249Y-39086D01*
X31256Y-39065D01*
X31256Y-39063D01*
X31256Y-39062D01*
X31258Y-39040D01*
X31261Y-39019D01*
X31261Y-39016D01*
X31261Y-39016D01*
X31261Y-39016D01*
X31261Y-39015D01*
X31261Y-33143D01*
X31274Y-33114D01*
X31285Y-33064D01*
X31286Y-33005D01*
X31276Y-32955D01*
X31256Y-32907D01*
X31228Y-32864D01*
X31191Y-32828D01*
X31149Y-32799D01*
X31101Y-32779D01*
X31051Y-32768D01*
X30999Y-32768D01*
X30949Y-32778D01*
X30901Y-32797D01*
X30858Y-32825D01*
X30821Y-32861D01*
X30792Y-32904D01*
X30771Y-32951D01*
X30761Y-33002D01*
X30760Y-33053D01*
X30769Y-33104D01*
X30785Y-33144D01*
X30785Y-38917D01*
X30127Y-39575D01*
X30113Y-39592D01*
X30099Y-39609D01*
X30098Y-39610D01*
X30097Y-39611D01*
X30087Y-39631D01*
X30076Y-39650D01*
X30076Y-39651D01*
X30075Y-39652D01*
X30069Y-39673D01*
X30062Y-39694D01*
X30062Y-39695D01*
X30062Y-39697D01*
X30059Y-39718D01*
X30057Y-39740D01*
X30057Y-39743D01*
X30057Y-39743D01*
X30057Y-39743D01*
X30057Y-39744D01*
X30057Y-39960D01*
X30026Y-39960D01*
X29999Y-39966D01*
X29974Y-39976D01*
X29951Y-39991D01*
X29932Y-40010D01*
X29917Y-40033D01*
X29907Y-40058D01*
X29901Y-40085D01*
X29901Y-40112D01*
X29901Y-40702D01*
X29907Y-40728D01*
X29917Y-40753D01*
X29932Y-40776D01*
X29951Y-40795D01*
X29974Y-40810D01*
X29999Y-40821D01*
X30026Y-40826D01*
X30053Y-40826D01*
X30057Y-40826D01*
X30057Y-46889D01*
X29123Y-47823D01*
X29109Y-47840D01*
X29095Y-47857D01*
X29094Y-47858D01*
X29093Y-47859D01*
X29083Y-47879D01*
X29072Y-47898D01*
X29072Y-47899D01*
X29071Y-47900D01*
X29065Y-47921D01*
X29058Y-47942D01*
X29058Y-47943D01*
X29058Y-47945D01*
X29056Y-47966D01*
X29053Y-47988D01*
X29053Y-47991D01*
X29053Y-47991D01*
X29053Y-47991D01*
X29053Y-47992D01*
X29053Y-49888D01*
X28998Y-49944D01*
X28998Y-48554D01*
X28998Y-48523D01*
X28998Y-48185D01*
X28998Y-48027D01*
X28998Y-47688D01*
X28998Y-47657D01*
X28991Y-47627D01*
X28980Y-47598D01*
X28962Y-47572D01*
X28940Y-47550D01*
X28915Y-47533D01*
X28886Y-47521D01*
X28856Y-47515D01*
X28781Y-47515D01*
X28742Y-47555D01*
X28742Y-48066D01*
X28958Y-48066D01*
X28998Y-48027D01*
X28998Y-48185D01*
X28958Y-48145D01*
X28742Y-48145D01*
X28742Y-48657D01*
X28781Y-48696D01*
X28856Y-48696D01*
X28886Y-48690D01*
X28915Y-48678D01*
X28940Y-48661D01*
X28962Y-48639D01*
X28980Y-48613D01*
X28991Y-48585D01*
X28998Y-48554D01*
X28998Y-49944D01*
X28786Y-50155D01*
X28663Y-50155D01*
X28663Y-48657D01*
X28663Y-48145D01*
X28655Y-48145D01*
X28655Y-48066D01*
X28663Y-48066D01*
X28663Y-47555D01*
X28624Y-47515D01*
X28549Y-47515D01*
X28519Y-47521D01*
X28490Y-47533D01*
X28464Y-47550D01*
X28442Y-47572D01*
X28439Y-47577D01*
X28428Y-47566D01*
X28405Y-47551D01*
X28400Y-47548D01*
X28400Y-47494D01*
X28398Y-47475D01*
X28397Y-47457D01*
X28396Y-47456D01*
X28396Y-47455D01*
X28391Y-47438D01*
X28386Y-47420D01*
X28385Y-47419D01*
X28385Y-47418D01*
X28377Y-47402D01*
X28368Y-47386D01*
X28367Y-47385D01*
X28367Y-47384D01*
X28355Y-47370D01*
X28344Y-47356D01*
X28343Y-47354D01*
X28343Y-47354D01*
X28343Y-47354D01*
X28342Y-47354D01*
X28210Y-47222D01*
X28196Y-47210D01*
X28182Y-47199D01*
X28181Y-47198D01*
X28180Y-47197D01*
X28164Y-47189D01*
X28148Y-47180D01*
X28147Y-47180D01*
X28146Y-47179D01*
X28129Y-47174D01*
X28111Y-47168D01*
X28110Y-47168D01*
X28109Y-47168D01*
X28091Y-47166D01*
X28073Y-47164D01*
X28071Y-47164D01*
X28071Y-47164D01*
X28071Y-47164D01*
X28070Y-47164D01*
X27969Y-47164D01*
X27963Y-47158D01*
X27920Y-47129D01*
X27873Y-47109D01*
X27822Y-47099D01*
X27771Y-47099D01*
X27720Y-47108D01*
X27672Y-47128D01*
X27629Y-47156D01*
X27592Y-47192D01*
X27563Y-47234D01*
X27543Y-47282D01*
X27532Y-47332D01*
X27532Y-47384D01*
X27541Y-47434D01*
X27560Y-47482D01*
X27588Y-47526D01*
X27597Y-47535D01*
X27551Y-47535D01*
X27524Y-47540D01*
X27499Y-47551D01*
X27477Y-47566D01*
X27457Y-47585D01*
X27452Y-47593D01*
X27447Y-47585D01*
X27428Y-47566D01*
X27405Y-47551D01*
X27380Y-47540D01*
X27354Y-47535D01*
X27326Y-47535D01*
X27051Y-47535D01*
X27024Y-47540D01*
X26999Y-47551D01*
X26977Y-47566D01*
X26957Y-47585D01*
X26942Y-47607D01*
X26932Y-47633D01*
X26927Y-47659D01*
X26927Y-47686D01*
X26927Y-48552D01*
X26932Y-48579D01*
X26942Y-48604D01*
X26957Y-48627D01*
X26977Y-48646D01*
X26999Y-48661D01*
X27024Y-48671D01*
X27028Y-48672D01*
X27036Y-48688D01*
X27037Y-48689D01*
X27038Y-48690D01*
X27049Y-48704D01*
X27060Y-48718D01*
X27062Y-48720D01*
X27062Y-48720D01*
X27062Y-48720D01*
X27062Y-48720D01*
X27335Y-48993D01*
X27335Y-48998D01*
X27344Y-49049D01*
X27363Y-49097D01*
X27391Y-49140D01*
X27427Y-49177D01*
X27469Y-49206D01*
X27516Y-49227D01*
X27567Y-49238D01*
X27618Y-49239D01*
X27669Y-49230D01*
X27717Y-49212D01*
X27761Y-49184D01*
X27798Y-49148D01*
X27828Y-49106D01*
X27848Y-49059D01*
X27860Y-49009D01*
X27861Y-48950D01*
X27858Y-48935D01*
X27875Y-48978D01*
X27903Y-49022D01*
X27939Y-49059D01*
X27981Y-49088D01*
X28028Y-49109D01*
X28078Y-49120D01*
X28130Y-49121D01*
X28181Y-49112D01*
X28229Y-49093D01*
X28272Y-49066D01*
X28310Y-49030D01*
X28339Y-48988D01*
X28360Y-48941D01*
X28372Y-48891D01*
X28373Y-48832D01*
X28363Y-48781D01*
X28343Y-48734D01*
X28314Y-48691D01*
X28300Y-48677D01*
X28354Y-48677D01*
X28380Y-48671D01*
X28405Y-48661D01*
X28428Y-48646D01*
X28439Y-48635D01*
X28442Y-48639D01*
X28464Y-48661D01*
X28490Y-48678D01*
X28519Y-48690D01*
X28549Y-48696D01*
X28624Y-48696D01*
X28663Y-48657D01*
X28663Y-50155D01*
X28244Y-50155D01*
X28254Y-50111D01*
X28254Y-50052D01*
X28244Y-50002D01*
X28225Y-49954D01*
X28208Y-49928D01*
X28229Y-49920D01*
X28272Y-49893D01*
X28310Y-49857D01*
X28339Y-49815D01*
X28360Y-49768D01*
X28372Y-49718D01*
X28373Y-49659D01*
X28363Y-49608D01*
X28343Y-49561D01*
X28314Y-49518D01*
X28278Y-49481D01*
X28235Y-49452D01*
X28188Y-49432D01*
X28137Y-49422D01*
X28086Y-49422D01*
X28035Y-49431D01*
X27987Y-49451D01*
X27944Y-49479D01*
X27936Y-49487D01*
X27801Y-49487D01*
X27782Y-49489D01*
X27764Y-49490D01*
X27763Y-49490D01*
X27762Y-49491D01*
X27745Y-49496D01*
X27727Y-49501D01*
X27726Y-49501D01*
X27725Y-49502D01*
X27709Y-49510D01*
X27693Y-49519D01*
X27692Y-49519D01*
X27691Y-49520D01*
X27677Y-49531D01*
X27663Y-49543D01*
X27661Y-49544D01*
X27661Y-49544D01*
X27661Y-49544D01*
X27661Y-49545D01*
X26837Y-50368D01*
X26837Y-49304D01*
X26827Y-49254D01*
X26812Y-49217D01*
X26812Y-46968D01*
X26810Y-46946D01*
X26808Y-46924D01*
X26808Y-46923D01*
X26808Y-46922D01*
X26801Y-46901D01*
X26795Y-46880D01*
X26795Y-46879D01*
X26794Y-46877D01*
X26784Y-46858D01*
X26774Y-46838D01*
X26773Y-46838D01*
X26772Y-46836D01*
X26758Y-46819D01*
X26745Y-46802D01*
X26743Y-46800D01*
X26743Y-46800D01*
X26743Y-46800D01*
X26742Y-46800D01*
X26202Y-46259D01*
X26202Y-46259D01*
X26233Y-46259D01*
X26260Y-46254D01*
X26285Y-46243D01*
X26307Y-46228D01*
X26327Y-46209D01*
X26342Y-46187D01*
X26352Y-46161D01*
X26357Y-46135D01*
X26357Y-46108D01*
X26357Y-45518D01*
X26352Y-45491D01*
X26342Y-45466D01*
X26327Y-45443D01*
X26307Y-45424D01*
X26285Y-45409D01*
X26260Y-45399D01*
X26233Y-45393D01*
X26206Y-45393D01*
X26202Y-45393D01*
X26202Y-45196D01*
X26233Y-45196D01*
X26260Y-45191D01*
X26285Y-45180D01*
X26307Y-45165D01*
X26327Y-45146D01*
X26342Y-45124D01*
X26352Y-45098D01*
X26357Y-45072D01*
X26357Y-45045D01*
X26357Y-45026D01*
X26398Y-45027D01*
X26448Y-45018D01*
X26497Y-44999D01*
X26540Y-44971D01*
X26577Y-44936D01*
X26607Y-44894D01*
X26628Y-44847D01*
X26639Y-44796D01*
X26640Y-44738D01*
X26630Y-44687D01*
X26611Y-44639D01*
X26582Y-44596D01*
X26546Y-44560D01*
X26503Y-44531D01*
X26456Y-44511D01*
X26405Y-44501D01*
X26357Y-44500D01*
X26357Y-44455D01*
X26352Y-44428D01*
X26342Y-44403D01*
X26327Y-44380D01*
X26307Y-44361D01*
X26285Y-44346D01*
X26260Y-44336D01*
X26233Y-44330D01*
X26206Y-44330D01*
X25695Y-44330D01*
X25668Y-44336D01*
X25643Y-44346D01*
X25621Y-44361D01*
X25602Y-44380D01*
X25594Y-44368D01*
X25572Y-44346D01*
X25546Y-44329D01*
X25517Y-44317D01*
X25487Y-44311D01*
X25295Y-44311D01*
X25255Y-44350D01*
X25255Y-44724D01*
X25263Y-44724D01*
X25263Y-44803D01*
X25255Y-44803D01*
X25255Y-45176D01*
X25295Y-45216D01*
X25487Y-45216D01*
X25517Y-45210D01*
X25546Y-45198D01*
X25572Y-45181D01*
X25594Y-45159D01*
X25602Y-45147D01*
X25621Y-45165D01*
X25643Y-45180D01*
X25668Y-45191D01*
X25695Y-45196D01*
X25722Y-45196D01*
X25726Y-45196D01*
X25726Y-45393D01*
X25695Y-45393D01*
X25668Y-45399D01*
X25643Y-45409D01*
X25621Y-45424D01*
X25602Y-45443D01*
X25594Y-45431D01*
X25572Y-45409D01*
X25546Y-45392D01*
X25517Y-45380D01*
X25487Y-45374D01*
X25295Y-45374D01*
X25255Y-45413D01*
X25255Y-45787D01*
X25263Y-45787D01*
X25263Y-45866D01*
X25255Y-45866D01*
X25255Y-46239D01*
X25295Y-46279D01*
X25487Y-46279D01*
X25517Y-46273D01*
X25546Y-46261D01*
X25572Y-46244D01*
X25594Y-46222D01*
X25602Y-46210D01*
X25621Y-46228D01*
X25643Y-46243D01*
X25668Y-46254D01*
X25695Y-46259D01*
X25722Y-46259D01*
X25726Y-46259D01*
X25726Y-46358D01*
X25728Y-46380D01*
X25730Y-46401D01*
X25731Y-46403D01*
X25731Y-46404D01*
X25737Y-46425D01*
X25743Y-46446D01*
X25744Y-46447D01*
X25744Y-46448D01*
X25755Y-46468D01*
X25765Y-46487D01*
X25765Y-46488D01*
X25766Y-46489D01*
X25780Y-46506D01*
X25794Y-46524D01*
X25795Y-46525D01*
X25795Y-46525D01*
X25795Y-46525D01*
X25796Y-46526D01*
X26337Y-47067D01*
X26337Y-49218D01*
X26323Y-49250D01*
X26312Y-49301D01*
X26311Y-49352D01*
X26320Y-49403D01*
X26339Y-49451D01*
X26367Y-49494D01*
X26403Y-49531D01*
X26445Y-49561D01*
X26493Y-49581D01*
X26543Y-49592D01*
X26595Y-49593D01*
X26645Y-49585D01*
X26693Y-49566D01*
X26737Y-49538D01*
X26774Y-49503D01*
X26804Y-49461D01*
X26825Y-49414D01*
X26836Y-49363D01*
X26837Y-49304D01*
X26837Y-50368D01*
X26710Y-50495D01*
X26698Y-50510D01*
X26687Y-50524D01*
X26686Y-50524D01*
X26686Y-50525D01*
X26677Y-50541D01*
X26668Y-50557D01*
X26668Y-50558D01*
X26667Y-50559D01*
X26662Y-50577D01*
X26656Y-50594D01*
X26656Y-50595D01*
X26656Y-50596D01*
X26654Y-50614D01*
X26652Y-50633D01*
X26652Y-50635D01*
X26652Y-50635D01*
X26652Y-50635D01*
X26652Y-50635D01*
X26652Y-52087D01*
X26654Y-52105D01*
X26654Y-52106D01*
X26437Y-52106D01*
X26437Y-54192D01*
X29507Y-54192D01*
X29507Y-53866D01*
X29522Y-53859D01*
X29541Y-53849D01*
X29542Y-53848D01*
X29543Y-53847D01*
X29560Y-53833D01*
X29578Y-53820D01*
X29579Y-53818D01*
X29579Y-53818D01*
X29579Y-53818D01*
X29580Y-53817D01*
X29896Y-53501D01*
X29910Y-53484D01*
X29924Y-53468D01*
X29925Y-53467D01*
X29925Y-53466D01*
X29936Y-53446D01*
X29946Y-53427D01*
X29947Y-53426D01*
X29947Y-53425D01*
X29954Y-53404D01*
X29960Y-53383D01*
X29960Y-53381D01*
X29961Y-53380D01*
X29963Y-53358D01*
X29965Y-53337D01*
X29965Y-53334D01*
X29965Y-53334D01*
X29965Y-53334D01*
X29965Y-53333D01*
X29965Y-51236D01*
X29963Y-51215D01*
X29961Y-51193D01*
X29961Y-51191D01*
X29961Y-51190D01*
X29955Y-51169D01*
X29948Y-51148D01*
X29948Y-51147D01*
X29948Y-51146D01*
X29937Y-51126D01*
X29927Y-51107D01*
X29926Y-51106D01*
X29926Y-51105D01*
X29912Y-51088D01*
X29898Y-51071D01*
X29896Y-51069D01*
X29896Y-51069D01*
X29896Y-51069D01*
X29896Y-51068D01*
X29221Y-50393D01*
X29459Y-50155D01*
X29473Y-50138D01*
X29487Y-50121D01*
X29488Y-50120D01*
X29488Y-50119D01*
X29499Y-50100D01*
X29509Y-50081D01*
X29510Y-50079D01*
X29510Y-50078D01*
X29517Y-50057D01*
X29523Y-50036D01*
X29524Y-50035D01*
X29524Y-50034D01*
X29526Y-50012D01*
X29529Y-49990D01*
X29529Y-49988D01*
X29529Y-49988D01*
X29529Y-49988D01*
X29529Y-49987D01*
X29529Y-48090D01*
X30463Y-47156D01*
X30477Y-47139D01*
X30491Y-47122D01*
X30492Y-47121D01*
X30492Y-47120D01*
X30503Y-47101D01*
X30513Y-47081D01*
X30514Y-47080D01*
X30514Y-47079D01*
X30521Y-47058D01*
X30527Y-47037D01*
X30528Y-47036D01*
X30528Y-47035D01*
X30530Y-47013D01*
X30533Y-46991D01*
X30533Y-46989D01*
X30533Y-46989D01*
X30533Y-46988D01*
X30533Y-46988D01*
X30533Y-40826D01*
X30564Y-40826D01*
X30590Y-40821D01*
X30616Y-40810D01*
X30638Y-40795D01*
X30657Y-40776D01*
X30669Y-40759D01*
X30680Y-40776D01*
X30699Y-40795D01*
X30722Y-40810D01*
X30747Y-40821D01*
X30774Y-40826D01*
X30801Y-40826D01*
X30845Y-40826D01*
X30845Y-41269D01*
X30831Y-41290D01*
X30811Y-41337D01*
X30800Y-41387D01*
X30799Y-41439D01*
X30809Y-41490D01*
X30828Y-41538D01*
X30856Y-41581D01*
X30891Y-41618D01*
X30934Y-41647D01*
X30981Y-41668D01*
X31031Y-41679D01*
X31083Y-41680D01*
X31134Y-41671D01*
X31182Y-41653D01*
X31225Y-41625D01*
X31262Y-41589D01*
X31292Y-41547D01*
X31313Y-41500D01*
X31324Y-41450D01*
X31325Y-41391D01*
X31315Y-41340D01*
X31296Y-41293D01*
X31267Y-41250D01*
X31241Y-41223D01*
X31241Y-40826D01*
X31312Y-40826D01*
X31338Y-40821D01*
X31364Y-40810D01*
X31386Y-40795D01*
X31405Y-40776D01*
X31420Y-40753D01*
X31431Y-40728D01*
X31436Y-40702D01*
X31436Y-48279D01*
X31426Y-48248D01*
X31420Y-48233D01*
X31414Y-48219D01*
X31413Y-48216D01*
X31413Y-48216D01*
X31364Y-48129D01*
X31355Y-48116D01*
X31346Y-48102D01*
X31345Y-48100D01*
X31345Y-48100D01*
X31345Y-48100D01*
X31281Y-48024D01*
X31269Y-48013D01*
X31258Y-48001D01*
X31256Y-48000D01*
X31256Y-48000D01*
X31256Y-48000D01*
X31178Y-47937D01*
X31165Y-47928D01*
X31151Y-47919D01*
X31149Y-47918D01*
X31149Y-47918D01*
X31149Y-47918D01*
X31061Y-47872D01*
X31046Y-47866D01*
X31031Y-47860D01*
X31029Y-47859D01*
X31029Y-47859D01*
X31029Y-47859D01*
X30933Y-47831D01*
X30917Y-47828D01*
X30901Y-47824D01*
X30899Y-47824D01*
X30799Y-47815D01*
X30783Y-47815D01*
X30767Y-47815D01*
X30765Y-47815D01*
X30665Y-47826D01*
X30650Y-47829D01*
X30634Y-47832D01*
X30632Y-47833D01*
X30632Y-47833D01*
X30632Y-47833D01*
X30536Y-47862D01*
X30521Y-47869D01*
X30506Y-47875D01*
X30504Y-47876D01*
X30504Y-47876D01*
X30504Y-47876D01*
X30416Y-47923D01*
X30403Y-47932D01*
X30390Y-47941D01*
X30388Y-47943D01*
X30388Y-47943D01*
X30388Y-47943D01*
X30311Y-48006D01*
X30299Y-48018D01*
X30288Y-48029D01*
X30286Y-48031D01*
X30223Y-48108D01*
X30214Y-48122D01*
X30205Y-48135D01*
X30204Y-48137D01*
X30204Y-48137D01*
X30204Y-48137D01*
X30204Y-48137D01*
X30157Y-48225D01*
X30151Y-48240D01*
X30145Y-48255D01*
X30144Y-48257D01*
X30115Y-48353D01*
X30112Y-48369D01*
X30109Y-48384D01*
X30109Y-48387D01*
X30109Y-48387D01*
X30109Y-48387D01*
X30099Y-48486D01*
X30099Y-48493D01*
X30098Y-48501D01*
X30098Y-48503D01*
X30098Y-53228D01*
X30098Y-53228D01*
X30098Y-53229D01*
X30098Y-53236D01*
X30099Y-53244D01*
X30099Y-53252D01*
X30099Y-53255D01*
X30110Y-53354D01*
X30114Y-53370D01*
X30117Y-53385D01*
X30117Y-53388D01*
X30148Y-53483D01*
X30154Y-53498D01*
X30160Y-53513D01*
X30161Y-53515D01*
X30161Y-53515D01*
X30161Y-53515D01*
X30209Y-53602D01*
X30218Y-53616D01*
X30227Y-53629D01*
X30229Y-53631D01*
X30229Y-53631D01*
X30229Y-53631D01*
X30229Y-53631D01*
X30293Y-53707D01*
X30305Y-53719D01*
X30316Y-53730D01*
X30318Y-53732D01*
X30318Y-53732D01*
X30318Y-53732D01*
X30318Y-53732D01*
X30396Y-53794D01*
X30409Y-53803D01*
X30422Y-53812D01*
X30425Y-53813D01*
X30425Y-53813D01*
X30425Y-53813D01*
X30513Y-53859D01*
X30528Y-53865D01*
X30543Y-53872D01*
X30545Y-53872D01*
X30545Y-53872D01*
X30641Y-53901D01*
X30657Y-53904D01*
X30672Y-53907D01*
X30675Y-53907D01*
X30675Y-53907D01*
X30774Y-53916D01*
X30790Y-53916D01*
X30807Y-53916D01*
X30809Y-53916D01*
X30908Y-53905D01*
X30924Y-53902D01*
X30940Y-53899D01*
X30942Y-53898D01*
X30942Y-53898D01*
X30942Y-53898D01*
X30942Y-53898D01*
X31038Y-53869D01*
X31052Y-53863D01*
X31067Y-53857D01*
X31069Y-53856D01*
X31070Y-53856D01*
X31070Y-53856D01*
X31070Y-53856D01*
X31157Y-53808D01*
X31171Y-53799D01*
X31184Y-53790D01*
X31186Y-53789D01*
X31186Y-53789D01*
X31186Y-53789D01*
X31186Y-53789D01*
X31263Y-53725D01*
X31274Y-53714D01*
X31286Y-53702D01*
X31287Y-53700D01*
X31287Y-53700D01*
X31287Y-53700D01*
X31287Y-53700D01*
X31350Y-53623D01*
X31359Y-53610D01*
X31368Y-53596D01*
X31370Y-53594D01*
X31370Y-53594D01*
X31370Y-53594D01*
X31370Y-53594D01*
X31417Y-53506D01*
X31423Y-53491D01*
X31429Y-53476D01*
X31430Y-53474D01*
X31430Y-53474D01*
X31459Y-53378D01*
X31462Y-53363D01*
X31465Y-53347D01*
X31465Y-53345D01*
X31465Y-53345D01*
X31465Y-53345D01*
X31465Y-53345D01*
X31475Y-53245D01*
X31475Y-53238D01*
X31476Y-53230D01*
X31476Y-53228D01*
X31476Y-54169D01*
X31466Y-54178D01*
X31294Y-54271D01*
X31107Y-54329D01*
X30904Y-54350D01*
X25807Y-54350D01*
X25807Y-53228D01*
X25807Y-48503D01*
X25807Y-48503D01*
X25807Y-48502D01*
X25807Y-48495D01*
X25806Y-48487D01*
X25806Y-48479D01*
X25805Y-48477D01*
X25794Y-48377D01*
X25791Y-48362D01*
X25788Y-48346D01*
X25787Y-48343D01*
X25787Y-48343D01*
X25757Y-48248D01*
X25751Y-48233D01*
X25744Y-48219D01*
X25743Y-48216D01*
X25743Y-48216D01*
X25695Y-48129D01*
X25686Y-48116D01*
X25677Y-48102D01*
X25676Y-48100D01*
X25676Y-48100D01*
X25676Y-48100D01*
X25611Y-48024D01*
X25600Y-48013D01*
X25589Y-48001D01*
X25587Y-48000D01*
X25587Y-48000D01*
X25587Y-48000D01*
X25509Y-47937D01*
X25495Y-47928D01*
X25482Y-47919D01*
X25480Y-47918D01*
X25480Y-47918D01*
X25480Y-47918D01*
X25391Y-47872D01*
X25377Y-47866D01*
X25362Y-47860D01*
X25359Y-47859D01*
X25359Y-47859D01*
X25359Y-47859D01*
X25264Y-47831D01*
X25248Y-47828D01*
X25232Y-47824D01*
X25230Y-47824D01*
X25130Y-47815D01*
X25114Y-47815D01*
X25098Y-47815D01*
X25096Y-47815D01*
X24996Y-47826D01*
X24980Y-47829D01*
X24965Y-47832D01*
X24962Y-47833D01*
X24962Y-47833D01*
X24962Y-47833D01*
X24867Y-47862D01*
X24852Y-47869D01*
X24837Y-47875D01*
X24835Y-47876D01*
X24835Y-47876D01*
X24835Y-47876D01*
X24747Y-47923D01*
X24734Y-47932D01*
X24720Y-47941D01*
X24718Y-47943D01*
X24718Y-47943D01*
X24718Y-47943D01*
X24642Y-48006D01*
X24630Y-48018D01*
X24619Y-48029D01*
X24617Y-48031D01*
X24554Y-48108D01*
X24545Y-48122D01*
X24536Y-48135D01*
X24535Y-48137D01*
X24535Y-48137D01*
X24535Y-48137D01*
X24535Y-48137D01*
X24488Y-48225D01*
X24482Y-48240D01*
X24476Y-48255D01*
X24475Y-48257D01*
X24446Y-48353D01*
X24443Y-48369D01*
X24439Y-48384D01*
X24439Y-48387D01*
X24439Y-48387D01*
X24439Y-48387D01*
X24429Y-48486D01*
X24429Y-48493D01*
X24429Y-48500D01*
X24429Y-48503D01*
X24429Y-53228D01*
X24429Y-53228D01*
X24429Y-53229D01*
X24429Y-53236D01*
X24430Y-53244D01*
X24430Y-53252D01*
X24430Y-53255D01*
X24441Y-53354D01*
X24444Y-53370D01*
X24447Y-53385D01*
X24448Y-53388D01*
X24478Y-53483D01*
X24485Y-53498D01*
X24491Y-53513D01*
X24492Y-53515D01*
X24492Y-53515D01*
X24492Y-53515D01*
X24540Y-53602D01*
X24549Y-53616D01*
X24558Y-53629D01*
X24560Y-53631D01*
X24560Y-53631D01*
X24560Y-53631D01*
X24560Y-53631D01*
X24624Y-53707D01*
X24635Y-53719D01*
X24647Y-53730D01*
X24649Y-53732D01*
X24649Y-53732D01*
X24649Y-53732D01*
X24649Y-53732D01*
X24726Y-53794D01*
X24740Y-53803D01*
X24753Y-53812D01*
X24755Y-53813D01*
X24755Y-53813D01*
X24755Y-53813D01*
X24844Y-53859D01*
X24859Y-53865D01*
X24873Y-53872D01*
X24876Y-53872D01*
X24876Y-53872D01*
X24972Y-53901D01*
X24987Y-53904D01*
X25003Y-53907D01*
X25006Y-53907D01*
X25006Y-53907D01*
X25105Y-53916D01*
X25121Y-53916D01*
X25137Y-53916D01*
X25140Y-53916D01*
X25239Y-53905D01*
X25255Y-53902D01*
X25271Y-53899D01*
X25273Y-53898D01*
X25273Y-53898D01*
X25273Y-53898D01*
X25273Y-53898D01*
X25368Y-53869D01*
X25383Y-53863D01*
X25398Y-53857D01*
X25400Y-53856D01*
X25400Y-53856D01*
X25400Y-53856D01*
X25400Y-53856D01*
X25488Y-53808D01*
X25501Y-53799D01*
X25515Y-53790D01*
X25517Y-53789D01*
X25517Y-53789D01*
X25517Y-53789D01*
X25517Y-53789D01*
X25594Y-53725D01*
X25605Y-53714D01*
X25616Y-53702D01*
X25618Y-53700D01*
X25618Y-53700D01*
X25618Y-53700D01*
X25618Y-53700D01*
X25681Y-53623D01*
X25690Y-53610D01*
X25699Y-53596D01*
X25700Y-53594D01*
X25700Y-53594D01*
X25700Y-53594D01*
X25700Y-53594D01*
X25747Y-53506D01*
X25753Y-53491D01*
X25760Y-53476D01*
X25760Y-53474D01*
X25760Y-53474D01*
X25789Y-53378D01*
X25792Y-53363D01*
X25796Y-53347D01*
X25796Y-53345D01*
X25796Y-53345D01*
X25796Y-53345D01*
X25796Y-53345D01*
X25806Y-53245D01*
X25806Y-53238D01*
X25807Y-53230D01*
X25807Y-53228D01*
X25807Y-54350D01*
X25008Y-54350D01*
X24805Y-54330D01*
X24617Y-54273D01*
X24444Y-54181D01*
X24293Y-54058D01*
X24168Y-53907D01*
X24075Y-53735D01*
X24017Y-53548D01*
X23996Y-53345D01*
X23996Y-16347D01*
X24016Y-16143D01*
X24072Y-15956D01*
X24164Y-15783D01*
X24288Y-15631D01*
X24439Y-15506D01*
X24611Y-15413D01*
X24798Y-15355D01*
X25001Y-15334D01*
X30896Y-15334D01*
X31100Y-15354D01*
X31287Y-15411D01*
X31460Y-15503D01*
X31612Y-15626D01*
X31737Y-15777D01*
X31830Y-15949D01*
X31888Y-16136D01*
X31909Y-16339D01*
X31909Y-53337D01*
X31909Y-53337D01*
G37*
X31909Y-53337D02*
X31889Y-53541D01*
X31832Y-53728D01*
X31741Y-53901D01*
X31680Y-53976D01*
X31680Y-22690D01*
X31670Y-22640D01*
X31650Y-22592D01*
X31621Y-22549D01*
X31585Y-22513D01*
X31542Y-22484D01*
X31495Y-22464D01*
X31476Y-22460D01*
X31476Y-21181D01*
X31476Y-18290D01*
X31476Y-16456D01*
X31476Y-16456D01*
X31476Y-16455D01*
X31476Y-16448D01*
X31475Y-16440D01*
X31475Y-16432D01*
X31475Y-16429D01*
X31464Y-16330D01*
X31460Y-16314D01*
X31457Y-16299D01*
X31456Y-16296D01*
X31456Y-16296D01*
X31426Y-16201D01*
X31420Y-16186D01*
X31414Y-16171D01*
X31413Y-16169D01*
X31413Y-16169D01*
X31364Y-16082D01*
X31355Y-16068D01*
X31346Y-16055D01*
X31345Y-16053D01*
X31345Y-16053D01*
X31345Y-16053D01*
X31281Y-15977D01*
X31269Y-15965D01*
X31258Y-15954D01*
X31256Y-15952D01*
X31256Y-15952D01*
X31256Y-15952D01*
X31178Y-15890D01*
X31165Y-15881D01*
X31151Y-15872D01*
X31149Y-15871D01*
X31149Y-15871D01*
X31149Y-15871D01*
X31061Y-15825D01*
X31046Y-15819D01*
X31031Y-15812D01*
X31029Y-15812D01*
X31029Y-15812D01*
X31029Y-15812D01*
X30933Y-15783D01*
X30917Y-15780D01*
X30901Y-15777D01*
X30899Y-15777D01*
X30799Y-15768D01*
X30783Y-15768D01*
X30767Y-15768D01*
X30765Y-15768D01*
X30665Y-15779D01*
X30650Y-15782D01*
X30634Y-15785D01*
X30632Y-15786D01*
X30632Y-15786D01*
X30632Y-15786D01*
X30536Y-15815D01*
X30521Y-15821D01*
X30506Y-15827D01*
X30504Y-15829D01*
X30504Y-15829D01*
X30504Y-15829D01*
X30416Y-15876D01*
X30403Y-15885D01*
X30390Y-15894D01*
X30388Y-15895D01*
X30388Y-15895D01*
X30388Y-15895D01*
X30311Y-15959D01*
X30299Y-15970D01*
X30288Y-15982D01*
X30286Y-15984D01*
X30223Y-16061D01*
X30214Y-16074D01*
X30205Y-16088D01*
X30204Y-16090D01*
X30204Y-16090D01*
X30204Y-16090D01*
X30204Y-16090D01*
X30157Y-16178D01*
X30151Y-16193D01*
X30145Y-16208D01*
X30144Y-16210D01*
X30115Y-16306D01*
X30112Y-16321D01*
X30109Y-16337D01*
X30109Y-16339D01*
X30109Y-16339D01*
X30109Y-16339D01*
X30099Y-16439D01*
X30099Y-16446D01*
X30098Y-16454D01*
X30098Y-16456D01*
X30098Y-21181D01*
X30098Y-21181D01*
X30098Y-21182D01*
X30098Y-21189D01*
X30099Y-21197D01*
X30099Y-21205D01*
X30099Y-21207D01*
X30110Y-21307D01*
X30114Y-21322D01*
X30117Y-21338D01*
X30117Y-21341D01*
X30148Y-21436D01*
X30154Y-21451D01*
X30160Y-21465D01*
X30161Y-21468D01*
X30161Y-21468D01*
X30161Y-21468D01*
X30209Y-21555D01*
X30218Y-21568D01*
X30227Y-21582D01*
X30229Y-21584D01*
X30229Y-21584D01*
X30229Y-21584D01*
X30229Y-21584D01*
X30293Y-21660D01*
X30305Y-21671D01*
X30316Y-21683D01*
X30318Y-21684D01*
X30318Y-21684D01*
X30318Y-21684D01*
X30318Y-21684D01*
X30396Y-21747D01*
X30409Y-21756D01*
X30422Y-21765D01*
X30425Y-21766D01*
X30425Y-21766D01*
X30425Y-21766D01*
X30513Y-21812D01*
X30528Y-21818D01*
X30543Y-21824D01*
X30545Y-21825D01*
X30545Y-21825D01*
X30641Y-21853D01*
X30657Y-21856D01*
X30672Y-21860D01*
X30675Y-21860D01*
X30675Y-21860D01*
X30774Y-21869D01*
X30790Y-21869D01*
X30807Y-21869D01*
X30809Y-21869D01*
X30908Y-21858D01*
X30924Y-21855D01*
X30940Y-21852D01*
X30942Y-21851D01*
X30942Y-21851D01*
X30942Y-21851D01*
X30942Y-21851D01*
X31038Y-21822D01*
X31052Y-21815D01*
X31067Y-21809D01*
X31069Y-21808D01*
X31070Y-21808D01*
X31070Y-21808D01*
X31070Y-21808D01*
X31157Y-21761D01*
X31171Y-21752D01*
X31184Y-21743D01*
X31186Y-21741D01*
X31186Y-21741D01*
X31186Y-21741D01*
X31186Y-21741D01*
X31263Y-21678D01*
X31274Y-21666D01*
X31286Y-21655D01*
X31287Y-21653D01*
X31287Y-21653D01*
X31287Y-21653D01*
X31287Y-21653D01*
X31350Y-21576D01*
X31359Y-21562D01*
X31368Y-21549D01*
X31370Y-21547D01*
X31370Y-21547D01*
X31370Y-21547D01*
X31370Y-21547D01*
X31417Y-21459D01*
X31423Y-21444D01*
X31429Y-21429D01*
X31430Y-21427D01*
X31430Y-21427D01*
X31459Y-21331D01*
X31462Y-21315D01*
X31465Y-21300D01*
X31465Y-21297D01*
X31465Y-21297D01*
X31465Y-21297D01*
X31465Y-21297D01*
X31475Y-21198D01*
X31475Y-21191D01*
X31476Y-21183D01*
X31476Y-21181D01*
X31476Y-22460D01*
X31444Y-22453D01*
X31393Y-22453D01*
X31342Y-22463D01*
X31294Y-22482D01*
X31251Y-22510D01*
X31215Y-22546D01*
X31185Y-22589D01*
X31165Y-22636D01*
X31154Y-22687D01*
X31154Y-22738D01*
X31163Y-22789D01*
X31182Y-22837D01*
X31193Y-22854D01*
X31186Y-22854D01*
X30815Y-22854D01*
X30815Y-22513D01*
X30811Y-22478D01*
X30808Y-22442D01*
X30807Y-22440D01*
X30807Y-22438D01*
X30797Y-22404D01*
X30787Y-22369D01*
X30786Y-22368D01*
X30785Y-22366D01*
X30768Y-22334D01*
X30752Y-22302D01*
X30751Y-22301D01*
X30750Y-22299D01*
X30727Y-22271D01*
X30705Y-22243D01*
X30702Y-22240D01*
X30702Y-22240D01*
X30702Y-22240D01*
X30701Y-22239D01*
X29841Y-21379D01*
X29813Y-21356D01*
X29786Y-21333D01*
X29784Y-21332D01*
X29782Y-21331D01*
X29751Y-21314D01*
X29719Y-21297D01*
X29717Y-21296D01*
X29715Y-21295D01*
X29681Y-21285D01*
X29647Y-21274D01*
X29645Y-21273D01*
X29643Y-21273D01*
X29607Y-21269D01*
X29586Y-21267D01*
X29586Y-17519D01*
X29586Y-16456D01*
X29586Y-16456D01*
X29586Y-16455D01*
X29586Y-16448D01*
X29585Y-16440D01*
X29585Y-16432D01*
X29585Y-16429D01*
X29574Y-16330D01*
X29570Y-16314D01*
X29567Y-16299D01*
X29567Y-16296D01*
X29567Y-16296D01*
X29536Y-16201D01*
X29530Y-16186D01*
X29524Y-16171D01*
X29523Y-16169D01*
X29523Y-16169D01*
X29475Y-16082D01*
X29466Y-16068D01*
X29457Y-16055D01*
X29455Y-16053D01*
X29455Y-16053D01*
X29455Y-16053D01*
X29391Y-15977D01*
X29379Y-15965D01*
X29368Y-15954D01*
X29366Y-15952D01*
X29366Y-15952D01*
X29366Y-15952D01*
X29288Y-15890D01*
X29275Y-15881D01*
X29262Y-15872D01*
X29259Y-15871D01*
X29259Y-15871D01*
X29259Y-15871D01*
X29171Y-15825D01*
X29156Y-15819D01*
X29141Y-15812D01*
X29139Y-15812D01*
X29139Y-15812D01*
X29139Y-15812D01*
X29043Y-15783D01*
X29027Y-15780D01*
X29012Y-15777D01*
X29009Y-15777D01*
X28910Y-15768D01*
X28894Y-15768D01*
X28878Y-15768D01*
X28875Y-15768D01*
X28776Y-15779D01*
X28760Y-15782D01*
X28744Y-15785D01*
X28742Y-15786D01*
X28742Y-15786D01*
X28742Y-15786D01*
X28646Y-15815D01*
X28632Y-15821D01*
X28617Y-15827D01*
X28615Y-15829D01*
X28615Y-15829D01*
X28615Y-15829D01*
X28527Y-15876D01*
X28513Y-15885D01*
X28500Y-15894D01*
X28498Y-15895D01*
X28498Y-15895D01*
X28498Y-15895D01*
X28421Y-15959D01*
X28410Y-15970D01*
X28398Y-15982D01*
X28397Y-15984D01*
X28334Y-16061D01*
X28325Y-16074D01*
X28316Y-16088D01*
X28314Y-16090D01*
X28314Y-16090D01*
X28314Y-16090D01*
X28314Y-16090D01*
X28268Y-16178D01*
X28261Y-16193D01*
X28255Y-16208D01*
X28254Y-16210D01*
X28225Y-16306D01*
X28222Y-16321D01*
X28219Y-16337D01*
X28219Y-16339D01*
X28219Y-16339D01*
X28219Y-16339D01*
X28209Y-16439D01*
X28209Y-16446D01*
X28208Y-16454D01*
X28208Y-16456D01*
X28208Y-17519D01*
X28208Y-17519D01*
X28208Y-17520D01*
X28208Y-17528D01*
X28209Y-17536D01*
X28209Y-17544D01*
X28209Y-17546D01*
X28220Y-17645D01*
X28224Y-17661D01*
X28227Y-17677D01*
X28228Y-17679D01*
X28258Y-17774D01*
X28264Y-17789D01*
X28270Y-17804D01*
X28271Y-17806D01*
X28271Y-17806D01*
X28271Y-17806D01*
X28320Y-17894D01*
X28329Y-17907D01*
X28338Y-17920D01*
X28339Y-17922D01*
X28339Y-17922D01*
X28339Y-17922D01*
X28339Y-17922D01*
X28403Y-17999D01*
X28415Y-18010D01*
X28426Y-18021D01*
X28428Y-18023D01*
X28428Y-18023D01*
X28428Y-18023D01*
X28428Y-18023D01*
X28506Y-18086D01*
X28519Y-18094D01*
X28533Y-18103D01*
X28535Y-18104D01*
X28535Y-18104D01*
X28535Y-18104D01*
X28623Y-18151D01*
X28638Y-18157D01*
X28653Y-18163D01*
X28655Y-18164D01*
X28655Y-18164D01*
X28751Y-18192D01*
X28767Y-18195D01*
X28783Y-18198D01*
X28785Y-18198D01*
X28785Y-18198D01*
X28885Y-18207D01*
X28901Y-18207D01*
X28917Y-18207D01*
X28919Y-18207D01*
X29019Y-18197D01*
X29034Y-18194D01*
X29050Y-18190D01*
X29052Y-18190D01*
X29052Y-18190D01*
X29052Y-18190D01*
X29052Y-18190D01*
X29148Y-18160D01*
X29163Y-18154D01*
X29178Y-18148D01*
X29180Y-18147D01*
X29180Y-18147D01*
X29180Y-18147D01*
X29180Y-18147D01*
X29268Y-18099D01*
X29281Y-18090D01*
X29294Y-18082D01*
X29296Y-18080D01*
X29296Y-18080D01*
X29296Y-18080D01*
X29296Y-18080D01*
X29373Y-18016D01*
X29385Y-18005D01*
X29396Y-17994D01*
X29398Y-17992D01*
X29398Y-17992D01*
X29398Y-17992D01*
X29398Y-17992D01*
X29461Y-17914D01*
X29470Y-17901D01*
X29479Y-17888D01*
X29480Y-17886D01*
X29480Y-17886D01*
X29480Y-17886D01*
X29480Y-17886D01*
X29527Y-17797D01*
X29533Y-17783D01*
X29539Y-17768D01*
X29540Y-17765D01*
X29540Y-17765D01*
X29569Y-17670D01*
X29572Y-17654D01*
X29575Y-17638D01*
X29576Y-17636D01*
X29576Y-17636D01*
X29576Y-17636D01*
X29576Y-17636D01*
X29585Y-17536D01*
X29585Y-17529D01*
X29586Y-17522D01*
X29586Y-17519D01*
X29586Y-21267D01*
X29572Y-21265D01*
X29568Y-21265D01*
X29568Y-21265D01*
X29568Y-21265D01*
X29566Y-21265D01*
X29429Y-21265D01*
X29429Y-20682D01*
X29429Y-20655D01*
X29429Y-19947D01*
X29423Y-19920D01*
X29413Y-19895D01*
X29398Y-19872D01*
X29379Y-19853D01*
X29356Y-19838D01*
X29331Y-19828D01*
X29324Y-19826D01*
X29324Y-19775D01*
X29321Y-19739D01*
X29318Y-19704D01*
X29317Y-19702D01*
X29317Y-19700D01*
X29307Y-19665D01*
X29297Y-19631D01*
X29296Y-19629D01*
X29295Y-19627D01*
X29278Y-19596D01*
X29262Y-19564D01*
X29260Y-19562D01*
X29260Y-19560D01*
X29237Y-19533D01*
X29215Y-19505D01*
X29212Y-19502D01*
X29212Y-19502D01*
X29212Y-19502D01*
X29211Y-19501D01*
X28905Y-19195D01*
X28897Y-19156D01*
X28863Y-19073D01*
X28813Y-18997D01*
X28749Y-18933D01*
X28673Y-18882D01*
X28590Y-18847D01*
X28501Y-18828D01*
X28410Y-18828D01*
X28321Y-18845D01*
X28237Y-18879D01*
X28161Y-18928D01*
X28096Y-18992D01*
X28045Y-19067D01*
X28009Y-19150D01*
X27990Y-19239D01*
X27989Y-19330D01*
X28005Y-19419D01*
X28039Y-19503D01*
X28088Y-19580D01*
X28151Y-19645D01*
X28225Y-19697D01*
X28309Y-19733D01*
X28357Y-19744D01*
X28480Y-19867D01*
X28475Y-19872D01*
X28460Y-19895D01*
X28450Y-19920D01*
X28444Y-19947D01*
X28444Y-19974D01*
X28444Y-20682D01*
X28450Y-20709D01*
X28460Y-20734D01*
X28475Y-20757D01*
X28494Y-20776D01*
X28517Y-20791D01*
X28542Y-20801D01*
X28569Y-20807D01*
X28596Y-20807D01*
X29304Y-20807D01*
X29331Y-20801D01*
X29356Y-20791D01*
X29379Y-20776D01*
X29398Y-20757D01*
X29413Y-20734D01*
X29423Y-20709D01*
X29429Y-20682D01*
X29429Y-21265D01*
X29425Y-21265D01*
X29423Y-21259D01*
X29413Y-21233D01*
X29398Y-21211D01*
X29379Y-21192D01*
X29356Y-21177D01*
X29331Y-21166D01*
X29304Y-21161D01*
X29277Y-21161D01*
X28972Y-21161D01*
X28963Y-21156D01*
X28932Y-21139D01*
X28930Y-21139D01*
X28928Y-21138D01*
X28894Y-21127D01*
X28860Y-21116D01*
X28858Y-21116D01*
X28856Y-21115D01*
X28820Y-21112D01*
X28784Y-21108D01*
X28780Y-21108D01*
X28780Y-21108D01*
X28780Y-21108D01*
X28779Y-21108D01*
X28267Y-21108D01*
X28242Y-21108D01*
X28242Y-20650D01*
X28242Y-20650D01*
X28247Y-20623D01*
X28247Y-20596D01*
X28247Y-20006D01*
X28242Y-19979D01*
X28231Y-19954D01*
X28216Y-19932D01*
X28197Y-19912D01*
X28175Y-19897D01*
X28150Y-19887D01*
X28123Y-19882D01*
X28096Y-19882D01*
X27585Y-19882D01*
X27558Y-19887D01*
X27533Y-19897D01*
X27510Y-19912D01*
X27494Y-19929D01*
X27494Y-19798D01*
X27548Y-19744D01*
X27577Y-19739D01*
X27662Y-19706D01*
X27739Y-19657D01*
X27804Y-19595D01*
X27857Y-19521D01*
X27894Y-19438D01*
X27914Y-19349D01*
X27915Y-19245D01*
X27897Y-19156D01*
X27863Y-19073D01*
X27813Y-18997D01*
X27749Y-18933D01*
X27696Y-18897D01*
X27696Y-17519D01*
X27696Y-16456D01*
X27696Y-16456D01*
X27696Y-16455D01*
X27696Y-16448D01*
X27695Y-16440D01*
X27695Y-16432D01*
X27695Y-16429D01*
X27684Y-16330D01*
X27681Y-16314D01*
X27678Y-16299D01*
X27677Y-16296D01*
X27677Y-16296D01*
X27647Y-16201D01*
X27640Y-16186D01*
X27634Y-16171D01*
X27633Y-16169D01*
X27633Y-16169D01*
X27585Y-16082D01*
X27576Y-16068D01*
X27567Y-16055D01*
X27565Y-16053D01*
X27565Y-16053D01*
X27565Y-16053D01*
X27501Y-15977D01*
X27490Y-15965D01*
X27478Y-15954D01*
X27476Y-15952D01*
X27476Y-15952D01*
X27476Y-15952D01*
X27399Y-15890D01*
X27385Y-15881D01*
X27372Y-15872D01*
X27370Y-15871D01*
X27370Y-15871D01*
X27370Y-15871D01*
X27281Y-15825D01*
X27266Y-15819D01*
X27251Y-15812D01*
X27249Y-15812D01*
X27249Y-15812D01*
X27249Y-15812D01*
X27153Y-15783D01*
X27138Y-15780D01*
X27122Y-15777D01*
X27119Y-15777D01*
X27020Y-15768D01*
X27004Y-15768D01*
X26988Y-15768D01*
X26985Y-15768D01*
X26886Y-15779D01*
X26870Y-15782D01*
X26854Y-15785D01*
X26852Y-15786D01*
X26852Y-15786D01*
X26852Y-15786D01*
X26757Y-15815D01*
X26742Y-15821D01*
X26727Y-15827D01*
X26725Y-15829D01*
X26725Y-15829D01*
X26725Y-15829D01*
X26637Y-15876D01*
X26624Y-15885D01*
X26610Y-15894D01*
X26608Y-15895D01*
X26608Y-15895D01*
X26608Y-15895D01*
X26531Y-15959D01*
X26520Y-15970D01*
X26508Y-15982D01*
X26507Y-15984D01*
X26444Y-16061D01*
X26435Y-16074D01*
X26426Y-16088D01*
X26425Y-16090D01*
X26425Y-16090D01*
X26425Y-16090D01*
X26425Y-16090D01*
X26378Y-16178D01*
X26372Y-16193D01*
X26365Y-16208D01*
X26365Y-16210D01*
X26336Y-16306D01*
X26333Y-16321D01*
X26329Y-16337D01*
X26329Y-16339D01*
X26329Y-16339D01*
X26329Y-16339D01*
X26319Y-16439D01*
X26319Y-16446D01*
X26318Y-16454D01*
X26318Y-16456D01*
X26318Y-17519D01*
X26318Y-17519D01*
X26318Y-17520D01*
X26318Y-17528D01*
X26319Y-17536D01*
X26319Y-17544D01*
X26320Y-17546D01*
X26331Y-17645D01*
X26334Y-17661D01*
X26337Y-17677D01*
X26338Y-17679D01*
X26368Y-17774D01*
X26374Y-17789D01*
X26381Y-17804D01*
X26382Y-17806D01*
X26382Y-17806D01*
X26382Y-17806D01*
X26430Y-17894D01*
X26439Y-17907D01*
X26448Y-17920D01*
X26449Y-17922D01*
X26449Y-17922D01*
X26449Y-17922D01*
X26449Y-17922D01*
X26514Y-17999D01*
X26525Y-18010D01*
X26536Y-18021D01*
X26538Y-18023D01*
X26538Y-18023D01*
X26538Y-18023D01*
X26538Y-18023D01*
X26616Y-18086D01*
X26630Y-18094D01*
X26643Y-18103D01*
X26645Y-18104D01*
X26645Y-18104D01*
X26645Y-18104D01*
X26734Y-18151D01*
X26748Y-18157D01*
X26763Y-18163D01*
X26766Y-18164D01*
X26766Y-18164D01*
X26861Y-18192D01*
X26877Y-18195D01*
X26893Y-18198D01*
X26895Y-18198D01*
X26895Y-18198D01*
X26995Y-18207D01*
X27011Y-18207D01*
X27027Y-18207D01*
X27029Y-18207D01*
X27129Y-18197D01*
X27145Y-18194D01*
X27160Y-18190D01*
X27163Y-18190D01*
X27163Y-18190D01*
X27163Y-18190D01*
X27163Y-18190D01*
X27258Y-18160D01*
X27273Y-18154D01*
X27288Y-18148D01*
X27290Y-18147D01*
X27290Y-18147D01*
X27290Y-18147D01*
X27290Y-18147D01*
X27378Y-18099D01*
X27391Y-18090D01*
X27405Y-18082D01*
X27407Y-18080D01*
X27407Y-18080D01*
X27407Y-18080D01*
X27407Y-18080D01*
X27483Y-18016D01*
X27495Y-18005D01*
X27506Y-17994D01*
X27508Y-17992D01*
X27508Y-17992D01*
X27508Y-17992D01*
X27508Y-17992D01*
X27571Y-17914D01*
X27580Y-17901D01*
X27589Y-17888D01*
X27590Y-17886D01*
X27590Y-17886D01*
X27590Y-17886D01*
X27590Y-17886D01*
X27637Y-17797D01*
X27643Y-17783D01*
X27649Y-17768D01*
X27650Y-17765D01*
X27650Y-17765D01*
X27679Y-17670D01*
X27682Y-17654D01*
X27685Y-17638D01*
X27686Y-17636D01*
X27686Y-17636D01*
X27686Y-17636D01*
X27686Y-17636D01*
X27696Y-17536D01*
X27696Y-17529D01*
X27696Y-17522D01*
X27696Y-17519D01*
X27696Y-18897D01*
X27673Y-18882D01*
X27590Y-18847D01*
X27501Y-18828D01*
X27410Y-18828D01*
X27321Y-18845D01*
X27237Y-18879D01*
X27161Y-18928D01*
X27096Y-18992D01*
X27045Y-19067D01*
X27009Y-19150D01*
X26999Y-19195D01*
X26832Y-19363D01*
X26809Y-19391D01*
X26786Y-19418D01*
X26785Y-19420D01*
X26784Y-19422D01*
X26767Y-19453D01*
X26749Y-19485D01*
X26749Y-19486D01*
X26748Y-19488D01*
X26737Y-19523D01*
X26726Y-19557D01*
X26726Y-19559D01*
X26726Y-19561D01*
X26722Y-19596D01*
X26718Y-19632D01*
X26718Y-19636D01*
X26718Y-19636D01*
X26718Y-19636D01*
X26718Y-19637D01*
X26718Y-19979D01*
X26718Y-19979D01*
X26713Y-20006D01*
X26713Y-20033D01*
X26713Y-20623D01*
X26718Y-20650D01*
X26718Y-20650D01*
X26718Y-21158D01*
X26299Y-21158D01*
X26268Y-21161D01*
X26237Y-21164D01*
X26235Y-21164D01*
X26233Y-21164D01*
X26203Y-21173D01*
X26173Y-21182D01*
X26172Y-21183D01*
X26170Y-21183D01*
X26142Y-21198D01*
X26115Y-21212D01*
X26113Y-21213D01*
X26112Y-21214D01*
X26088Y-21234D01*
X26063Y-21253D01*
X26061Y-21256D01*
X26061Y-21256D01*
X26061Y-21256D01*
X26060Y-21257D01*
X25807Y-21510D01*
X25807Y-21181D01*
X25807Y-16456D01*
X25807Y-16456D01*
X25807Y-16455D01*
X25807Y-16448D01*
X25806Y-16440D01*
X25806Y-16432D01*
X25805Y-16429D01*
X25794Y-16330D01*
X25791Y-16314D01*
X25788Y-16299D01*
X25787Y-16296D01*
X25787Y-16296D01*
X25757Y-16201D01*
X25751Y-16186D01*
X25744Y-16171D01*
X25743Y-16169D01*
X25743Y-16169D01*
X25695Y-16082D01*
X25686Y-16068D01*
X25677Y-16055D01*
X25676Y-16053D01*
X25676Y-16053D01*
X25676Y-16053D01*
X25611Y-15977D01*
X25600Y-15965D01*
X25589Y-15954D01*
X25587Y-15952D01*
X25587Y-15952D01*
X25587Y-15952D01*
X25509Y-15890D01*
X25495Y-15881D01*
X25482Y-15872D01*
X25480Y-15871D01*
X25480Y-15871D01*
X25480Y-15871D01*
X25391Y-15825D01*
X25377Y-15819D01*
X25362Y-15812D01*
X25359Y-15812D01*
X25359Y-15812D01*
X25359Y-15812D01*
X25264Y-15783D01*
X25248Y-15780D01*
X25232Y-15777D01*
X25230Y-15777D01*
X25130Y-15768D01*
X25114Y-15768D01*
X25098Y-15768D01*
X25096Y-15768D01*
X24996Y-15779D01*
X24980Y-15782D01*
X24965Y-15785D01*
X24962Y-15786D01*
X24962Y-15786D01*
X24962Y-15786D01*
X24867Y-15815D01*
X24852Y-15821D01*
X24837Y-15827D01*
X24835Y-15829D01*
X24835Y-15829D01*
X24835Y-15829D01*
X24747Y-15876D01*
X24734Y-15885D01*
X24720Y-15894D01*
X24718Y-15895D01*
X24718Y-15895D01*
X24718Y-15895D01*
X24642Y-15959D01*
X24630Y-15970D01*
X24619Y-15982D01*
X24617Y-15984D01*
X24554Y-16061D01*
X24545Y-16074D01*
X24536Y-16088D01*
X24535Y-16090D01*
X24535Y-16090D01*
X24535Y-16090D01*
X24535Y-16090D01*
X24488Y-16178D01*
X24482Y-16193D01*
X24476Y-16208D01*
X24475Y-16210D01*
X24446Y-16306D01*
X24443Y-16321D01*
X24439Y-16337D01*
X24439Y-16339D01*
X24439Y-16339D01*
X24439Y-16339D01*
X24429Y-16439D01*
X24429Y-16446D01*
X24429Y-16454D01*
X24429Y-16456D01*
X24429Y-21181D01*
X24429Y-21181D01*
X24429Y-21182D01*
X24429Y-21189D01*
X24430Y-21197D01*
X24430Y-21205D01*
X24430Y-21207D01*
X24441Y-21307D01*
X24444Y-21322D01*
X24447Y-21338D01*
X24448Y-21341D01*
X24478Y-21436D01*
X24485Y-21451D01*
X24491Y-21465D01*
X24492Y-21468D01*
X24492Y-21468D01*
X24492Y-21468D01*
X24540Y-21555D01*
X24549Y-21568D01*
X24558Y-21582D01*
X24560Y-21584D01*
X24560Y-21584D01*
X24560Y-21584D01*
X24560Y-21584D01*
X24624Y-21660D01*
X24635Y-21671D01*
X24647Y-21683D01*
X24649Y-21684D01*
X24649Y-21684D01*
X24649Y-21684D01*
X24649Y-21684D01*
X24726Y-21747D01*
X24740Y-21756D01*
X24753Y-21765D01*
X24755Y-21766D01*
X24755Y-21766D01*
X24755Y-21766D01*
X24844Y-21812D01*
X24859Y-21818D01*
X24873Y-21824D01*
X24876Y-21825D01*
X24876Y-21825D01*
X24972Y-21853D01*
X24987Y-21856D01*
X25003Y-21860D01*
X25006Y-21860D01*
X25006Y-21860D01*
X25105Y-21869D01*
X25121Y-21869D01*
X25137Y-21869D01*
X25140Y-21869D01*
X25239Y-21858D01*
X25255Y-21855D01*
X25271Y-21852D01*
X25273Y-21851D01*
X25273Y-21851D01*
X25273Y-21851D01*
X25273Y-21851D01*
X25368Y-21822D01*
X25383Y-21815D01*
X25398Y-21809D01*
X25400Y-21808D01*
X25400Y-21808D01*
X25400Y-21808D01*
X25400Y-21808D01*
X25488Y-21761D01*
X25501Y-21752D01*
X25515Y-21743D01*
X25517Y-21741D01*
X25517Y-21741D01*
X25517Y-21741D01*
X25517Y-21741D01*
X25594Y-21678D01*
X25605Y-21666D01*
X25616Y-21655D01*
X25618Y-21653D01*
X25618Y-21653D01*
X25618Y-21653D01*
X25618Y-21653D01*
X25681Y-21576D01*
X25690Y-21562D01*
X25699Y-21549D01*
X25700Y-21547D01*
X25700Y-21547D01*
X25700Y-21547D01*
X25700Y-21547D01*
X25747Y-21459D01*
X25753Y-21444D01*
X25760Y-21429D01*
X25760Y-21427D01*
X25760Y-21427D01*
X25789Y-21331D01*
X25792Y-21315D01*
X25796Y-21300D01*
X25796Y-21297D01*
X25796Y-21297D01*
X25796Y-21297D01*
X25796Y-21297D01*
X25806Y-21198D01*
X25806Y-21191D01*
X25807Y-21183D01*
X25807Y-21181D01*
X25807Y-21510D01*
X24977Y-22339D01*
X24966Y-22353D01*
X24954Y-22358D01*
X24931Y-22373D01*
X24912Y-22392D01*
X24897Y-22415D01*
X24887Y-22440D01*
X24881Y-22466D01*
X24881Y-22493D01*
X24881Y-22546D01*
X24878Y-22577D01*
X24881Y-22610D01*
X24881Y-23045D01*
X24887Y-23071D01*
X24897Y-23096D01*
X24912Y-23119D01*
X24931Y-23138D01*
X24954Y-23153D01*
X24957Y-23154D01*
X24477Y-23634D01*
X24463Y-23651D01*
X24449Y-23668D01*
X24448Y-23669D01*
X24448Y-23670D01*
X24437Y-23689D01*
X24427Y-23708D01*
X24426Y-23709D01*
X24426Y-23710D01*
X24419Y-23731D01*
X24413Y-23752D01*
X24412Y-23754D01*
X24412Y-23755D01*
X24410Y-23777D01*
X24407Y-23799D01*
X24407Y-23801D01*
X24407Y-23801D01*
X24407Y-23801D01*
X24407Y-23802D01*
X24407Y-40572D01*
X24410Y-40594D01*
X24411Y-40615D01*
X24412Y-40617D01*
X24412Y-40618D01*
X24418Y-40639D01*
X24424Y-40660D01*
X24425Y-40661D01*
X24425Y-40662D01*
X24436Y-40682D01*
X24446Y-40701D01*
X24447Y-40702D01*
X24447Y-40703D01*
X24461Y-40720D01*
X24475Y-40738D01*
X24476Y-40739D01*
X24476Y-40739D01*
X24476Y-40739D01*
X24477Y-40740D01*
X24683Y-40946D01*
X24680Y-40947D01*
X24637Y-40975D01*
X24600Y-41011D01*
X24571Y-41053D01*
X24551Y-41101D01*
X24540Y-41151D01*
X24540Y-41163D01*
X24206Y-41498D01*
X24194Y-41512D01*
X24183Y-41526D01*
X24182Y-41527D01*
X24181Y-41527D01*
X24173Y-41544D01*
X24164Y-41560D01*
X24164Y-41561D01*
X24163Y-41561D01*
X24158Y-41579D01*
X24152Y-41596D01*
X24152Y-41597D01*
X24152Y-41598D01*
X24150Y-41617D01*
X24148Y-41635D01*
X24148Y-41637D01*
X24148Y-41637D01*
X24148Y-41637D01*
X24148Y-41637D01*
X24148Y-46275D01*
X24150Y-46293D01*
X24151Y-46311D01*
X24152Y-46312D01*
X24152Y-46313D01*
X24157Y-46331D01*
X24162Y-46348D01*
X24163Y-46349D01*
X24163Y-46350D01*
X24172Y-46366D01*
X24180Y-46383D01*
X24181Y-46383D01*
X24181Y-46384D01*
X24193Y-46399D01*
X24204Y-46413D01*
X24205Y-46414D01*
X24205Y-46414D01*
X24205Y-46414D01*
X24206Y-46415D01*
X25293Y-47502D01*
X25307Y-47513D01*
X25321Y-47525D01*
X25322Y-47525D01*
X25323Y-47526D01*
X25339Y-47535D01*
X25355Y-47544D01*
X25356Y-47544D01*
X25357Y-47544D01*
X25374Y-47550D01*
X25391Y-47555D01*
X25392Y-47555D01*
X25393Y-47556D01*
X25412Y-47557D01*
X25430Y-47559D01*
X25432Y-47559D01*
X25432Y-47559D01*
X25432Y-47559D01*
X25433Y-47560D01*
X25613Y-47560D01*
X25616Y-47563D01*
X25658Y-47592D01*
X25705Y-47613D01*
X25756Y-47624D01*
X25807Y-47625D01*
X25858Y-47616D01*
X25906Y-47597D01*
X25949Y-47570D01*
X25987Y-47534D01*
X26017Y-47492D01*
X26037Y-47445D01*
X26049Y-47395D01*
X26050Y-47336D01*
X26040Y-47285D01*
X26020Y-47238D01*
X25992Y-47195D01*
X25955Y-47158D01*
X25912Y-47129D01*
X25865Y-47109D01*
X25815Y-47099D01*
X25763Y-47099D01*
X25712Y-47108D01*
X25665Y-47128D01*
X25621Y-47156D01*
X25613Y-47164D01*
X25515Y-47164D01*
X25177Y-46826D01*
X25177Y-46239D01*
X25177Y-45866D01*
X25177Y-45787D01*
X25177Y-45413D01*
X25177Y-45176D01*
X25177Y-44803D01*
X25177Y-44724D01*
X25177Y-44350D01*
X25137Y-44311D01*
X24945Y-44311D01*
X24915Y-44317D01*
X24886Y-44329D01*
X24860Y-44346D01*
X24838Y-44368D01*
X24821Y-44394D01*
X24809Y-44422D01*
X24803Y-44453D01*
X24803Y-44484D01*
X24803Y-44685D01*
X24842Y-44724D01*
X25177Y-44724D01*
X25177Y-44803D01*
X24842Y-44803D01*
X24803Y-44842D01*
X24803Y-45043D01*
X24803Y-45074D01*
X24809Y-45104D01*
X24821Y-45133D01*
X24838Y-45159D01*
X24860Y-45181D01*
X24886Y-45198D01*
X24915Y-45210D01*
X24945Y-45216D01*
X25137Y-45216D01*
X25177Y-45176D01*
X25177Y-45413D01*
X25137Y-45374D01*
X24945Y-45374D01*
X24915Y-45380D01*
X24886Y-45392D01*
X24860Y-45409D01*
X24838Y-45431D01*
X24821Y-45457D01*
X24809Y-45485D01*
X24803Y-45516D01*
X24803Y-45547D01*
X24803Y-45748D01*
X24842Y-45787D01*
X25177Y-45787D01*
X25177Y-45866D01*
X24842Y-45866D01*
X24803Y-45905D01*
X24803Y-46106D01*
X24803Y-46137D01*
X24809Y-46167D01*
X24821Y-46196D01*
X24838Y-46222D01*
X24860Y-46244D01*
X24886Y-46261D01*
X24915Y-46273D01*
X24945Y-46279D01*
X25137Y-46279D01*
X25177Y-46239D01*
X25177Y-46826D01*
X24544Y-46193D01*
X24544Y-42078D01*
X24550Y-42088D01*
X24572Y-42110D01*
X24598Y-42127D01*
X24626Y-42139D01*
X24657Y-42145D01*
X24692Y-42145D01*
X24719Y-42118D01*
X24732Y-42122D01*
X24768Y-42126D01*
X24771Y-42126D01*
X24823Y-42126D01*
X24823Y-42198D01*
X24828Y-42224D01*
X24838Y-42250D01*
X24854Y-42272D01*
X24873Y-42291D01*
X24895Y-42306D01*
X24920Y-42317D01*
X24947Y-42322D01*
X24974Y-42322D01*
X25485Y-42322D01*
X25512Y-42317D01*
X25537Y-42306D01*
X25559Y-42291D01*
X25579Y-42272D01*
X25590Y-42255D01*
X25602Y-42272D01*
X25621Y-42291D01*
X25643Y-42306D01*
X25668Y-42317D01*
X25695Y-42322D01*
X25722Y-42322D01*
X25726Y-42322D01*
X25726Y-42381D01*
X25728Y-42403D01*
X25730Y-42425D01*
X25731Y-42426D01*
X25731Y-42428D01*
X25737Y-42449D01*
X25743Y-42470D01*
X25744Y-42471D01*
X25744Y-42472D01*
X25755Y-42491D01*
X25765Y-42511D01*
X25765Y-42512D01*
X25766Y-42513D01*
X25780Y-42530D01*
X25794Y-42547D01*
X25795Y-42549D01*
X25795Y-42549D01*
X25795Y-42549D01*
X25796Y-42550D01*
X25864Y-42618D01*
X25864Y-42667D01*
X25842Y-42667D01*
X25816Y-42672D01*
X25791Y-42683D01*
X25768Y-42698D01*
X25749Y-42717D01*
X25735Y-42738D01*
X25731Y-42738D01*
X25730Y-42738D01*
X25729Y-42739D01*
X25711Y-42744D01*
X25694Y-42749D01*
X25693Y-42749D01*
X25692Y-42750D01*
X25676Y-42758D01*
X25659Y-42767D01*
X25659Y-42767D01*
X25658Y-42768D01*
X25644Y-42779D01*
X25629Y-42791D01*
X25628Y-42792D01*
X25628Y-42792D01*
X25628Y-42792D01*
X25627Y-42793D01*
X25462Y-42958D01*
X25462Y-42791D01*
X25457Y-42764D01*
X25446Y-42739D01*
X25431Y-42717D01*
X25412Y-42698D01*
X25390Y-42683D01*
X25364Y-42672D01*
X25338Y-42667D01*
X25311Y-42667D01*
X24819Y-42667D01*
X24792Y-42672D01*
X24767Y-42683D01*
X24744Y-42698D01*
X24725Y-42717D01*
X24710Y-42739D01*
X24700Y-42764D01*
X24694Y-42791D01*
X24694Y-42818D01*
X24694Y-43074D01*
X24699Y-43095D01*
X24693Y-43104D01*
X24681Y-43133D01*
X24675Y-43163D01*
X24675Y-43228D01*
X24714Y-43267D01*
X25039Y-43267D01*
X25039Y-43259D01*
X25118Y-43259D01*
X25118Y-43267D01*
X25125Y-43267D01*
X25125Y-43346D01*
X25118Y-43346D01*
X25118Y-43354D01*
X25039Y-43354D01*
X25039Y-43346D01*
X24714Y-43346D01*
X24675Y-43385D01*
X24675Y-43450D01*
X24681Y-43480D01*
X24693Y-43509D01*
X24699Y-43518D01*
X24694Y-43539D01*
X24694Y-43566D01*
X24694Y-43822D01*
X24700Y-43849D01*
X24710Y-43874D01*
X24725Y-43896D01*
X24744Y-43916D01*
X24767Y-43931D01*
X24792Y-43941D01*
X24819Y-43946D01*
X24846Y-43946D01*
X25338Y-43946D01*
X25364Y-43941D01*
X25390Y-43931D01*
X25412Y-43916D01*
X25431Y-43896D01*
X25443Y-43878D01*
X25492Y-43878D01*
X25510Y-43877D01*
X25528Y-43875D01*
X25529Y-43875D01*
X25530Y-43875D01*
X25548Y-43869D01*
X25565Y-43864D01*
X25566Y-43864D01*
X25567Y-43863D01*
X25583Y-43855D01*
X25599Y-43846D01*
X25600Y-43846D01*
X25601Y-43845D01*
X25615Y-43834D01*
X25630Y-43822D01*
X25631Y-43821D01*
X25631Y-43821D01*
X25631Y-43821D01*
X25631Y-43820D01*
X25718Y-43734D01*
X25718Y-43822D01*
X25723Y-43849D01*
X25734Y-43874D01*
X25749Y-43896D01*
X25768Y-43916D01*
X25791Y-43931D01*
X25816Y-43941D01*
X25842Y-43946D01*
X25869Y-43946D01*
X26361Y-43946D01*
X26388Y-43941D01*
X26413Y-43931D01*
X26436Y-43916D01*
X26455Y-43896D01*
X26470Y-43874D01*
X26480Y-43849D01*
X26486Y-43822D01*
X26486Y-43795D01*
X26486Y-43544D01*
X26659Y-43544D01*
X26690Y-43558D01*
X26740Y-43569D01*
X26791Y-43570D01*
X26842Y-43561D01*
X26890Y-43542D01*
X26934Y-43515D01*
X26971Y-43479D01*
X27001Y-43437D01*
X27022Y-43390D01*
X27033Y-43340D01*
X27034Y-43281D01*
X27024Y-43230D01*
X27004Y-43183D01*
X26976Y-43140D01*
X26939Y-43103D01*
X26897Y-43074D01*
X26849Y-43054D01*
X26799Y-43044D01*
X26747Y-43044D01*
X26697Y-43053D01*
X26658Y-43069D01*
X26486Y-43069D01*
X26486Y-43047D01*
X26486Y-42791D01*
X26480Y-42764D01*
X26470Y-42739D01*
X26455Y-42717D01*
X26436Y-42698D01*
X26413Y-42683D01*
X26388Y-42672D01*
X26361Y-42667D01*
X26340Y-42667D01*
X26340Y-42519D01*
X26338Y-42497D01*
X26336Y-42475D01*
X26335Y-42474D01*
X26335Y-42473D01*
X26329Y-42452D01*
X26323Y-42431D01*
X26322Y-42430D01*
X26322Y-42429D01*
X26311Y-42409D01*
X26301Y-42390D01*
X26301Y-42389D01*
X26300Y-42388D01*
X26286Y-42371D01*
X26272Y-42353D01*
X26271Y-42352D01*
X26271Y-42352D01*
X26271Y-42352D01*
X26270Y-42351D01*
X26240Y-42321D01*
X26260Y-42317D01*
X26285Y-42306D01*
X26307Y-42291D01*
X26327Y-42272D01*
X26342Y-42250D01*
X26352Y-42224D01*
X26357Y-42198D01*
X26357Y-42171D01*
X26357Y-41581D01*
X26352Y-41554D01*
X26342Y-41529D01*
X26327Y-41506D01*
X26307Y-41487D01*
X26285Y-41472D01*
X26260Y-41462D01*
X26233Y-41456D01*
X26206Y-41456D01*
X26202Y-41456D01*
X26202Y-41043D01*
X26200Y-41021D01*
X26198Y-40999D01*
X26197Y-40998D01*
X26197Y-40997D01*
X26191Y-40976D01*
X26185Y-40955D01*
X26184Y-40953D01*
X26184Y-40952D01*
X26174Y-40933D01*
X26163Y-40913D01*
X26163Y-40912D01*
X26162Y-40911D01*
X26148Y-40894D01*
X26135Y-40877D01*
X26133Y-40875D01*
X26133Y-40875D01*
X26133Y-40875D01*
X26132Y-40875D01*
X25434Y-40177D01*
X25434Y-29192D01*
X26062Y-28565D01*
X29250Y-28565D01*
X27678Y-30137D01*
X27655Y-30164D01*
X27632Y-30192D01*
X27631Y-30193D01*
X27630Y-30195D01*
X27613Y-30227D01*
X27596Y-30258D01*
X27595Y-30260D01*
X27594Y-30262D01*
X27584Y-30296D01*
X27573Y-30330D01*
X27573Y-30332D01*
X27572Y-30334D01*
X27568Y-30370D01*
X27564Y-30405D01*
X27564Y-30409D01*
X27564Y-30409D01*
X27564Y-30409D01*
X27564Y-30411D01*
X27564Y-46029D01*
X27371Y-46029D01*
X27295Y-46036D01*
X27223Y-46058D01*
X27156Y-46094D01*
X27097Y-46142D01*
X27049Y-46200D01*
X27013Y-46267D01*
X26991Y-46339D01*
X26983Y-46414D01*
X26990Y-46489D01*
X27011Y-46562D01*
X27046Y-46629D01*
X27094Y-46688D01*
X27152Y-46737D01*
X27218Y-46773D01*
X27290Y-46796D01*
X27365Y-46805D01*
X27371Y-46805D01*
X27670Y-46805D01*
X27952Y-46805D01*
X27989Y-46801D01*
X28025Y-46798D01*
X28026Y-46797D01*
X28028Y-46797D01*
X28063Y-46787D01*
X28098Y-46776D01*
X28099Y-46776D01*
X28100Y-46775D01*
X28132Y-46758D01*
X28165Y-46741D01*
X28166Y-46740D01*
X28167Y-46740D01*
X28195Y-46717D01*
X28224Y-46694D01*
X28224Y-46693D01*
X28226Y-46692D01*
X28249Y-46664D01*
X28272Y-46636D01*
X28273Y-46635D01*
X28274Y-46634D01*
X28291Y-46602D01*
X28309Y-46570D01*
X28309Y-46568D01*
X28310Y-46567D01*
X28321Y-46532D01*
X28332Y-46497D01*
X28332Y-46496D01*
X28332Y-46495D01*
X28336Y-46458D01*
X28340Y-46422D01*
X28340Y-46420D01*
X28340Y-46420D01*
X28340Y-46419D01*
X28340Y-46417D01*
X28340Y-30571D01*
X29901Y-29010D01*
X29901Y-29599D01*
X29907Y-29626D01*
X29917Y-29651D01*
X29932Y-29674D01*
X29951Y-29693D01*
X29974Y-29708D01*
X29999Y-29718D01*
X30026Y-29724D01*
X30053Y-29724D01*
X30099Y-29724D01*
X30100Y-29741D01*
X30101Y-29742D01*
X30101Y-29743D01*
X30106Y-29760D01*
X30111Y-29778D01*
X30112Y-29779D01*
X30112Y-29780D01*
X30121Y-29796D01*
X30129Y-29812D01*
X30130Y-29813D01*
X30130Y-29814D01*
X30142Y-29828D01*
X30153Y-29842D01*
X30154Y-29844D01*
X30154Y-29844D01*
X30154Y-29844D01*
X30155Y-29844D01*
X30471Y-30160D01*
X30471Y-30219D01*
X30467Y-30223D01*
X30437Y-30266D01*
X30417Y-30313D01*
X30406Y-30364D01*
X30406Y-30415D01*
X30415Y-30466D01*
X30434Y-30514D01*
X30462Y-30557D01*
X30498Y-30594D01*
X30540Y-30624D01*
X30587Y-30644D01*
X30638Y-30655D01*
X30689Y-30656D01*
X30740Y-30648D01*
X30788Y-30629D01*
X30831Y-30601D01*
X30869Y-30566D01*
X30898Y-30524D01*
X30919Y-30477D01*
X30931Y-30426D01*
X30932Y-30367D01*
X30922Y-30317D01*
X30902Y-30269D01*
X30873Y-30226D01*
X30867Y-30219D01*
X30867Y-30078D01*
X30865Y-30060D01*
X30863Y-30042D01*
X30863Y-30041D01*
X30863Y-30040D01*
X30858Y-30022D01*
X30852Y-30005D01*
X30852Y-30004D01*
X30852Y-30003D01*
X30843Y-29987D01*
X30835Y-29971D01*
X30834Y-29970D01*
X30834Y-29969D01*
X30822Y-29955D01*
X30811Y-29940D01*
X30809Y-29939D01*
X30809Y-29939D01*
X30809Y-29939D01*
X30809Y-29938D01*
X30589Y-29719D01*
X30590Y-29718D01*
X30616Y-29708D01*
X30638Y-29693D01*
X30657Y-29674D01*
X30665Y-29686D01*
X30687Y-29708D01*
X30713Y-29725D01*
X30741Y-29737D01*
X30772Y-29743D01*
X30964Y-29743D01*
X31003Y-29704D01*
X31003Y-29330D01*
X30996Y-29330D01*
X30996Y-29251D01*
X31003Y-29251D01*
X31003Y-28878D01*
X30964Y-28838D01*
X30772Y-28838D01*
X30741Y-28844D01*
X30713Y-28856D01*
X30687Y-28874D01*
X30665Y-28895D01*
X30657Y-28908D01*
X30638Y-28889D01*
X30616Y-28874D01*
X30590Y-28863D01*
X30564Y-28858D01*
X30537Y-28858D01*
X30053Y-28858D01*
X30707Y-28205D01*
X30729Y-28177D01*
X30753Y-28150D01*
X30753Y-28148D01*
X30755Y-28146D01*
X30772Y-28115D01*
X30789Y-28083D01*
X30790Y-28081D01*
X30791Y-28080D01*
X30801Y-28045D01*
X30812Y-28011D01*
X30812Y-28009D01*
X30813Y-28007D01*
X30816Y-27971D01*
X30820Y-27936D01*
X30820Y-27932D01*
X30820Y-27932D01*
X30820Y-27932D01*
X30820Y-27930D01*
X30820Y-24389D01*
X31214Y-24389D01*
X31240Y-24384D01*
X31265Y-24373D01*
X31288Y-24358D01*
X31307Y-24339D01*
X31322Y-24316D01*
X31333Y-24291D01*
X31338Y-24265D01*
X31338Y-24237D01*
X31338Y-23882D01*
X31557Y-23663D01*
X31568Y-23649D01*
X31580Y-23635D01*
X31581Y-23634D01*
X31581Y-23633D01*
X31590Y-23617D01*
X31599Y-23601D01*
X31599Y-23600D01*
X31599Y-23599D01*
X31605Y-23582D01*
X31610Y-23564D01*
X31610Y-23563D01*
X31611Y-23562D01*
X31613Y-23544D01*
X31615Y-23526D01*
X31615Y-23524D01*
X31615Y-23524D01*
X31615Y-23524D01*
X31615Y-23523D01*
X31615Y-22893D01*
X31615Y-22891D01*
X31617Y-22889D01*
X31646Y-22846D01*
X31667Y-22799D01*
X31679Y-22749D01*
X31680Y-22690D01*
X31680Y-53976D01*
X31617Y-54053D01*
X31476Y-54169D01*
X31476Y-53228D01*
X31476Y-48502D01*
X31476Y-48502D01*
X31476Y-48495D01*
X31475Y-48487D01*
X31475Y-48479D01*
X31475Y-48477D01*
X31464Y-48377D01*
X31460Y-48362D01*
X31457Y-48346D01*
X31456Y-48343D01*
X31456Y-48343D01*
X31456Y-48341D01*
X31456Y-29601D01*
X31456Y-29570D01*
X31456Y-29370D01*
X31456Y-29212D01*
X31456Y-29011D01*
X31456Y-28980D01*
X31450Y-28950D01*
X31438Y-28921D01*
X31421Y-28895D01*
X31399Y-28874D01*
X31373Y-28856D01*
X31344Y-28844D01*
X31314Y-28838D01*
X31122Y-28838D01*
X31082Y-28878D01*
X31082Y-29251D01*
X31416Y-29251D01*
X31456Y-29212D01*
X31456Y-29370D01*
X31416Y-29330D01*
X31082Y-29330D01*
X31082Y-29704D01*
X31122Y-29743D01*
X31314Y-29743D01*
X31344Y-29737D01*
X31373Y-29725D01*
X31399Y-29708D01*
X31421Y-29686D01*
X31438Y-29660D01*
X31450Y-29632D01*
X31456Y-29601D01*
X31456Y-48341D01*
X31436Y-48279D01*
X31436Y-40702D01*
X31436Y-40675D01*
X31436Y-40085D01*
X31431Y-40058D01*
X31420Y-40033D01*
X31405Y-40010D01*
X31386Y-39991D01*
X31364Y-39976D01*
X31338Y-39966D01*
X31312Y-39960D01*
X31285Y-39960D01*
X30774Y-39960D01*
X30747Y-39966D01*
X30722Y-39976D01*
X30699Y-39991D01*
X30680Y-40010D01*
X30669Y-40028D01*
X30657Y-40010D01*
X30638Y-39991D01*
X30616Y-39976D01*
X30590Y-39966D01*
X30564Y-39960D01*
X30537Y-39960D01*
X30533Y-39960D01*
X30533Y-39842D01*
X31191Y-39183D01*
X31205Y-39166D01*
X31219Y-39150D01*
X31220Y-39148D01*
X31221Y-39148D01*
X31231Y-39128D01*
X31242Y-39109D01*
X31242Y-39108D01*
X31243Y-39107D01*
X31249Y-39086D01*
X31256Y-39065D01*
X31256Y-39063D01*
X31256Y-39062D01*
X31258Y-39040D01*
X31261Y-39019D01*
X31261Y-39016D01*
X31261Y-39016D01*
X31261Y-39016D01*
X31261Y-39015D01*
X31261Y-33143D01*
X31274Y-33114D01*
X31285Y-33064D01*
X31286Y-33005D01*
X31276Y-32955D01*
X31256Y-32907D01*
X31228Y-32864D01*
X31191Y-32828D01*
X31149Y-32799D01*
X31101Y-32779D01*
X31051Y-32768D01*
X30999Y-32768D01*
X30949Y-32778D01*
X30901Y-32797D01*
X30858Y-32825D01*
X30821Y-32861D01*
X30792Y-32904D01*
X30771Y-32951D01*
X30761Y-33002D01*
X30760Y-33053D01*
X30769Y-33104D01*
X30785Y-33144D01*
X30785Y-38917D01*
X30127Y-39575D01*
X30113Y-39592D01*
X30099Y-39609D01*
X30098Y-39610D01*
X30097Y-39611D01*
X30087Y-39631D01*
X30076Y-39650D01*
X30076Y-39651D01*
X30075Y-39652D01*
X30069Y-39673D01*
X30062Y-39694D01*
X30062Y-39695D01*
X30062Y-39697D01*
X30059Y-39718D01*
X30057Y-39740D01*
X30057Y-39743D01*
X30057Y-39743D01*
X30057Y-39743D01*
X30057Y-39744D01*
X30057Y-39960D01*
X30026Y-39960D01*
X29999Y-39966D01*
X29974Y-39976D01*
X29951Y-39991D01*
X29932Y-40010D01*
X29917Y-40033D01*
X29907Y-40058D01*
X29901Y-40085D01*
X29901Y-40112D01*
X29901Y-40702D01*
X29907Y-40728D01*
X29917Y-40753D01*
X29932Y-40776D01*
X29951Y-40795D01*
X29974Y-40810D01*
X29999Y-40821D01*
X30026Y-40826D01*
X30053Y-40826D01*
X30057Y-40826D01*
X30057Y-46889D01*
X29123Y-47823D01*
X29109Y-47840D01*
X29095Y-47857D01*
X29094Y-47858D01*
X29093Y-47859D01*
X29083Y-47879D01*
X29072Y-47898D01*
X29072Y-47899D01*
X29071Y-47900D01*
X29065Y-47921D01*
X29058Y-47942D01*
X29058Y-47943D01*
X29058Y-47945D01*
X29056Y-47966D01*
X29053Y-47988D01*
X29053Y-47991D01*
X29053Y-47991D01*
X29053Y-47991D01*
X29053Y-47992D01*
X29053Y-49888D01*
X28998Y-49944D01*
X28998Y-48554D01*
X28998Y-48523D01*
X28998Y-48185D01*
X28998Y-48027D01*
X28998Y-47688D01*
X28998Y-47657D01*
X28991Y-47627D01*
X28980Y-47598D01*
X28962Y-47572D01*
X28940Y-47550D01*
X28915Y-47533D01*
X28886Y-47521D01*
X28856Y-47515D01*
X28781Y-47515D01*
X28742Y-47555D01*
X28742Y-48066D01*
X28958Y-48066D01*
X28998Y-48027D01*
X28998Y-48185D01*
X28958Y-48145D01*
X28742Y-48145D01*
X28742Y-48657D01*
X28781Y-48696D01*
X28856Y-48696D01*
X28886Y-48690D01*
X28915Y-48678D01*
X28940Y-48661D01*
X28962Y-48639D01*
X28980Y-48613D01*
X28991Y-48585D01*
X28998Y-48554D01*
X28998Y-49944D01*
X28786Y-50155D01*
X28663Y-50155D01*
X28663Y-48657D01*
X28663Y-48145D01*
X28655Y-48145D01*
X28655Y-48066D01*
X28663Y-48066D01*
X28663Y-47555D01*
X28624Y-47515D01*
X28549Y-47515D01*
X28519Y-47521D01*
X28490Y-47533D01*
X28464Y-47550D01*
X28442Y-47572D01*
X28439Y-47577D01*
X28428Y-47566D01*
X28405Y-47551D01*
X28400Y-47548D01*
X28400Y-47494D01*
X28398Y-47475D01*
X28397Y-47457D01*
X28396Y-47456D01*
X28396Y-47455D01*
X28391Y-47438D01*
X28386Y-47420D01*
X28385Y-47419D01*
X28385Y-47418D01*
X28377Y-47402D01*
X28368Y-47386D01*
X28367Y-47385D01*
X28367Y-47384D01*
X28355Y-47370D01*
X28344Y-47356D01*
X28343Y-47354D01*
X28343Y-47354D01*
X28343Y-47354D01*
X28342Y-47354D01*
X28210Y-47222D01*
X28196Y-47210D01*
X28182Y-47199D01*
X28181Y-47198D01*
X28180Y-47197D01*
X28164Y-47189D01*
X28148Y-47180D01*
X28147Y-47180D01*
X28146Y-47179D01*
X28129Y-47174D01*
X28111Y-47168D01*
X28110Y-47168D01*
X28109Y-47168D01*
X28091Y-47166D01*
X28073Y-47164D01*
X28071Y-47164D01*
X28071Y-47164D01*
X28071Y-47164D01*
X28070Y-47164D01*
X27969Y-47164D01*
X27963Y-47158D01*
X27920Y-47129D01*
X27873Y-47109D01*
X27822Y-47099D01*
X27771Y-47099D01*
X27720Y-47108D01*
X27672Y-47128D01*
X27629Y-47156D01*
X27592Y-47192D01*
X27563Y-47234D01*
X27543Y-47282D01*
X27532Y-47332D01*
X27532Y-47384D01*
X27541Y-47434D01*
X27560Y-47482D01*
X27588Y-47526D01*
X27597Y-47535D01*
X27551Y-47535D01*
X27524Y-47540D01*
X27499Y-47551D01*
X27477Y-47566D01*
X27457Y-47585D01*
X27452Y-47593D01*
X27447Y-47585D01*
X27428Y-47566D01*
X27405Y-47551D01*
X27380Y-47540D01*
X27354Y-47535D01*
X27326Y-47535D01*
X27051Y-47535D01*
X27024Y-47540D01*
X26999Y-47551D01*
X26977Y-47566D01*
X26957Y-47585D01*
X26942Y-47607D01*
X26932Y-47633D01*
X26927Y-47659D01*
X26927Y-47686D01*
X26927Y-48552D01*
X26932Y-48579D01*
X26942Y-48604D01*
X26957Y-48627D01*
X26977Y-48646D01*
X26999Y-48661D01*
X27024Y-48671D01*
X27028Y-48672D01*
X27036Y-48688D01*
X27037Y-48689D01*
X27038Y-48690D01*
X27049Y-48704D01*
X27060Y-48718D01*
X27062Y-48720D01*
X27062Y-48720D01*
X27062Y-48720D01*
X27062Y-48720D01*
X27335Y-48993D01*
X27335Y-48998D01*
X27344Y-49049D01*
X27363Y-49097D01*
X27391Y-49140D01*
X27427Y-49177D01*
X27469Y-49206D01*
X27516Y-49227D01*
X27567Y-49238D01*
X27618Y-49239D01*
X27669Y-49230D01*
X27717Y-49212D01*
X27761Y-49184D01*
X27798Y-49148D01*
X27828Y-49106D01*
X27848Y-49059D01*
X27860Y-49009D01*
X27861Y-48950D01*
X27858Y-48935D01*
X27875Y-48978D01*
X27903Y-49022D01*
X27939Y-49059D01*
X27981Y-49088D01*
X28028Y-49109D01*
X28078Y-49120D01*
X28130Y-49121D01*
X28181Y-49112D01*
X28229Y-49093D01*
X28272Y-49066D01*
X28310Y-49030D01*
X28339Y-48988D01*
X28360Y-48941D01*
X28372Y-48891D01*
X28373Y-48832D01*
X28363Y-48781D01*
X28343Y-48734D01*
X28314Y-48691D01*
X28300Y-48677D01*
X28354Y-48677D01*
X28380Y-48671D01*
X28405Y-48661D01*
X28428Y-48646D01*
X28439Y-48635D01*
X28442Y-48639D01*
X28464Y-48661D01*
X28490Y-48678D01*
X28519Y-48690D01*
X28549Y-48696D01*
X28624Y-48696D01*
X28663Y-48657D01*
X28663Y-50155D01*
X28244Y-50155D01*
X28254Y-50111D01*
X28254Y-50052D01*
X28244Y-50002D01*
X28225Y-49954D01*
X28208Y-49928D01*
X28229Y-49920D01*
X28272Y-49893D01*
X28310Y-49857D01*
X28339Y-49815D01*
X28360Y-49768D01*
X28372Y-49718D01*
X28373Y-49659D01*
X28363Y-49608D01*
X28343Y-49561D01*
X28314Y-49518D01*
X28278Y-49481D01*
X28235Y-49452D01*
X28188Y-49432D01*
X28137Y-49422D01*
X28086Y-49422D01*
X28035Y-49431D01*
X27987Y-49451D01*
X27944Y-49479D01*
X27936Y-49487D01*
X27801Y-49487D01*
X27782Y-49489D01*
X27764Y-49490D01*
X27763Y-49490D01*
X27762Y-49491D01*
X27745Y-49496D01*
X27727Y-49501D01*
X27726Y-49501D01*
X27725Y-49502D01*
X27709Y-49510D01*
X27693Y-49519D01*
X27692Y-49519D01*
X27691Y-49520D01*
X27677Y-49531D01*
X27663Y-49543D01*
X27661Y-49544D01*
X27661Y-49544D01*
X27661Y-49544D01*
X27661Y-49545D01*
X26837Y-50368D01*
X26837Y-49304D01*
X26827Y-49254D01*
X26812Y-49217D01*
X26812Y-46968D01*
X26810Y-46946D01*
X26808Y-46924D01*
X26808Y-46923D01*
X26808Y-46922D01*
X26801Y-46901D01*
X26795Y-46880D01*
X26795Y-46879D01*
X26794Y-46877D01*
X26784Y-46858D01*
X26774Y-46838D01*
X26773Y-46838D01*
X26772Y-46836D01*
X26758Y-46819D01*
X26745Y-46802D01*
X26743Y-46800D01*
X26743Y-46800D01*
X26743Y-46800D01*
X26742Y-46800D01*
X26202Y-46259D01*
X26202Y-46259D01*
X26233Y-46259D01*
X26260Y-46254D01*
X26285Y-46243D01*
X26307Y-46228D01*
X26327Y-46209D01*
X26342Y-46187D01*
X26352Y-46161D01*
X26357Y-46135D01*
X26357Y-46108D01*
X26357Y-45518D01*
X26352Y-45491D01*
X26342Y-45466D01*
X26327Y-45443D01*
X26307Y-45424D01*
X26285Y-45409D01*
X26260Y-45399D01*
X26233Y-45393D01*
X26206Y-45393D01*
X26202Y-45393D01*
X26202Y-45196D01*
X26233Y-45196D01*
X26260Y-45191D01*
X26285Y-45180D01*
X26307Y-45165D01*
X26327Y-45146D01*
X26342Y-45124D01*
X26352Y-45098D01*
X26357Y-45072D01*
X26357Y-45045D01*
X26357Y-45026D01*
X26398Y-45027D01*
X26448Y-45018D01*
X26497Y-44999D01*
X26540Y-44971D01*
X26577Y-44936D01*
X26607Y-44894D01*
X26628Y-44847D01*
X26639Y-44796D01*
X26640Y-44738D01*
X26630Y-44687D01*
X26611Y-44639D01*
X26582Y-44596D01*
X26546Y-44560D01*
X26503Y-44531D01*
X26456Y-44511D01*
X26405Y-44501D01*
X26357Y-44500D01*
X26357Y-44455D01*
X26352Y-44428D01*
X26342Y-44403D01*
X26327Y-44380D01*
X26307Y-44361D01*
X26285Y-44346D01*
X26260Y-44336D01*
X26233Y-44330D01*
X26206Y-44330D01*
X25695Y-44330D01*
X25668Y-44336D01*
X25643Y-44346D01*
X25621Y-44361D01*
X25602Y-44380D01*
X25594Y-44368D01*
X25572Y-44346D01*
X25546Y-44329D01*
X25517Y-44317D01*
X25487Y-44311D01*
X25295Y-44311D01*
X25255Y-44350D01*
X25255Y-44724D01*
X25263Y-44724D01*
X25263Y-44803D01*
X25255Y-44803D01*
X25255Y-45176D01*
X25295Y-45216D01*
X25487Y-45216D01*
X25517Y-45210D01*
X25546Y-45198D01*
X25572Y-45181D01*
X25594Y-45159D01*
X25602Y-45147D01*
X25621Y-45165D01*
X25643Y-45180D01*
X25668Y-45191D01*
X25695Y-45196D01*
X25722Y-45196D01*
X25726Y-45196D01*
X25726Y-45393D01*
X25695Y-45393D01*
X25668Y-45399D01*
X25643Y-45409D01*
X25621Y-45424D01*
X25602Y-45443D01*
X25594Y-45431D01*
X25572Y-45409D01*
X25546Y-45392D01*
X25517Y-45380D01*
X25487Y-45374D01*
X25295Y-45374D01*
X25255Y-45413D01*
X25255Y-45787D01*
X25263Y-45787D01*
X25263Y-45866D01*
X25255Y-45866D01*
X25255Y-46239D01*
X25295Y-46279D01*
X25487Y-46279D01*
X25517Y-46273D01*
X25546Y-46261D01*
X25572Y-46244D01*
X25594Y-46222D01*
X25602Y-46210D01*
X25621Y-46228D01*
X25643Y-46243D01*
X25668Y-46254D01*
X25695Y-46259D01*
X25722Y-46259D01*
X25726Y-46259D01*
X25726Y-46358D01*
X25728Y-46380D01*
X25730Y-46401D01*
X25731Y-46403D01*
X25731Y-46404D01*
X25737Y-46425D01*
X25743Y-46446D01*
X25744Y-46447D01*
X25744Y-46448D01*
X25755Y-46468D01*
X25765Y-46487D01*
X25765Y-46488D01*
X25766Y-46489D01*
X25780Y-46506D01*
X25794Y-46524D01*
X25795Y-46525D01*
X25795Y-46525D01*
X25795Y-46525D01*
X25796Y-46526D01*
X26337Y-47067D01*
X26337Y-49218D01*
X26323Y-49250D01*
X26312Y-49301D01*
X26311Y-49352D01*
X26320Y-49403D01*
X26339Y-49451D01*
X26367Y-49494D01*
X26403Y-49531D01*
X26445Y-49561D01*
X26493Y-49581D01*
X26543Y-49592D01*
X26595Y-49593D01*
X26645Y-49585D01*
X26693Y-49566D01*
X26737Y-49538D01*
X26774Y-49503D01*
X26804Y-49461D01*
X26825Y-49414D01*
X26836Y-49363D01*
X26837Y-49304D01*
X26837Y-50368D01*
X26710Y-50495D01*
X26698Y-50510D01*
X26687Y-50524D01*
X26686Y-50524D01*
X26686Y-50525D01*
X26677Y-50541D01*
X26668Y-50557D01*
X26668Y-50558D01*
X26667Y-50559D01*
X26662Y-50577D01*
X26656Y-50594D01*
X26656Y-50595D01*
X26656Y-50596D01*
X26654Y-50614D01*
X26652Y-50633D01*
X26652Y-50635D01*
X26652Y-50635D01*
X26652Y-50635D01*
X26652Y-50635D01*
X26652Y-52087D01*
X26654Y-52105D01*
X26654Y-52106D01*
X26437Y-52106D01*
X26437Y-54192D01*
X29507Y-54192D01*
X29507Y-53866D01*
X29522Y-53859D01*
X29541Y-53849D01*
X29542Y-53848D01*
X29543Y-53847D01*
X29560Y-53833D01*
X29578Y-53820D01*
X29579Y-53818D01*
X29579Y-53818D01*
X29579Y-53818D01*
X29580Y-53817D01*
X29896Y-53501D01*
X29910Y-53484D01*
X29924Y-53468D01*
X29925Y-53467D01*
X29925Y-53466D01*
X29936Y-53446D01*
X29946Y-53427D01*
X29947Y-53426D01*
X29947Y-53425D01*
X29954Y-53404D01*
X29960Y-53383D01*
X29960Y-53381D01*
X29961Y-53380D01*
X29963Y-53358D01*
X29965Y-53337D01*
X29965Y-53334D01*
X29965Y-53334D01*
X29965Y-53334D01*
X29965Y-53333D01*
X29965Y-51236D01*
X29963Y-51215D01*
X29961Y-51193D01*
X29961Y-51191D01*
X29961Y-51190D01*
X29955Y-51169D01*
X29948Y-51148D01*
X29948Y-51147D01*
X29948Y-51146D01*
X29937Y-51126D01*
X29927Y-51107D01*
X29926Y-51106D01*
X29926Y-51105D01*
X29912Y-51088D01*
X29898Y-51071D01*
X29896Y-51069D01*
X29896Y-51069D01*
X29896Y-51069D01*
X29896Y-51068D01*
X29221Y-50393D01*
X29459Y-50155D01*
X29473Y-50138D01*
X29487Y-50121D01*
X29488Y-50120D01*
X29488Y-50119D01*
X29499Y-50100D01*
X29509Y-50081D01*
X29510Y-50079D01*
X29510Y-50078D01*
X29517Y-50057D01*
X29523Y-50036D01*
X29524Y-50035D01*
X29524Y-50034D01*
X29526Y-50012D01*
X29529Y-49990D01*
X29529Y-49988D01*
X29529Y-49988D01*
X29529Y-49988D01*
X29529Y-49987D01*
X29529Y-48090D01*
X30463Y-47156D01*
X30477Y-47139D01*
X30491Y-47122D01*
X30492Y-47121D01*
X30492Y-47120D01*
X30503Y-47101D01*
X30513Y-47081D01*
X30514Y-47080D01*
X30514Y-47079D01*
X30521Y-47058D01*
X30527Y-47037D01*
X30528Y-47036D01*
X30528Y-47035D01*
X30530Y-47013D01*
X30533Y-46991D01*
X30533Y-46989D01*
X30533Y-46989D01*
X30533Y-46988D01*
X30533Y-46988D01*
X30533Y-40826D01*
X30564Y-40826D01*
X30590Y-40821D01*
X30616Y-40810D01*
X30638Y-40795D01*
X30657Y-40776D01*
X30669Y-40759D01*
X30680Y-40776D01*
X30699Y-40795D01*
X30722Y-40810D01*
X30747Y-40821D01*
X30774Y-40826D01*
X30801Y-40826D01*
X30845Y-40826D01*
X30845Y-41269D01*
X30831Y-41290D01*
X30811Y-41337D01*
X30800Y-41387D01*
X30799Y-41439D01*
X30809Y-41490D01*
X30828Y-41538D01*
X30856Y-41581D01*
X30891Y-41618D01*
X30934Y-41647D01*
X30981Y-41668D01*
X31031Y-41679D01*
X31083Y-41680D01*
X31134Y-41671D01*
X31182Y-41653D01*
X31225Y-41625D01*
X31262Y-41589D01*
X31292Y-41547D01*
X31313Y-41500D01*
X31324Y-41450D01*
X31325Y-41391D01*
X31315Y-41340D01*
X31296Y-41293D01*
X31267Y-41250D01*
X31241Y-41223D01*
X31241Y-40826D01*
X31312Y-40826D01*
X31338Y-40821D01*
X31364Y-40810D01*
X31386Y-40795D01*
X31405Y-40776D01*
X31420Y-40753D01*
X31431Y-40728D01*
X31436Y-40702D01*
X31436Y-48279D01*
X31426Y-48248D01*
X31420Y-48233D01*
X31414Y-48219D01*
X31413Y-48216D01*
X31413Y-48216D01*
X31364Y-48129D01*
X31355Y-48116D01*
X31346Y-48102D01*
X31345Y-48100D01*
X31345Y-48100D01*
X31345Y-48100D01*
X31281Y-48024D01*
X31269Y-48013D01*
X31258Y-48001D01*
X31256Y-48000D01*
X31256Y-48000D01*
X31256Y-48000D01*
X31178Y-47937D01*
X31165Y-47928D01*
X31151Y-47919D01*
X31149Y-47918D01*
X31149Y-47918D01*
X31149Y-47918D01*
X31061Y-47872D01*
X31046Y-47866D01*
X31031Y-47860D01*
X31029Y-47859D01*
X31029Y-47859D01*
X31029Y-47859D01*
X30933Y-47831D01*
X30917Y-47828D01*
X30901Y-47824D01*
X30899Y-47824D01*
X30799Y-47815D01*
X30783Y-47815D01*
X30767Y-47815D01*
X30765Y-47815D01*
X30665Y-47826D01*
X30650Y-47829D01*
X30634Y-47832D01*
X30632Y-47833D01*
X30632Y-47833D01*
X30632Y-47833D01*
X30536Y-47862D01*
X30521Y-47869D01*
X30506Y-47875D01*
X30504Y-47876D01*
X30504Y-47876D01*
X30504Y-47876D01*
X30416Y-47923D01*
X30403Y-47932D01*
X30390Y-47941D01*
X30388Y-47943D01*
X30388Y-47943D01*
X30388Y-47943D01*
X30311Y-48006D01*
X30299Y-48018D01*
X30288Y-48029D01*
X30286Y-48031D01*
X30223Y-48108D01*
X30214Y-48122D01*
X30205Y-48135D01*
X30204Y-48137D01*
X30204Y-48137D01*
X30204Y-48137D01*
X30204Y-48137D01*
X30157Y-48225D01*
X30151Y-48240D01*
X30145Y-48255D01*
X30144Y-48257D01*
X30115Y-48353D01*
X30112Y-48369D01*
X30109Y-48384D01*
X30109Y-48387D01*
X30109Y-48387D01*
X30109Y-48387D01*
X30099Y-48486D01*
X30099Y-48493D01*
X30098Y-48501D01*
X30098Y-48503D01*
X30098Y-53228D01*
X30098Y-53228D01*
X30098Y-53229D01*
X30098Y-53236D01*
X30099Y-53244D01*
X30099Y-53252D01*
X30099Y-53255D01*
X30110Y-53354D01*
X30114Y-53370D01*
X30117Y-53385D01*
X30117Y-53388D01*
X30148Y-53483D01*
X30154Y-53498D01*
X30160Y-53513D01*
X30161Y-53515D01*
X30161Y-53515D01*
X30161Y-53515D01*
X30209Y-53602D01*
X30218Y-53616D01*
X30227Y-53629D01*
X30229Y-53631D01*
X30229Y-53631D01*
X30229Y-53631D01*
X30229Y-53631D01*
X30293Y-53707D01*
X30305Y-53719D01*
X30316Y-53730D01*
X30318Y-53732D01*
X30318Y-53732D01*
X30318Y-53732D01*
X30318Y-53732D01*
X30396Y-53794D01*
X30409Y-53803D01*
X30422Y-53812D01*
X30425Y-53813D01*
X30425Y-53813D01*
X30425Y-53813D01*
X30513Y-53859D01*
X30528Y-53865D01*
X30543Y-53872D01*
X30545Y-53872D01*
X30545Y-53872D01*
X30641Y-53901D01*
X30657Y-53904D01*
X30672Y-53907D01*
X30675Y-53907D01*
X30675Y-53907D01*
X30774Y-53916D01*
X30790Y-53916D01*
X30807Y-53916D01*
X30809Y-53916D01*
X30908Y-53905D01*
X30924Y-53902D01*
X30940Y-53899D01*
X30942Y-53898D01*
X30942Y-53898D01*
X30942Y-53898D01*
X30942Y-53898D01*
X31038Y-53869D01*
X31052Y-53863D01*
X31067Y-53857D01*
X31069Y-53856D01*
X31070Y-53856D01*
X31070Y-53856D01*
X31070Y-53856D01*
X31157Y-53808D01*
X31171Y-53799D01*
X31184Y-53790D01*
X31186Y-53789D01*
X31186Y-53789D01*
X31186Y-53789D01*
X31186Y-53789D01*
X31263Y-53725D01*
X31274Y-53714D01*
X31286Y-53702D01*
X31287Y-53700D01*
X31287Y-53700D01*
X31287Y-53700D01*
X31287Y-53700D01*
X31350Y-53623D01*
X31359Y-53610D01*
X31368Y-53596D01*
X31370Y-53594D01*
X31370Y-53594D01*
X31370Y-53594D01*
X31370Y-53594D01*
X31417Y-53506D01*
X31423Y-53491D01*
X31429Y-53476D01*
X31430Y-53474D01*
X31430Y-53474D01*
X31459Y-53378D01*
X31462Y-53363D01*
X31465Y-53347D01*
X31465Y-53345D01*
X31465Y-53345D01*
X31465Y-53345D01*
X31465Y-53345D01*
X31475Y-53245D01*
X31475Y-53238D01*
X31476Y-53230D01*
X31476Y-53228D01*
X31476Y-54169D01*
X31466Y-54178D01*
X31294Y-54271D01*
X31107Y-54329D01*
X30904Y-54350D01*
X25807Y-54350D01*
X25807Y-53228D01*
X25807Y-48503D01*
X25807Y-48503D01*
X25807Y-48502D01*
X25807Y-48495D01*
X25806Y-48487D01*
X25806Y-48479D01*
X25805Y-48477D01*
X25794Y-48377D01*
X25791Y-48362D01*
X25788Y-48346D01*
X25787Y-48343D01*
X25787Y-48343D01*
X25757Y-48248D01*
X25751Y-48233D01*
X25744Y-48219D01*
X25743Y-48216D01*
X25743Y-48216D01*
X25695Y-48129D01*
X25686Y-48116D01*
X25677Y-48102D01*
X25676Y-48100D01*
X25676Y-48100D01*
X25676Y-48100D01*
X25611Y-48024D01*
X25600Y-48013D01*
X25589Y-48001D01*
X25587Y-48000D01*
X25587Y-48000D01*
X25587Y-48000D01*
X25509Y-47937D01*
X25495Y-47928D01*
X25482Y-47919D01*
X25480Y-47918D01*
X25480Y-47918D01*
X25480Y-47918D01*
X25391Y-47872D01*
X25377Y-47866D01*
X25362Y-47860D01*
X25359Y-47859D01*
X25359Y-47859D01*
X25359Y-47859D01*
X25264Y-47831D01*
X25248Y-47828D01*
X25232Y-47824D01*
X25230Y-47824D01*
X25130Y-47815D01*
X25114Y-47815D01*
X25098Y-47815D01*
X25096Y-47815D01*
X24996Y-47826D01*
X24980Y-47829D01*
X24965Y-47832D01*
X24962Y-47833D01*
X24962Y-47833D01*
X24962Y-47833D01*
X24867Y-47862D01*
X24852Y-47869D01*
X24837Y-47875D01*
X24835Y-47876D01*
X24835Y-47876D01*
X24835Y-47876D01*
X24747Y-47923D01*
X24734Y-47932D01*
X24720Y-47941D01*
X24718Y-47943D01*
X24718Y-47943D01*
X24718Y-47943D01*
X24642Y-48006D01*
X24630Y-48018D01*
X24619Y-48029D01*
X24617Y-48031D01*
X24554Y-48108D01*
X24545Y-48122D01*
X24536Y-48135D01*
X24535Y-48137D01*
X24535Y-48137D01*
X24535Y-48137D01*
X24535Y-48137D01*
X24488Y-48225D01*
X24482Y-48240D01*
X24476Y-48255D01*
X24475Y-48257D01*
X24446Y-48353D01*
X24443Y-48369D01*
X24439Y-48384D01*
X24439Y-48387D01*
X24439Y-48387D01*
X24439Y-48387D01*
X24429Y-48486D01*
X24429Y-48493D01*
X24429Y-48500D01*
X24429Y-48503D01*
X24429Y-53228D01*
X24429Y-53228D01*
X24429Y-53229D01*
X24429Y-53236D01*
X24430Y-53244D01*
X24430Y-53252D01*
X24430Y-53255D01*
X24441Y-53354D01*
X24444Y-53370D01*
X24447Y-53385D01*
X24448Y-53388D01*
X24478Y-53483D01*
X24485Y-53498D01*
X24491Y-53513D01*
X24492Y-53515D01*
X24492Y-53515D01*
X24492Y-53515D01*
X24540Y-53602D01*
X24549Y-53616D01*
X24558Y-53629D01*
X24560Y-53631D01*
X24560Y-53631D01*
X24560Y-53631D01*
X24560Y-53631D01*
X24624Y-53707D01*
X24635Y-53719D01*
X24647Y-53730D01*
X24649Y-53732D01*
X24649Y-53732D01*
X24649Y-53732D01*
X24649Y-53732D01*
X24726Y-53794D01*
X24740Y-53803D01*
X24753Y-53812D01*
X24755Y-53813D01*
X24755Y-53813D01*
X24755Y-53813D01*
X24844Y-53859D01*
X24859Y-53865D01*
X24873Y-53872D01*
X24876Y-53872D01*
X24876Y-53872D01*
X24972Y-53901D01*
X24987Y-53904D01*
X25003Y-53907D01*
X25006Y-53907D01*
X25006Y-53907D01*
X25105Y-53916D01*
X25121Y-53916D01*
X25137Y-53916D01*
X25140Y-53916D01*
X25239Y-53905D01*
X25255Y-53902D01*
X25271Y-53899D01*
X25273Y-53898D01*
X25273Y-53898D01*
X25273Y-53898D01*
X25273Y-53898D01*
X25368Y-53869D01*
X25383Y-53863D01*
X25398Y-53857D01*
X25400Y-53856D01*
X25400Y-53856D01*
X25400Y-53856D01*
X25400Y-53856D01*
X25488Y-53808D01*
X25501Y-53799D01*
X25515Y-53790D01*
X25517Y-53789D01*
X25517Y-53789D01*
X25517Y-53789D01*
X25517Y-53789D01*
X25594Y-53725D01*
X25605Y-53714D01*
X25616Y-53702D01*
X25618Y-53700D01*
X25618Y-53700D01*
X25618Y-53700D01*
X25618Y-53700D01*
X25681Y-53623D01*
X25690Y-53610D01*
X25699Y-53596D01*
X25700Y-53594D01*
X25700Y-53594D01*
X25700Y-53594D01*
X25700Y-53594D01*
X25747Y-53506D01*
X25753Y-53491D01*
X25760Y-53476D01*
X25760Y-53474D01*
X25760Y-53474D01*
X25789Y-53378D01*
X25792Y-53363D01*
X25796Y-53347D01*
X25796Y-53345D01*
X25796Y-53345D01*
X25796Y-53345D01*
X25796Y-53345D01*
X25806Y-53245D01*
X25806Y-53238D01*
X25807Y-53230D01*
X25807Y-53228D01*
X25807Y-54350D01*
X25008Y-54350D01*
X24805Y-54330D01*
X24617Y-54273D01*
X24444Y-54181D01*
X24293Y-54058D01*
X24168Y-53907D01*
X24075Y-53735D01*
X24017Y-53548D01*
X23996Y-53345D01*
X23996Y-16347D01*
X24016Y-16143D01*
X24072Y-15956D01*
X24164Y-15783D01*
X24288Y-15631D01*
X24439Y-15506D01*
X24611Y-15413D01*
X24798Y-15355D01*
X25001Y-15334D01*
X30896Y-15334D01*
X31100Y-15354D01*
X31287Y-15411D01*
X31460Y-15503D01*
X31612Y-15626D01*
X31737Y-15777D01*
X31830Y-15949D01*
X31888Y-16136D01*
X31909Y-16339D01*
X31909Y-53337D01*
M02*
