%FSLAX34Y34*%
G04 Gerber Fmt 3.4, Leading zero omitted, Abs format*
G04 (created by PCBNEW (2014-06-20 BZR 4952)-product) date Sat 21 Jun 2014 01:59:42 PM CEST*
%MOIN*%
G01*
G70*
G90*
G04 APERTURE LIST*
%ADD10C,0.005906*%
%ADD11C,0.019685*%
%ADD12C,0.007874*%
%ADD13C,0.065000*%
%ADD14R,0.065000X0.064961*%
%ADD15C,0.078740*%
%ADD16R,0.090551X0.060236*%
%ADD17R,0.124016X0.027559*%
%ADD18R,0.090551X0.022835*%
%ADD19R,0.055118X0.098425*%
G04 APERTURE END LIST*
G54D10*
G54D11*
X29881Y-25728D02*
X31456Y-25728D01*
X30669Y-24744D02*
X29881Y-25728D01*
X30669Y-24744D02*
X31456Y-25728D01*
X30669Y-44921D02*
X31456Y-43937D01*
X30669Y-44921D02*
X29881Y-43937D01*
X31456Y-43937D02*
X29881Y-43937D01*
G54D12*
X28937Y-44291D02*
X28937Y-46259D01*
X28937Y-46259D02*
X26968Y-46259D01*
X26968Y-46259D02*
X26968Y-44488D01*
X26968Y-44488D02*
X27165Y-44291D01*
X27165Y-44291D02*
X28937Y-44291D01*
X28937Y-40157D02*
X28937Y-42125D01*
X28937Y-42125D02*
X26968Y-42125D01*
X26968Y-42125D02*
X26968Y-40354D01*
X26968Y-40354D02*
X27165Y-40157D01*
X27165Y-40157D02*
X28937Y-40157D01*
X28937Y-36023D02*
X28937Y-37992D01*
X28937Y-37992D02*
X26968Y-37992D01*
X26968Y-37992D02*
X26968Y-36220D01*
X26968Y-36220D02*
X27165Y-36023D01*
X27165Y-36023D02*
X28937Y-36023D01*
X28937Y-31692D02*
X28937Y-33661D01*
X28937Y-33661D02*
X26968Y-33661D01*
X26968Y-33661D02*
X26968Y-31889D01*
X26968Y-31889D02*
X27165Y-31692D01*
X27165Y-31692D02*
X28937Y-31692D01*
X28937Y-27559D02*
X28937Y-29527D01*
X28937Y-29527D02*
X26968Y-29527D01*
X26968Y-29527D02*
X26968Y-27755D01*
X26968Y-27755D02*
X27165Y-27559D01*
X27165Y-27559D02*
X28937Y-27559D01*
X28937Y-23425D02*
X28937Y-25393D01*
X28937Y-25393D02*
X26968Y-25393D01*
X26968Y-25393D02*
X26968Y-23622D01*
X26968Y-23622D02*
X27165Y-23425D01*
X27165Y-23425D02*
X28937Y-23425D01*
%LPC*%
G54D13*
X28952Y-52649D03*
X28952Y-53649D03*
X27952Y-52649D03*
X27952Y-53649D03*
X26952Y-52649D03*
X26952Y-53649D03*
G54D14*
X28952Y-52649D03*
G54D15*
X27452Y-19291D03*
X28452Y-19291D03*
G54D16*
X27952Y-45027D03*
G54D17*
X27952Y-44610D03*
G54D18*
X27952Y-45708D03*
G54D17*
X27952Y-45937D03*
G54D16*
X27952Y-40893D03*
G54D17*
X27952Y-40476D03*
G54D18*
X27952Y-41574D03*
G54D17*
X27952Y-41803D03*
G54D16*
X27952Y-36759D03*
G54D17*
X27952Y-36342D03*
G54D18*
X27952Y-37440D03*
G54D17*
X27952Y-37669D03*
G54D16*
X27952Y-32429D03*
G54D17*
X27952Y-32011D03*
G54D18*
X27952Y-33110D03*
G54D17*
X27952Y-33338D03*
G54D16*
X27952Y-28295D03*
G54D17*
X27952Y-27877D03*
G54D18*
X27952Y-28976D03*
G54D17*
X27952Y-29204D03*
G54D16*
X27952Y-24161D03*
G54D17*
X27952Y-23744D03*
G54D18*
X27952Y-24842D03*
G54D17*
X27952Y-25070D03*
G54D19*
X30314Y-43188D03*
X31023Y-43188D03*
X31023Y-26476D03*
X30314Y-26476D03*
M02*
