M48
METRIC,TZ
T1C0.330
T2C1.016
%
G90
G05
T1
X063000Y-105200
X063700Y-119600
X065000Y-104600
X067000Y-113700
X067100Y-065991
X067100Y-066963
X067100Y-068000
X068000Y-110000
X068600Y-056400
X068900Y-121700
X069523Y-117900
X070284Y-117900
X070600Y-124700
X070900Y-121600
X071000Y-117900
X072800Y-122118
X074900Y-102700
X076900Y-122400
X077900Y-077200
X078600Y-105300
X078800Y-083900
X079000Y-056400
T2
X068460Y-130530
X068460Y-133070
X069730Y-049000
X071000Y-130530
X071000Y-133070
X072270Y-049000
X073540Y-130530
X073540Y-133070
T0
M30
