M48
METRIC,TZ
T1C0.330
T2C0.350
T3C1.016
%
G90
G05
T1
X063000Y-103800
X065400Y-102800
X067000Y-113700
X067100Y-065991
X067100Y-066963
X067100Y-068000
X068000Y-110000
X068600Y-056400
X069000Y-121100
X069523Y-117900
X070284Y-117900
X071000Y-117900
X071000Y-123700
X071600Y-120700
X072300Y-127000
X074900Y-126100
X076100Y-102600
X076900Y-122400
X077900Y-077200
X078600Y-105300
X078800Y-086600
X079500Y-059800
T2
X069730Y-131165
X069730Y-132435
X071000Y-131165
X071000Y-132435
X072270Y-131165
X072270Y-132435
T3
X069730Y-049000
X072270Y-049000
T0
M30
