%FSLAX34Y34*%
G04 Gerber Fmt 3.4, Leading zero omitted, Abs format*
G04 (created by PCBNEW (2014-05-29 BZR 4898)-product) date Thu 29 May 2014 09:35:06 PM CEST*
%MOIN*%
G01*
G70*
G90*
G04 APERTURE LIST*
%ADD10C,0.005906*%
%ADD11R,0.065000X0.065000*%
%ADD12C,0.065000*%
%ADD13R,0.090551X0.060236*%
%ADD14R,0.124016X0.027559*%
%ADD15R,0.090551X0.022835*%
%ADD16R,0.055118X0.098425*%
%ADD17C,0.025000*%
%ADD18C,0.020000*%
%ADD19C,0.016000*%
%ADD20C,0.050000*%
%ADD21C,0.012000*%
%ADD22C,0.007874*%
G04 APERTURE END LIST*
G54D10*
G54D11*
X28952Y-52649D03*
G54D12*
X28952Y-53649D03*
X27952Y-52649D03*
X27952Y-53649D03*
X26952Y-52649D03*
X26952Y-53649D03*
G54D13*
X27952Y-45027D03*
G54D14*
X27952Y-44610D03*
G54D15*
X27952Y-45708D03*
G54D14*
X27952Y-45937D03*
G54D13*
X27952Y-40893D03*
G54D14*
X27952Y-40476D03*
G54D15*
X27952Y-41574D03*
G54D14*
X27952Y-41803D03*
G54D13*
X27952Y-36759D03*
G54D14*
X27952Y-36342D03*
G54D15*
X27952Y-37440D03*
G54D14*
X27952Y-37669D03*
G54D13*
X27952Y-32429D03*
G54D14*
X27952Y-32011D03*
G54D15*
X27952Y-33110D03*
G54D14*
X27952Y-33338D03*
G54D13*
X27952Y-28295D03*
G54D14*
X27952Y-27877D03*
G54D15*
X27952Y-28976D03*
G54D14*
X27952Y-29204D03*
G54D13*
X27952Y-24161D03*
G54D14*
X27952Y-23744D03*
G54D15*
X27952Y-24842D03*
G54D14*
X27952Y-25070D03*
G54D16*
X30314Y-40393D03*
X31023Y-40393D03*
X31023Y-29291D03*
X30314Y-29291D03*
G54D12*
X28452Y-19291D03*
X27452Y-19291D03*
G54D17*
X29212Y-40393D03*
X31417Y-22716D03*
X26496Y-22204D03*
X27371Y-46417D03*
X27670Y-46417D03*
X27952Y-46417D03*
X25787Y-47362D03*
X27795Y-47362D03*
X24803Y-41181D03*
X25590Y-41181D03*
X27598Y-48976D03*
X28110Y-49685D03*
X27992Y-50078D03*
X26574Y-49330D03*
X26377Y-44763D03*
X26771Y-43307D03*
X29842Y-39370D03*
X26417Y-26771D03*
X26417Y-26363D03*
X26417Y-25980D03*
X30708Y-39330D03*
X28070Y-48858D03*
X27244Y-22677D03*
X27637Y-22677D03*
X27440Y-22874D03*
X27244Y-23070D03*
X27637Y-23070D03*
G54D18*
X30314Y-40393D02*
X29212Y-40393D01*
G54D19*
X26496Y-22204D02*
X29724Y-22204D01*
X29724Y-22204D02*
X30236Y-22716D01*
X30236Y-22716D02*
X31417Y-22716D01*
G54D20*
X27952Y-46417D02*
X27371Y-46417D01*
X27952Y-45937D02*
X27952Y-46417D01*
G54D18*
X27952Y-45937D02*
X27952Y-45708D01*
G54D21*
X27795Y-47362D02*
X25787Y-47362D01*
X24803Y-41181D02*
X25590Y-41181D01*
X28110Y-49685D02*
X28110Y-49330D01*
X27755Y-48976D02*
X27598Y-48976D01*
X28110Y-49330D02*
X27755Y-48976D01*
G54D18*
X30314Y-29291D02*
X30314Y-38897D01*
X26574Y-49330D02*
X26574Y-49724D01*
X26574Y-49724D02*
X26929Y-50078D01*
X26929Y-50078D02*
X27992Y-50078D01*
X26377Y-44763D02*
X26811Y-44330D01*
X26811Y-44330D02*
X26811Y-43346D01*
X26811Y-43346D02*
X26771Y-43307D01*
X30314Y-38897D02*
X29842Y-39370D01*
G54D20*
X26417Y-24724D02*
X26980Y-24161D01*
X26980Y-24161D02*
X27952Y-24161D01*
X26417Y-25980D02*
X26417Y-24724D01*
X26417Y-26771D02*
X26417Y-25980D01*
G54D18*
X27952Y-24161D02*
X27952Y-23744D01*
G54D20*
X27952Y-44610D02*
X27952Y-41803D01*
G54D18*
X27952Y-45027D02*
X27952Y-44610D01*
X27952Y-41574D02*
X27952Y-41803D01*
G54D20*
X27952Y-40893D02*
X27952Y-37669D01*
G54D18*
X27952Y-40893D02*
X27952Y-40476D01*
X27952Y-37440D02*
X27952Y-37669D01*
G54D20*
X27952Y-36759D02*
X27952Y-33338D01*
G54D18*
X27952Y-36759D02*
X27952Y-36342D01*
X27952Y-33110D02*
X27952Y-33338D01*
G54D20*
X27952Y-32429D02*
X27952Y-29204D01*
G54D18*
X27952Y-32429D02*
X27952Y-32011D01*
X27952Y-28976D02*
X27952Y-29204D01*
G54D20*
X27952Y-28295D02*
X27952Y-25070D01*
G54D18*
X27952Y-28295D02*
X27952Y-27877D01*
X27952Y-24842D02*
X27952Y-25070D01*
G54D21*
X28070Y-48858D02*
X28425Y-49212D01*
X28425Y-49212D02*
X28818Y-49212D01*
X28818Y-49212D02*
X29212Y-48818D01*
X29212Y-48818D02*
X29212Y-46835D01*
X29212Y-46835D02*
X30196Y-45851D01*
X30196Y-45851D02*
X30196Y-42165D01*
X30196Y-42165D02*
X31023Y-41338D01*
X31023Y-41338D02*
X31023Y-40393D01*
X30708Y-39330D02*
X30748Y-39370D01*
X30748Y-39370D02*
X31023Y-39370D01*
X31023Y-40393D02*
X31023Y-39370D01*
X31023Y-39370D02*
X31023Y-29291D01*
G54D22*
G36*
X31909Y-53337D02*
X31889Y-53541D01*
X31832Y-53728D01*
X31741Y-53901D01*
X31680Y-53976D01*
X31680Y-22690D01*
X31670Y-22640D01*
X31650Y-22592D01*
X31621Y-22549D01*
X31585Y-22513D01*
X31542Y-22484D01*
X31495Y-22464D01*
X31476Y-22460D01*
X31476Y-21181D01*
X31476Y-18290D01*
X31476Y-16456D01*
X31476Y-16456D01*
X31476Y-16455D01*
X31476Y-16448D01*
X31475Y-16440D01*
X31475Y-16432D01*
X31475Y-16429D01*
X31464Y-16330D01*
X31460Y-16314D01*
X31457Y-16299D01*
X31456Y-16296D01*
X31456Y-16296D01*
X31426Y-16201D01*
X31420Y-16186D01*
X31414Y-16171D01*
X31413Y-16169D01*
X31413Y-16169D01*
X31364Y-16082D01*
X31355Y-16068D01*
X31346Y-16055D01*
X31345Y-16053D01*
X31345Y-16053D01*
X31345Y-16053D01*
X31281Y-15977D01*
X31269Y-15965D01*
X31258Y-15954D01*
X31256Y-15952D01*
X31256Y-15952D01*
X31256Y-15952D01*
X31178Y-15890D01*
X31165Y-15881D01*
X31151Y-15872D01*
X31149Y-15871D01*
X31149Y-15871D01*
X31149Y-15871D01*
X31061Y-15825D01*
X31046Y-15819D01*
X31031Y-15812D01*
X31029Y-15812D01*
X31029Y-15812D01*
X31029Y-15812D01*
X30933Y-15783D01*
X30917Y-15780D01*
X30901Y-15777D01*
X30899Y-15777D01*
X30799Y-15768D01*
X30783Y-15768D01*
X30767Y-15768D01*
X30765Y-15768D01*
X30665Y-15779D01*
X30650Y-15782D01*
X30634Y-15785D01*
X30632Y-15786D01*
X30632Y-15786D01*
X30632Y-15786D01*
X30536Y-15815D01*
X30521Y-15821D01*
X30506Y-15827D01*
X30504Y-15829D01*
X30504Y-15829D01*
X30504Y-15829D01*
X30416Y-15876D01*
X30403Y-15885D01*
X30390Y-15894D01*
X30388Y-15895D01*
X30388Y-15895D01*
X30388Y-15895D01*
X30311Y-15959D01*
X30299Y-15970D01*
X30288Y-15982D01*
X30286Y-15984D01*
X30223Y-16061D01*
X30214Y-16074D01*
X30205Y-16088D01*
X30204Y-16090D01*
X30204Y-16090D01*
X30204Y-16090D01*
X30204Y-16090D01*
X30157Y-16178D01*
X30151Y-16193D01*
X30145Y-16208D01*
X30144Y-16210D01*
X30115Y-16306D01*
X30112Y-16321D01*
X30109Y-16337D01*
X30109Y-16339D01*
X30109Y-16339D01*
X30109Y-16339D01*
X30099Y-16439D01*
X30099Y-16446D01*
X30098Y-16454D01*
X30098Y-16456D01*
X30098Y-21181D01*
X30098Y-21181D01*
X30098Y-21182D01*
X30098Y-21189D01*
X30099Y-21197D01*
X30099Y-21205D01*
X30099Y-21207D01*
X30110Y-21307D01*
X30114Y-21322D01*
X30117Y-21338D01*
X30117Y-21341D01*
X30148Y-21436D01*
X30154Y-21451D01*
X30160Y-21465D01*
X30161Y-21468D01*
X30161Y-21468D01*
X30161Y-21468D01*
X30209Y-21555D01*
X30218Y-21568D01*
X30227Y-21582D01*
X30229Y-21584D01*
X30229Y-21584D01*
X30229Y-21584D01*
X30229Y-21584D01*
X30293Y-21660D01*
X30305Y-21671D01*
X30316Y-21683D01*
X30318Y-21684D01*
X30318Y-21684D01*
X30318Y-21684D01*
X30318Y-21684D01*
X30396Y-21747D01*
X30409Y-21756D01*
X30422Y-21765D01*
X30425Y-21766D01*
X30425Y-21766D01*
X30425Y-21766D01*
X30513Y-21812D01*
X30528Y-21818D01*
X30543Y-21824D01*
X30545Y-21825D01*
X30545Y-21825D01*
X30641Y-21853D01*
X30657Y-21856D01*
X30672Y-21860D01*
X30675Y-21860D01*
X30675Y-21860D01*
X30774Y-21869D01*
X30790Y-21869D01*
X30807Y-21869D01*
X30809Y-21869D01*
X30908Y-21858D01*
X30924Y-21855D01*
X30940Y-21852D01*
X30942Y-21851D01*
X30942Y-21851D01*
X30942Y-21851D01*
X30942Y-21851D01*
X31038Y-21822D01*
X31052Y-21815D01*
X31067Y-21809D01*
X31069Y-21808D01*
X31070Y-21808D01*
X31070Y-21808D01*
X31070Y-21808D01*
X31157Y-21761D01*
X31171Y-21752D01*
X31184Y-21743D01*
X31186Y-21741D01*
X31186Y-21741D01*
X31186Y-21741D01*
X31186Y-21741D01*
X31263Y-21678D01*
X31274Y-21666D01*
X31286Y-21655D01*
X31287Y-21653D01*
X31287Y-21653D01*
X31287Y-21653D01*
X31287Y-21653D01*
X31350Y-21576D01*
X31359Y-21562D01*
X31368Y-21549D01*
X31370Y-21547D01*
X31370Y-21547D01*
X31370Y-21547D01*
X31370Y-21547D01*
X31417Y-21459D01*
X31423Y-21444D01*
X31429Y-21429D01*
X31430Y-21427D01*
X31430Y-21427D01*
X31459Y-21331D01*
X31462Y-21315D01*
X31465Y-21300D01*
X31465Y-21297D01*
X31465Y-21297D01*
X31465Y-21297D01*
X31465Y-21297D01*
X31475Y-21198D01*
X31475Y-21191D01*
X31476Y-21183D01*
X31476Y-21181D01*
X31476Y-22460D01*
X31444Y-22453D01*
X31393Y-22453D01*
X31342Y-22463D01*
X31294Y-22482D01*
X31270Y-22498D01*
X30326Y-22498D01*
X29878Y-22050D01*
X29862Y-22037D01*
X29847Y-22025D01*
X29846Y-22024D01*
X29845Y-22023D01*
X29827Y-22014D01*
X29810Y-22004D01*
X29809Y-22004D01*
X29808Y-22003D01*
X29788Y-21997D01*
X29769Y-21991D01*
X29768Y-21991D01*
X29767Y-21991D01*
X29747Y-21989D01*
X29727Y-21986D01*
X29725Y-21986D01*
X29725Y-21986D01*
X29725Y-21986D01*
X29724Y-21986D01*
X29586Y-21986D01*
X29586Y-17519D01*
X29586Y-16456D01*
X29586Y-16456D01*
X29586Y-16455D01*
X29586Y-16448D01*
X29585Y-16440D01*
X29585Y-16432D01*
X29585Y-16429D01*
X29574Y-16330D01*
X29570Y-16314D01*
X29567Y-16299D01*
X29567Y-16296D01*
X29567Y-16296D01*
X29536Y-16201D01*
X29530Y-16186D01*
X29524Y-16171D01*
X29523Y-16169D01*
X29523Y-16169D01*
X29475Y-16082D01*
X29466Y-16068D01*
X29457Y-16055D01*
X29455Y-16053D01*
X29455Y-16053D01*
X29455Y-16053D01*
X29391Y-15977D01*
X29379Y-15965D01*
X29368Y-15954D01*
X29366Y-15952D01*
X29366Y-15952D01*
X29366Y-15952D01*
X29288Y-15890D01*
X29275Y-15881D01*
X29262Y-15872D01*
X29259Y-15871D01*
X29259Y-15871D01*
X29259Y-15871D01*
X29171Y-15825D01*
X29156Y-15819D01*
X29141Y-15812D01*
X29139Y-15812D01*
X29139Y-15812D01*
X29139Y-15812D01*
X29043Y-15783D01*
X29027Y-15780D01*
X29012Y-15777D01*
X29009Y-15777D01*
X28910Y-15768D01*
X28894Y-15768D01*
X28878Y-15768D01*
X28875Y-15768D01*
X28776Y-15779D01*
X28760Y-15782D01*
X28744Y-15785D01*
X28742Y-15786D01*
X28742Y-15786D01*
X28742Y-15786D01*
X28646Y-15815D01*
X28632Y-15821D01*
X28617Y-15827D01*
X28615Y-15829D01*
X28615Y-15829D01*
X28615Y-15829D01*
X28527Y-15876D01*
X28513Y-15885D01*
X28500Y-15894D01*
X28498Y-15895D01*
X28498Y-15895D01*
X28498Y-15895D01*
X28421Y-15959D01*
X28410Y-15970D01*
X28398Y-15982D01*
X28397Y-15984D01*
X28334Y-16061D01*
X28325Y-16074D01*
X28316Y-16088D01*
X28314Y-16090D01*
X28314Y-16090D01*
X28314Y-16090D01*
X28314Y-16090D01*
X28268Y-16178D01*
X28261Y-16193D01*
X28255Y-16208D01*
X28254Y-16210D01*
X28225Y-16306D01*
X28222Y-16321D01*
X28219Y-16337D01*
X28219Y-16339D01*
X28219Y-16339D01*
X28219Y-16339D01*
X28209Y-16439D01*
X28209Y-16446D01*
X28208Y-16454D01*
X28208Y-16456D01*
X28208Y-17519D01*
X28208Y-17519D01*
X28208Y-17520D01*
X28208Y-17528D01*
X28209Y-17536D01*
X28209Y-17544D01*
X28209Y-17546D01*
X28220Y-17645D01*
X28224Y-17661D01*
X28227Y-17677D01*
X28228Y-17679D01*
X28258Y-17774D01*
X28264Y-17789D01*
X28270Y-17804D01*
X28271Y-17806D01*
X28271Y-17806D01*
X28271Y-17806D01*
X28320Y-17894D01*
X28329Y-17907D01*
X28338Y-17920D01*
X28339Y-17922D01*
X28339Y-17922D01*
X28339Y-17922D01*
X28339Y-17922D01*
X28403Y-17999D01*
X28415Y-18010D01*
X28426Y-18021D01*
X28428Y-18023D01*
X28428Y-18023D01*
X28428Y-18023D01*
X28428Y-18023D01*
X28506Y-18086D01*
X28519Y-18094D01*
X28533Y-18103D01*
X28535Y-18104D01*
X28535Y-18104D01*
X28535Y-18104D01*
X28623Y-18151D01*
X28638Y-18157D01*
X28653Y-18163D01*
X28655Y-18164D01*
X28655Y-18164D01*
X28751Y-18192D01*
X28767Y-18195D01*
X28783Y-18198D01*
X28785Y-18198D01*
X28785Y-18198D01*
X28885Y-18207D01*
X28901Y-18207D01*
X28917Y-18207D01*
X28919Y-18207D01*
X29019Y-18197D01*
X29034Y-18194D01*
X29050Y-18190D01*
X29052Y-18190D01*
X29052Y-18190D01*
X29052Y-18190D01*
X29052Y-18190D01*
X29148Y-18160D01*
X29163Y-18154D01*
X29178Y-18148D01*
X29180Y-18147D01*
X29180Y-18147D01*
X29180Y-18147D01*
X29180Y-18147D01*
X29268Y-18099D01*
X29281Y-18090D01*
X29294Y-18082D01*
X29296Y-18080D01*
X29296Y-18080D01*
X29296Y-18080D01*
X29296Y-18080D01*
X29373Y-18016D01*
X29385Y-18005D01*
X29396Y-17994D01*
X29398Y-17992D01*
X29398Y-17992D01*
X29398Y-17992D01*
X29398Y-17992D01*
X29461Y-17914D01*
X29470Y-17901D01*
X29479Y-17888D01*
X29480Y-17886D01*
X29480Y-17886D01*
X29480Y-17886D01*
X29480Y-17886D01*
X29527Y-17797D01*
X29533Y-17783D01*
X29539Y-17768D01*
X29540Y-17765D01*
X29540Y-17765D01*
X29569Y-17670D01*
X29572Y-17654D01*
X29575Y-17638D01*
X29576Y-17636D01*
X29576Y-17636D01*
X29576Y-17636D01*
X29576Y-17636D01*
X29585Y-17536D01*
X29585Y-17529D01*
X29586Y-17522D01*
X29586Y-17519D01*
X29586Y-21986D01*
X28915Y-21986D01*
X28915Y-19245D01*
X28897Y-19156D01*
X28863Y-19073D01*
X28813Y-18997D01*
X28749Y-18933D01*
X28673Y-18882D01*
X28590Y-18847D01*
X28501Y-18828D01*
X28410Y-18828D01*
X28321Y-18845D01*
X28237Y-18879D01*
X28161Y-18928D01*
X28096Y-18992D01*
X28045Y-19067D01*
X28009Y-19150D01*
X27990Y-19239D01*
X27989Y-19330D01*
X28005Y-19419D01*
X28039Y-19503D01*
X28088Y-19580D01*
X28151Y-19645D01*
X28225Y-19697D01*
X28309Y-19733D01*
X28397Y-19753D01*
X28488Y-19755D01*
X28577Y-19739D01*
X28662Y-19706D01*
X28739Y-19657D01*
X28804Y-19595D01*
X28857Y-19521D01*
X28894Y-19438D01*
X28914Y-19349D01*
X28915Y-19245D01*
X28915Y-21986D01*
X27937Y-21986D01*
X27937Y-19270D01*
X27923Y-19176D01*
X27892Y-19087D01*
X27866Y-19039D01*
X27794Y-19005D01*
X27738Y-19061D01*
X27738Y-18949D01*
X27704Y-18877D01*
X27696Y-18873D01*
X27696Y-17519D01*
X27696Y-16456D01*
X27696Y-16456D01*
X27696Y-16455D01*
X27696Y-16448D01*
X27695Y-16440D01*
X27695Y-16432D01*
X27695Y-16429D01*
X27684Y-16330D01*
X27681Y-16314D01*
X27678Y-16299D01*
X27677Y-16296D01*
X27677Y-16296D01*
X27647Y-16201D01*
X27640Y-16186D01*
X27634Y-16171D01*
X27633Y-16169D01*
X27633Y-16169D01*
X27585Y-16082D01*
X27576Y-16068D01*
X27567Y-16055D01*
X27565Y-16053D01*
X27565Y-16053D01*
X27565Y-16053D01*
X27501Y-15977D01*
X27490Y-15965D01*
X27478Y-15954D01*
X27476Y-15952D01*
X27476Y-15952D01*
X27476Y-15952D01*
X27399Y-15890D01*
X27385Y-15881D01*
X27372Y-15872D01*
X27370Y-15871D01*
X27370Y-15871D01*
X27370Y-15871D01*
X27281Y-15825D01*
X27266Y-15819D01*
X27251Y-15812D01*
X27249Y-15812D01*
X27249Y-15812D01*
X27249Y-15812D01*
X27153Y-15783D01*
X27138Y-15780D01*
X27122Y-15777D01*
X27119Y-15777D01*
X27020Y-15768D01*
X27004Y-15768D01*
X26988Y-15768D01*
X26985Y-15768D01*
X26886Y-15779D01*
X26870Y-15782D01*
X26854Y-15785D01*
X26852Y-15786D01*
X26852Y-15786D01*
X26852Y-15786D01*
X26757Y-15815D01*
X26742Y-15821D01*
X26727Y-15827D01*
X26725Y-15829D01*
X26725Y-15829D01*
X26725Y-15829D01*
X26637Y-15876D01*
X26624Y-15885D01*
X26610Y-15894D01*
X26608Y-15895D01*
X26608Y-15895D01*
X26608Y-15895D01*
X26531Y-15959D01*
X26520Y-15970D01*
X26508Y-15982D01*
X26507Y-15984D01*
X26444Y-16061D01*
X26435Y-16074D01*
X26426Y-16088D01*
X26425Y-16090D01*
X26425Y-16090D01*
X26425Y-16090D01*
X26425Y-16090D01*
X26378Y-16178D01*
X26372Y-16193D01*
X26365Y-16208D01*
X26365Y-16210D01*
X26336Y-16306D01*
X26333Y-16321D01*
X26329Y-16337D01*
X26329Y-16339D01*
X26329Y-16339D01*
X26329Y-16339D01*
X26319Y-16439D01*
X26319Y-16446D01*
X26318Y-16454D01*
X26318Y-16456D01*
X26318Y-17519D01*
X26318Y-17519D01*
X26318Y-17520D01*
X26318Y-17528D01*
X26319Y-17536D01*
X26319Y-17544D01*
X26320Y-17546D01*
X26331Y-17645D01*
X26334Y-17661D01*
X26337Y-17677D01*
X26338Y-17679D01*
X26368Y-17774D01*
X26374Y-17789D01*
X26381Y-17804D01*
X26382Y-17806D01*
X26382Y-17806D01*
X26382Y-17806D01*
X26430Y-17894D01*
X26439Y-17907D01*
X26448Y-17920D01*
X26449Y-17922D01*
X26449Y-17922D01*
X26449Y-17922D01*
X26449Y-17922D01*
X26514Y-17999D01*
X26525Y-18010D01*
X26536Y-18021D01*
X26538Y-18023D01*
X26538Y-18023D01*
X26538Y-18023D01*
X26538Y-18023D01*
X26616Y-18086D01*
X26630Y-18094D01*
X26643Y-18103D01*
X26645Y-18104D01*
X26645Y-18104D01*
X26645Y-18104D01*
X26734Y-18151D01*
X26748Y-18157D01*
X26763Y-18163D01*
X26766Y-18164D01*
X26766Y-18164D01*
X26861Y-18192D01*
X26877Y-18195D01*
X26893Y-18198D01*
X26895Y-18198D01*
X26895Y-18198D01*
X26995Y-18207D01*
X27011Y-18207D01*
X27027Y-18207D01*
X27029Y-18207D01*
X27129Y-18197D01*
X27145Y-18194D01*
X27160Y-18190D01*
X27163Y-18190D01*
X27163Y-18190D01*
X27163Y-18190D01*
X27163Y-18190D01*
X27258Y-18160D01*
X27273Y-18154D01*
X27288Y-18148D01*
X27290Y-18147D01*
X27290Y-18147D01*
X27290Y-18147D01*
X27290Y-18147D01*
X27378Y-18099D01*
X27391Y-18090D01*
X27405Y-18082D01*
X27407Y-18080D01*
X27407Y-18080D01*
X27407Y-18080D01*
X27407Y-18080D01*
X27483Y-18016D01*
X27495Y-18005D01*
X27506Y-17994D01*
X27508Y-17992D01*
X27508Y-17992D01*
X27508Y-17992D01*
X27508Y-17992D01*
X27571Y-17914D01*
X27580Y-17901D01*
X27589Y-17888D01*
X27590Y-17886D01*
X27590Y-17886D01*
X27590Y-17886D01*
X27590Y-17886D01*
X27637Y-17797D01*
X27643Y-17783D01*
X27649Y-17768D01*
X27650Y-17765D01*
X27650Y-17765D01*
X27679Y-17670D01*
X27682Y-17654D01*
X27685Y-17638D01*
X27686Y-17636D01*
X27686Y-17636D01*
X27686Y-17636D01*
X27686Y-17636D01*
X27696Y-17536D01*
X27696Y-17529D01*
X27696Y-17522D01*
X27696Y-17519D01*
X27696Y-18873D01*
X27619Y-18836D01*
X27527Y-18812D01*
X27432Y-18806D01*
X27338Y-18820D01*
X27248Y-18851D01*
X27200Y-18877D01*
X27166Y-18949D01*
X27452Y-19235D01*
X27738Y-18949D01*
X27738Y-19061D01*
X27508Y-19291D01*
X27794Y-19577D01*
X27866Y-19543D01*
X27908Y-19457D01*
X27931Y-19365D01*
X27937Y-19270D01*
X27937Y-21986D01*
X27738Y-21986D01*
X27738Y-19632D01*
X27452Y-19347D01*
X27397Y-19402D01*
X27397Y-19291D01*
X27111Y-19005D01*
X27038Y-19039D01*
X26997Y-19124D01*
X26973Y-19216D01*
X26968Y-19311D01*
X26981Y-19405D01*
X27013Y-19495D01*
X27038Y-19543D01*
X27111Y-19577D01*
X27397Y-19291D01*
X27397Y-19402D01*
X27166Y-19632D01*
X27200Y-19705D01*
X27286Y-19746D01*
X27378Y-19770D01*
X27473Y-19775D01*
X27567Y-19762D01*
X27656Y-19731D01*
X27704Y-19705D01*
X27738Y-19632D01*
X27738Y-21986D01*
X26643Y-21986D01*
X26621Y-21972D01*
X26574Y-21952D01*
X26523Y-21942D01*
X26472Y-21941D01*
X26421Y-21951D01*
X26373Y-21970D01*
X26330Y-21998D01*
X26293Y-22034D01*
X26264Y-22077D01*
X26244Y-22124D01*
X26233Y-22175D01*
X26232Y-22226D01*
X26242Y-22277D01*
X26261Y-22325D01*
X26289Y-22368D01*
X26324Y-22405D01*
X26367Y-22435D01*
X26414Y-22455D01*
X26464Y-22466D01*
X26516Y-22468D01*
X26567Y-22459D01*
X26615Y-22440D01*
X26643Y-22422D01*
X29634Y-22422D01*
X30082Y-22870D01*
X30097Y-22883D01*
X30113Y-22896D01*
X30114Y-22896D01*
X30115Y-22897D01*
X30132Y-22907D01*
X30150Y-22916D01*
X30151Y-22917D01*
X30152Y-22917D01*
X30171Y-22923D01*
X30190Y-22929D01*
X30192Y-22929D01*
X30193Y-22930D01*
X30213Y-22932D01*
X30233Y-22934D01*
X30235Y-22934D01*
X30235Y-22934D01*
X30235Y-22934D01*
X30236Y-22934D01*
X31270Y-22934D01*
X31288Y-22947D01*
X31335Y-22967D01*
X31386Y-22978D01*
X31437Y-22979D01*
X31488Y-22970D01*
X31536Y-22952D01*
X31579Y-22924D01*
X31617Y-22889D01*
X31646Y-22846D01*
X31667Y-22799D01*
X31679Y-22749D01*
X31680Y-22690D01*
X31680Y-53976D01*
X31617Y-54053D01*
X31496Y-54153D01*
X31496Y-40905D01*
X31496Y-40866D01*
X31496Y-39882D01*
X31488Y-39844D01*
X31473Y-39808D01*
X31452Y-39776D01*
X31424Y-39748D01*
X31392Y-39727D01*
X31356Y-39712D01*
X31318Y-39704D01*
X31279Y-39704D01*
X31221Y-39704D01*
X31221Y-39370D01*
X31221Y-29980D01*
X31318Y-29980D01*
X31356Y-29972D01*
X31392Y-29957D01*
X31424Y-29936D01*
X31452Y-29908D01*
X31473Y-29876D01*
X31488Y-29840D01*
X31496Y-29802D01*
X31496Y-29764D01*
X31496Y-28779D01*
X31488Y-28741D01*
X31473Y-28705D01*
X31452Y-28673D01*
X31424Y-28646D01*
X31392Y-28624D01*
X31356Y-28609D01*
X31318Y-28602D01*
X31279Y-28602D01*
X30728Y-28602D01*
X30690Y-28609D01*
X30669Y-28618D01*
X30647Y-28609D01*
X30609Y-28602D01*
X30571Y-28602D01*
X30019Y-28602D01*
X29981Y-28609D01*
X29946Y-28624D01*
X29913Y-28646D01*
X29886Y-28673D01*
X29864Y-28705D01*
X29850Y-28741D01*
X29842Y-28779D01*
X29842Y-28818D01*
X29842Y-29802D01*
X29850Y-29840D01*
X29864Y-29876D01*
X29886Y-29908D01*
X29913Y-29936D01*
X29946Y-29957D01*
X29981Y-29972D01*
X30019Y-29980D01*
X30058Y-29980D01*
X30077Y-29980D01*
X30077Y-38799D01*
X29753Y-39122D01*
X29720Y-39136D01*
X29677Y-39164D01*
X29640Y-39200D01*
X29611Y-39242D01*
X29590Y-39290D01*
X29580Y-39340D01*
X29579Y-39392D01*
X29588Y-39442D01*
X29607Y-39490D01*
X29635Y-39534D01*
X29671Y-39571D01*
X29713Y-39600D01*
X29760Y-39621D01*
X29811Y-39632D01*
X29862Y-39633D01*
X29913Y-39624D01*
X29961Y-39605D01*
X30005Y-39578D01*
X30042Y-39542D01*
X30072Y-39500D01*
X30091Y-39457D01*
X30483Y-39065D01*
X30497Y-39048D01*
X30511Y-39031D01*
X30511Y-39030D01*
X30512Y-39029D01*
X30522Y-39010D01*
X30533Y-38991D01*
X30533Y-38990D01*
X30534Y-38989D01*
X30540Y-38968D01*
X30547Y-38947D01*
X30547Y-38945D01*
X30548Y-38944D01*
X30550Y-38922D01*
X30552Y-38900D01*
X30552Y-38898D01*
X30552Y-38898D01*
X30552Y-38898D01*
X30552Y-38897D01*
X30552Y-29980D01*
X30609Y-29980D01*
X30647Y-29972D01*
X30669Y-29963D01*
X30690Y-29972D01*
X30728Y-29980D01*
X30767Y-29980D01*
X30825Y-29980D01*
X30825Y-39094D01*
X30786Y-39078D01*
X30736Y-39068D01*
X30684Y-39067D01*
X30634Y-39077D01*
X30586Y-39096D01*
X30543Y-39124D01*
X30506Y-39160D01*
X30477Y-39203D01*
X30456Y-39250D01*
X30446Y-39301D01*
X30445Y-39352D01*
X30454Y-39403D01*
X30473Y-39451D01*
X30501Y-39494D01*
X30537Y-39531D01*
X30579Y-39561D01*
X30627Y-39581D01*
X30677Y-39592D01*
X30728Y-39593D01*
X30779Y-39585D01*
X30823Y-39567D01*
X30825Y-39567D01*
X30825Y-39704D01*
X30728Y-39704D01*
X30690Y-39712D01*
X30669Y-39721D01*
X30647Y-39712D01*
X30609Y-39704D01*
X30571Y-39704D01*
X30019Y-39704D01*
X29981Y-39712D01*
X29946Y-39727D01*
X29913Y-39748D01*
X29886Y-39776D01*
X29864Y-39808D01*
X29850Y-39844D01*
X29842Y-39882D01*
X29842Y-39920D01*
X29842Y-40155D01*
X29325Y-40155D01*
X29290Y-40141D01*
X29240Y-40131D01*
X29188Y-40130D01*
X29138Y-40140D01*
X29090Y-40159D01*
X29047Y-40187D01*
X29010Y-40223D01*
X28981Y-40266D01*
X28960Y-40313D01*
X28950Y-40364D01*
X28949Y-40415D01*
X28958Y-40466D01*
X28977Y-40514D01*
X29005Y-40557D01*
X29041Y-40594D01*
X29083Y-40624D01*
X29130Y-40644D01*
X29181Y-40655D01*
X29232Y-40656D01*
X29283Y-40648D01*
X29326Y-40631D01*
X29842Y-40631D01*
X29842Y-40905D01*
X29850Y-40943D01*
X29864Y-40979D01*
X29886Y-41011D01*
X29913Y-41038D01*
X29946Y-41060D01*
X29981Y-41075D01*
X30019Y-41082D01*
X30058Y-41082D01*
X30609Y-41082D01*
X30647Y-41075D01*
X30669Y-41066D01*
X30690Y-41075D01*
X30728Y-41082D01*
X30767Y-41082D01*
X30825Y-41082D01*
X30825Y-41256D01*
X30056Y-42025D01*
X30045Y-42039D01*
X30033Y-42053D01*
X30033Y-42054D01*
X30032Y-42055D01*
X30023Y-42071D01*
X30015Y-42087D01*
X30014Y-42088D01*
X30014Y-42089D01*
X30008Y-42106D01*
X30003Y-42124D01*
X30003Y-42125D01*
X30002Y-42126D01*
X30001Y-42144D01*
X29999Y-42162D01*
X29999Y-42164D01*
X29999Y-42164D01*
X29999Y-42164D01*
X29999Y-42165D01*
X29999Y-45769D01*
X29072Y-46695D01*
X29061Y-46709D01*
X29049Y-46723D01*
X29048Y-46724D01*
X29048Y-46725D01*
X29039Y-46741D01*
X29030Y-46757D01*
X29030Y-46758D01*
X29029Y-46759D01*
X29024Y-46776D01*
X29019Y-46794D01*
X29019Y-46795D01*
X29018Y-46796D01*
X29016Y-46814D01*
X29014Y-46832D01*
X29014Y-46834D01*
X29014Y-46834D01*
X29014Y-46834D01*
X29014Y-46835D01*
X29014Y-48736D01*
X28809Y-48942D01*
X28809Y-46098D01*
X28809Y-46051D01*
X28809Y-45775D01*
X28799Y-45730D01*
X28782Y-45687D01*
X28756Y-45648D01*
X28723Y-45615D01*
X28684Y-45589D01*
X28641Y-45572D01*
X28641Y-45572D01*
X28641Y-45571D01*
X28632Y-45525D01*
X28614Y-45482D01*
X28600Y-45461D01*
X28614Y-45440D01*
X28632Y-45397D01*
X28641Y-45352D01*
X28641Y-45305D01*
X28641Y-44975D01*
X28641Y-44975D01*
X28684Y-44957D01*
X28723Y-44931D01*
X28756Y-44898D01*
X28782Y-44859D01*
X28799Y-44816D01*
X28809Y-44771D01*
X28809Y-44724D01*
X28809Y-44449D01*
X28799Y-44403D01*
X28782Y-44360D01*
X28756Y-44321D01*
X28723Y-44288D01*
X28684Y-44263D01*
X28641Y-44245D01*
X28596Y-44236D01*
X28549Y-44236D01*
X28340Y-44236D01*
X28340Y-42177D01*
X28596Y-42177D01*
X28641Y-42168D01*
X28684Y-42150D01*
X28723Y-42124D01*
X28756Y-42091D01*
X28782Y-42052D01*
X28799Y-42009D01*
X28809Y-41964D01*
X28809Y-41917D01*
X28809Y-41642D01*
X28799Y-41596D01*
X28782Y-41553D01*
X28756Y-41514D01*
X28723Y-41481D01*
X28684Y-41456D01*
X28641Y-41438D01*
X28641Y-41438D01*
X28641Y-41437D01*
X28632Y-41391D01*
X28614Y-41348D01*
X28600Y-41327D01*
X28614Y-41306D01*
X28632Y-41263D01*
X28641Y-41218D01*
X28641Y-41171D01*
X28641Y-40841D01*
X28641Y-40841D01*
X28684Y-40823D01*
X28723Y-40797D01*
X28756Y-40764D01*
X28782Y-40726D01*
X28799Y-40683D01*
X28809Y-40637D01*
X28809Y-40590D01*
X28809Y-40315D01*
X28799Y-40269D01*
X28782Y-40226D01*
X28756Y-40188D01*
X28723Y-40155D01*
X28684Y-40129D01*
X28641Y-40111D01*
X28596Y-40102D01*
X28549Y-40102D01*
X28340Y-40102D01*
X28340Y-38043D01*
X28596Y-38043D01*
X28641Y-38034D01*
X28684Y-38016D01*
X28723Y-37990D01*
X28756Y-37957D01*
X28782Y-37918D01*
X28799Y-37875D01*
X28809Y-37830D01*
X28809Y-37783D01*
X28809Y-37508D01*
X28799Y-37462D01*
X28782Y-37419D01*
X28756Y-37380D01*
X28723Y-37348D01*
X28684Y-37322D01*
X28641Y-37304D01*
X28641Y-37304D01*
X28641Y-37303D01*
X28632Y-37257D01*
X28614Y-37214D01*
X28600Y-37193D01*
X28614Y-37172D01*
X28632Y-37129D01*
X28641Y-37084D01*
X28641Y-37037D01*
X28641Y-36707D01*
X28641Y-36707D01*
X28684Y-36689D01*
X28723Y-36663D01*
X28756Y-36630D01*
X28782Y-36592D01*
X28799Y-36549D01*
X28809Y-36503D01*
X28809Y-36457D01*
X28809Y-36181D01*
X28799Y-36135D01*
X28782Y-36092D01*
X28756Y-36054D01*
X28723Y-36021D01*
X28684Y-35995D01*
X28641Y-35977D01*
X28596Y-35968D01*
X28549Y-35968D01*
X28340Y-35968D01*
X28340Y-33712D01*
X28596Y-33712D01*
X28641Y-33703D01*
X28684Y-33685D01*
X28723Y-33659D01*
X28756Y-33626D01*
X28782Y-33588D01*
X28799Y-33545D01*
X28809Y-33499D01*
X28809Y-33453D01*
X28809Y-33177D01*
X28799Y-33131D01*
X28782Y-33088D01*
X28756Y-33050D01*
X28723Y-33017D01*
X28684Y-32991D01*
X28641Y-32973D01*
X28641Y-32973D01*
X28641Y-32972D01*
X28632Y-32927D01*
X28614Y-32884D01*
X28600Y-32863D01*
X28614Y-32842D01*
X28632Y-32799D01*
X28641Y-32753D01*
X28641Y-32707D01*
X28641Y-32376D01*
X28641Y-32376D01*
X28684Y-32358D01*
X28723Y-32333D01*
X28756Y-32300D01*
X28782Y-32261D01*
X28799Y-32218D01*
X28809Y-32172D01*
X28809Y-32126D01*
X28809Y-31850D01*
X28799Y-31805D01*
X28782Y-31762D01*
X28756Y-31723D01*
X28723Y-31690D01*
X28684Y-31664D01*
X28641Y-31646D01*
X28596Y-31637D01*
X28549Y-31637D01*
X28340Y-31637D01*
X28340Y-29578D01*
X28596Y-29578D01*
X28641Y-29569D01*
X28684Y-29551D01*
X28723Y-29526D01*
X28756Y-29493D01*
X28782Y-29454D01*
X28799Y-29411D01*
X28809Y-29365D01*
X28809Y-29319D01*
X28809Y-29043D01*
X28799Y-28998D01*
X28782Y-28955D01*
X28756Y-28916D01*
X28723Y-28883D01*
X28684Y-28857D01*
X28641Y-28839D01*
X28641Y-28839D01*
X28641Y-28838D01*
X28632Y-28793D01*
X28614Y-28750D01*
X28600Y-28729D01*
X28614Y-28708D01*
X28632Y-28665D01*
X28641Y-28619D01*
X28641Y-28573D01*
X28641Y-28242D01*
X28641Y-28242D01*
X28684Y-28225D01*
X28723Y-28199D01*
X28756Y-28166D01*
X28782Y-28127D01*
X28799Y-28084D01*
X28809Y-28039D01*
X28809Y-27992D01*
X28809Y-27716D01*
X28799Y-27671D01*
X28782Y-27628D01*
X28756Y-27589D01*
X28723Y-27556D01*
X28684Y-27530D01*
X28641Y-27513D01*
X28596Y-27503D01*
X28549Y-27503D01*
X28340Y-27503D01*
X28340Y-25444D01*
X28596Y-25444D01*
X28641Y-25435D01*
X28684Y-25417D01*
X28723Y-25392D01*
X28756Y-25359D01*
X28782Y-25320D01*
X28799Y-25277D01*
X28809Y-25231D01*
X28809Y-25185D01*
X28809Y-24909D01*
X28799Y-24864D01*
X28782Y-24821D01*
X28756Y-24782D01*
X28723Y-24749D01*
X28684Y-24723D01*
X28641Y-24705D01*
X28641Y-24705D01*
X28641Y-24705D01*
X28632Y-24659D01*
X28614Y-24616D01*
X28600Y-24595D01*
X28614Y-24574D01*
X28632Y-24531D01*
X28641Y-24485D01*
X28641Y-24439D01*
X28641Y-24109D01*
X28641Y-24109D01*
X28684Y-24091D01*
X28723Y-24065D01*
X28756Y-24032D01*
X28782Y-23993D01*
X28799Y-23950D01*
X28809Y-23905D01*
X28809Y-23858D01*
X28809Y-23583D01*
X28799Y-23537D01*
X28782Y-23494D01*
X28756Y-23455D01*
X28723Y-23422D01*
X28684Y-23396D01*
X28641Y-23379D01*
X28596Y-23370D01*
X28549Y-23370D01*
X27309Y-23370D01*
X27263Y-23379D01*
X27220Y-23396D01*
X27182Y-23422D01*
X27149Y-23455D01*
X27123Y-23494D01*
X27105Y-23537D01*
X27096Y-23583D01*
X27096Y-23629D01*
X27096Y-23773D01*
X26980Y-23773D01*
X26944Y-23777D01*
X26908Y-23780D01*
X26907Y-23780D01*
X26904Y-23781D01*
X26870Y-23791D01*
X26836Y-23801D01*
X26834Y-23802D01*
X26832Y-23802D01*
X26800Y-23819D01*
X26769Y-23836D01*
X26767Y-23837D01*
X26765Y-23838D01*
X26737Y-23861D01*
X26709Y-23883D01*
X26707Y-23886D01*
X26707Y-23886D01*
X26707Y-23886D01*
X26706Y-23887D01*
X26143Y-24450D01*
X26120Y-24477D01*
X26097Y-24505D01*
X26096Y-24507D01*
X26095Y-24508D01*
X26078Y-24540D01*
X26060Y-24571D01*
X26060Y-24573D01*
X26059Y-24575D01*
X26048Y-24609D01*
X26038Y-24643D01*
X26037Y-24645D01*
X26037Y-24647D01*
X26033Y-24683D01*
X26029Y-24718D01*
X26029Y-24722D01*
X26029Y-24723D01*
X26029Y-24723D01*
X26029Y-24724D01*
X26029Y-25980D01*
X26029Y-26771D01*
X26036Y-26846D01*
X26058Y-26919D01*
X26094Y-26986D01*
X26142Y-27044D01*
X26200Y-27093D01*
X26267Y-27129D01*
X26339Y-27151D01*
X26414Y-27159D01*
X26489Y-27152D01*
X26562Y-27131D01*
X26629Y-27096D01*
X26688Y-27048D01*
X26737Y-26990D01*
X26773Y-26924D01*
X26796Y-26852D01*
X26805Y-26777D01*
X26805Y-26771D01*
X26805Y-25980D01*
X26805Y-24885D01*
X27140Y-24549D01*
X27280Y-24549D01*
X27290Y-24574D01*
X27304Y-24595D01*
X27290Y-24616D01*
X27272Y-24659D01*
X27263Y-24705D01*
X27263Y-24705D01*
X27263Y-24705D01*
X27220Y-24723D01*
X27182Y-24749D01*
X27149Y-24782D01*
X27123Y-24821D01*
X27105Y-24864D01*
X27096Y-24909D01*
X27096Y-24956D01*
X27096Y-25231D01*
X27105Y-25277D01*
X27123Y-25320D01*
X27149Y-25359D01*
X27182Y-25392D01*
X27220Y-25417D01*
X27263Y-25435D01*
X27309Y-25444D01*
X27355Y-25444D01*
X27564Y-25444D01*
X27564Y-27503D01*
X27309Y-27503D01*
X27263Y-27513D01*
X27220Y-27530D01*
X27182Y-27556D01*
X27149Y-27589D01*
X27123Y-27628D01*
X27105Y-27671D01*
X27096Y-27716D01*
X27096Y-27763D01*
X27096Y-28039D01*
X27105Y-28084D01*
X27123Y-28127D01*
X27149Y-28166D01*
X27182Y-28199D01*
X27220Y-28225D01*
X27263Y-28242D01*
X27263Y-28242D01*
X27263Y-28619D01*
X27272Y-28665D01*
X27290Y-28708D01*
X27304Y-28729D01*
X27290Y-28750D01*
X27272Y-28793D01*
X27263Y-28838D01*
X27263Y-28839D01*
X27263Y-28839D01*
X27220Y-28857D01*
X27182Y-28883D01*
X27149Y-28916D01*
X27123Y-28955D01*
X27105Y-28998D01*
X27096Y-29043D01*
X27096Y-29090D01*
X27096Y-29365D01*
X27105Y-29411D01*
X27123Y-29454D01*
X27149Y-29493D01*
X27182Y-29526D01*
X27220Y-29551D01*
X27263Y-29569D01*
X27309Y-29578D01*
X27355Y-29578D01*
X27564Y-29578D01*
X27564Y-31637D01*
X27309Y-31637D01*
X27263Y-31646D01*
X27220Y-31664D01*
X27182Y-31690D01*
X27149Y-31723D01*
X27123Y-31762D01*
X27105Y-31805D01*
X27096Y-31850D01*
X27096Y-31897D01*
X27096Y-32172D01*
X27105Y-32218D01*
X27123Y-32261D01*
X27149Y-32300D01*
X27182Y-32333D01*
X27220Y-32358D01*
X27263Y-32376D01*
X27263Y-32376D01*
X27263Y-32753D01*
X27272Y-32799D01*
X27290Y-32842D01*
X27304Y-32863D01*
X27290Y-32884D01*
X27272Y-32927D01*
X27263Y-32972D01*
X27263Y-32973D01*
X27263Y-32973D01*
X27220Y-32991D01*
X27182Y-33017D01*
X27149Y-33050D01*
X27123Y-33088D01*
X27105Y-33131D01*
X27096Y-33177D01*
X27096Y-33224D01*
X27096Y-33499D01*
X27105Y-33545D01*
X27123Y-33588D01*
X27149Y-33626D01*
X27182Y-33659D01*
X27220Y-33685D01*
X27263Y-33703D01*
X27309Y-33712D01*
X27355Y-33712D01*
X27564Y-33712D01*
X27564Y-35968D01*
X27309Y-35968D01*
X27263Y-35977D01*
X27220Y-35995D01*
X27182Y-36021D01*
X27149Y-36054D01*
X27123Y-36092D01*
X27105Y-36135D01*
X27096Y-36181D01*
X27096Y-36227D01*
X27096Y-36503D01*
X27105Y-36549D01*
X27123Y-36592D01*
X27149Y-36630D01*
X27182Y-36663D01*
X27220Y-36689D01*
X27263Y-36707D01*
X27263Y-36707D01*
X27263Y-37084D01*
X27272Y-37129D01*
X27290Y-37172D01*
X27304Y-37193D01*
X27290Y-37214D01*
X27272Y-37257D01*
X27263Y-37303D01*
X27263Y-37304D01*
X27263Y-37304D01*
X27220Y-37322D01*
X27182Y-37348D01*
X27149Y-37380D01*
X27123Y-37419D01*
X27105Y-37462D01*
X27096Y-37508D01*
X27096Y-37554D01*
X27096Y-37830D01*
X27105Y-37875D01*
X27123Y-37918D01*
X27149Y-37957D01*
X27182Y-37990D01*
X27220Y-38016D01*
X27263Y-38034D01*
X27309Y-38043D01*
X27355Y-38043D01*
X27564Y-38043D01*
X27564Y-40102D01*
X27309Y-40102D01*
X27263Y-40111D01*
X27220Y-40129D01*
X27182Y-40155D01*
X27149Y-40188D01*
X27123Y-40226D01*
X27105Y-40269D01*
X27096Y-40315D01*
X27096Y-40361D01*
X27096Y-40637D01*
X27105Y-40683D01*
X27123Y-40726D01*
X27149Y-40764D01*
X27182Y-40797D01*
X27220Y-40823D01*
X27263Y-40841D01*
X27263Y-40841D01*
X27263Y-41218D01*
X27272Y-41263D01*
X27290Y-41306D01*
X27304Y-41327D01*
X27290Y-41348D01*
X27272Y-41391D01*
X27263Y-41437D01*
X27263Y-41438D01*
X27263Y-41438D01*
X27220Y-41456D01*
X27182Y-41481D01*
X27149Y-41514D01*
X27123Y-41553D01*
X27105Y-41596D01*
X27096Y-41642D01*
X27096Y-41688D01*
X27096Y-41964D01*
X27105Y-42009D01*
X27123Y-42052D01*
X27149Y-42091D01*
X27182Y-42124D01*
X27220Y-42150D01*
X27263Y-42168D01*
X27309Y-42177D01*
X27355Y-42177D01*
X27564Y-42177D01*
X27564Y-44236D01*
X27309Y-44236D01*
X27263Y-44245D01*
X27220Y-44263D01*
X27182Y-44288D01*
X27149Y-44321D01*
X27123Y-44360D01*
X27105Y-44403D01*
X27096Y-44449D01*
X27096Y-44495D01*
X27096Y-44771D01*
X27105Y-44816D01*
X27123Y-44859D01*
X27149Y-44898D01*
X27182Y-44931D01*
X27220Y-44957D01*
X27263Y-44975D01*
X27263Y-44975D01*
X27263Y-45352D01*
X27272Y-45397D01*
X27290Y-45440D01*
X27304Y-45461D01*
X27290Y-45482D01*
X27272Y-45525D01*
X27263Y-45571D01*
X27263Y-45572D01*
X27263Y-45572D01*
X27220Y-45589D01*
X27182Y-45615D01*
X27149Y-45648D01*
X27123Y-45687D01*
X27105Y-45730D01*
X27096Y-45775D01*
X27096Y-45822D01*
X27096Y-46098D01*
X27104Y-46136D01*
X27097Y-46142D01*
X27049Y-46200D01*
X27048Y-46201D01*
X27048Y-44330D01*
X27048Y-43346D01*
X27046Y-43324D01*
X27044Y-43302D01*
X27044Y-43301D01*
X27044Y-43300D01*
X27037Y-43279D01*
X27031Y-43258D01*
X27031Y-43257D01*
X27030Y-43255D01*
X27028Y-43251D01*
X27024Y-43230D01*
X27004Y-43183D01*
X26976Y-43140D01*
X26939Y-43103D01*
X26897Y-43074D01*
X26849Y-43054D01*
X26799Y-43044D01*
X26747Y-43044D01*
X26697Y-43053D01*
X26649Y-43073D01*
X26606Y-43101D01*
X26569Y-43137D01*
X26540Y-43179D01*
X26519Y-43227D01*
X26509Y-43277D01*
X26508Y-43329D01*
X26517Y-43379D01*
X26536Y-43427D01*
X26564Y-43471D01*
X26573Y-43479D01*
X26573Y-44232D01*
X26289Y-44516D01*
X26255Y-44529D01*
X26212Y-44557D01*
X26175Y-44594D01*
X26146Y-44636D01*
X26126Y-44683D01*
X26115Y-44734D01*
X26114Y-44785D01*
X26124Y-44836D01*
X26143Y-44884D01*
X26171Y-44927D01*
X26206Y-44964D01*
X26249Y-44994D01*
X26296Y-45014D01*
X26346Y-45025D01*
X26398Y-45027D01*
X26448Y-45018D01*
X26497Y-44999D01*
X26540Y-44971D01*
X26577Y-44936D01*
X26607Y-44894D01*
X26626Y-44851D01*
X26979Y-44498D01*
X26993Y-44481D01*
X27007Y-44465D01*
X27007Y-44463D01*
X27008Y-44462D01*
X27019Y-44443D01*
X27029Y-44424D01*
X27029Y-44423D01*
X27030Y-44422D01*
X27036Y-44401D01*
X27043Y-44380D01*
X27043Y-44378D01*
X27044Y-44377D01*
X27046Y-44355D01*
X27048Y-44334D01*
X27048Y-44331D01*
X27048Y-44331D01*
X27048Y-44331D01*
X27048Y-44330D01*
X27048Y-46201D01*
X27013Y-46267D01*
X26991Y-46339D01*
X26983Y-46414D01*
X26990Y-46489D01*
X27011Y-46562D01*
X27046Y-46629D01*
X27094Y-46688D01*
X27152Y-46737D01*
X27218Y-46773D01*
X27290Y-46796D01*
X27365Y-46805D01*
X27371Y-46805D01*
X27952Y-46805D01*
X27989Y-46801D01*
X28025Y-46798D01*
X28026Y-46797D01*
X28028Y-46797D01*
X28063Y-46787D01*
X28098Y-46776D01*
X28099Y-46776D01*
X28100Y-46775D01*
X28132Y-46758D01*
X28165Y-46741D01*
X28166Y-46740D01*
X28167Y-46740D01*
X28195Y-46717D01*
X28224Y-46694D01*
X28224Y-46693D01*
X28226Y-46692D01*
X28249Y-46664D01*
X28272Y-46636D01*
X28273Y-46635D01*
X28274Y-46634D01*
X28291Y-46602D01*
X28309Y-46570D01*
X28309Y-46568D01*
X28310Y-46567D01*
X28321Y-46532D01*
X28332Y-46497D01*
X28332Y-46496D01*
X28332Y-46495D01*
X28336Y-46458D01*
X28340Y-46422D01*
X28340Y-46420D01*
X28340Y-46420D01*
X28340Y-46419D01*
X28340Y-46417D01*
X28340Y-46311D01*
X28596Y-46311D01*
X28641Y-46301D01*
X28684Y-46284D01*
X28723Y-46258D01*
X28756Y-46225D01*
X28782Y-46186D01*
X28799Y-46143D01*
X28809Y-46098D01*
X28809Y-48942D01*
X28736Y-49014D01*
X28507Y-49014D01*
X28333Y-48841D01*
X28333Y-48832D01*
X28323Y-48781D01*
X28304Y-48734D01*
X28275Y-48691D01*
X28239Y-48654D01*
X28196Y-48625D01*
X28148Y-48606D01*
X28098Y-48595D01*
X28058Y-48595D01*
X28058Y-47336D01*
X28048Y-47285D01*
X28028Y-47238D01*
X27999Y-47195D01*
X27963Y-47158D01*
X27920Y-47129D01*
X27873Y-47109D01*
X27822Y-47099D01*
X27771Y-47099D01*
X27720Y-47108D01*
X27672Y-47128D01*
X27629Y-47156D01*
X27621Y-47164D01*
X25961Y-47164D01*
X25955Y-47158D01*
X25912Y-47129D01*
X25865Y-47109D01*
X25853Y-47107D01*
X25853Y-41155D01*
X25843Y-41104D01*
X25823Y-41057D01*
X25807Y-41032D01*
X25807Y-21181D01*
X25807Y-16456D01*
X25807Y-16456D01*
X25807Y-16455D01*
X25807Y-16448D01*
X25806Y-16440D01*
X25806Y-16432D01*
X25805Y-16429D01*
X25794Y-16330D01*
X25791Y-16314D01*
X25788Y-16299D01*
X25787Y-16296D01*
X25787Y-16296D01*
X25757Y-16201D01*
X25751Y-16186D01*
X25744Y-16171D01*
X25743Y-16169D01*
X25743Y-16169D01*
X25695Y-16082D01*
X25686Y-16068D01*
X25677Y-16055D01*
X25676Y-16053D01*
X25676Y-16053D01*
X25676Y-16053D01*
X25611Y-15977D01*
X25600Y-15965D01*
X25589Y-15954D01*
X25587Y-15952D01*
X25587Y-15952D01*
X25587Y-15952D01*
X25509Y-15890D01*
X25495Y-15881D01*
X25482Y-15872D01*
X25480Y-15871D01*
X25480Y-15871D01*
X25480Y-15871D01*
X25391Y-15825D01*
X25377Y-15819D01*
X25362Y-15812D01*
X25359Y-15812D01*
X25359Y-15812D01*
X25359Y-15812D01*
X25264Y-15783D01*
X25248Y-15780D01*
X25232Y-15777D01*
X25230Y-15777D01*
X25130Y-15768D01*
X25114Y-15768D01*
X25098Y-15768D01*
X25096Y-15768D01*
X24996Y-15779D01*
X24980Y-15782D01*
X24965Y-15785D01*
X24962Y-15786D01*
X24962Y-15786D01*
X24962Y-15786D01*
X24867Y-15815D01*
X24852Y-15821D01*
X24837Y-15827D01*
X24835Y-15829D01*
X24835Y-15829D01*
X24835Y-15829D01*
X24747Y-15876D01*
X24734Y-15885D01*
X24720Y-15894D01*
X24718Y-15895D01*
X24718Y-15895D01*
X24718Y-15895D01*
X24642Y-15959D01*
X24630Y-15970D01*
X24619Y-15982D01*
X24617Y-15984D01*
X24554Y-16061D01*
X24545Y-16074D01*
X24536Y-16088D01*
X24535Y-16090D01*
X24535Y-16090D01*
X24535Y-16090D01*
X24535Y-16090D01*
X24488Y-16178D01*
X24482Y-16193D01*
X24476Y-16208D01*
X24475Y-16210D01*
X24446Y-16306D01*
X24443Y-16321D01*
X24439Y-16337D01*
X24439Y-16339D01*
X24439Y-16339D01*
X24439Y-16339D01*
X24429Y-16439D01*
X24429Y-16446D01*
X24429Y-16454D01*
X24429Y-16456D01*
X24429Y-21181D01*
X24429Y-21181D01*
X24429Y-21182D01*
X24429Y-21189D01*
X24430Y-21197D01*
X24430Y-21205D01*
X24430Y-21207D01*
X24441Y-21307D01*
X24444Y-21322D01*
X24447Y-21338D01*
X24448Y-21341D01*
X24478Y-21436D01*
X24485Y-21451D01*
X24491Y-21465D01*
X24492Y-21468D01*
X24492Y-21468D01*
X24492Y-21468D01*
X24540Y-21555D01*
X24549Y-21568D01*
X24558Y-21582D01*
X24560Y-21584D01*
X24560Y-21584D01*
X24560Y-21584D01*
X24560Y-21584D01*
X24624Y-21660D01*
X24635Y-21671D01*
X24647Y-21683D01*
X24649Y-21684D01*
X24649Y-21684D01*
X24649Y-21684D01*
X24649Y-21684D01*
X24726Y-21747D01*
X24740Y-21756D01*
X24753Y-21765D01*
X24755Y-21766D01*
X24755Y-21766D01*
X24755Y-21766D01*
X24844Y-21812D01*
X24859Y-21818D01*
X24873Y-21824D01*
X24876Y-21825D01*
X24876Y-21825D01*
X24972Y-21853D01*
X24987Y-21856D01*
X25003Y-21860D01*
X25006Y-21860D01*
X25006Y-21860D01*
X25105Y-21869D01*
X25121Y-21869D01*
X25137Y-21869D01*
X25140Y-21869D01*
X25239Y-21858D01*
X25255Y-21855D01*
X25271Y-21852D01*
X25273Y-21851D01*
X25273Y-21851D01*
X25273Y-21851D01*
X25273Y-21851D01*
X25368Y-21822D01*
X25383Y-21815D01*
X25398Y-21809D01*
X25400Y-21808D01*
X25400Y-21808D01*
X25400Y-21808D01*
X25400Y-21808D01*
X25488Y-21761D01*
X25501Y-21752D01*
X25515Y-21743D01*
X25517Y-21741D01*
X25517Y-21741D01*
X25517Y-21741D01*
X25517Y-21741D01*
X25594Y-21678D01*
X25605Y-21666D01*
X25616Y-21655D01*
X25618Y-21653D01*
X25618Y-21653D01*
X25618Y-21653D01*
X25618Y-21653D01*
X25681Y-21576D01*
X25690Y-21562D01*
X25699Y-21549D01*
X25700Y-21547D01*
X25700Y-21547D01*
X25700Y-21547D01*
X25700Y-21547D01*
X25747Y-21459D01*
X25753Y-21444D01*
X25760Y-21429D01*
X25760Y-21427D01*
X25760Y-21427D01*
X25789Y-21331D01*
X25792Y-21315D01*
X25796Y-21300D01*
X25796Y-21297D01*
X25796Y-21297D01*
X25796Y-21297D01*
X25796Y-21297D01*
X25806Y-21198D01*
X25806Y-21191D01*
X25807Y-21183D01*
X25807Y-21181D01*
X25807Y-41032D01*
X25795Y-41014D01*
X25758Y-40977D01*
X25716Y-40948D01*
X25668Y-40928D01*
X25618Y-40918D01*
X25566Y-40918D01*
X25515Y-40927D01*
X25468Y-40947D01*
X25425Y-40975D01*
X25416Y-40983D01*
X24977Y-40983D01*
X24971Y-40977D01*
X24928Y-40948D01*
X24881Y-40928D01*
X24830Y-40918D01*
X24779Y-40918D01*
X24728Y-40927D01*
X24680Y-40947D01*
X24637Y-40975D01*
X24600Y-41011D01*
X24571Y-41053D01*
X24551Y-41101D01*
X24540Y-41151D01*
X24540Y-41203D01*
X24549Y-41253D01*
X24568Y-41301D01*
X24596Y-41345D01*
X24632Y-41382D01*
X24674Y-41411D01*
X24721Y-41432D01*
X24771Y-41443D01*
X24823Y-41444D01*
X24874Y-41435D01*
X24922Y-41416D01*
X24965Y-41389D01*
X24976Y-41378D01*
X25416Y-41378D01*
X25419Y-41382D01*
X25461Y-41411D01*
X25508Y-41432D01*
X25559Y-41443D01*
X25610Y-41444D01*
X25661Y-41435D01*
X25709Y-41416D01*
X25753Y-41389D01*
X25790Y-41353D01*
X25820Y-41311D01*
X25841Y-41264D01*
X25852Y-41214D01*
X25853Y-41155D01*
X25853Y-47107D01*
X25815Y-47099D01*
X25763Y-47099D01*
X25712Y-47108D01*
X25665Y-47128D01*
X25621Y-47156D01*
X25585Y-47192D01*
X25555Y-47234D01*
X25535Y-47282D01*
X25524Y-47332D01*
X25524Y-47384D01*
X25533Y-47434D01*
X25552Y-47482D01*
X25580Y-47526D01*
X25616Y-47563D01*
X25658Y-47592D01*
X25705Y-47613D01*
X25756Y-47624D01*
X25807Y-47625D01*
X25858Y-47616D01*
X25906Y-47597D01*
X25949Y-47570D01*
X25960Y-47560D01*
X27620Y-47560D01*
X27624Y-47563D01*
X27666Y-47592D01*
X27713Y-47613D01*
X27764Y-47624D01*
X27815Y-47625D01*
X27866Y-47616D01*
X27914Y-47597D01*
X27957Y-47570D01*
X27995Y-47534D01*
X28024Y-47492D01*
X28045Y-47445D01*
X28057Y-47395D01*
X28058Y-47336D01*
X28058Y-48595D01*
X28046Y-48595D01*
X27996Y-48604D01*
X27948Y-48624D01*
X27905Y-48652D01*
X27868Y-48688D01*
X27839Y-48731D01*
X27819Y-48778D01*
X27816Y-48789D01*
X27814Y-48788D01*
X27797Y-48782D01*
X27795Y-48782D01*
X27795Y-48782D01*
X27776Y-48780D01*
X27774Y-48780D01*
X27766Y-48772D01*
X27724Y-48744D01*
X27676Y-48724D01*
X27626Y-48713D01*
X27574Y-48713D01*
X27523Y-48723D01*
X27476Y-48742D01*
X27432Y-48770D01*
X27396Y-48806D01*
X27367Y-48849D01*
X27346Y-48896D01*
X27336Y-48946D01*
X27335Y-48998D01*
X27344Y-49049D01*
X27363Y-49097D01*
X27391Y-49140D01*
X27427Y-49177D01*
X27469Y-49206D01*
X27516Y-49227D01*
X27567Y-49238D01*
X27618Y-49239D01*
X27669Y-49230D01*
X27713Y-49213D01*
X27912Y-49412D01*
X27912Y-49510D01*
X27907Y-49515D01*
X27878Y-49557D01*
X27858Y-49605D01*
X27847Y-49655D01*
X27847Y-49707D01*
X27856Y-49757D01*
X27875Y-49805D01*
X27894Y-49834D01*
X27879Y-49840D01*
X27027Y-49840D01*
X26812Y-49625D01*
X26812Y-49442D01*
X26825Y-49414D01*
X26836Y-49363D01*
X26837Y-49304D01*
X26827Y-49254D01*
X26807Y-49206D01*
X26779Y-49163D01*
X26743Y-49127D01*
X26700Y-49098D01*
X26652Y-49078D01*
X26602Y-49068D01*
X26550Y-49067D01*
X26500Y-49077D01*
X26452Y-49096D01*
X26409Y-49124D01*
X26372Y-49160D01*
X26343Y-49203D01*
X26323Y-49250D01*
X26312Y-49301D01*
X26311Y-49352D01*
X26320Y-49403D01*
X26337Y-49444D01*
X26337Y-49724D01*
X26339Y-49746D01*
X26341Y-49768D01*
X26341Y-49769D01*
X26341Y-49770D01*
X26347Y-49791D01*
X26354Y-49812D01*
X26354Y-49813D01*
X26354Y-49815D01*
X26365Y-49834D01*
X26375Y-49853D01*
X26376Y-49854D01*
X26376Y-49856D01*
X26390Y-49873D01*
X26404Y-49890D01*
X26406Y-49891D01*
X26406Y-49891D01*
X26406Y-49891D01*
X26406Y-49892D01*
X26760Y-50246D01*
X26777Y-50260D01*
X26794Y-50274D01*
X26795Y-50275D01*
X26796Y-50276D01*
X26816Y-50286D01*
X26835Y-50297D01*
X26836Y-50297D01*
X26837Y-50298D01*
X26858Y-50304D01*
X26879Y-50311D01*
X26880Y-50311D01*
X26882Y-50311D01*
X26903Y-50314D01*
X26925Y-50316D01*
X26928Y-50316D01*
X26928Y-50316D01*
X26928Y-50316D01*
X26929Y-50316D01*
X27879Y-50316D01*
X27910Y-50329D01*
X27960Y-50340D01*
X28012Y-50342D01*
X28063Y-50333D01*
X28111Y-50314D01*
X28154Y-50286D01*
X28192Y-50251D01*
X28221Y-50209D01*
X28242Y-50162D01*
X28254Y-50111D01*
X28254Y-50052D01*
X28244Y-50002D01*
X28225Y-49954D01*
X28208Y-49928D01*
X28229Y-49920D01*
X28272Y-49893D01*
X28310Y-49857D01*
X28339Y-49815D01*
X28360Y-49768D01*
X28372Y-49718D01*
X28373Y-49659D01*
X28363Y-49608D01*
X28343Y-49561D01*
X28314Y-49518D01*
X28308Y-49511D01*
X28308Y-49371D01*
X28313Y-49375D01*
X28314Y-49376D01*
X28315Y-49376D01*
X28331Y-49385D01*
X28347Y-49394D01*
X28348Y-49394D01*
X28349Y-49395D01*
X28366Y-49400D01*
X28384Y-49406D01*
X28385Y-49406D01*
X28386Y-49406D01*
X28404Y-49408D01*
X28422Y-49410D01*
X28424Y-49410D01*
X28424Y-49410D01*
X28424Y-49410D01*
X28425Y-49410D01*
X28818Y-49410D01*
X28837Y-49408D01*
X28855Y-49407D01*
X28856Y-49406D01*
X28857Y-49406D01*
X28874Y-49401D01*
X28892Y-49396D01*
X28893Y-49395D01*
X28894Y-49395D01*
X28910Y-49386D01*
X28926Y-49378D01*
X28927Y-49377D01*
X28928Y-49377D01*
X28942Y-49365D01*
X28956Y-49354D01*
X28958Y-49352D01*
X28958Y-49352D01*
X28958Y-49352D01*
X28958Y-49352D01*
X29352Y-48958D01*
X29364Y-48944D01*
X29375Y-48930D01*
X29376Y-48929D01*
X29376Y-48928D01*
X29385Y-48912D01*
X29394Y-48896D01*
X29394Y-48895D01*
X29395Y-48894D01*
X29400Y-48877D01*
X29406Y-48860D01*
X29406Y-48858D01*
X29406Y-48857D01*
X29408Y-48839D01*
X29410Y-48821D01*
X29410Y-48819D01*
X29410Y-48819D01*
X29410Y-48819D01*
X29410Y-48818D01*
X29410Y-46917D01*
X30336Y-45990D01*
X30348Y-45976D01*
X30360Y-45962D01*
X30360Y-45961D01*
X30361Y-45961D01*
X30369Y-45945D01*
X30378Y-45929D01*
X30378Y-45928D01*
X30379Y-45927D01*
X30384Y-45909D01*
X30390Y-45892D01*
X30390Y-45891D01*
X30390Y-45890D01*
X30392Y-45871D01*
X30394Y-45853D01*
X30394Y-45851D01*
X30394Y-45851D01*
X30394Y-45851D01*
X30394Y-45851D01*
X30394Y-42247D01*
X31163Y-41478D01*
X31175Y-41464D01*
X31186Y-41450D01*
X31187Y-41449D01*
X31187Y-41448D01*
X31196Y-41432D01*
X31205Y-41416D01*
X31205Y-41415D01*
X31206Y-41414D01*
X31211Y-41397D01*
X31217Y-41379D01*
X31217Y-41378D01*
X31217Y-41377D01*
X31219Y-41359D01*
X31221Y-41341D01*
X31221Y-41339D01*
X31221Y-41339D01*
X31221Y-41339D01*
X31221Y-41338D01*
X31221Y-41082D01*
X31318Y-41082D01*
X31356Y-41075D01*
X31392Y-41060D01*
X31424Y-41038D01*
X31452Y-41011D01*
X31473Y-40979D01*
X31488Y-40943D01*
X31496Y-40905D01*
X31496Y-54153D01*
X31476Y-54169D01*
X31476Y-53228D01*
X31476Y-48502D01*
X31476Y-48502D01*
X31476Y-48495D01*
X31475Y-48487D01*
X31475Y-48479D01*
X31475Y-48477D01*
X31464Y-48377D01*
X31460Y-48362D01*
X31457Y-48346D01*
X31456Y-48343D01*
X31456Y-48343D01*
X31426Y-48248D01*
X31420Y-48233D01*
X31414Y-48219D01*
X31413Y-48216D01*
X31413Y-48216D01*
X31364Y-48129D01*
X31355Y-48116D01*
X31346Y-48102D01*
X31345Y-48100D01*
X31345Y-48100D01*
X31345Y-48100D01*
X31281Y-48024D01*
X31269Y-48013D01*
X31258Y-48001D01*
X31256Y-48000D01*
X31256Y-48000D01*
X31256Y-48000D01*
X31178Y-47937D01*
X31165Y-47928D01*
X31151Y-47919D01*
X31149Y-47918D01*
X31149Y-47918D01*
X31149Y-47918D01*
X31061Y-47872D01*
X31046Y-47866D01*
X31031Y-47860D01*
X31029Y-47859D01*
X31029Y-47859D01*
X31029Y-47859D01*
X30933Y-47831D01*
X30917Y-47828D01*
X30901Y-47824D01*
X30899Y-47824D01*
X30799Y-47815D01*
X30783Y-47815D01*
X30767Y-47815D01*
X30765Y-47815D01*
X30665Y-47826D01*
X30650Y-47829D01*
X30634Y-47832D01*
X30632Y-47833D01*
X30632Y-47833D01*
X30632Y-47833D01*
X30536Y-47862D01*
X30521Y-47869D01*
X30506Y-47875D01*
X30504Y-47876D01*
X30504Y-47876D01*
X30504Y-47876D01*
X30416Y-47923D01*
X30403Y-47932D01*
X30390Y-47941D01*
X30388Y-47943D01*
X30388Y-47943D01*
X30388Y-47943D01*
X30311Y-48006D01*
X30299Y-48018D01*
X30288Y-48029D01*
X30286Y-48031D01*
X30223Y-48108D01*
X30214Y-48122D01*
X30205Y-48135D01*
X30204Y-48137D01*
X30204Y-48137D01*
X30204Y-48137D01*
X30204Y-48137D01*
X30157Y-48225D01*
X30151Y-48240D01*
X30145Y-48255D01*
X30144Y-48257D01*
X30115Y-48353D01*
X30112Y-48369D01*
X30109Y-48384D01*
X30109Y-48387D01*
X30109Y-48387D01*
X30109Y-48387D01*
X30099Y-48486D01*
X30099Y-48493D01*
X30098Y-48501D01*
X30098Y-48503D01*
X30098Y-53228D01*
X30098Y-53228D01*
X30098Y-53229D01*
X30098Y-53236D01*
X30099Y-53244D01*
X30099Y-53252D01*
X30099Y-53255D01*
X30110Y-53354D01*
X30114Y-53370D01*
X30117Y-53385D01*
X30117Y-53388D01*
X30148Y-53483D01*
X30154Y-53498D01*
X30160Y-53513D01*
X30161Y-53515D01*
X30161Y-53515D01*
X30161Y-53515D01*
X30209Y-53602D01*
X30218Y-53616D01*
X30227Y-53629D01*
X30229Y-53631D01*
X30229Y-53631D01*
X30229Y-53631D01*
X30229Y-53631D01*
X30293Y-53707D01*
X30305Y-53719D01*
X30316Y-53730D01*
X30318Y-53732D01*
X30318Y-53732D01*
X30318Y-53732D01*
X30318Y-53732D01*
X30396Y-53794D01*
X30409Y-53803D01*
X30422Y-53812D01*
X30425Y-53813D01*
X30425Y-53813D01*
X30425Y-53813D01*
X30513Y-53859D01*
X30528Y-53865D01*
X30543Y-53872D01*
X30545Y-53872D01*
X30545Y-53872D01*
X30641Y-53901D01*
X30657Y-53904D01*
X30672Y-53907D01*
X30675Y-53907D01*
X30675Y-53907D01*
X30774Y-53916D01*
X30790Y-53916D01*
X30807Y-53916D01*
X30809Y-53916D01*
X30908Y-53905D01*
X30924Y-53902D01*
X30940Y-53899D01*
X30942Y-53898D01*
X30942Y-53898D01*
X30942Y-53898D01*
X30942Y-53898D01*
X31038Y-53869D01*
X31052Y-53863D01*
X31067Y-53857D01*
X31069Y-53856D01*
X31070Y-53856D01*
X31070Y-53856D01*
X31070Y-53856D01*
X31157Y-53808D01*
X31171Y-53799D01*
X31184Y-53790D01*
X31186Y-53789D01*
X31186Y-53789D01*
X31186Y-53789D01*
X31186Y-53789D01*
X31263Y-53725D01*
X31274Y-53714D01*
X31286Y-53702D01*
X31287Y-53700D01*
X31287Y-53700D01*
X31287Y-53700D01*
X31287Y-53700D01*
X31350Y-53623D01*
X31359Y-53610D01*
X31368Y-53596D01*
X31370Y-53594D01*
X31370Y-53594D01*
X31370Y-53594D01*
X31370Y-53594D01*
X31417Y-53506D01*
X31423Y-53491D01*
X31429Y-53476D01*
X31430Y-53474D01*
X31430Y-53474D01*
X31459Y-53378D01*
X31462Y-53363D01*
X31465Y-53347D01*
X31465Y-53345D01*
X31465Y-53345D01*
X31465Y-53345D01*
X31465Y-53345D01*
X31475Y-53245D01*
X31475Y-53238D01*
X31476Y-53230D01*
X31476Y-53228D01*
X31476Y-54169D01*
X31466Y-54178D01*
X31294Y-54271D01*
X31107Y-54329D01*
X30904Y-54350D01*
X29507Y-54350D01*
X29507Y-54192D01*
X29507Y-52106D01*
X26437Y-52106D01*
X26437Y-54192D01*
X29507Y-54192D01*
X29507Y-54350D01*
X25807Y-54350D01*
X25807Y-53228D01*
X25807Y-48503D01*
X25807Y-48503D01*
X25807Y-48502D01*
X25807Y-48495D01*
X25806Y-48487D01*
X25806Y-48479D01*
X25805Y-48477D01*
X25794Y-48377D01*
X25791Y-48362D01*
X25788Y-48346D01*
X25787Y-48343D01*
X25787Y-48343D01*
X25757Y-48248D01*
X25751Y-48233D01*
X25744Y-48219D01*
X25743Y-48216D01*
X25743Y-48216D01*
X25695Y-48129D01*
X25686Y-48116D01*
X25677Y-48102D01*
X25676Y-48100D01*
X25676Y-48100D01*
X25676Y-48100D01*
X25611Y-48024D01*
X25600Y-48013D01*
X25589Y-48001D01*
X25587Y-48000D01*
X25587Y-48000D01*
X25587Y-48000D01*
X25509Y-47937D01*
X25495Y-47928D01*
X25482Y-47919D01*
X25480Y-47918D01*
X25480Y-47918D01*
X25480Y-47918D01*
X25391Y-47872D01*
X25377Y-47866D01*
X25362Y-47860D01*
X25359Y-47859D01*
X25359Y-47859D01*
X25359Y-47859D01*
X25264Y-47831D01*
X25248Y-47828D01*
X25232Y-47824D01*
X25230Y-47824D01*
X25130Y-47815D01*
X25114Y-47815D01*
X25098Y-47815D01*
X25096Y-47815D01*
X24996Y-47826D01*
X24980Y-47829D01*
X24965Y-47832D01*
X24962Y-47833D01*
X24962Y-47833D01*
X24962Y-47833D01*
X24867Y-47862D01*
X24852Y-47869D01*
X24837Y-47875D01*
X24835Y-47876D01*
X24835Y-47876D01*
X24835Y-47876D01*
X24747Y-47923D01*
X24734Y-47932D01*
X24720Y-47941D01*
X24718Y-47943D01*
X24718Y-47943D01*
X24718Y-47943D01*
X24642Y-48006D01*
X24630Y-48018D01*
X24619Y-48029D01*
X24617Y-48031D01*
X24554Y-48108D01*
X24545Y-48122D01*
X24536Y-48135D01*
X24535Y-48137D01*
X24535Y-48137D01*
X24535Y-48137D01*
X24535Y-48137D01*
X24488Y-48225D01*
X24482Y-48240D01*
X24476Y-48255D01*
X24475Y-48257D01*
X24446Y-48353D01*
X24443Y-48369D01*
X24439Y-48384D01*
X24439Y-48387D01*
X24439Y-48387D01*
X24439Y-48387D01*
X24429Y-48486D01*
X24429Y-48493D01*
X24429Y-48500D01*
X24429Y-48503D01*
X24429Y-53228D01*
X24429Y-53228D01*
X24429Y-53229D01*
X24429Y-53236D01*
X24430Y-53244D01*
X24430Y-53252D01*
X24430Y-53255D01*
X24441Y-53354D01*
X24444Y-53370D01*
X24447Y-53385D01*
X24448Y-53388D01*
X24478Y-53483D01*
X24485Y-53498D01*
X24491Y-53513D01*
X24492Y-53515D01*
X24492Y-53515D01*
X24492Y-53515D01*
X24540Y-53602D01*
X24549Y-53616D01*
X24558Y-53629D01*
X24560Y-53631D01*
X24560Y-53631D01*
X24560Y-53631D01*
X24560Y-53631D01*
X24624Y-53707D01*
X24635Y-53719D01*
X24647Y-53730D01*
X24649Y-53732D01*
X24649Y-53732D01*
X24649Y-53732D01*
X24649Y-53732D01*
X24726Y-53794D01*
X24740Y-53803D01*
X24753Y-53812D01*
X24755Y-53813D01*
X24755Y-53813D01*
X24755Y-53813D01*
X24844Y-53859D01*
X24859Y-53865D01*
X24873Y-53872D01*
X24876Y-53872D01*
X24876Y-53872D01*
X24972Y-53901D01*
X24987Y-53904D01*
X25003Y-53907D01*
X25006Y-53907D01*
X25006Y-53907D01*
X25105Y-53916D01*
X25121Y-53916D01*
X25137Y-53916D01*
X25140Y-53916D01*
X25239Y-53905D01*
X25255Y-53902D01*
X25271Y-53899D01*
X25273Y-53898D01*
X25273Y-53898D01*
X25273Y-53898D01*
X25273Y-53898D01*
X25368Y-53869D01*
X25383Y-53863D01*
X25398Y-53857D01*
X25400Y-53856D01*
X25400Y-53856D01*
X25400Y-53856D01*
X25400Y-53856D01*
X25488Y-53808D01*
X25501Y-53799D01*
X25515Y-53790D01*
X25517Y-53789D01*
X25517Y-53789D01*
X25517Y-53789D01*
X25517Y-53789D01*
X25594Y-53725D01*
X25605Y-53714D01*
X25616Y-53702D01*
X25618Y-53700D01*
X25618Y-53700D01*
X25618Y-53700D01*
X25618Y-53700D01*
X25681Y-53623D01*
X25690Y-53610D01*
X25699Y-53596D01*
X25700Y-53594D01*
X25700Y-53594D01*
X25700Y-53594D01*
X25700Y-53594D01*
X25747Y-53506D01*
X25753Y-53491D01*
X25760Y-53476D01*
X25760Y-53474D01*
X25760Y-53474D01*
X25789Y-53378D01*
X25792Y-53363D01*
X25796Y-53347D01*
X25796Y-53345D01*
X25796Y-53345D01*
X25796Y-53345D01*
X25796Y-53345D01*
X25806Y-53245D01*
X25806Y-53238D01*
X25807Y-53230D01*
X25807Y-53228D01*
X25807Y-54350D01*
X25008Y-54350D01*
X24805Y-54330D01*
X24617Y-54273D01*
X24444Y-54181D01*
X24293Y-54058D01*
X24168Y-53907D01*
X24075Y-53735D01*
X24017Y-53548D01*
X23996Y-53345D01*
X23996Y-16347D01*
X24016Y-16143D01*
X24072Y-15956D01*
X24164Y-15783D01*
X24288Y-15631D01*
X24439Y-15506D01*
X24611Y-15413D01*
X24798Y-15355D01*
X25001Y-15334D01*
X30896Y-15334D01*
X31100Y-15354D01*
X31287Y-15411D01*
X31460Y-15503D01*
X31612Y-15626D01*
X31737Y-15777D01*
X31830Y-15949D01*
X31888Y-16136D01*
X31909Y-16339D01*
X31909Y-53337D01*
X31909Y-53337D01*
G37*
X31909Y-53337D02*
X31889Y-53541D01*
X31832Y-53728D01*
X31741Y-53901D01*
X31680Y-53976D01*
X31680Y-22690D01*
X31670Y-22640D01*
X31650Y-22592D01*
X31621Y-22549D01*
X31585Y-22513D01*
X31542Y-22484D01*
X31495Y-22464D01*
X31476Y-22460D01*
X31476Y-21181D01*
X31476Y-18290D01*
X31476Y-16456D01*
X31476Y-16456D01*
X31476Y-16455D01*
X31476Y-16448D01*
X31475Y-16440D01*
X31475Y-16432D01*
X31475Y-16429D01*
X31464Y-16330D01*
X31460Y-16314D01*
X31457Y-16299D01*
X31456Y-16296D01*
X31456Y-16296D01*
X31426Y-16201D01*
X31420Y-16186D01*
X31414Y-16171D01*
X31413Y-16169D01*
X31413Y-16169D01*
X31364Y-16082D01*
X31355Y-16068D01*
X31346Y-16055D01*
X31345Y-16053D01*
X31345Y-16053D01*
X31345Y-16053D01*
X31281Y-15977D01*
X31269Y-15965D01*
X31258Y-15954D01*
X31256Y-15952D01*
X31256Y-15952D01*
X31256Y-15952D01*
X31178Y-15890D01*
X31165Y-15881D01*
X31151Y-15872D01*
X31149Y-15871D01*
X31149Y-15871D01*
X31149Y-15871D01*
X31061Y-15825D01*
X31046Y-15819D01*
X31031Y-15812D01*
X31029Y-15812D01*
X31029Y-15812D01*
X31029Y-15812D01*
X30933Y-15783D01*
X30917Y-15780D01*
X30901Y-15777D01*
X30899Y-15777D01*
X30799Y-15768D01*
X30783Y-15768D01*
X30767Y-15768D01*
X30765Y-15768D01*
X30665Y-15779D01*
X30650Y-15782D01*
X30634Y-15785D01*
X30632Y-15786D01*
X30632Y-15786D01*
X30632Y-15786D01*
X30536Y-15815D01*
X30521Y-15821D01*
X30506Y-15827D01*
X30504Y-15829D01*
X30504Y-15829D01*
X30504Y-15829D01*
X30416Y-15876D01*
X30403Y-15885D01*
X30390Y-15894D01*
X30388Y-15895D01*
X30388Y-15895D01*
X30388Y-15895D01*
X30311Y-15959D01*
X30299Y-15970D01*
X30288Y-15982D01*
X30286Y-15984D01*
X30223Y-16061D01*
X30214Y-16074D01*
X30205Y-16088D01*
X30204Y-16090D01*
X30204Y-16090D01*
X30204Y-16090D01*
X30204Y-16090D01*
X30157Y-16178D01*
X30151Y-16193D01*
X30145Y-16208D01*
X30144Y-16210D01*
X30115Y-16306D01*
X30112Y-16321D01*
X30109Y-16337D01*
X30109Y-16339D01*
X30109Y-16339D01*
X30109Y-16339D01*
X30099Y-16439D01*
X30099Y-16446D01*
X30098Y-16454D01*
X30098Y-16456D01*
X30098Y-21181D01*
X30098Y-21181D01*
X30098Y-21182D01*
X30098Y-21189D01*
X30099Y-21197D01*
X30099Y-21205D01*
X30099Y-21207D01*
X30110Y-21307D01*
X30114Y-21322D01*
X30117Y-21338D01*
X30117Y-21341D01*
X30148Y-21436D01*
X30154Y-21451D01*
X30160Y-21465D01*
X30161Y-21468D01*
X30161Y-21468D01*
X30161Y-21468D01*
X30209Y-21555D01*
X30218Y-21568D01*
X30227Y-21582D01*
X30229Y-21584D01*
X30229Y-21584D01*
X30229Y-21584D01*
X30229Y-21584D01*
X30293Y-21660D01*
X30305Y-21671D01*
X30316Y-21683D01*
X30318Y-21684D01*
X30318Y-21684D01*
X30318Y-21684D01*
X30318Y-21684D01*
X30396Y-21747D01*
X30409Y-21756D01*
X30422Y-21765D01*
X30425Y-21766D01*
X30425Y-21766D01*
X30425Y-21766D01*
X30513Y-21812D01*
X30528Y-21818D01*
X30543Y-21824D01*
X30545Y-21825D01*
X30545Y-21825D01*
X30641Y-21853D01*
X30657Y-21856D01*
X30672Y-21860D01*
X30675Y-21860D01*
X30675Y-21860D01*
X30774Y-21869D01*
X30790Y-21869D01*
X30807Y-21869D01*
X30809Y-21869D01*
X30908Y-21858D01*
X30924Y-21855D01*
X30940Y-21852D01*
X30942Y-21851D01*
X30942Y-21851D01*
X30942Y-21851D01*
X30942Y-21851D01*
X31038Y-21822D01*
X31052Y-21815D01*
X31067Y-21809D01*
X31069Y-21808D01*
X31070Y-21808D01*
X31070Y-21808D01*
X31070Y-21808D01*
X31157Y-21761D01*
X31171Y-21752D01*
X31184Y-21743D01*
X31186Y-21741D01*
X31186Y-21741D01*
X31186Y-21741D01*
X31186Y-21741D01*
X31263Y-21678D01*
X31274Y-21666D01*
X31286Y-21655D01*
X31287Y-21653D01*
X31287Y-21653D01*
X31287Y-21653D01*
X31287Y-21653D01*
X31350Y-21576D01*
X31359Y-21562D01*
X31368Y-21549D01*
X31370Y-21547D01*
X31370Y-21547D01*
X31370Y-21547D01*
X31370Y-21547D01*
X31417Y-21459D01*
X31423Y-21444D01*
X31429Y-21429D01*
X31430Y-21427D01*
X31430Y-21427D01*
X31459Y-21331D01*
X31462Y-21315D01*
X31465Y-21300D01*
X31465Y-21297D01*
X31465Y-21297D01*
X31465Y-21297D01*
X31465Y-21297D01*
X31475Y-21198D01*
X31475Y-21191D01*
X31476Y-21183D01*
X31476Y-21181D01*
X31476Y-22460D01*
X31444Y-22453D01*
X31393Y-22453D01*
X31342Y-22463D01*
X31294Y-22482D01*
X31270Y-22498D01*
X30326Y-22498D01*
X29878Y-22050D01*
X29862Y-22037D01*
X29847Y-22025D01*
X29846Y-22024D01*
X29845Y-22023D01*
X29827Y-22014D01*
X29810Y-22004D01*
X29809Y-22004D01*
X29808Y-22003D01*
X29788Y-21997D01*
X29769Y-21991D01*
X29768Y-21991D01*
X29767Y-21991D01*
X29747Y-21989D01*
X29727Y-21986D01*
X29725Y-21986D01*
X29725Y-21986D01*
X29725Y-21986D01*
X29724Y-21986D01*
X29586Y-21986D01*
X29586Y-17519D01*
X29586Y-16456D01*
X29586Y-16456D01*
X29586Y-16455D01*
X29586Y-16448D01*
X29585Y-16440D01*
X29585Y-16432D01*
X29585Y-16429D01*
X29574Y-16330D01*
X29570Y-16314D01*
X29567Y-16299D01*
X29567Y-16296D01*
X29567Y-16296D01*
X29536Y-16201D01*
X29530Y-16186D01*
X29524Y-16171D01*
X29523Y-16169D01*
X29523Y-16169D01*
X29475Y-16082D01*
X29466Y-16068D01*
X29457Y-16055D01*
X29455Y-16053D01*
X29455Y-16053D01*
X29455Y-16053D01*
X29391Y-15977D01*
X29379Y-15965D01*
X29368Y-15954D01*
X29366Y-15952D01*
X29366Y-15952D01*
X29366Y-15952D01*
X29288Y-15890D01*
X29275Y-15881D01*
X29262Y-15872D01*
X29259Y-15871D01*
X29259Y-15871D01*
X29259Y-15871D01*
X29171Y-15825D01*
X29156Y-15819D01*
X29141Y-15812D01*
X29139Y-15812D01*
X29139Y-15812D01*
X29139Y-15812D01*
X29043Y-15783D01*
X29027Y-15780D01*
X29012Y-15777D01*
X29009Y-15777D01*
X28910Y-15768D01*
X28894Y-15768D01*
X28878Y-15768D01*
X28875Y-15768D01*
X28776Y-15779D01*
X28760Y-15782D01*
X28744Y-15785D01*
X28742Y-15786D01*
X28742Y-15786D01*
X28742Y-15786D01*
X28646Y-15815D01*
X28632Y-15821D01*
X28617Y-15827D01*
X28615Y-15829D01*
X28615Y-15829D01*
X28615Y-15829D01*
X28527Y-15876D01*
X28513Y-15885D01*
X28500Y-15894D01*
X28498Y-15895D01*
X28498Y-15895D01*
X28498Y-15895D01*
X28421Y-15959D01*
X28410Y-15970D01*
X28398Y-15982D01*
X28397Y-15984D01*
X28334Y-16061D01*
X28325Y-16074D01*
X28316Y-16088D01*
X28314Y-16090D01*
X28314Y-16090D01*
X28314Y-16090D01*
X28314Y-16090D01*
X28268Y-16178D01*
X28261Y-16193D01*
X28255Y-16208D01*
X28254Y-16210D01*
X28225Y-16306D01*
X28222Y-16321D01*
X28219Y-16337D01*
X28219Y-16339D01*
X28219Y-16339D01*
X28219Y-16339D01*
X28209Y-16439D01*
X28209Y-16446D01*
X28208Y-16454D01*
X28208Y-16456D01*
X28208Y-17519D01*
X28208Y-17519D01*
X28208Y-17520D01*
X28208Y-17528D01*
X28209Y-17536D01*
X28209Y-17544D01*
X28209Y-17546D01*
X28220Y-17645D01*
X28224Y-17661D01*
X28227Y-17677D01*
X28228Y-17679D01*
X28258Y-17774D01*
X28264Y-17789D01*
X28270Y-17804D01*
X28271Y-17806D01*
X28271Y-17806D01*
X28271Y-17806D01*
X28320Y-17894D01*
X28329Y-17907D01*
X28338Y-17920D01*
X28339Y-17922D01*
X28339Y-17922D01*
X28339Y-17922D01*
X28339Y-17922D01*
X28403Y-17999D01*
X28415Y-18010D01*
X28426Y-18021D01*
X28428Y-18023D01*
X28428Y-18023D01*
X28428Y-18023D01*
X28428Y-18023D01*
X28506Y-18086D01*
X28519Y-18094D01*
X28533Y-18103D01*
X28535Y-18104D01*
X28535Y-18104D01*
X28535Y-18104D01*
X28623Y-18151D01*
X28638Y-18157D01*
X28653Y-18163D01*
X28655Y-18164D01*
X28655Y-18164D01*
X28751Y-18192D01*
X28767Y-18195D01*
X28783Y-18198D01*
X28785Y-18198D01*
X28785Y-18198D01*
X28885Y-18207D01*
X28901Y-18207D01*
X28917Y-18207D01*
X28919Y-18207D01*
X29019Y-18197D01*
X29034Y-18194D01*
X29050Y-18190D01*
X29052Y-18190D01*
X29052Y-18190D01*
X29052Y-18190D01*
X29052Y-18190D01*
X29148Y-18160D01*
X29163Y-18154D01*
X29178Y-18148D01*
X29180Y-18147D01*
X29180Y-18147D01*
X29180Y-18147D01*
X29180Y-18147D01*
X29268Y-18099D01*
X29281Y-18090D01*
X29294Y-18082D01*
X29296Y-18080D01*
X29296Y-18080D01*
X29296Y-18080D01*
X29296Y-18080D01*
X29373Y-18016D01*
X29385Y-18005D01*
X29396Y-17994D01*
X29398Y-17992D01*
X29398Y-17992D01*
X29398Y-17992D01*
X29398Y-17992D01*
X29461Y-17914D01*
X29470Y-17901D01*
X29479Y-17888D01*
X29480Y-17886D01*
X29480Y-17886D01*
X29480Y-17886D01*
X29480Y-17886D01*
X29527Y-17797D01*
X29533Y-17783D01*
X29539Y-17768D01*
X29540Y-17765D01*
X29540Y-17765D01*
X29569Y-17670D01*
X29572Y-17654D01*
X29575Y-17638D01*
X29576Y-17636D01*
X29576Y-17636D01*
X29576Y-17636D01*
X29576Y-17636D01*
X29585Y-17536D01*
X29585Y-17529D01*
X29586Y-17522D01*
X29586Y-17519D01*
X29586Y-21986D01*
X28915Y-21986D01*
X28915Y-19245D01*
X28897Y-19156D01*
X28863Y-19073D01*
X28813Y-18997D01*
X28749Y-18933D01*
X28673Y-18882D01*
X28590Y-18847D01*
X28501Y-18828D01*
X28410Y-18828D01*
X28321Y-18845D01*
X28237Y-18879D01*
X28161Y-18928D01*
X28096Y-18992D01*
X28045Y-19067D01*
X28009Y-19150D01*
X27990Y-19239D01*
X27989Y-19330D01*
X28005Y-19419D01*
X28039Y-19503D01*
X28088Y-19580D01*
X28151Y-19645D01*
X28225Y-19697D01*
X28309Y-19733D01*
X28397Y-19753D01*
X28488Y-19755D01*
X28577Y-19739D01*
X28662Y-19706D01*
X28739Y-19657D01*
X28804Y-19595D01*
X28857Y-19521D01*
X28894Y-19438D01*
X28914Y-19349D01*
X28915Y-19245D01*
X28915Y-21986D01*
X27937Y-21986D01*
X27937Y-19270D01*
X27923Y-19176D01*
X27892Y-19087D01*
X27866Y-19039D01*
X27794Y-19005D01*
X27738Y-19061D01*
X27738Y-18949D01*
X27704Y-18877D01*
X27696Y-18873D01*
X27696Y-17519D01*
X27696Y-16456D01*
X27696Y-16456D01*
X27696Y-16455D01*
X27696Y-16448D01*
X27695Y-16440D01*
X27695Y-16432D01*
X27695Y-16429D01*
X27684Y-16330D01*
X27681Y-16314D01*
X27678Y-16299D01*
X27677Y-16296D01*
X27677Y-16296D01*
X27647Y-16201D01*
X27640Y-16186D01*
X27634Y-16171D01*
X27633Y-16169D01*
X27633Y-16169D01*
X27585Y-16082D01*
X27576Y-16068D01*
X27567Y-16055D01*
X27565Y-16053D01*
X27565Y-16053D01*
X27565Y-16053D01*
X27501Y-15977D01*
X27490Y-15965D01*
X27478Y-15954D01*
X27476Y-15952D01*
X27476Y-15952D01*
X27476Y-15952D01*
X27399Y-15890D01*
X27385Y-15881D01*
X27372Y-15872D01*
X27370Y-15871D01*
X27370Y-15871D01*
X27370Y-15871D01*
X27281Y-15825D01*
X27266Y-15819D01*
X27251Y-15812D01*
X27249Y-15812D01*
X27249Y-15812D01*
X27249Y-15812D01*
X27153Y-15783D01*
X27138Y-15780D01*
X27122Y-15777D01*
X27119Y-15777D01*
X27020Y-15768D01*
X27004Y-15768D01*
X26988Y-15768D01*
X26985Y-15768D01*
X26886Y-15779D01*
X26870Y-15782D01*
X26854Y-15785D01*
X26852Y-15786D01*
X26852Y-15786D01*
X26852Y-15786D01*
X26757Y-15815D01*
X26742Y-15821D01*
X26727Y-15827D01*
X26725Y-15829D01*
X26725Y-15829D01*
X26725Y-15829D01*
X26637Y-15876D01*
X26624Y-15885D01*
X26610Y-15894D01*
X26608Y-15895D01*
X26608Y-15895D01*
X26608Y-15895D01*
X26531Y-15959D01*
X26520Y-15970D01*
X26508Y-15982D01*
X26507Y-15984D01*
X26444Y-16061D01*
X26435Y-16074D01*
X26426Y-16088D01*
X26425Y-16090D01*
X26425Y-16090D01*
X26425Y-16090D01*
X26425Y-16090D01*
X26378Y-16178D01*
X26372Y-16193D01*
X26365Y-16208D01*
X26365Y-16210D01*
X26336Y-16306D01*
X26333Y-16321D01*
X26329Y-16337D01*
X26329Y-16339D01*
X26329Y-16339D01*
X26329Y-16339D01*
X26319Y-16439D01*
X26319Y-16446D01*
X26318Y-16454D01*
X26318Y-16456D01*
X26318Y-17519D01*
X26318Y-17519D01*
X26318Y-17520D01*
X26318Y-17528D01*
X26319Y-17536D01*
X26319Y-17544D01*
X26320Y-17546D01*
X26331Y-17645D01*
X26334Y-17661D01*
X26337Y-17677D01*
X26338Y-17679D01*
X26368Y-17774D01*
X26374Y-17789D01*
X26381Y-17804D01*
X26382Y-17806D01*
X26382Y-17806D01*
X26382Y-17806D01*
X26430Y-17894D01*
X26439Y-17907D01*
X26448Y-17920D01*
X26449Y-17922D01*
X26449Y-17922D01*
X26449Y-17922D01*
X26449Y-17922D01*
X26514Y-17999D01*
X26525Y-18010D01*
X26536Y-18021D01*
X26538Y-18023D01*
X26538Y-18023D01*
X26538Y-18023D01*
X26538Y-18023D01*
X26616Y-18086D01*
X26630Y-18094D01*
X26643Y-18103D01*
X26645Y-18104D01*
X26645Y-18104D01*
X26645Y-18104D01*
X26734Y-18151D01*
X26748Y-18157D01*
X26763Y-18163D01*
X26766Y-18164D01*
X26766Y-18164D01*
X26861Y-18192D01*
X26877Y-18195D01*
X26893Y-18198D01*
X26895Y-18198D01*
X26895Y-18198D01*
X26995Y-18207D01*
X27011Y-18207D01*
X27027Y-18207D01*
X27029Y-18207D01*
X27129Y-18197D01*
X27145Y-18194D01*
X27160Y-18190D01*
X27163Y-18190D01*
X27163Y-18190D01*
X27163Y-18190D01*
X27163Y-18190D01*
X27258Y-18160D01*
X27273Y-18154D01*
X27288Y-18148D01*
X27290Y-18147D01*
X27290Y-18147D01*
X27290Y-18147D01*
X27290Y-18147D01*
X27378Y-18099D01*
X27391Y-18090D01*
X27405Y-18082D01*
X27407Y-18080D01*
X27407Y-18080D01*
X27407Y-18080D01*
X27407Y-18080D01*
X27483Y-18016D01*
X27495Y-18005D01*
X27506Y-17994D01*
X27508Y-17992D01*
X27508Y-17992D01*
X27508Y-17992D01*
X27508Y-17992D01*
X27571Y-17914D01*
X27580Y-17901D01*
X27589Y-17888D01*
X27590Y-17886D01*
X27590Y-17886D01*
X27590Y-17886D01*
X27590Y-17886D01*
X27637Y-17797D01*
X27643Y-17783D01*
X27649Y-17768D01*
X27650Y-17765D01*
X27650Y-17765D01*
X27679Y-17670D01*
X27682Y-17654D01*
X27685Y-17638D01*
X27686Y-17636D01*
X27686Y-17636D01*
X27686Y-17636D01*
X27686Y-17636D01*
X27696Y-17536D01*
X27696Y-17529D01*
X27696Y-17522D01*
X27696Y-17519D01*
X27696Y-18873D01*
X27619Y-18836D01*
X27527Y-18812D01*
X27432Y-18806D01*
X27338Y-18820D01*
X27248Y-18851D01*
X27200Y-18877D01*
X27166Y-18949D01*
X27452Y-19235D01*
X27738Y-18949D01*
X27738Y-19061D01*
X27508Y-19291D01*
X27794Y-19577D01*
X27866Y-19543D01*
X27908Y-19457D01*
X27931Y-19365D01*
X27937Y-19270D01*
X27937Y-21986D01*
X27738Y-21986D01*
X27738Y-19632D01*
X27452Y-19347D01*
X27397Y-19402D01*
X27397Y-19291D01*
X27111Y-19005D01*
X27038Y-19039D01*
X26997Y-19124D01*
X26973Y-19216D01*
X26968Y-19311D01*
X26981Y-19405D01*
X27013Y-19495D01*
X27038Y-19543D01*
X27111Y-19577D01*
X27397Y-19291D01*
X27397Y-19402D01*
X27166Y-19632D01*
X27200Y-19705D01*
X27286Y-19746D01*
X27378Y-19770D01*
X27473Y-19775D01*
X27567Y-19762D01*
X27656Y-19731D01*
X27704Y-19705D01*
X27738Y-19632D01*
X27738Y-21986D01*
X26643Y-21986D01*
X26621Y-21972D01*
X26574Y-21952D01*
X26523Y-21942D01*
X26472Y-21941D01*
X26421Y-21951D01*
X26373Y-21970D01*
X26330Y-21998D01*
X26293Y-22034D01*
X26264Y-22077D01*
X26244Y-22124D01*
X26233Y-22175D01*
X26232Y-22226D01*
X26242Y-22277D01*
X26261Y-22325D01*
X26289Y-22368D01*
X26324Y-22405D01*
X26367Y-22435D01*
X26414Y-22455D01*
X26464Y-22466D01*
X26516Y-22468D01*
X26567Y-22459D01*
X26615Y-22440D01*
X26643Y-22422D01*
X29634Y-22422D01*
X30082Y-22870D01*
X30097Y-22883D01*
X30113Y-22896D01*
X30114Y-22896D01*
X30115Y-22897D01*
X30132Y-22907D01*
X30150Y-22916D01*
X30151Y-22917D01*
X30152Y-22917D01*
X30171Y-22923D01*
X30190Y-22929D01*
X30192Y-22929D01*
X30193Y-22930D01*
X30213Y-22932D01*
X30233Y-22934D01*
X30235Y-22934D01*
X30235Y-22934D01*
X30235Y-22934D01*
X30236Y-22934D01*
X31270Y-22934D01*
X31288Y-22947D01*
X31335Y-22967D01*
X31386Y-22978D01*
X31437Y-22979D01*
X31488Y-22970D01*
X31536Y-22952D01*
X31579Y-22924D01*
X31617Y-22889D01*
X31646Y-22846D01*
X31667Y-22799D01*
X31679Y-22749D01*
X31680Y-22690D01*
X31680Y-53976D01*
X31617Y-54053D01*
X31496Y-54153D01*
X31496Y-40905D01*
X31496Y-40866D01*
X31496Y-39882D01*
X31488Y-39844D01*
X31473Y-39808D01*
X31452Y-39776D01*
X31424Y-39748D01*
X31392Y-39727D01*
X31356Y-39712D01*
X31318Y-39704D01*
X31279Y-39704D01*
X31221Y-39704D01*
X31221Y-39370D01*
X31221Y-29980D01*
X31318Y-29980D01*
X31356Y-29972D01*
X31392Y-29957D01*
X31424Y-29936D01*
X31452Y-29908D01*
X31473Y-29876D01*
X31488Y-29840D01*
X31496Y-29802D01*
X31496Y-29764D01*
X31496Y-28779D01*
X31488Y-28741D01*
X31473Y-28705D01*
X31452Y-28673D01*
X31424Y-28646D01*
X31392Y-28624D01*
X31356Y-28609D01*
X31318Y-28602D01*
X31279Y-28602D01*
X30728Y-28602D01*
X30690Y-28609D01*
X30669Y-28618D01*
X30647Y-28609D01*
X30609Y-28602D01*
X30571Y-28602D01*
X30019Y-28602D01*
X29981Y-28609D01*
X29946Y-28624D01*
X29913Y-28646D01*
X29886Y-28673D01*
X29864Y-28705D01*
X29850Y-28741D01*
X29842Y-28779D01*
X29842Y-28818D01*
X29842Y-29802D01*
X29850Y-29840D01*
X29864Y-29876D01*
X29886Y-29908D01*
X29913Y-29936D01*
X29946Y-29957D01*
X29981Y-29972D01*
X30019Y-29980D01*
X30058Y-29980D01*
X30077Y-29980D01*
X30077Y-38799D01*
X29753Y-39122D01*
X29720Y-39136D01*
X29677Y-39164D01*
X29640Y-39200D01*
X29611Y-39242D01*
X29590Y-39290D01*
X29580Y-39340D01*
X29579Y-39392D01*
X29588Y-39442D01*
X29607Y-39490D01*
X29635Y-39534D01*
X29671Y-39571D01*
X29713Y-39600D01*
X29760Y-39621D01*
X29811Y-39632D01*
X29862Y-39633D01*
X29913Y-39624D01*
X29961Y-39605D01*
X30005Y-39578D01*
X30042Y-39542D01*
X30072Y-39500D01*
X30091Y-39457D01*
X30483Y-39065D01*
X30497Y-39048D01*
X30511Y-39031D01*
X30511Y-39030D01*
X30512Y-39029D01*
X30522Y-39010D01*
X30533Y-38991D01*
X30533Y-38990D01*
X30534Y-38989D01*
X30540Y-38968D01*
X30547Y-38947D01*
X30547Y-38945D01*
X30548Y-38944D01*
X30550Y-38922D01*
X30552Y-38900D01*
X30552Y-38898D01*
X30552Y-38898D01*
X30552Y-38898D01*
X30552Y-38897D01*
X30552Y-29980D01*
X30609Y-29980D01*
X30647Y-29972D01*
X30669Y-29963D01*
X30690Y-29972D01*
X30728Y-29980D01*
X30767Y-29980D01*
X30825Y-29980D01*
X30825Y-39094D01*
X30786Y-39078D01*
X30736Y-39068D01*
X30684Y-39067D01*
X30634Y-39077D01*
X30586Y-39096D01*
X30543Y-39124D01*
X30506Y-39160D01*
X30477Y-39203D01*
X30456Y-39250D01*
X30446Y-39301D01*
X30445Y-39352D01*
X30454Y-39403D01*
X30473Y-39451D01*
X30501Y-39494D01*
X30537Y-39531D01*
X30579Y-39561D01*
X30627Y-39581D01*
X30677Y-39592D01*
X30728Y-39593D01*
X30779Y-39585D01*
X30823Y-39567D01*
X30825Y-39567D01*
X30825Y-39704D01*
X30728Y-39704D01*
X30690Y-39712D01*
X30669Y-39721D01*
X30647Y-39712D01*
X30609Y-39704D01*
X30571Y-39704D01*
X30019Y-39704D01*
X29981Y-39712D01*
X29946Y-39727D01*
X29913Y-39748D01*
X29886Y-39776D01*
X29864Y-39808D01*
X29850Y-39844D01*
X29842Y-39882D01*
X29842Y-39920D01*
X29842Y-40155D01*
X29325Y-40155D01*
X29290Y-40141D01*
X29240Y-40131D01*
X29188Y-40130D01*
X29138Y-40140D01*
X29090Y-40159D01*
X29047Y-40187D01*
X29010Y-40223D01*
X28981Y-40266D01*
X28960Y-40313D01*
X28950Y-40364D01*
X28949Y-40415D01*
X28958Y-40466D01*
X28977Y-40514D01*
X29005Y-40557D01*
X29041Y-40594D01*
X29083Y-40624D01*
X29130Y-40644D01*
X29181Y-40655D01*
X29232Y-40656D01*
X29283Y-40648D01*
X29326Y-40631D01*
X29842Y-40631D01*
X29842Y-40905D01*
X29850Y-40943D01*
X29864Y-40979D01*
X29886Y-41011D01*
X29913Y-41038D01*
X29946Y-41060D01*
X29981Y-41075D01*
X30019Y-41082D01*
X30058Y-41082D01*
X30609Y-41082D01*
X30647Y-41075D01*
X30669Y-41066D01*
X30690Y-41075D01*
X30728Y-41082D01*
X30767Y-41082D01*
X30825Y-41082D01*
X30825Y-41256D01*
X30056Y-42025D01*
X30045Y-42039D01*
X30033Y-42053D01*
X30033Y-42054D01*
X30032Y-42055D01*
X30023Y-42071D01*
X30015Y-42087D01*
X30014Y-42088D01*
X30014Y-42089D01*
X30008Y-42106D01*
X30003Y-42124D01*
X30003Y-42125D01*
X30002Y-42126D01*
X30001Y-42144D01*
X29999Y-42162D01*
X29999Y-42164D01*
X29999Y-42164D01*
X29999Y-42164D01*
X29999Y-42165D01*
X29999Y-45769D01*
X29072Y-46695D01*
X29061Y-46709D01*
X29049Y-46723D01*
X29048Y-46724D01*
X29048Y-46725D01*
X29039Y-46741D01*
X29030Y-46757D01*
X29030Y-46758D01*
X29029Y-46759D01*
X29024Y-46776D01*
X29019Y-46794D01*
X29019Y-46795D01*
X29018Y-46796D01*
X29016Y-46814D01*
X29014Y-46832D01*
X29014Y-46834D01*
X29014Y-46834D01*
X29014Y-46834D01*
X29014Y-46835D01*
X29014Y-48736D01*
X28809Y-48942D01*
X28809Y-46098D01*
X28809Y-46051D01*
X28809Y-45775D01*
X28799Y-45730D01*
X28782Y-45687D01*
X28756Y-45648D01*
X28723Y-45615D01*
X28684Y-45589D01*
X28641Y-45572D01*
X28641Y-45572D01*
X28641Y-45571D01*
X28632Y-45525D01*
X28614Y-45482D01*
X28600Y-45461D01*
X28614Y-45440D01*
X28632Y-45397D01*
X28641Y-45352D01*
X28641Y-45305D01*
X28641Y-44975D01*
X28641Y-44975D01*
X28684Y-44957D01*
X28723Y-44931D01*
X28756Y-44898D01*
X28782Y-44859D01*
X28799Y-44816D01*
X28809Y-44771D01*
X28809Y-44724D01*
X28809Y-44449D01*
X28799Y-44403D01*
X28782Y-44360D01*
X28756Y-44321D01*
X28723Y-44288D01*
X28684Y-44263D01*
X28641Y-44245D01*
X28596Y-44236D01*
X28549Y-44236D01*
X28340Y-44236D01*
X28340Y-42177D01*
X28596Y-42177D01*
X28641Y-42168D01*
X28684Y-42150D01*
X28723Y-42124D01*
X28756Y-42091D01*
X28782Y-42052D01*
X28799Y-42009D01*
X28809Y-41964D01*
X28809Y-41917D01*
X28809Y-41642D01*
X28799Y-41596D01*
X28782Y-41553D01*
X28756Y-41514D01*
X28723Y-41481D01*
X28684Y-41456D01*
X28641Y-41438D01*
X28641Y-41438D01*
X28641Y-41437D01*
X28632Y-41391D01*
X28614Y-41348D01*
X28600Y-41327D01*
X28614Y-41306D01*
X28632Y-41263D01*
X28641Y-41218D01*
X28641Y-41171D01*
X28641Y-40841D01*
X28641Y-40841D01*
X28684Y-40823D01*
X28723Y-40797D01*
X28756Y-40764D01*
X28782Y-40726D01*
X28799Y-40683D01*
X28809Y-40637D01*
X28809Y-40590D01*
X28809Y-40315D01*
X28799Y-40269D01*
X28782Y-40226D01*
X28756Y-40188D01*
X28723Y-40155D01*
X28684Y-40129D01*
X28641Y-40111D01*
X28596Y-40102D01*
X28549Y-40102D01*
X28340Y-40102D01*
X28340Y-38043D01*
X28596Y-38043D01*
X28641Y-38034D01*
X28684Y-38016D01*
X28723Y-37990D01*
X28756Y-37957D01*
X28782Y-37918D01*
X28799Y-37875D01*
X28809Y-37830D01*
X28809Y-37783D01*
X28809Y-37508D01*
X28799Y-37462D01*
X28782Y-37419D01*
X28756Y-37380D01*
X28723Y-37348D01*
X28684Y-37322D01*
X28641Y-37304D01*
X28641Y-37304D01*
X28641Y-37303D01*
X28632Y-37257D01*
X28614Y-37214D01*
X28600Y-37193D01*
X28614Y-37172D01*
X28632Y-37129D01*
X28641Y-37084D01*
X28641Y-37037D01*
X28641Y-36707D01*
X28641Y-36707D01*
X28684Y-36689D01*
X28723Y-36663D01*
X28756Y-36630D01*
X28782Y-36592D01*
X28799Y-36549D01*
X28809Y-36503D01*
X28809Y-36457D01*
X28809Y-36181D01*
X28799Y-36135D01*
X28782Y-36092D01*
X28756Y-36054D01*
X28723Y-36021D01*
X28684Y-35995D01*
X28641Y-35977D01*
X28596Y-35968D01*
X28549Y-35968D01*
X28340Y-35968D01*
X28340Y-33712D01*
X28596Y-33712D01*
X28641Y-33703D01*
X28684Y-33685D01*
X28723Y-33659D01*
X28756Y-33626D01*
X28782Y-33588D01*
X28799Y-33545D01*
X28809Y-33499D01*
X28809Y-33453D01*
X28809Y-33177D01*
X28799Y-33131D01*
X28782Y-33088D01*
X28756Y-33050D01*
X28723Y-33017D01*
X28684Y-32991D01*
X28641Y-32973D01*
X28641Y-32973D01*
X28641Y-32972D01*
X28632Y-32927D01*
X28614Y-32884D01*
X28600Y-32863D01*
X28614Y-32842D01*
X28632Y-32799D01*
X28641Y-32753D01*
X28641Y-32707D01*
X28641Y-32376D01*
X28641Y-32376D01*
X28684Y-32358D01*
X28723Y-32333D01*
X28756Y-32300D01*
X28782Y-32261D01*
X28799Y-32218D01*
X28809Y-32172D01*
X28809Y-32126D01*
X28809Y-31850D01*
X28799Y-31805D01*
X28782Y-31762D01*
X28756Y-31723D01*
X28723Y-31690D01*
X28684Y-31664D01*
X28641Y-31646D01*
X28596Y-31637D01*
X28549Y-31637D01*
X28340Y-31637D01*
X28340Y-29578D01*
X28596Y-29578D01*
X28641Y-29569D01*
X28684Y-29551D01*
X28723Y-29526D01*
X28756Y-29493D01*
X28782Y-29454D01*
X28799Y-29411D01*
X28809Y-29365D01*
X28809Y-29319D01*
X28809Y-29043D01*
X28799Y-28998D01*
X28782Y-28955D01*
X28756Y-28916D01*
X28723Y-28883D01*
X28684Y-28857D01*
X28641Y-28839D01*
X28641Y-28839D01*
X28641Y-28838D01*
X28632Y-28793D01*
X28614Y-28750D01*
X28600Y-28729D01*
X28614Y-28708D01*
X28632Y-28665D01*
X28641Y-28619D01*
X28641Y-28573D01*
X28641Y-28242D01*
X28641Y-28242D01*
X28684Y-28225D01*
X28723Y-28199D01*
X28756Y-28166D01*
X28782Y-28127D01*
X28799Y-28084D01*
X28809Y-28039D01*
X28809Y-27992D01*
X28809Y-27716D01*
X28799Y-27671D01*
X28782Y-27628D01*
X28756Y-27589D01*
X28723Y-27556D01*
X28684Y-27530D01*
X28641Y-27513D01*
X28596Y-27503D01*
X28549Y-27503D01*
X28340Y-27503D01*
X28340Y-25444D01*
X28596Y-25444D01*
X28641Y-25435D01*
X28684Y-25417D01*
X28723Y-25392D01*
X28756Y-25359D01*
X28782Y-25320D01*
X28799Y-25277D01*
X28809Y-25231D01*
X28809Y-25185D01*
X28809Y-24909D01*
X28799Y-24864D01*
X28782Y-24821D01*
X28756Y-24782D01*
X28723Y-24749D01*
X28684Y-24723D01*
X28641Y-24705D01*
X28641Y-24705D01*
X28641Y-24705D01*
X28632Y-24659D01*
X28614Y-24616D01*
X28600Y-24595D01*
X28614Y-24574D01*
X28632Y-24531D01*
X28641Y-24485D01*
X28641Y-24439D01*
X28641Y-24109D01*
X28641Y-24109D01*
X28684Y-24091D01*
X28723Y-24065D01*
X28756Y-24032D01*
X28782Y-23993D01*
X28799Y-23950D01*
X28809Y-23905D01*
X28809Y-23858D01*
X28809Y-23583D01*
X28799Y-23537D01*
X28782Y-23494D01*
X28756Y-23455D01*
X28723Y-23422D01*
X28684Y-23396D01*
X28641Y-23379D01*
X28596Y-23370D01*
X28549Y-23370D01*
X27309Y-23370D01*
X27263Y-23379D01*
X27220Y-23396D01*
X27182Y-23422D01*
X27149Y-23455D01*
X27123Y-23494D01*
X27105Y-23537D01*
X27096Y-23583D01*
X27096Y-23629D01*
X27096Y-23773D01*
X26980Y-23773D01*
X26944Y-23777D01*
X26908Y-23780D01*
X26907Y-23780D01*
X26904Y-23781D01*
X26870Y-23791D01*
X26836Y-23801D01*
X26834Y-23802D01*
X26832Y-23802D01*
X26800Y-23819D01*
X26769Y-23836D01*
X26767Y-23837D01*
X26765Y-23838D01*
X26737Y-23861D01*
X26709Y-23883D01*
X26707Y-23886D01*
X26707Y-23886D01*
X26707Y-23886D01*
X26706Y-23887D01*
X26143Y-24450D01*
X26120Y-24477D01*
X26097Y-24505D01*
X26096Y-24507D01*
X26095Y-24508D01*
X26078Y-24540D01*
X26060Y-24571D01*
X26060Y-24573D01*
X26059Y-24575D01*
X26048Y-24609D01*
X26038Y-24643D01*
X26037Y-24645D01*
X26037Y-24647D01*
X26033Y-24683D01*
X26029Y-24718D01*
X26029Y-24722D01*
X26029Y-24723D01*
X26029Y-24723D01*
X26029Y-24724D01*
X26029Y-25980D01*
X26029Y-26771D01*
X26036Y-26846D01*
X26058Y-26919D01*
X26094Y-26986D01*
X26142Y-27044D01*
X26200Y-27093D01*
X26267Y-27129D01*
X26339Y-27151D01*
X26414Y-27159D01*
X26489Y-27152D01*
X26562Y-27131D01*
X26629Y-27096D01*
X26688Y-27048D01*
X26737Y-26990D01*
X26773Y-26924D01*
X26796Y-26852D01*
X26805Y-26777D01*
X26805Y-26771D01*
X26805Y-25980D01*
X26805Y-24885D01*
X27140Y-24549D01*
X27280Y-24549D01*
X27290Y-24574D01*
X27304Y-24595D01*
X27290Y-24616D01*
X27272Y-24659D01*
X27263Y-24705D01*
X27263Y-24705D01*
X27263Y-24705D01*
X27220Y-24723D01*
X27182Y-24749D01*
X27149Y-24782D01*
X27123Y-24821D01*
X27105Y-24864D01*
X27096Y-24909D01*
X27096Y-24956D01*
X27096Y-25231D01*
X27105Y-25277D01*
X27123Y-25320D01*
X27149Y-25359D01*
X27182Y-25392D01*
X27220Y-25417D01*
X27263Y-25435D01*
X27309Y-25444D01*
X27355Y-25444D01*
X27564Y-25444D01*
X27564Y-27503D01*
X27309Y-27503D01*
X27263Y-27513D01*
X27220Y-27530D01*
X27182Y-27556D01*
X27149Y-27589D01*
X27123Y-27628D01*
X27105Y-27671D01*
X27096Y-27716D01*
X27096Y-27763D01*
X27096Y-28039D01*
X27105Y-28084D01*
X27123Y-28127D01*
X27149Y-28166D01*
X27182Y-28199D01*
X27220Y-28225D01*
X27263Y-28242D01*
X27263Y-28242D01*
X27263Y-28619D01*
X27272Y-28665D01*
X27290Y-28708D01*
X27304Y-28729D01*
X27290Y-28750D01*
X27272Y-28793D01*
X27263Y-28838D01*
X27263Y-28839D01*
X27263Y-28839D01*
X27220Y-28857D01*
X27182Y-28883D01*
X27149Y-28916D01*
X27123Y-28955D01*
X27105Y-28998D01*
X27096Y-29043D01*
X27096Y-29090D01*
X27096Y-29365D01*
X27105Y-29411D01*
X27123Y-29454D01*
X27149Y-29493D01*
X27182Y-29526D01*
X27220Y-29551D01*
X27263Y-29569D01*
X27309Y-29578D01*
X27355Y-29578D01*
X27564Y-29578D01*
X27564Y-31637D01*
X27309Y-31637D01*
X27263Y-31646D01*
X27220Y-31664D01*
X27182Y-31690D01*
X27149Y-31723D01*
X27123Y-31762D01*
X27105Y-31805D01*
X27096Y-31850D01*
X27096Y-31897D01*
X27096Y-32172D01*
X27105Y-32218D01*
X27123Y-32261D01*
X27149Y-32300D01*
X27182Y-32333D01*
X27220Y-32358D01*
X27263Y-32376D01*
X27263Y-32376D01*
X27263Y-32753D01*
X27272Y-32799D01*
X27290Y-32842D01*
X27304Y-32863D01*
X27290Y-32884D01*
X27272Y-32927D01*
X27263Y-32972D01*
X27263Y-32973D01*
X27263Y-32973D01*
X27220Y-32991D01*
X27182Y-33017D01*
X27149Y-33050D01*
X27123Y-33088D01*
X27105Y-33131D01*
X27096Y-33177D01*
X27096Y-33224D01*
X27096Y-33499D01*
X27105Y-33545D01*
X27123Y-33588D01*
X27149Y-33626D01*
X27182Y-33659D01*
X27220Y-33685D01*
X27263Y-33703D01*
X27309Y-33712D01*
X27355Y-33712D01*
X27564Y-33712D01*
X27564Y-35968D01*
X27309Y-35968D01*
X27263Y-35977D01*
X27220Y-35995D01*
X27182Y-36021D01*
X27149Y-36054D01*
X27123Y-36092D01*
X27105Y-36135D01*
X27096Y-36181D01*
X27096Y-36227D01*
X27096Y-36503D01*
X27105Y-36549D01*
X27123Y-36592D01*
X27149Y-36630D01*
X27182Y-36663D01*
X27220Y-36689D01*
X27263Y-36707D01*
X27263Y-36707D01*
X27263Y-37084D01*
X27272Y-37129D01*
X27290Y-37172D01*
X27304Y-37193D01*
X27290Y-37214D01*
X27272Y-37257D01*
X27263Y-37303D01*
X27263Y-37304D01*
X27263Y-37304D01*
X27220Y-37322D01*
X27182Y-37348D01*
X27149Y-37380D01*
X27123Y-37419D01*
X27105Y-37462D01*
X27096Y-37508D01*
X27096Y-37554D01*
X27096Y-37830D01*
X27105Y-37875D01*
X27123Y-37918D01*
X27149Y-37957D01*
X27182Y-37990D01*
X27220Y-38016D01*
X27263Y-38034D01*
X27309Y-38043D01*
X27355Y-38043D01*
X27564Y-38043D01*
X27564Y-40102D01*
X27309Y-40102D01*
X27263Y-40111D01*
X27220Y-40129D01*
X27182Y-40155D01*
X27149Y-40188D01*
X27123Y-40226D01*
X27105Y-40269D01*
X27096Y-40315D01*
X27096Y-40361D01*
X27096Y-40637D01*
X27105Y-40683D01*
X27123Y-40726D01*
X27149Y-40764D01*
X27182Y-40797D01*
X27220Y-40823D01*
X27263Y-40841D01*
X27263Y-40841D01*
X27263Y-41218D01*
X27272Y-41263D01*
X27290Y-41306D01*
X27304Y-41327D01*
X27290Y-41348D01*
X27272Y-41391D01*
X27263Y-41437D01*
X27263Y-41438D01*
X27263Y-41438D01*
X27220Y-41456D01*
X27182Y-41481D01*
X27149Y-41514D01*
X27123Y-41553D01*
X27105Y-41596D01*
X27096Y-41642D01*
X27096Y-41688D01*
X27096Y-41964D01*
X27105Y-42009D01*
X27123Y-42052D01*
X27149Y-42091D01*
X27182Y-42124D01*
X27220Y-42150D01*
X27263Y-42168D01*
X27309Y-42177D01*
X27355Y-42177D01*
X27564Y-42177D01*
X27564Y-44236D01*
X27309Y-44236D01*
X27263Y-44245D01*
X27220Y-44263D01*
X27182Y-44288D01*
X27149Y-44321D01*
X27123Y-44360D01*
X27105Y-44403D01*
X27096Y-44449D01*
X27096Y-44495D01*
X27096Y-44771D01*
X27105Y-44816D01*
X27123Y-44859D01*
X27149Y-44898D01*
X27182Y-44931D01*
X27220Y-44957D01*
X27263Y-44975D01*
X27263Y-44975D01*
X27263Y-45352D01*
X27272Y-45397D01*
X27290Y-45440D01*
X27304Y-45461D01*
X27290Y-45482D01*
X27272Y-45525D01*
X27263Y-45571D01*
X27263Y-45572D01*
X27263Y-45572D01*
X27220Y-45589D01*
X27182Y-45615D01*
X27149Y-45648D01*
X27123Y-45687D01*
X27105Y-45730D01*
X27096Y-45775D01*
X27096Y-45822D01*
X27096Y-46098D01*
X27104Y-46136D01*
X27097Y-46142D01*
X27049Y-46200D01*
X27048Y-46201D01*
X27048Y-44330D01*
X27048Y-43346D01*
X27046Y-43324D01*
X27044Y-43302D01*
X27044Y-43301D01*
X27044Y-43300D01*
X27037Y-43279D01*
X27031Y-43258D01*
X27031Y-43257D01*
X27030Y-43255D01*
X27028Y-43251D01*
X27024Y-43230D01*
X27004Y-43183D01*
X26976Y-43140D01*
X26939Y-43103D01*
X26897Y-43074D01*
X26849Y-43054D01*
X26799Y-43044D01*
X26747Y-43044D01*
X26697Y-43053D01*
X26649Y-43073D01*
X26606Y-43101D01*
X26569Y-43137D01*
X26540Y-43179D01*
X26519Y-43227D01*
X26509Y-43277D01*
X26508Y-43329D01*
X26517Y-43379D01*
X26536Y-43427D01*
X26564Y-43471D01*
X26573Y-43479D01*
X26573Y-44232D01*
X26289Y-44516D01*
X26255Y-44529D01*
X26212Y-44557D01*
X26175Y-44594D01*
X26146Y-44636D01*
X26126Y-44683D01*
X26115Y-44734D01*
X26114Y-44785D01*
X26124Y-44836D01*
X26143Y-44884D01*
X26171Y-44927D01*
X26206Y-44964D01*
X26249Y-44994D01*
X26296Y-45014D01*
X26346Y-45025D01*
X26398Y-45027D01*
X26448Y-45018D01*
X26497Y-44999D01*
X26540Y-44971D01*
X26577Y-44936D01*
X26607Y-44894D01*
X26626Y-44851D01*
X26979Y-44498D01*
X26993Y-44481D01*
X27007Y-44465D01*
X27007Y-44463D01*
X27008Y-44462D01*
X27019Y-44443D01*
X27029Y-44424D01*
X27029Y-44423D01*
X27030Y-44422D01*
X27036Y-44401D01*
X27043Y-44380D01*
X27043Y-44378D01*
X27044Y-44377D01*
X27046Y-44355D01*
X27048Y-44334D01*
X27048Y-44331D01*
X27048Y-44331D01*
X27048Y-44331D01*
X27048Y-44330D01*
X27048Y-46201D01*
X27013Y-46267D01*
X26991Y-46339D01*
X26983Y-46414D01*
X26990Y-46489D01*
X27011Y-46562D01*
X27046Y-46629D01*
X27094Y-46688D01*
X27152Y-46737D01*
X27218Y-46773D01*
X27290Y-46796D01*
X27365Y-46805D01*
X27371Y-46805D01*
X27952Y-46805D01*
X27989Y-46801D01*
X28025Y-46798D01*
X28026Y-46797D01*
X28028Y-46797D01*
X28063Y-46787D01*
X28098Y-46776D01*
X28099Y-46776D01*
X28100Y-46775D01*
X28132Y-46758D01*
X28165Y-46741D01*
X28166Y-46740D01*
X28167Y-46740D01*
X28195Y-46717D01*
X28224Y-46694D01*
X28224Y-46693D01*
X28226Y-46692D01*
X28249Y-46664D01*
X28272Y-46636D01*
X28273Y-46635D01*
X28274Y-46634D01*
X28291Y-46602D01*
X28309Y-46570D01*
X28309Y-46568D01*
X28310Y-46567D01*
X28321Y-46532D01*
X28332Y-46497D01*
X28332Y-46496D01*
X28332Y-46495D01*
X28336Y-46458D01*
X28340Y-46422D01*
X28340Y-46420D01*
X28340Y-46420D01*
X28340Y-46419D01*
X28340Y-46417D01*
X28340Y-46311D01*
X28596Y-46311D01*
X28641Y-46301D01*
X28684Y-46284D01*
X28723Y-46258D01*
X28756Y-46225D01*
X28782Y-46186D01*
X28799Y-46143D01*
X28809Y-46098D01*
X28809Y-48942D01*
X28736Y-49014D01*
X28507Y-49014D01*
X28333Y-48841D01*
X28333Y-48832D01*
X28323Y-48781D01*
X28304Y-48734D01*
X28275Y-48691D01*
X28239Y-48654D01*
X28196Y-48625D01*
X28148Y-48606D01*
X28098Y-48595D01*
X28058Y-48595D01*
X28058Y-47336D01*
X28048Y-47285D01*
X28028Y-47238D01*
X27999Y-47195D01*
X27963Y-47158D01*
X27920Y-47129D01*
X27873Y-47109D01*
X27822Y-47099D01*
X27771Y-47099D01*
X27720Y-47108D01*
X27672Y-47128D01*
X27629Y-47156D01*
X27621Y-47164D01*
X25961Y-47164D01*
X25955Y-47158D01*
X25912Y-47129D01*
X25865Y-47109D01*
X25853Y-47107D01*
X25853Y-41155D01*
X25843Y-41104D01*
X25823Y-41057D01*
X25807Y-41032D01*
X25807Y-21181D01*
X25807Y-16456D01*
X25807Y-16456D01*
X25807Y-16455D01*
X25807Y-16448D01*
X25806Y-16440D01*
X25806Y-16432D01*
X25805Y-16429D01*
X25794Y-16330D01*
X25791Y-16314D01*
X25788Y-16299D01*
X25787Y-16296D01*
X25787Y-16296D01*
X25757Y-16201D01*
X25751Y-16186D01*
X25744Y-16171D01*
X25743Y-16169D01*
X25743Y-16169D01*
X25695Y-16082D01*
X25686Y-16068D01*
X25677Y-16055D01*
X25676Y-16053D01*
X25676Y-16053D01*
X25676Y-16053D01*
X25611Y-15977D01*
X25600Y-15965D01*
X25589Y-15954D01*
X25587Y-15952D01*
X25587Y-15952D01*
X25587Y-15952D01*
X25509Y-15890D01*
X25495Y-15881D01*
X25482Y-15872D01*
X25480Y-15871D01*
X25480Y-15871D01*
X25480Y-15871D01*
X25391Y-15825D01*
X25377Y-15819D01*
X25362Y-15812D01*
X25359Y-15812D01*
X25359Y-15812D01*
X25359Y-15812D01*
X25264Y-15783D01*
X25248Y-15780D01*
X25232Y-15777D01*
X25230Y-15777D01*
X25130Y-15768D01*
X25114Y-15768D01*
X25098Y-15768D01*
X25096Y-15768D01*
X24996Y-15779D01*
X24980Y-15782D01*
X24965Y-15785D01*
X24962Y-15786D01*
X24962Y-15786D01*
X24962Y-15786D01*
X24867Y-15815D01*
X24852Y-15821D01*
X24837Y-15827D01*
X24835Y-15829D01*
X24835Y-15829D01*
X24835Y-15829D01*
X24747Y-15876D01*
X24734Y-15885D01*
X24720Y-15894D01*
X24718Y-15895D01*
X24718Y-15895D01*
X24718Y-15895D01*
X24642Y-15959D01*
X24630Y-15970D01*
X24619Y-15982D01*
X24617Y-15984D01*
X24554Y-16061D01*
X24545Y-16074D01*
X24536Y-16088D01*
X24535Y-16090D01*
X24535Y-16090D01*
X24535Y-16090D01*
X24535Y-16090D01*
X24488Y-16178D01*
X24482Y-16193D01*
X24476Y-16208D01*
X24475Y-16210D01*
X24446Y-16306D01*
X24443Y-16321D01*
X24439Y-16337D01*
X24439Y-16339D01*
X24439Y-16339D01*
X24439Y-16339D01*
X24429Y-16439D01*
X24429Y-16446D01*
X24429Y-16454D01*
X24429Y-16456D01*
X24429Y-21181D01*
X24429Y-21181D01*
X24429Y-21182D01*
X24429Y-21189D01*
X24430Y-21197D01*
X24430Y-21205D01*
X24430Y-21207D01*
X24441Y-21307D01*
X24444Y-21322D01*
X24447Y-21338D01*
X24448Y-21341D01*
X24478Y-21436D01*
X24485Y-21451D01*
X24491Y-21465D01*
X24492Y-21468D01*
X24492Y-21468D01*
X24492Y-21468D01*
X24540Y-21555D01*
X24549Y-21568D01*
X24558Y-21582D01*
X24560Y-21584D01*
X24560Y-21584D01*
X24560Y-21584D01*
X24560Y-21584D01*
X24624Y-21660D01*
X24635Y-21671D01*
X24647Y-21683D01*
X24649Y-21684D01*
X24649Y-21684D01*
X24649Y-21684D01*
X24649Y-21684D01*
X24726Y-21747D01*
X24740Y-21756D01*
X24753Y-21765D01*
X24755Y-21766D01*
X24755Y-21766D01*
X24755Y-21766D01*
X24844Y-21812D01*
X24859Y-21818D01*
X24873Y-21824D01*
X24876Y-21825D01*
X24876Y-21825D01*
X24972Y-21853D01*
X24987Y-21856D01*
X25003Y-21860D01*
X25006Y-21860D01*
X25006Y-21860D01*
X25105Y-21869D01*
X25121Y-21869D01*
X25137Y-21869D01*
X25140Y-21869D01*
X25239Y-21858D01*
X25255Y-21855D01*
X25271Y-21852D01*
X25273Y-21851D01*
X25273Y-21851D01*
X25273Y-21851D01*
X25273Y-21851D01*
X25368Y-21822D01*
X25383Y-21815D01*
X25398Y-21809D01*
X25400Y-21808D01*
X25400Y-21808D01*
X25400Y-21808D01*
X25400Y-21808D01*
X25488Y-21761D01*
X25501Y-21752D01*
X25515Y-21743D01*
X25517Y-21741D01*
X25517Y-21741D01*
X25517Y-21741D01*
X25517Y-21741D01*
X25594Y-21678D01*
X25605Y-21666D01*
X25616Y-21655D01*
X25618Y-21653D01*
X25618Y-21653D01*
X25618Y-21653D01*
X25618Y-21653D01*
X25681Y-21576D01*
X25690Y-21562D01*
X25699Y-21549D01*
X25700Y-21547D01*
X25700Y-21547D01*
X25700Y-21547D01*
X25700Y-21547D01*
X25747Y-21459D01*
X25753Y-21444D01*
X25760Y-21429D01*
X25760Y-21427D01*
X25760Y-21427D01*
X25789Y-21331D01*
X25792Y-21315D01*
X25796Y-21300D01*
X25796Y-21297D01*
X25796Y-21297D01*
X25796Y-21297D01*
X25796Y-21297D01*
X25806Y-21198D01*
X25806Y-21191D01*
X25807Y-21183D01*
X25807Y-21181D01*
X25807Y-41032D01*
X25795Y-41014D01*
X25758Y-40977D01*
X25716Y-40948D01*
X25668Y-40928D01*
X25618Y-40918D01*
X25566Y-40918D01*
X25515Y-40927D01*
X25468Y-40947D01*
X25425Y-40975D01*
X25416Y-40983D01*
X24977Y-40983D01*
X24971Y-40977D01*
X24928Y-40948D01*
X24881Y-40928D01*
X24830Y-40918D01*
X24779Y-40918D01*
X24728Y-40927D01*
X24680Y-40947D01*
X24637Y-40975D01*
X24600Y-41011D01*
X24571Y-41053D01*
X24551Y-41101D01*
X24540Y-41151D01*
X24540Y-41203D01*
X24549Y-41253D01*
X24568Y-41301D01*
X24596Y-41345D01*
X24632Y-41382D01*
X24674Y-41411D01*
X24721Y-41432D01*
X24771Y-41443D01*
X24823Y-41444D01*
X24874Y-41435D01*
X24922Y-41416D01*
X24965Y-41389D01*
X24976Y-41378D01*
X25416Y-41378D01*
X25419Y-41382D01*
X25461Y-41411D01*
X25508Y-41432D01*
X25559Y-41443D01*
X25610Y-41444D01*
X25661Y-41435D01*
X25709Y-41416D01*
X25753Y-41389D01*
X25790Y-41353D01*
X25820Y-41311D01*
X25841Y-41264D01*
X25852Y-41214D01*
X25853Y-41155D01*
X25853Y-47107D01*
X25815Y-47099D01*
X25763Y-47099D01*
X25712Y-47108D01*
X25665Y-47128D01*
X25621Y-47156D01*
X25585Y-47192D01*
X25555Y-47234D01*
X25535Y-47282D01*
X25524Y-47332D01*
X25524Y-47384D01*
X25533Y-47434D01*
X25552Y-47482D01*
X25580Y-47526D01*
X25616Y-47563D01*
X25658Y-47592D01*
X25705Y-47613D01*
X25756Y-47624D01*
X25807Y-47625D01*
X25858Y-47616D01*
X25906Y-47597D01*
X25949Y-47570D01*
X25960Y-47560D01*
X27620Y-47560D01*
X27624Y-47563D01*
X27666Y-47592D01*
X27713Y-47613D01*
X27764Y-47624D01*
X27815Y-47625D01*
X27866Y-47616D01*
X27914Y-47597D01*
X27957Y-47570D01*
X27995Y-47534D01*
X28024Y-47492D01*
X28045Y-47445D01*
X28057Y-47395D01*
X28058Y-47336D01*
X28058Y-48595D01*
X28046Y-48595D01*
X27996Y-48604D01*
X27948Y-48624D01*
X27905Y-48652D01*
X27868Y-48688D01*
X27839Y-48731D01*
X27819Y-48778D01*
X27816Y-48789D01*
X27814Y-48788D01*
X27797Y-48782D01*
X27795Y-48782D01*
X27795Y-48782D01*
X27776Y-48780D01*
X27774Y-48780D01*
X27766Y-48772D01*
X27724Y-48744D01*
X27676Y-48724D01*
X27626Y-48713D01*
X27574Y-48713D01*
X27523Y-48723D01*
X27476Y-48742D01*
X27432Y-48770D01*
X27396Y-48806D01*
X27367Y-48849D01*
X27346Y-48896D01*
X27336Y-48946D01*
X27335Y-48998D01*
X27344Y-49049D01*
X27363Y-49097D01*
X27391Y-49140D01*
X27427Y-49177D01*
X27469Y-49206D01*
X27516Y-49227D01*
X27567Y-49238D01*
X27618Y-49239D01*
X27669Y-49230D01*
X27713Y-49213D01*
X27912Y-49412D01*
X27912Y-49510D01*
X27907Y-49515D01*
X27878Y-49557D01*
X27858Y-49605D01*
X27847Y-49655D01*
X27847Y-49707D01*
X27856Y-49757D01*
X27875Y-49805D01*
X27894Y-49834D01*
X27879Y-49840D01*
X27027Y-49840D01*
X26812Y-49625D01*
X26812Y-49442D01*
X26825Y-49414D01*
X26836Y-49363D01*
X26837Y-49304D01*
X26827Y-49254D01*
X26807Y-49206D01*
X26779Y-49163D01*
X26743Y-49127D01*
X26700Y-49098D01*
X26652Y-49078D01*
X26602Y-49068D01*
X26550Y-49067D01*
X26500Y-49077D01*
X26452Y-49096D01*
X26409Y-49124D01*
X26372Y-49160D01*
X26343Y-49203D01*
X26323Y-49250D01*
X26312Y-49301D01*
X26311Y-49352D01*
X26320Y-49403D01*
X26337Y-49444D01*
X26337Y-49724D01*
X26339Y-49746D01*
X26341Y-49768D01*
X26341Y-49769D01*
X26341Y-49770D01*
X26347Y-49791D01*
X26354Y-49812D01*
X26354Y-49813D01*
X26354Y-49815D01*
X26365Y-49834D01*
X26375Y-49853D01*
X26376Y-49854D01*
X26376Y-49856D01*
X26390Y-49873D01*
X26404Y-49890D01*
X26406Y-49891D01*
X26406Y-49891D01*
X26406Y-49891D01*
X26406Y-49892D01*
X26760Y-50246D01*
X26777Y-50260D01*
X26794Y-50274D01*
X26795Y-50275D01*
X26796Y-50276D01*
X26816Y-50286D01*
X26835Y-50297D01*
X26836Y-50297D01*
X26837Y-50298D01*
X26858Y-50304D01*
X26879Y-50311D01*
X26880Y-50311D01*
X26882Y-50311D01*
X26903Y-50314D01*
X26925Y-50316D01*
X26928Y-50316D01*
X26928Y-50316D01*
X26928Y-50316D01*
X26929Y-50316D01*
X27879Y-50316D01*
X27910Y-50329D01*
X27960Y-50340D01*
X28012Y-50342D01*
X28063Y-50333D01*
X28111Y-50314D01*
X28154Y-50286D01*
X28192Y-50251D01*
X28221Y-50209D01*
X28242Y-50162D01*
X28254Y-50111D01*
X28254Y-50052D01*
X28244Y-50002D01*
X28225Y-49954D01*
X28208Y-49928D01*
X28229Y-49920D01*
X28272Y-49893D01*
X28310Y-49857D01*
X28339Y-49815D01*
X28360Y-49768D01*
X28372Y-49718D01*
X28373Y-49659D01*
X28363Y-49608D01*
X28343Y-49561D01*
X28314Y-49518D01*
X28308Y-49511D01*
X28308Y-49371D01*
X28313Y-49375D01*
X28314Y-49376D01*
X28315Y-49376D01*
X28331Y-49385D01*
X28347Y-49394D01*
X28348Y-49394D01*
X28349Y-49395D01*
X28366Y-49400D01*
X28384Y-49406D01*
X28385Y-49406D01*
X28386Y-49406D01*
X28404Y-49408D01*
X28422Y-49410D01*
X28424Y-49410D01*
X28424Y-49410D01*
X28424Y-49410D01*
X28425Y-49410D01*
X28818Y-49410D01*
X28837Y-49408D01*
X28855Y-49407D01*
X28856Y-49406D01*
X28857Y-49406D01*
X28874Y-49401D01*
X28892Y-49396D01*
X28893Y-49395D01*
X28894Y-49395D01*
X28910Y-49386D01*
X28926Y-49378D01*
X28927Y-49377D01*
X28928Y-49377D01*
X28942Y-49365D01*
X28956Y-49354D01*
X28958Y-49352D01*
X28958Y-49352D01*
X28958Y-49352D01*
X28958Y-49352D01*
X29352Y-48958D01*
X29364Y-48944D01*
X29375Y-48930D01*
X29376Y-48929D01*
X29376Y-48928D01*
X29385Y-48912D01*
X29394Y-48896D01*
X29394Y-48895D01*
X29395Y-48894D01*
X29400Y-48877D01*
X29406Y-48860D01*
X29406Y-48858D01*
X29406Y-48857D01*
X29408Y-48839D01*
X29410Y-48821D01*
X29410Y-48819D01*
X29410Y-48819D01*
X29410Y-48819D01*
X29410Y-48818D01*
X29410Y-46917D01*
X30336Y-45990D01*
X30348Y-45976D01*
X30360Y-45962D01*
X30360Y-45961D01*
X30361Y-45961D01*
X30369Y-45945D01*
X30378Y-45929D01*
X30378Y-45928D01*
X30379Y-45927D01*
X30384Y-45909D01*
X30390Y-45892D01*
X30390Y-45891D01*
X30390Y-45890D01*
X30392Y-45871D01*
X30394Y-45853D01*
X30394Y-45851D01*
X30394Y-45851D01*
X30394Y-45851D01*
X30394Y-45851D01*
X30394Y-42247D01*
X31163Y-41478D01*
X31175Y-41464D01*
X31186Y-41450D01*
X31187Y-41449D01*
X31187Y-41448D01*
X31196Y-41432D01*
X31205Y-41416D01*
X31205Y-41415D01*
X31206Y-41414D01*
X31211Y-41397D01*
X31217Y-41379D01*
X31217Y-41378D01*
X31217Y-41377D01*
X31219Y-41359D01*
X31221Y-41341D01*
X31221Y-41339D01*
X31221Y-41339D01*
X31221Y-41339D01*
X31221Y-41338D01*
X31221Y-41082D01*
X31318Y-41082D01*
X31356Y-41075D01*
X31392Y-41060D01*
X31424Y-41038D01*
X31452Y-41011D01*
X31473Y-40979D01*
X31488Y-40943D01*
X31496Y-40905D01*
X31496Y-54153D01*
X31476Y-54169D01*
X31476Y-53228D01*
X31476Y-48502D01*
X31476Y-48502D01*
X31476Y-48495D01*
X31475Y-48487D01*
X31475Y-48479D01*
X31475Y-48477D01*
X31464Y-48377D01*
X31460Y-48362D01*
X31457Y-48346D01*
X31456Y-48343D01*
X31456Y-48343D01*
X31426Y-48248D01*
X31420Y-48233D01*
X31414Y-48219D01*
X31413Y-48216D01*
X31413Y-48216D01*
X31364Y-48129D01*
X31355Y-48116D01*
X31346Y-48102D01*
X31345Y-48100D01*
X31345Y-48100D01*
X31345Y-48100D01*
X31281Y-48024D01*
X31269Y-48013D01*
X31258Y-48001D01*
X31256Y-48000D01*
X31256Y-48000D01*
X31256Y-48000D01*
X31178Y-47937D01*
X31165Y-47928D01*
X31151Y-47919D01*
X31149Y-47918D01*
X31149Y-47918D01*
X31149Y-47918D01*
X31061Y-47872D01*
X31046Y-47866D01*
X31031Y-47860D01*
X31029Y-47859D01*
X31029Y-47859D01*
X31029Y-47859D01*
X30933Y-47831D01*
X30917Y-47828D01*
X30901Y-47824D01*
X30899Y-47824D01*
X30799Y-47815D01*
X30783Y-47815D01*
X30767Y-47815D01*
X30765Y-47815D01*
X30665Y-47826D01*
X30650Y-47829D01*
X30634Y-47832D01*
X30632Y-47833D01*
X30632Y-47833D01*
X30632Y-47833D01*
X30536Y-47862D01*
X30521Y-47869D01*
X30506Y-47875D01*
X30504Y-47876D01*
X30504Y-47876D01*
X30504Y-47876D01*
X30416Y-47923D01*
X30403Y-47932D01*
X30390Y-47941D01*
X30388Y-47943D01*
X30388Y-47943D01*
X30388Y-47943D01*
X30311Y-48006D01*
X30299Y-48018D01*
X30288Y-48029D01*
X30286Y-48031D01*
X30223Y-48108D01*
X30214Y-48122D01*
X30205Y-48135D01*
X30204Y-48137D01*
X30204Y-48137D01*
X30204Y-48137D01*
X30204Y-48137D01*
X30157Y-48225D01*
X30151Y-48240D01*
X30145Y-48255D01*
X30144Y-48257D01*
X30115Y-48353D01*
X30112Y-48369D01*
X30109Y-48384D01*
X30109Y-48387D01*
X30109Y-48387D01*
X30109Y-48387D01*
X30099Y-48486D01*
X30099Y-48493D01*
X30098Y-48501D01*
X30098Y-48503D01*
X30098Y-53228D01*
X30098Y-53228D01*
X30098Y-53229D01*
X30098Y-53236D01*
X30099Y-53244D01*
X30099Y-53252D01*
X30099Y-53255D01*
X30110Y-53354D01*
X30114Y-53370D01*
X30117Y-53385D01*
X30117Y-53388D01*
X30148Y-53483D01*
X30154Y-53498D01*
X30160Y-53513D01*
X30161Y-53515D01*
X30161Y-53515D01*
X30161Y-53515D01*
X30209Y-53602D01*
X30218Y-53616D01*
X30227Y-53629D01*
X30229Y-53631D01*
X30229Y-53631D01*
X30229Y-53631D01*
X30229Y-53631D01*
X30293Y-53707D01*
X30305Y-53719D01*
X30316Y-53730D01*
X30318Y-53732D01*
X30318Y-53732D01*
X30318Y-53732D01*
X30318Y-53732D01*
X30396Y-53794D01*
X30409Y-53803D01*
X30422Y-53812D01*
X30425Y-53813D01*
X30425Y-53813D01*
X30425Y-53813D01*
X30513Y-53859D01*
X30528Y-53865D01*
X30543Y-53872D01*
X30545Y-53872D01*
X30545Y-53872D01*
X30641Y-53901D01*
X30657Y-53904D01*
X30672Y-53907D01*
X30675Y-53907D01*
X30675Y-53907D01*
X30774Y-53916D01*
X30790Y-53916D01*
X30807Y-53916D01*
X30809Y-53916D01*
X30908Y-53905D01*
X30924Y-53902D01*
X30940Y-53899D01*
X30942Y-53898D01*
X30942Y-53898D01*
X30942Y-53898D01*
X30942Y-53898D01*
X31038Y-53869D01*
X31052Y-53863D01*
X31067Y-53857D01*
X31069Y-53856D01*
X31070Y-53856D01*
X31070Y-53856D01*
X31070Y-53856D01*
X31157Y-53808D01*
X31171Y-53799D01*
X31184Y-53790D01*
X31186Y-53789D01*
X31186Y-53789D01*
X31186Y-53789D01*
X31186Y-53789D01*
X31263Y-53725D01*
X31274Y-53714D01*
X31286Y-53702D01*
X31287Y-53700D01*
X31287Y-53700D01*
X31287Y-53700D01*
X31287Y-53700D01*
X31350Y-53623D01*
X31359Y-53610D01*
X31368Y-53596D01*
X31370Y-53594D01*
X31370Y-53594D01*
X31370Y-53594D01*
X31370Y-53594D01*
X31417Y-53506D01*
X31423Y-53491D01*
X31429Y-53476D01*
X31430Y-53474D01*
X31430Y-53474D01*
X31459Y-53378D01*
X31462Y-53363D01*
X31465Y-53347D01*
X31465Y-53345D01*
X31465Y-53345D01*
X31465Y-53345D01*
X31465Y-53345D01*
X31475Y-53245D01*
X31475Y-53238D01*
X31476Y-53230D01*
X31476Y-53228D01*
X31476Y-54169D01*
X31466Y-54178D01*
X31294Y-54271D01*
X31107Y-54329D01*
X30904Y-54350D01*
X29507Y-54350D01*
X29507Y-54192D01*
X29507Y-52106D01*
X26437Y-52106D01*
X26437Y-54192D01*
X29507Y-54192D01*
X29507Y-54350D01*
X25807Y-54350D01*
X25807Y-53228D01*
X25807Y-48503D01*
X25807Y-48503D01*
X25807Y-48502D01*
X25807Y-48495D01*
X25806Y-48487D01*
X25806Y-48479D01*
X25805Y-48477D01*
X25794Y-48377D01*
X25791Y-48362D01*
X25788Y-48346D01*
X25787Y-48343D01*
X25787Y-48343D01*
X25757Y-48248D01*
X25751Y-48233D01*
X25744Y-48219D01*
X25743Y-48216D01*
X25743Y-48216D01*
X25695Y-48129D01*
X25686Y-48116D01*
X25677Y-48102D01*
X25676Y-48100D01*
X25676Y-48100D01*
X25676Y-48100D01*
X25611Y-48024D01*
X25600Y-48013D01*
X25589Y-48001D01*
X25587Y-48000D01*
X25587Y-48000D01*
X25587Y-48000D01*
X25509Y-47937D01*
X25495Y-47928D01*
X25482Y-47919D01*
X25480Y-47918D01*
X25480Y-47918D01*
X25480Y-47918D01*
X25391Y-47872D01*
X25377Y-47866D01*
X25362Y-47860D01*
X25359Y-47859D01*
X25359Y-47859D01*
X25359Y-47859D01*
X25264Y-47831D01*
X25248Y-47828D01*
X25232Y-47824D01*
X25230Y-47824D01*
X25130Y-47815D01*
X25114Y-47815D01*
X25098Y-47815D01*
X25096Y-47815D01*
X24996Y-47826D01*
X24980Y-47829D01*
X24965Y-47832D01*
X24962Y-47833D01*
X24962Y-47833D01*
X24962Y-47833D01*
X24867Y-47862D01*
X24852Y-47869D01*
X24837Y-47875D01*
X24835Y-47876D01*
X24835Y-47876D01*
X24835Y-47876D01*
X24747Y-47923D01*
X24734Y-47932D01*
X24720Y-47941D01*
X24718Y-47943D01*
X24718Y-47943D01*
X24718Y-47943D01*
X24642Y-48006D01*
X24630Y-48018D01*
X24619Y-48029D01*
X24617Y-48031D01*
X24554Y-48108D01*
X24545Y-48122D01*
X24536Y-48135D01*
X24535Y-48137D01*
X24535Y-48137D01*
X24535Y-48137D01*
X24535Y-48137D01*
X24488Y-48225D01*
X24482Y-48240D01*
X24476Y-48255D01*
X24475Y-48257D01*
X24446Y-48353D01*
X24443Y-48369D01*
X24439Y-48384D01*
X24439Y-48387D01*
X24439Y-48387D01*
X24439Y-48387D01*
X24429Y-48486D01*
X24429Y-48493D01*
X24429Y-48500D01*
X24429Y-48503D01*
X24429Y-53228D01*
X24429Y-53228D01*
X24429Y-53229D01*
X24429Y-53236D01*
X24430Y-53244D01*
X24430Y-53252D01*
X24430Y-53255D01*
X24441Y-53354D01*
X24444Y-53370D01*
X24447Y-53385D01*
X24448Y-53388D01*
X24478Y-53483D01*
X24485Y-53498D01*
X24491Y-53513D01*
X24492Y-53515D01*
X24492Y-53515D01*
X24492Y-53515D01*
X24540Y-53602D01*
X24549Y-53616D01*
X24558Y-53629D01*
X24560Y-53631D01*
X24560Y-53631D01*
X24560Y-53631D01*
X24560Y-53631D01*
X24624Y-53707D01*
X24635Y-53719D01*
X24647Y-53730D01*
X24649Y-53732D01*
X24649Y-53732D01*
X24649Y-53732D01*
X24649Y-53732D01*
X24726Y-53794D01*
X24740Y-53803D01*
X24753Y-53812D01*
X24755Y-53813D01*
X24755Y-53813D01*
X24755Y-53813D01*
X24844Y-53859D01*
X24859Y-53865D01*
X24873Y-53872D01*
X24876Y-53872D01*
X24876Y-53872D01*
X24972Y-53901D01*
X24987Y-53904D01*
X25003Y-53907D01*
X25006Y-53907D01*
X25006Y-53907D01*
X25105Y-53916D01*
X25121Y-53916D01*
X25137Y-53916D01*
X25140Y-53916D01*
X25239Y-53905D01*
X25255Y-53902D01*
X25271Y-53899D01*
X25273Y-53898D01*
X25273Y-53898D01*
X25273Y-53898D01*
X25273Y-53898D01*
X25368Y-53869D01*
X25383Y-53863D01*
X25398Y-53857D01*
X25400Y-53856D01*
X25400Y-53856D01*
X25400Y-53856D01*
X25400Y-53856D01*
X25488Y-53808D01*
X25501Y-53799D01*
X25515Y-53790D01*
X25517Y-53789D01*
X25517Y-53789D01*
X25517Y-53789D01*
X25517Y-53789D01*
X25594Y-53725D01*
X25605Y-53714D01*
X25616Y-53702D01*
X25618Y-53700D01*
X25618Y-53700D01*
X25618Y-53700D01*
X25618Y-53700D01*
X25681Y-53623D01*
X25690Y-53610D01*
X25699Y-53596D01*
X25700Y-53594D01*
X25700Y-53594D01*
X25700Y-53594D01*
X25700Y-53594D01*
X25747Y-53506D01*
X25753Y-53491D01*
X25760Y-53476D01*
X25760Y-53474D01*
X25760Y-53474D01*
X25789Y-53378D01*
X25792Y-53363D01*
X25796Y-53347D01*
X25796Y-53345D01*
X25796Y-53345D01*
X25796Y-53345D01*
X25796Y-53345D01*
X25806Y-53245D01*
X25806Y-53238D01*
X25807Y-53230D01*
X25807Y-53228D01*
X25807Y-54350D01*
X25008Y-54350D01*
X24805Y-54330D01*
X24617Y-54273D01*
X24444Y-54181D01*
X24293Y-54058D01*
X24168Y-53907D01*
X24075Y-53735D01*
X24017Y-53548D01*
X23996Y-53345D01*
X23996Y-16347D01*
X24016Y-16143D01*
X24072Y-15956D01*
X24164Y-15783D01*
X24288Y-15631D01*
X24439Y-15506D01*
X24611Y-15413D01*
X24798Y-15355D01*
X25001Y-15334D01*
X30896Y-15334D01*
X31100Y-15354D01*
X31287Y-15411D01*
X31460Y-15503D01*
X31612Y-15626D01*
X31737Y-15777D01*
X31830Y-15949D01*
X31888Y-16136D01*
X31909Y-16339D01*
X31909Y-53337D01*
M02*
