M48
METRIC,TZ
T1C0.330
T2C1.016
%
G90
G05
T1
X063000Y-104600
X065000Y-104600
X065500Y-120300
X067000Y-113700
X067100Y-065991
X067100Y-066963
X067100Y-068000
X067500Y-125300
X068000Y-110000
X068600Y-056400
X069523Y-117900
X070100Y-124400
X070284Y-117900
X070500Y-057600
X070500Y-058600
X070600Y-120300
X071000Y-058100
X071000Y-117900
X071100Y-127200
X071400Y-124100
X071400Y-126200
X071500Y-057600
X071500Y-058600
X074900Y-102700
X077900Y-077200
X078600Y-105300
X078800Y-083900
X079000Y-056400
T2
X068460Y-133730
X068460Y-136270
X069730Y-049000
X071000Y-133730
X071000Y-136270
X072270Y-049000
X073540Y-133730
X073540Y-136270
T0
M30
