M48
METRIC,TZ
T1C0.330
T2C1.016
%
G90
G05
T1
X063000Y-104600
X065000Y-104600
X065500Y-120300
X067000Y-113700
X067100Y-065991
X067100Y-066963
X067100Y-068000
X067300Y-056400
X067500Y-125300
X068000Y-110000
X069200Y-057600
X069200Y-058600
X069523Y-117900
X069700Y-058100
X070100Y-124400
X070200Y-057600
X070200Y-058600
X070284Y-117900
X070600Y-120300
X071000Y-117900
X071100Y-127200
X071300Y-124100
X071400Y-126200
X074200Y-102600
X075800Y-100000
X078000Y-099900
X079800Y-057700
T2
X068460Y-133730
X068460Y-136270
X069730Y-049000
X071000Y-133730
X071000Y-136270
X072270Y-049000
X073540Y-133730
X073540Y-136270
T0
M30
