%FSLAX34Y34*%
G04 Gerber Fmt 3.4, Leading zero omitted, Abs format*
G04 (created by PCBNEW (2014-05-27 BZR 4891)-product) date Wed 28 May 2014 05:46:44 AM CEST*
%MOIN*%
G01*
G70*
G90*
G04 APERTURE LIST*
%ADD10C,0.005906*%
%ADD11R,0.033465X0.033465*%
%ADD12C,0.033465*%
%ADD13R,0.090551X0.060236*%
%ADD14R,0.124016X0.027559*%
%ADD15R,0.090551X0.022835*%
%ADD16R,0.055118X0.098425*%
%ADD17C,0.065000*%
%ADD18C,0.025000*%
%ADD19C,0.012000*%
%ADD20C,0.050000*%
%ADD21C,0.016000*%
%ADD22C,0.020000*%
%ADD23C,0.008000*%
%ADD24C,0.007874*%
G04 APERTURE END LIST*
G54D10*
G54D11*
X28452Y-51639D03*
G54D12*
X28452Y-52139D03*
X27952Y-51639D03*
X27952Y-52139D03*
X27452Y-51639D03*
X27452Y-52139D03*
G54D13*
X27952Y-45027D03*
G54D14*
X27952Y-44610D03*
G54D15*
X27952Y-45708D03*
G54D14*
X27952Y-45937D03*
G54D13*
X27952Y-40893D03*
G54D14*
X27952Y-40476D03*
G54D15*
X27952Y-41574D03*
G54D14*
X27952Y-41803D03*
G54D13*
X27952Y-36759D03*
G54D14*
X27952Y-36342D03*
G54D15*
X27952Y-37440D03*
G54D14*
X27952Y-37669D03*
G54D13*
X27952Y-32429D03*
G54D14*
X27952Y-32011D03*
G54D15*
X27952Y-33110D03*
G54D14*
X27952Y-33338D03*
G54D13*
X27952Y-28295D03*
G54D14*
X27952Y-27877D03*
G54D15*
X27952Y-28976D03*
G54D14*
X27952Y-29204D03*
G54D13*
X27952Y-24161D03*
G54D14*
X27952Y-23744D03*
G54D15*
X27952Y-24842D03*
G54D14*
X27952Y-25070D03*
G54D16*
X30511Y-40393D03*
X31220Y-40393D03*
X30314Y-29291D03*
X31023Y-29291D03*
G54D17*
X28452Y-19291D03*
X27452Y-19291D03*
G54D18*
X29488Y-40433D03*
X29488Y-49645D03*
X27371Y-46417D03*
X27670Y-46417D03*
X27952Y-46417D03*
X31299Y-23543D03*
X27007Y-22204D03*
X24803Y-40866D03*
X25748Y-40472D03*
X28464Y-50000D03*
X27795Y-49094D03*
X27165Y-47677D03*
X28188Y-47519D03*
X31023Y-33031D03*
X26377Y-44763D03*
X26771Y-43307D03*
X26417Y-26771D03*
X26417Y-26363D03*
X26417Y-25980D03*
X30275Y-48188D03*
X30944Y-41456D03*
X30669Y-30393D03*
G54D10*
X23661Y-49881D02*
X23700Y-49881D01*
G54D19*
X29527Y-40393D02*
X29488Y-40433D01*
X29960Y-40393D02*
X29527Y-40393D01*
X30511Y-40393D02*
X29960Y-40393D01*
X27452Y-52610D02*
X27559Y-52716D01*
X27559Y-52716D02*
X28582Y-52716D01*
X28582Y-52716D02*
X29488Y-51811D01*
X29488Y-51811D02*
X29488Y-49645D01*
X27452Y-52139D02*
X27452Y-52610D01*
G54D20*
X27952Y-46417D02*
X27371Y-46417D01*
X27952Y-45937D02*
X27952Y-46417D01*
G54D21*
X27047Y-22165D02*
X27007Y-22204D01*
X29921Y-22165D02*
X27047Y-22165D01*
X31299Y-23543D02*
X29921Y-22165D01*
G54D22*
X27952Y-45937D02*
X27952Y-45708D01*
G54D19*
X24803Y-40866D02*
X25354Y-40866D01*
X25354Y-40866D02*
X25748Y-40472D01*
G54D23*
X28464Y-50000D02*
X28452Y-50011D01*
G54D19*
X28452Y-50011D02*
X28452Y-51639D01*
X27920Y-49219D02*
X27795Y-49094D01*
X27952Y-51639D02*
X27952Y-49251D01*
X27952Y-49251D02*
X27920Y-49219D01*
X28726Y-52139D02*
X28897Y-51968D01*
X28897Y-51968D02*
X28897Y-49094D01*
X27795Y-47992D02*
X27480Y-47677D01*
X28897Y-49094D02*
X27795Y-47992D01*
X27480Y-47677D02*
X27165Y-47677D01*
X28452Y-52139D02*
X28726Y-52139D01*
X28188Y-47519D02*
X28188Y-47598D01*
X28188Y-47598D02*
X27795Y-47992D01*
G54D22*
X26377Y-44763D02*
X26811Y-44330D01*
X26811Y-44330D02*
X26811Y-43346D01*
X26811Y-43346D02*
X26771Y-43307D01*
G54D19*
X31023Y-33031D02*
X31023Y-29291D01*
G54D20*
X26417Y-24724D02*
X26980Y-24161D01*
X26980Y-24161D02*
X27952Y-24161D01*
X26417Y-25980D02*
X26417Y-24724D01*
X26417Y-26771D02*
X26417Y-25980D01*
G54D22*
X27952Y-24161D02*
X27952Y-23744D01*
G54D20*
X27952Y-44610D02*
X27952Y-41803D01*
G54D22*
X27952Y-45027D02*
X27952Y-44610D01*
X27952Y-41574D02*
X27952Y-41803D01*
G54D20*
X27952Y-40893D02*
X27952Y-37669D01*
G54D22*
X27952Y-40893D02*
X27952Y-40476D01*
X27952Y-37440D02*
X27952Y-37669D01*
G54D20*
X27952Y-36759D02*
X27952Y-33338D01*
G54D22*
X27952Y-36759D02*
X27952Y-36342D01*
X27952Y-33110D02*
X27952Y-33338D01*
G54D20*
X27952Y-32429D02*
X27952Y-29204D01*
G54D22*
X27952Y-32429D02*
X27952Y-32011D01*
X27952Y-28976D02*
X27952Y-29204D01*
G54D20*
X27952Y-28295D02*
X27952Y-25070D01*
G54D22*
X27952Y-28295D02*
X27952Y-27877D01*
X27952Y-24842D02*
X27952Y-25070D01*
G54D19*
X30314Y-34094D02*
X31220Y-35000D01*
X31220Y-35000D02*
X31220Y-40393D01*
X30314Y-30944D02*
X30314Y-34094D01*
X30314Y-30393D02*
X30314Y-30944D01*
X30314Y-29291D02*
X30314Y-30393D01*
X30275Y-48188D02*
X31220Y-47244D01*
X31220Y-41929D02*
X31220Y-41456D01*
X31220Y-47244D02*
X31220Y-41929D01*
X31181Y-41456D02*
X31220Y-41456D01*
X31220Y-41456D02*
X31181Y-41456D01*
X31220Y-41456D02*
X31220Y-40393D01*
X31220Y-41456D02*
X30944Y-41456D01*
X30314Y-30393D02*
X30669Y-30393D01*
G54D24*
G36*
X31909Y-53337D02*
X31889Y-53541D01*
X31832Y-53728D01*
X31741Y-53901D01*
X31692Y-53960D01*
X31692Y-40905D01*
X31692Y-40866D01*
X31692Y-39882D01*
X31685Y-39844D01*
X31670Y-39808D01*
X31648Y-39776D01*
X31621Y-39748D01*
X31589Y-39727D01*
X31562Y-39715D01*
X31562Y-23517D01*
X31552Y-23466D01*
X31532Y-23419D01*
X31503Y-23376D01*
X31476Y-23348D01*
X31476Y-19212D01*
X31476Y-16456D01*
X31476Y-16456D01*
X31476Y-16455D01*
X31476Y-16448D01*
X31475Y-16440D01*
X31475Y-16432D01*
X31475Y-16429D01*
X31464Y-16330D01*
X31460Y-16314D01*
X31457Y-16299D01*
X31456Y-16296D01*
X31456Y-16296D01*
X31426Y-16201D01*
X31420Y-16186D01*
X31414Y-16171D01*
X31413Y-16169D01*
X31413Y-16169D01*
X31364Y-16082D01*
X31355Y-16068D01*
X31346Y-16055D01*
X31345Y-16053D01*
X31345Y-16053D01*
X31345Y-16053D01*
X31281Y-15977D01*
X31269Y-15965D01*
X31258Y-15954D01*
X31256Y-15952D01*
X31256Y-15952D01*
X31256Y-15952D01*
X31178Y-15890D01*
X31165Y-15881D01*
X31151Y-15872D01*
X31149Y-15871D01*
X31149Y-15871D01*
X31149Y-15871D01*
X31061Y-15825D01*
X31046Y-15819D01*
X31031Y-15812D01*
X31029Y-15812D01*
X31029Y-15812D01*
X31029Y-15812D01*
X30933Y-15783D01*
X30917Y-15780D01*
X30901Y-15777D01*
X30899Y-15777D01*
X30799Y-15768D01*
X30783Y-15768D01*
X30767Y-15768D01*
X30765Y-15768D01*
X30665Y-15779D01*
X30650Y-15782D01*
X30634Y-15785D01*
X30632Y-15786D01*
X30632Y-15786D01*
X30632Y-15786D01*
X30536Y-15815D01*
X30521Y-15821D01*
X30506Y-15827D01*
X30504Y-15829D01*
X30504Y-15829D01*
X30504Y-15829D01*
X30416Y-15876D01*
X30403Y-15885D01*
X30390Y-15894D01*
X30388Y-15895D01*
X30388Y-15895D01*
X30388Y-15895D01*
X30311Y-15959D01*
X30299Y-15970D01*
X30288Y-15982D01*
X30286Y-15984D01*
X30223Y-16061D01*
X30214Y-16074D01*
X30205Y-16088D01*
X30204Y-16090D01*
X30204Y-16090D01*
X30204Y-16090D01*
X30204Y-16090D01*
X30157Y-16178D01*
X30151Y-16193D01*
X30145Y-16208D01*
X30144Y-16210D01*
X30115Y-16306D01*
X30112Y-16321D01*
X30109Y-16337D01*
X30109Y-16339D01*
X30109Y-16339D01*
X30109Y-16339D01*
X30099Y-16439D01*
X30099Y-16446D01*
X30098Y-16454D01*
X30098Y-16456D01*
X30098Y-19212D01*
X30098Y-19212D01*
X30098Y-19213D01*
X30098Y-19220D01*
X30099Y-19228D01*
X30099Y-19237D01*
X30099Y-19239D01*
X30110Y-19338D01*
X30114Y-19354D01*
X30117Y-19370D01*
X30117Y-19372D01*
X30148Y-19467D01*
X30154Y-19482D01*
X30160Y-19497D01*
X30161Y-19499D01*
X30161Y-19499D01*
X30161Y-19499D01*
X30209Y-19587D01*
X30218Y-19600D01*
X30227Y-19613D01*
X30229Y-19615D01*
X30229Y-19615D01*
X30229Y-19615D01*
X30229Y-19615D01*
X30293Y-19692D01*
X30305Y-19703D01*
X30316Y-19714D01*
X30318Y-19716D01*
X30318Y-19716D01*
X30318Y-19716D01*
X30318Y-19716D01*
X30396Y-19778D01*
X30409Y-19787D01*
X30422Y-19796D01*
X30425Y-19797D01*
X30425Y-19797D01*
X30425Y-19797D01*
X30513Y-19844D01*
X30528Y-19850D01*
X30543Y-19856D01*
X30545Y-19857D01*
X30545Y-19857D01*
X30641Y-19885D01*
X30657Y-19888D01*
X30672Y-19891D01*
X30675Y-19891D01*
X30675Y-19891D01*
X30774Y-19900D01*
X30790Y-19900D01*
X30807Y-19900D01*
X30809Y-19900D01*
X30908Y-19890D01*
X30924Y-19886D01*
X30940Y-19883D01*
X30942Y-19883D01*
X30942Y-19883D01*
X30942Y-19883D01*
X30942Y-19883D01*
X31038Y-19853D01*
X31052Y-19847D01*
X31067Y-19841D01*
X31069Y-19840D01*
X31070Y-19840D01*
X31070Y-19840D01*
X31070Y-19840D01*
X31157Y-19792D01*
X31171Y-19783D01*
X31184Y-19774D01*
X31186Y-19773D01*
X31186Y-19773D01*
X31186Y-19773D01*
X31186Y-19773D01*
X31263Y-19709D01*
X31274Y-19698D01*
X31286Y-19687D01*
X31287Y-19685D01*
X31287Y-19685D01*
X31287Y-19685D01*
X31287Y-19685D01*
X31350Y-19607D01*
X31359Y-19594D01*
X31368Y-19581D01*
X31370Y-19579D01*
X31370Y-19579D01*
X31370Y-19579D01*
X31370Y-19579D01*
X31417Y-19490D01*
X31423Y-19475D01*
X31429Y-19461D01*
X31430Y-19458D01*
X31430Y-19458D01*
X31459Y-19363D01*
X31462Y-19347D01*
X31465Y-19331D01*
X31465Y-19329D01*
X31465Y-19329D01*
X31465Y-19329D01*
X31465Y-19329D01*
X31475Y-19229D01*
X31475Y-19222D01*
X31476Y-19215D01*
X31476Y-19212D01*
X31476Y-23348D01*
X31467Y-23339D01*
X31424Y-23311D01*
X31377Y-23291D01*
X31349Y-23285D01*
X30075Y-22011D01*
X30059Y-21998D01*
X30044Y-21985D01*
X30043Y-21985D01*
X30042Y-21984D01*
X30024Y-21974D01*
X30007Y-21965D01*
X30005Y-21964D01*
X30004Y-21964D01*
X29985Y-21958D01*
X29966Y-21952D01*
X29965Y-21952D01*
X29964Y-21951D01*
X29944Y-21949D01*
X29924Y-21947D01*
X29922Y-21947D01*
X29922Y-21947D01*
X29921Y-21947D01*
X29921Y-21947D01*
X28915Y-21947D01*
X28915Y-19245D01*
X28897Y-19156D01*
X28863Y-19073D01*
X28813Y-18997D01*
X28749Y-18933D01*
X28673Y-18882D01*
X28590Y-18847D01*
X28501Y-18828D01*
X28410Y-18828D01*
X28321Y-18845D01*
X28237Y-18879D01*
X28161Y-18928D01*
X28096Y-18992D01*
X28045Y-19067D01*
X28009Y-19150D01*
X27990Y-19239D01*
X27989Y-19330D01*
X28005Y-19419D01*
X28039Y-19503D01*
X28088Y-19580D01*
X28151Y-19645D01*
X28225Y-19697D01*
X28309Y-19733D01*
X28397Y-19753D01*
X28488Y-19755D01*
X28577Y-19739D01*
X28662Y-19706D01*
X28739Y-19657D01*
X28804Y-19595D01*
X28857Y-19521D01*
X28894Y-19438D01*
X28914Y-19349D01*
X28915Y-19245D01*
X28915Y-21947D01*
X27937Y-21947D01*
X27937Y-19270D01*
X27923Y-19176D01*
X27892Y-19087D01*
X27866Y-19039D01*
X27794Y-19005D01*
X27738Y-19061D01*
X27738Y-18949D01*
X27704Y-18877D01*
X27619Y-18836D01*
X27527Y-18812D01*
X27432Y-18806D01*
X27338Y-18820D01*
X27248Y-18851D01*
X27200Y-18877D01*
X27166Y-18949D01*
X27452Y-19235D01*
X27738Y-18949D01*
X27738Y-19061D01*
X27508Y-19291D01*
X27794Y-19577D01*
X27866Y-19543D01*
X27908Y-19457D01*
X27931Y-19365D01*
X27937Y-19270D01*
X27937Y-21947D01*
X27738Y-21947D01*
X27738Y-19632D01*
X27452Y-19347D01*
X27397Y-19402D01*
X27397Y-19291D01*
X27111Y-19005D01*
X27038Y-19039D01*
X26997Y-19124D01*
X26973Y-19216D01*
X26968Y-19311D01*
X26981Y-19405D01*
X27013Y-19495D01*
X27038Y-19543D01*
X27111Y-19577D01*
X27397Y-19291D01*
X27397Y-19402D01*
X27166Y-19632D01*
X27200Y-19705D01*
X27286Y-19746D01*
X27378Y-19770D01*
X27473Y-19775D01*
X27567Y-19762D01*
X27656Y-19731D01*
X27704Y-19705D01*
X27738Y-19632D01*
X27738Y-21947D01*
X27062Y-21947D01*
X27035Y-21942D01*
X26983Y-21941D01*
X26933Y-21951D01*
X26885Y-21970D01*
X26842Y-21998D01*
X26805Y-22034D01*
X26776Y-22077D01*
X26756Y-22124D01*
X26745Y-22175D01*
X26744Y-22226D01*
X26754Y-22277D01*
X26773Y-22325D01*
X26800Y-22368D01*
X26836Y-22405D01*
X26879Y-22435D01*
X26926Y-22455D01*
X26976Y-22466D01*
X27028Y-22468D01*
X27078Y-22459D01*
X27126Y-22440D01*
X27170Y-22412D01*
X27201Y-22383D01*
X29831Y-22383D01*
X31041Y-23593D01*
X31045Y-23616D01*
X31064Y-23664D01*
X31092Y-23707D01*
X31128Y-23744D01*
X31170Y-23773D01*
X31217Y-23794D01*
X31267Y-23805D01*
X31319Y-23806D01*
X31370Y-23797D01*
X31418Y-23779D01*
X31461Y-23751D01*
X31499Y-23715D01*
X31528Y-23673D01*
X31549Y-23626D01*
X31561Y-23576D01*
X31562Y-23517D01*
X31562Y-39715D01*
X31553Y-39712D01*
X31515Y-39704D01*
X31476Y-39704D01*
X31418Y-39704D01*
X31418Y-35000D01*
X31416Y-34981D01*
X31414Y-34963D01*
X31414Y-34962D01*
X31414Y-34961D01*
X31409Y-34944D01*
X31404Y-34926D01*
X31403Y-34925D01*
X31403Y-34924D01*
X31394Y-34908D01*
X31386Y-34892D01*
X31385Y-34891D01*
X31385Y-34890D01*
X31373Y-34876D01*
X31362Y-34862D01*
X31360Y-34860D01*
X31360Y-34860D01*
X31360Y-34860D01*
X31360Y-34860D01*
X30512Y-34012D01*
X30512Y-30944D01*
X30512Y-30604D01*
X30540Y-30624D01*
X30587Y-30644D01*
X30638Y-30655D01*
X30689Y-30656D01*
X30740Y-30648D01*
X30788Y-30629D01*
X30825Y-30605D01*
X30825Y-32857D01*
X30821Y-32861D01*
X30792Y-32904D01*
X30771Y-32951D01*
X30761Y-33002D01*
X30760Y-33053D01*
X30769Y-33104D01*
X30788Y-33152D01*
X30816Y-33195D01*
X30852Y-33232D01*
X30894Y-33262D01*
X30942Y-33282D01*
X30992Y-33293D01*
X31043Y-33294D01*
X31094Y-33285D01*
X31142Y-33267D01*
X31186Y-33239D01*
X31223Y-33204D01*
X31253Y-33161D01*
X31274Y-33114D01*
X31285Y-33064D01*
X31286Y-33005D01*
X31276Y-32955D01*
X31256Y-32907D01*
X31228Y-32864D01*
X31221Y-32857D01*
X31221Y-29980D01*
X31318Y-29980D01*
X31356Y-29972D01*
X31392Y-29957D01*
X31424Y-29936D01*
X31452Y-29908D01*
X31473Y-29876D01*
X31488Y-29840D01*
X31496Y-29802D01*
X31496Y-29764D01*
X31496Y-28779D01*
X31488Y-28741D01*
X31473Y-28705D01*
X31452Y-28673D01*
X31424Y-28646D01*
X31392Y-28624D01*
X31356Y-28609D01*
X31318Y-28602D01*
X31279Y-28602D01*
X30728Y-28602D01*
X30690Y-28609D01*
X30669Y-28618D01*
X30647Y-28609D01*
X30609Y-28602D01*
X30571Y-28602D01*
X30019Y-28602D01*
X29981Y-28609D01*
X29946Y-28624D01*
X29913Y-28646D01*
X29886Y-28673D01*
X29864Y-28705D01*
X29850Y-28741D01*
X29842Y-28779D01*
X29842Y-28818D01*
X29842Y-29802D01*
X29850Y-29840D01*
X29864Y-29876D01*
X29886Y-29908D01*
X29913Y-29936D01*
X29946Y-29957D01*
X29981Y-29972D01*
X30019Y-29980D01*
X30058Y-29980D01*
X30117Y-29980D01*
X30117Y-30393D01*
X30117Y-30944D01*
X30117Y-34094D01*
X30118Y-34112D01*
X30120Y-34130D01*
X30120Y-34131D01*
X30120Y-34132D01*
X30126Y-34150D01*
X30131Y-34167D01*
X30131Y-34168D01*
X30132Y-34169D01*
X30140Y-34186D01*
X30149Y-34202D01*
X30149Y-34203D01*
X30150Y-34203D01*
X30161Y-34218D01*
X30173Y-34232D01*
X30174Y-34233D01*
X30174Y-34233D01*
X30174Y-34233D01*
X30175Y-34234D01*
X31022Y-35081D01*
X31022Y-39704D01*
X30925Y-39704D01*
X30887Y-39712D01*
X30866Y-39721D01*
X30844Y-39712D01*
X30806Y-39704D01*
X30768Y-39704D01*
X30216Y-39704D01*
X30178Y-39712D01*
X30142Y-39727D01*
X30110Y-39748D01*
X30083Y-39776D01*
X30061Y-39808D01*
X30046Y-39844D01*
X30039Y-39882D01*
X30039Y-39920D01*
X30039Y-40195D01*
X29960Y-40195D01*
X29602Y-40195D01*
X29566Y-40180D01*
X29515Y-40170D01*
X29464Y-40170D01*
X29413Y-40179D01*
X29365Y-40199D01*
X29322Y-40227D01*
X29285Y-40263D01*
X29256Y-40305D01*
X29236Y-40353D01*
X29225Y-40403D01*
X29225Y-40455D01*
X29234Y-40505D01*
X29253Y-40553D01*
X29281Y-40597D01*
X29317Y-40634D01*
X29359Y-40663D01*
X29406Y-40684D01*
X29456Y-40695D01*
X29508Y-40696D01*
X29559Y-40687D01*
X29607Y-40668D01*
X29650Y-40641D01*
X29688Y-40605D01*
X29698Y-40591D01*
X29960Y-40591D01*
X30039Y-40591D01*
X30039Y-40905D01*
X30046Y-40943D01*
X30061Y-40979D01*
X30083Y-41011D01*
X30110Y-41038D01*
X30142Y-41060D01*
X30178Y-41075D01*
X30216Y-41082D01*
X30255Y-41082D01*
X30806Y-41082D01*
X30844Y-41075D01*
X30866Y-41066D01*
X30887Y-41075D01*
X30925Y-41082D01*
X30964Y-41082D01*
X31022Y-41082D01*
X31022Y-41204D01*
X30972Y-41194D01*
X30920Y-41193D01*
X30870Y-41203D01*
X30822Y-41222D01*
X30779Y-41250D01*
X30742Y-41286D01*
X30713Y-41329D01*
X30693Y-41376D01*
X30682Y-41427D01*
X30681Y-41478D01*
X30691Y-41529D01*
X30710Y-41577D01*
X30737Y-41620D01*
X30773Y-41657D01*
X30816Y-41687D01*
X30863Y-41707D01*
X30913Y-41718D01*
X30965Y-41719D01*
X31015Y-41711D01*
X31022Y-41708D01*
X31022Y-41929D01*
X31022Y-47162D01*
X30258Y-47926D01*
X30251Y-47925D01*
X30201Y-47935D01*
X30153Y-47954D01*
X30110Y-47983D01*
X30073Y-48019D01*
X30044Y-48061D01*
X30023Y-48109D01*
X30013Y-48159D01*
X30012Y-48211D01*
X30021Y-48261D01*
X30040Y-48309D01*
X30068Y-48353D01*
X30104Y-48390D01*
X30146Y-48419D01*
X30193Y-48440D01*
X30244Y-48451D01*
X30295Y-48452D01*
X30346Y-48443D01*
X30394Y-48424D01*
X30438Y-48397D01*
X30475Y-48361D01*
X30505Y-48319D01*
X30526Y-48272D01*
X30537Y-48222D01*
X30537Y-48206D01*
X31360Y-47383D01*
X31371Y-47369D01*
X31383Y-47355D01*
X31384Y-47354D01*
X31384Y-47354D01*
X31393Y-47338D01*
X31402Y-47322D01*
X31402Y-47321D01*
X31403Y-47320D01*
X31408Y-47302D01*
X31413Y-47285D01*
X31414Y-47284D01*
X31414Y-47283D01*
X31416Y-47264D01*
X31418Y-47246D01*
X31418Y-47244D01*
X31418Y-47244D01*
X31418Y-47244D01*
X31418Y-47244D01*
X31418Y-41929D01*
X31418Y-41456D01*
X31418Y-41082D01*
X31515Y-41082D01*
X31553Y-41075D01*
X31589Y-41060D01*
X31621Y-41038D01*
X31648Y-41011D01*
X31670Y-40979D01*
X31685Y-40943D01*
X31692Y-40905D01*
X31692Y-53960D01*
X31617Y-54053D01*
X31476Y-54169D01*
X31476Y-53228D01*
X31476Y-50472D01*
X31476Y-50472D01*
X31476Y-50471D01*
X31476Y-50464D01*
X31475Y-50456D01*
X31475Y-50448D01*
X31475Y-50445D01*
X31464Y-50346D01*
X31460Y-50330D01*
X31457Y-50314D01*
X31456Y-50312D01*
X31456Y-50312D01*
X31426Y-50217D01*
X31420Y-50202D01*
X31414Y-50187D01*
X31413Y-50185D01*
X31413Y-50185D01*
X31364Y-50097D01*
X31355Y-50084D01*
X31346Y-50071D01*
X31345Y-50069D01*
X31345Y-50069D01*
X31345Y-50069D01*
X31281Y-49992D01*
X31269Y-49981D01*
X31258Y-49970D01*
X31256Y-49968D01*
X31256Y-49968D01*
X31256Y-49968D01*
X31178Y-49906D01*
X31165Y-49897D01*
X31151Y-49888D01*
X31149Y-49887D01*
X31149Y-49887D01*
X31149Y-49887D01*
X31061Y-49840D01*
X31046Y-49834D01*
X31031Y-49828D01*
X31029Y-49827D01*
X31029Y-49827D01*
X31029Y-49827D01*
X30933Y-49799D01*
X30917Y-49796D01*
X30901Y-49793D01*
X30899Y-49793D01*
X30799Y-49784D01*
X30783Y-49784D01*
X30767Y-49784D01*
X30765Y-49784D01*
X30665Y-49794D01*
X30650Y-49798D01*
X30634Y-49801D01*
X30632Y-49801D01*
X30632Y-49801D01*
X30632Y-49801D01*
X30536Y-49831D01*
X30521Y-49837D01*
X30506Y-49843D01*
X30504Y-49844D01*
X30504Y-49844D01*
X30504Y-49844D01*
X30416Y-49892D01*
X30403Y-49901D01*
X30390Y-49910D01*
X30388Y-49911D01*
X30388Y-49911D01*
X30388Y-49911D01*
X30311Y-49975D01*
X30299Y-49986D01*
X30288Y-49997D01*
X30286Y-49999D01*
X30223Y-50077D01*
X30214Y-50090D01*
X30205Y-50103D01*
X30204Y-50106D01*
X30204Y-50106D01*
X30204Y-50106D01*
X30204Y-50106D01*
X30157Y-50194D01*
X30151Y-50209D01*
X30145Y-50223D01*
X30144Y-50226D01*
X30115Y-50321D01*
X30112Y-50337D01*
X30109Y-50353D01*
X30109Y-50355D01*
X30109Y-50355D01*
X30109Y-50355D01*
X30099Y-50455D01*
X30099Y-50462D01*
X30098Y-50469D01*
X30098Y-50472D01*
X30098Y-53228D01*
X30098Y-53228D01*
X30098Y-53229D01*
X30098Y-53236D01*
X30099Y-53244D01*
X30099Y-53252D01*
X30099Y-53255D01*
X30110Y-53354D01*
X30114Y-53370D01*
X30117Y-53385D01*
X30117Y-53388D01*
X30148Y-53483D01*
X30154Y-53498D01*
X30160Y-53513D01*
X30161Y-53515D01*
X30161Y-53515D01*
X30161Y-53515D01*
X30209Y-53602D01*
X30218Y-53616D01*
X30227Y-53629D01*
X30229Y-53631D01*
X30229Y-53631D01*
X30229Y-53631D01*
X30229Y-53631D01*
X30293Y-53707D01*
X30305Y-53719D01*
X30316Y-53730D01*
X30318Y-53732D01*
X30318Y-53732D01*
X30318Y-53732D01*
X30318Y-53732D01*
X30396Y-53794D01*
X30409Y-53803D01*
X30422Y-53812D01*
X30425Y-53813D01*
X30425Y-53813D01*
X30425Y-53813D01*
X30513Y-53859D01*
X30528Y-53865D01*
X30543Y-53872D01*
X30545Y-53872D01*
X30545Y-53872D01*
X30641Y-53901D01*
X30657Y-53904D01*
X30672Y-53907D01*
X30675Y-53907D01*
X30675Y-53907D01*
X30774Y-53916D01*
X30790Y-53916D01*
X30807Y-53916D01*
X30809Y-53916D01*
X30908Y-53905D01*
X30924Y-53902D01*
X30940Y-53899D01*
X30942Y-53898D01*
X30942Y-53898D01*
X30942Y-53898D01*
X30942Y-53898D01*
X31038Y-53869D01*
X31052Y-53863D01*
X31067Y-53857D01*
X31069Y-53856D01*
X31070Y-53856D01*
X31070Y-53856D01*
X31070Y-53856D01*
X31157Y-53808D01*
X31171Y-53799D01*
X31184Y-53790D01*
X31186Y-53789D01*
X31186Y-53789D01*
X31186Y-53789D01*
X31186Y-53789D01*
X31263Y-53725D01*
X31274Y-53714D01*
X31286Y-53702D01*
X31287Y-53700D01*
X31287Y-53700D01*
X31287Y-53700D01*
X31287Y-53700D01*
X31350Y-53623D01*
X31359Y-53610D01*
X31368Y-53596D01*
X31370Y-53594D01*
X31370Y-53594D01*
X31370Y-53594D01*
X31370Y-53594D01*
X31417Y-53506D01*
X31423Y-53491D01*
X31429Y-53476D01*
X31430Y-53474D01*
X31430Y-53474D01*
X31459Y-53378D01*
X31462Y-53363D01*
X31465Y-53347D01*
X31465Y-53345D01*
X31465Y-53345D01*
X31465Y-53345D01*
X31465Y-53345D01*
X31475Y-53245D01*
X31475Y-53238D01*
X31476Y-53230D01*
X31476Y-53228D01*
X31476Y-54169D01*
X31466Y-54178D01*
X31294Y-54271D01*
X31107Y-54329D01*
X30904Y-54350D01*
X29750Y-54350D01*
X29750Y-49619D01*
X29740Y-49569D01*
X29721Y-49521D01*
X29692Y-49478D01*
X29656Y-49442D01*
X29613Y-49413D01*
X29566Y-49393D01*
X29515Y-49383D01*
X29464Y-49382D01*
X29413Y-49392D01*
X29365Y-49411D01*
X29322Y-49439D01*
X29285Y-49475D01*
X29256Y-49518D01*
X29236Y-49565D01*
X29225Y-49616D01*
X29225Y-49667D01*
X29234Y-49718D01*
X29253Y-49766D01*
X29281Y-49809D01*
X29290Y-49819D01*
X29290Y-51729D01*
X29095Y-51924D01*
X29095Y-49094D01*
X29093Y-49076D01*
X29092Y-49058D01*
X29091Y-49057D01*
X29091Y-49056D01*
X29086Y-49038D01*
X29081Y-49021D01*
X29080Y-49020D01*
X29080Y-49019D01*
X29071Y-49002D01*
X29063Y-48986D01*
X29062Y-48985D01*
X29062Y-48985D01*
X29050Y-48970D01*
X29039Y-48956D01*
X29038Y-48955D01*
X29037Y-48955D01*
X29037Y-48955D01*
X29037Y-48954D01*
X28809Y-48726D01*
X28809Y-46098D01*
X28809Y-46051D01*
X28809Y-45775D01*
X28799Y-45730D01*
X28782Y-45687D01*
X28756Y-45648D01*
X28723Y-45615D01*
X28684Y-45589D01*
X28641Y-45572D01*
X28641Y-45572D01*
X28641Y-45571D01*
X28632Y-45525D01*
X28614Y-45482D01*
X28600Y-45461D01*
X28614Y-45440D01*
X28632Y-45397D01*
X28641Y-45352D01*
X28641Y-45305D01*
X28641Y-44975D01*
X28641Y-44975D01*
X28684Y-44957D01*
X28723Y-44931D01*
X28756Y-44898D01*
X28782Y-44859D01*
X28799Y-44816D01*
X28809Y-44771D01*
X28809Y-44724D01*
X28809Y-44449D01*
X28799Y-44403D01*
X28782Y-44360D01*
X28756Y-44321D01*
X28723Y-44288D01*
X28684Y-44263D01*
X28641Y-44245D01*
X28596Y-44236D01*
X28549Y-44236D01*
X28340Y-44236D01*
X28340Y-42177D01*
X28596Y-42177D01*
X28641Y-42168D01*
X28684Y-42150D01*
X28723Y-42124D01*
X28756Y-42091D01*
X28782Y-42052D01*
X28799Y-42009D01*
X28809Y-41964D01*
X28809Y-41917D01*
X28809Y-41642D01*
X28799Y-41596D01*
X28782Y-41553D01*
X28756Y-41514D01*
X28723Y-41481D01*
X28684Y-41456D01*
X28641Y-41438D01*
X28641Y-41438D01*
X28641Y-41437D01*
X28632Y-41391D01*
X28614Y-41348D01*
X28600Y-41327D01*
X28614Y-41306D01*
X28632Y-41263D01*
X28641Y-41218D01*
X28641Y-41171D01*
X28641Y-40841D01*
X28641Y-40841D01*
X28684Y-40823D01*
X28723Y-40797D01*
X28756Y-40764D01*
X28782Y-40726D01*
X28799Y-40683D01*
X28809Y-40637D01*
X28809Y-40590D01*
X28809Y-40315D01*
X28799Y-40269D01*
X28782Y-40226D01*
X28756Y-40188D01*
X28723Y-40155D01*
X28684Y-40129D01*
X28641Y-40111D01*
X28596Y-40102D01*
X28549Y-40102D01*
X28340Y-40102D01*
X28340Y-38043D01*
X28596Y-38043D01*
X28641Y-38034D01*
X28684Y-38016D01*
X28723Y-37990D01*
X28756Y-37957D01*
X28782Y-37918D01*
X28799Y-37875D01*
X28809Y-37830D01*
X28809Y-37783D01*
X28809Y-37508D01*
X28799Y-37462D01*
X28782Y-37419D01*
X28756Y-37380D01*
X28723Y-37348D01*
X28684Y-37322D01*
X28641Y-37304D01*
X28641Y-37304D01*
X28641Y-37303D01*
X28632Y-37257D01*
X28614Y-37214D01*
X28600Y-37193D01*
X28614Y-37172D01*
X28632Y-37129D01*
X28641Y-37084D01*
X28641Y-37037D01*
X28641Y-36707D01*
X28641Y-36707D01*
X28684Y-36689D01*
X28723Y-36663D01*
X28756Y-36630D01*
X28782Y-36592D01*
X28799Y-36549D01*
X28809Y-36503D01*
X28809Y-36457D01*
X28809Y-36181D01*
X28799Y-36135D01*
X28782Y-36092D01*
X28756Y-36054D01*
X28723Y-36021D01*
X28684Y-35995D01*
X28641Y-35977D01*
X28596Y-35968D01*
X28549Y-35968D01*
X28340Y-35968D01*
X28340Y-33712D01*
X28596Y-33712D01*
X28641Y-33703D01*
X28684Y-33685D01*
X28723Y-33659D01*
X28756Y-33626D01*
X28782Y-33588D01*
X28799Y-33545D01*
X28809Y-33499D01*
X28809Y-33453D01*
X28809Y-33177D01*
X28799Y-33131D01*
X28782Y-33088D01*
X28756Y-33050D01*
X28723Y-33017D01*
X28684Y-32991D01*
X28641Y-32973D01*
X28641Y-32973D01*
X28641Y-32972D01*
X28632Y-32927D01*
X28614Y-32884D01*
X28600Y-32863D01*
X28614Y-32842D01*
X28632Y-32799D01*
X28641Y-32753D01*
X28641Y-32707D01*
X28641Y-32376D01*
X28641Y-32376D01*
X28684Y-32358D01*
X28723Y-32333D01*
X28756Y-32300D01*
X28782Y-32261D01*
X28799Y-32218D01*
X28809Y-32172D01*
X28809Y-32126D01*
X28809Y-31850D01*
X28799Y-31805D01*
X28782Y-31762D01*
X28756Y-31723D01*
X28723Y-31690D01*
X28684Y-31664D01*
X28641Y-31646D01*
X28596Y-31637D01*
X28549Y-31637D01*
X28340Y-31637D01*
X28340Y-29578D01*
X28596Y-29578D01*
X28641Y-29569D01*
X28684Y-29551D01*
X28723Y-29526D01*
X28756Y-29493D01*
X28782Y-29454D01*
X28799Y-29411D01*
X28809Y-29365D01*
X28809Y-29319D01*
X28809Y-29043D01*
X28799Y-28998D01*
X28782Y-28955D01*
X28756Y-28916D01*
X28723Y-28883D01*
X28684Y-28857D01*
X28641Y-28839D01*
X28641Y-28839D01*
X28641Y-28838D01*
X28632Y-28793D01*
X28614Y-28750D01*
X28600Y-28729D01*
X28614Y-28708D01*
X28632Y-28665D01*
X28641Y-28619D01*
X28641Y-28573D01*
X28641Y-28242D01*
X28641Y-28242D01*
X28684Y-28225D01*
X28723Y-28199D01*
X28756Y-28166D01*
X28782Y-28127D01*
X28799Y-28084D01*
X28809Y-28039D01*
X28809Y-27992D01*
X28809Y-27716D01*
X28799Y-27671D01*
X28782Y-27628D01*
X28756Y-27589D01*
X28723Y-27556D01*
X28684Y-27530D01*
X28641Y-27513D01*
X28596Y-27503D01*
X28549Y-27503D01*
X28340Y-27503D01*
X28340Y-25444D01*
X28596Y-25444D01*
X28641Y-25435D01*
X28684Y-25417D01*
X28723Y-25392D01*
X28756Y-25359D01*
X28782Y-25320D01*
X28799Y-25277D01*
X28809Y-25231D01*
X28809Y-25185D01*
X28809Y-24909D01*
X28799Y-24864D01*
X28782Y-24821D01*
X28756Y-24782D01*
X28723Y-24749D01*
X28684Y-24723D01*
X28641Y-24705D01*
X28641Y-24705D01*
X28641Y-24705D01*
X28632Y-24659D01*
X28614Y-24616D01*
X28600Y-24595D01*
X28614Y-24574D01*
X28632Y-24531D01*
X28641Y-24485D01*
X28641Y-24439D01*
X28641Y-24109D01*
X28641Y-24109D01*
X28684Y-24091D01*
X28723Y-24065D01*
X28756Y-24032D01*
X28782Y-23993D01*
X28799Y-23950D01*
X28809Y-23905D01*
X28809Y-23858D01*
X28809Y-23583D01*
X28799Y-23537D01*
X28782Y-23494D01*
X28756Y-23455D01*
X28723Y-23422D01*
X28684Y-23396D01*
X28641Y-23379D01*
X28596Y-23370D01*
X28549Y-23370D01*
X27309Y-23370D01*
X27263Y-23379D01*
X27220Y-23396D01*
X27182Y-23422D01*
X27149Y-23455D01*
X27123Y-23494D01*
X27105Y-23537D01*
X27096Y-23583D01*
X27096Y-23629D01*
X27096Y-23773D01*
X26980Y-23773D01*
X26944Y-23777D01*
X26908Y-23780D01*
X26907Y-23780D01*
X26904Y-23781D01*
X26870Y-23791D01*
X26836Y-23801D01*
X26834Y-23802D01*
X26832Y-23802D01*
X26800Y-23819D01*
X26769Y-23836D01*
X26767Y-23837D01*
X26765Y-23838D01*
X26737Y-23861D01*
X26709Y-23883D01*
X26707Y-23886D01*
X26707Y-23886D01*
X26707Y-23886D01*
X26706Y-23887D01*
X26143Y-24450D01*
X26120Y-24477D01*
X26097Y-24505D01*
X26096Y-24507D01*
X26095Y-24508D01*
X26078Y-24540D01*
X26060Y-24571D01*
X26060Y-24573D01*
X26059Y-24575D01*
X26048Y-24609D01*
X26038Y-24643D01*
X26037Y-24645D01*
X26037Y-24647D01*
X26033Y-24683D01*
X26029Y-24718D01*
X26029Y-24722D01*
X26029Y-24723D01*
X26029Y-24723D01*
X26029Y-24724D01*
X26029Y-25980D01*
X26029Y-26771D01*
X26036Y-26846D01*
X26058Y-26919D01*
X26094Y-26986D01*
X26142Y-27044D01*
X26200Y-27093D01*
X26267Y-27129D01*
X26339Y-27151D01*
X26414Y-27159D01*
X26489Y-27152D01*
X26562Y-27131D01*
X26629Y-27096D01*
X26688Y-27048D01*
X26737Y-26990D01*
X26773Y-26924D01*
X26796Y-26852D01*
X26805Y-26777D01*
X26805Y-26771D01*
X26805Y-25980D01*
X26805Y-24885D01*
X27140Y-24549D01*
X27280Y-24549D01*
X27290Y-24574D01*
X27304Y-24595D01*
X27290Y-24616D01*
X27272Y-24659D01*
X27263Y-24705D01*
X27263Y-24705D01*
X27263Y-24705D01*
X27220Y-24723D01*
X27182Y-24749D01*
X27149Y-24782D01*
X27123Y-24821D01*
X27105Y-24864D01*
X27096Y-24909D01*
X27096Y-24956D01*
X27096Y-25231D01*
X27105Y-25277D01*
X27123Y-25320D01*
X27149Y-25359D01*
X27182Y-25392D01*
X27220Y-25417D01*
X27263Y-25435D01*
X27309Y-25444D01*
X27355Y-25444D01*
X27564Y-25444D01*
X27564Y-27503D01*
X27309Y-27503D01*
X27263Y-27513D01*
X27220Y-27530D01*
X27182Y-27556D01*
X27149Y-27589D01*
X27123Y-27628D01*
X27105Y-27671D01*
X27096Y-27716D01*
X27096Y-27763D01*
X27096Y-28039D01*
X27105Y-28084D01*
X27123Y-28127D01*
X27149Y-28166D01*
X27182Y-28199D01*
X27220Y-28225D01*
X27263Y-28242D01*
X27263Y-28242D01*
X27263Y-28619D01*
X27272Y-28665D01*
X27290Y-28708D01*
X27304Y-28729D01*
X27290Y-28750D01*
X27272Y-28793D01*
X27263Y-28838D01*
X27263Y-28839D01*
X27263Y-28839D01*
X27220Y-28857D01*
X27182Y-28883D01*
X27149Y-28916D01*
X27123Y-28955D01*
X27105Y-28998D01*
X27096Y-29043D01*
X27096Y-29090D01*
X27096Y-29365D01*
X27105Y-29411D01*
X27123Y-29454D01*
X27149Y-29493D01*
X27182Y-29526D01*
X27220Y-29551D01*
X27263Y-29569D01*
X27309Y-29578D01*
X27355Y-29578D01*
X27564Y-29578D01*
X27564Y-31637D01*
X27309Y-31637D01*
X27263Y-31646D01*
X27220Y-31664D01*
X27182Y-31690D01*
X27149Y-31723D01*
X27123Y-31762D01*
X27105Y-31805D01*
X27096Y-31850D01*
X27096Y-31897D01*
X27096Y-32172D01*
X27105Y-32218D01*
X27123Y-32261D01*
X27149Y-32300D01*
X27182Y-32333D01*
X27220Y-32358D01*
X27263Y-32376D01*
X27263Y-32376D01*
X27263Y-32753D01*
X27272Y-32799D01*
X27290Y-32842D01*
X27304Y-32863D01*
X27290Y-32884D01*
X27272Y-32927D01*
X27263Y-32972D01*
X27263Y-32973D01*
X27263Y-32973D01*
X27220Y-32991D01*
X27182Y-33017D01*
X27149Y-33050D01*
X27123Y-33088D01*
X27105Y-33131D01*
X27096Y-33177D01*
X27096Y-33224D01*
X27096Y-33499D01*
X27105Y-33545D01*
X27123Y-33588D01*
X27149Y-33626D01*
X27182Y-33659D01*
X27220Y-33685D01*
X27263Y-33703D01*
X27309Y-33712D01*
X27355Y-33712D01*
X27564Y-33712D01*
X27564Y-35968D01*
X27309Y-35968D01*
X27263Y-35977D01*
X27220Y-35995D01*
X27182Y-36021D01*
X27149Y-36054D01*
X27123Y-36092D01*
X27105Y-36135D01*
X27096Y-36181D01*
X27096Y-36227D01*
X27096Y-36503D01*
X27105Y-36549D01*
X27123Y-36592D01*
X27149Y-36630D01*
X27182Y-36663D01*
X27220Y-36689D01*
X27263Y-36707D01*
X27263Y-36707D01*
X27263Y-37084D01*
X27272Y-37129D01*
X27290Y-37172D01*
X27304Y-37193D01*
X27290Y-37214D01*
X27272Y-37257D01*
X27263Y-37303D01*
X27263Y-37304D01*
X27263Y-37304D01*
X27220Y-37322D01*
X27182Y-37348D01*
X27149Y-37380D01*
X27123Y-37419D01*
X27105Y-37462D01*
X27096Y-37508D01*
X27096Y-37554D01*
X27096Y-37830D01*
X27105Y-37875D01*
X27123Y-37918D01*
X27149Y-37957D01*
X27182Y-37990D01*
X27220Y-38016D01*
X27263Y-38034D01*
X27309Y-38043D01*
X27355Y-38043D01*
X27564Y-38043D01*
X27564Y-40102D01*
X27309Y-40102D01*
X27263Y-40111D01*
X27220Y-40129D01*
X27182Y-40155D01*
X27149Y-40188D01*
X27123Y-40226D01*
X27105Y-40269D01*
X27096Y-40315D01*
X27096Y-40361D01*
X27096Y-40637D01*
X27105Y-40683D01*
X27123Y-40726D01*
X27149Y-40764D01*
X27182Y-40797D01*
X27220Y-40823D01*
X27263Y-40841D01*
X27263Y-40841D01*
X27263Y-41218D01*
X27272Y-41263D01*
X27290Y-41306D01*
X27304Y-41327D01*
X27290Y-41348D01*
X27272Y-41391D01*
X27263Y-41437D01*
X27263Y-41438D01*
X27263Y-41438D01*
X27220Y-41456D01*
X27182Y-41481D01*
X27149Y-41514D01*
X27123Y-41553D01*
X27105Y-41596D01*
X27096Y-41642D01*
X27096Y-41688D01*
X27096Y-41964D01*
X27105Y-42009D01*
X27123Y-42052D01*
X27149Y-42091D01*
X27182Y-42124D01*
X27220Y-42150D01*
X27263Y-42168D01*
X27309Y-42177D01*
X27355Y-42177D01*
X27564Y-42177D01*
X27564Y-44236D01*
X27309Y-44236D01*
X27263Y-44245D01*
X27220Y-44263D01*
X27182Y-44288D01*
X27149Y-44321D01*
X27123Y-44360D01*
X27105Y-44403D01*
X27096Y-44449D01*
X27096Y-44495D01*
X27096Y-44771D01*
X27105Y-44816D01*
X27123Y-44859D01*
X27149Y-44898D01*
X27182Y-44931D01*
X27220Y-44957D01*
X27263Y-44975D01*
X27263Y-44975D01*
X27263Y-45352D01*
X27272Y-45397D01*
X27290Y-45440D01*
X27304Y-45461D01*
X27290Y-45482D01*
X27272Y-45525D01*
X27263Y-45571D01*
X27263Y-45572D01*
X27263Y-45572D01*
X27220Y-45589D01*
X27182Y-45615D01*
X27149Y-45648D01*
X27123Y-45687D01*
X27105Y-45730D01*
X27096Y-45775D01*
X27096Y-45822D01*
X27096Y-46098D01*
X27104Y-46136D01*
X27097Y-46142D01*
X27049Y-46200D01*
X27048Y-46201D01*
X27048Y-44330D01*
X27048Y-43346D01*
X27046Y-43324D01*
X27044Y-43302D01*
X27044Y-43301D01*
X27044Y-43300D01*
X27037Y-43279D01*
X27031Y-43258D01*
X27031Y-43257D01*
X27030Y-43255D01*
X27028Y-43251D01*
X27024Y-43230D01*
X27004Y-43183D01*
X26976Y-43140D01*
X26939Y-43103D01*
X26897Y-43074D01*
X26849Y-43054D01*
X26799Y-43044D01*
X26747Y-43044D01*
X26697Y-43053D01*
X26649Y-43073D01*
X26606Y-43101D01*
X26569Y-43137D01*
X26540Y-43179D01*
X26519Y-43227D01*
X26509Y-43277D01*
X26508Y-43329D01*
X26517Y-43379D01*
X26536Y-43427D01*
X26564Y-43471D01*
X26573Y-43479D01*
X26573Y-44232D01*
X26289Y-44516D01*
X26255Y-44529D01*
X26212Y-44557D01*
X26175Y-44594D01*
X26146Y-44636D01*
X26126Y-44683D01*
X26115Y-44734D01*
X26114Y-44785D01*
X26124Y-44836D01*
X26143Y-44884D01*
X26171Y-44927D01*
X26206Y-44964D01*
X26249Y-44994D01*
X26296Y-45014D01*
X26346Y-45025D01*
X26398Y-45027D01*
X26448Y-45018D01*
X26497Y-44999D01*
X26540Y-44971D01*
X26577Y-44936D01*
X26607Y-44894D01*
X26626Y-44851D01*
X26979Y-44498D01*
X26993Y-44481D01*
X27007Y-44465D01*
X27007Y-44463D01*
X27008Y-44462D01*
X27019Y-44443D01*
X27029Y-44424D01*
X27029Y-44423D01*
X27030Y-44422D01*
X27036Y-44401D01*
X27043Y-44380D01*
X27043Y-44378D01*
X27044Y-44377D01*
X27046Y-44355D01*
X27048Y-44334D01*
X27048Y-44331D01*
X27048Y-44331D01*
X27048Y-44331D01*
X27048Y-44330D01*
X27048Y-46201D01*
X27013Y-46267D01*
X26991Y-46339D01*
X26983Y-46414D01*
X26990Y-46489D01*
X27011Y-46562D01*
X27046Y-46629D01*
X27094Y-46688D01*
X27152Y-46737D01*
X27218Y-46773D01*
X27290Y-46796D01*
X27365Y-46805D01*
X27371Y-46805D01*
X27952Y-46805D01*
X27989Y-46801D01*
X28025Y-46798D01*
X28026Y-46797D01*
X28028Y-46797D01*
X28063Y-46787D01*
X28098Y-46776D01*
X28099Y-46776D01*
X28100Y-46775D01*
X28132Y-46758D01*
X28165Y-46741D01*
X28166Y-46740D01*
X28167Y-46740D01*
X28195Y-46717D01*
X28224Y-46694D01*
X28224Y-46693D01*
X28226Y-46692D01*
X28249Y-46664D01*
X28272Y-46636D01*
X28273Y-46635D01*
X28274Y-46634D01*
X28291Y-46602D01*
X28309Y-46570D01*
X28309Y-46568D01*
X28310Y-46567D01*
X28321Y-46532D01*
X28332Y-46497D01*
X28332Y-46496D01*
X28332Y-46495D01*
X28336Y-46458D01*
X28340Y-46422D01*
X28340Y-46420D01*
X28340Y-46420D01*
X28340Y-46419D01*
X28340Y-46417D01*
X28340Y-46311D01*
X28596Y-46311D01*
X28641Y-46301D01*
X28684Y-46284D01*
X28723Y-46258D01*
X28756Y-46225D01*
X28782Y-46186D01*
X28799Y-46143D01*
X28809Y-46098D01*
X28809Y-48726D01*
X28075Y-47992D01*
X28318Y-47748D01*
X28351Y-47727D01*
X28388Y-47692D01*
X28418Y-47650D01*
X28439Y-47603D01*
X28450Y-47552D01*
X28451Y-47493D01*
X28441Y-47443D01*
X28422Y-47395D01*
X28393Y-47352D01*
X28357Y-47316D01*
X28314Y-47287D01*
X28267Y-47267D01*
X28216Y-47257D01*
X28165Y-47256D01*
X28114Y-47266D01*
X28066Y-47285D01*
X28023Y-47313D01*
X27986Y-47349D01*
X27957Y-47392D01*
X27937Y-47439D01*
X27926Y-47490D01*
X27925Y-47541D01*
X27932Y-47575D01*
X27795Y-47712D01*
X27620Y-47537D01*
X27606Y-47525D01*
X27592Y-47513D01*
X27591Y-47513D01*
X27590Y-47512D01*
X27574Y-47504D01*
X27558Y-47495D01*
X27557Y-47495D01*
X27556Y-47494D01*
X27538Y-47489D01*
X27521Y-47483D01*
X27520Y-47483D01*
X27519Y-47483D01*
X27501Y-47481D01*
X27483Y-47479D01*
X27481Y-47479D01*
X27481Y-47479D01*
X27480Y-47479D01*
X27480Y-47479D01*
X27339Y-47479D01*
X27333Y-47473D01*
X27290Y-47444D01*
X27243Y-47424D01*
X27192Y-47414D01*
X27141Y-47414D01*
X27090Y-47423D01*
X27043Y-47443D01*
X26999Y-47471D01*
X26963Y-47507D01*
X26933Y-47549D01*
X26913Y-47597D01*
X26902Y-47647D01*
X26902Y-47699D01*
X26911Y-47749D01*
X26930Y-47797D01*
X26958Y-47841D01*
X26994Y-47878D01*
X27036Y-47907D01*
X27083Y-47928D01*
X27134Y-47939D01*
X27185Y-47940D01*
X27236Y-47931D01*
X27284Y-47912D01*
X27327Y-47885D01*
X27338Y-47874D01*
X27398Y-47874D01*
X27655Y-48131D01*
X27655Y-48131D01*
X28699Y-49176D01*
X28699Y-49881D01*
X28697Y-49876D01*
X28669Y-49833D01*
X28632Y-49796D01*
X28590Y-49767D01*
X28542Y-49747D01*
X28492Y-49737D01*
X28440Y-49737D01*
X28390Y-49746D01*
X28342Y-49765D01*
X28299Y-49794D01*
X28262Y-49830D01*
X28233Y-49872D01*
X28212Y-49920D01*
X28202Y-49970D01*
X28201Y-50022D01*
X28210Y-50072D01*
X28229Y-50120D01*
X28254Y-50159D01*
X28254Y-51279D01*
X28150Y-51279D01*
X28150Y-49251D01*
X28148Y-49233D01*
X28147Y-49215D01*
X28146Y-49214D01*
X28146Y-49213D01*
X28141Y-49196D01*
X28136Y-49178D01*
X28135Y-49177D01*
X28135Y-49176D01*
X28127Y-49160D01*
X28118Y-49144D01*
X28117Y-49143D01*
X28117Y-49142D01*
X28105Y-49128D01*
X28094Y-49114D01*
X28093Y-49112D01*
X28093Y-49112D01*
X28093Y-49112D01*
X28092Y-49112D01*
X28060Y-49079D01*
X28060Y-49079D01*
X28060Y-49079D01*
X28057Y-49077D01*
X28058Y-49068D01*
X28048Y-49018D01*
X28028Y-48970D01*
X27999Y-48927D01*
X27963Y-48891D01*
X27920Y-48862D01*
X27873Y-48842D01*
X27822Y-48831D01*
X27771Y-48831D01*
X27720Y-48841D01*
X27672Y-48860D01*
X27629Y-48888D01*
X27592Y-48924D01*
X27563Y-48967D01*
X27543Y-49014D01*
X27532Y-49065D01*
X27532Y-49116D01*
X27541Y-49167D01*
X27560Y-49215D01*
X27588Y-49258D01*
X27624Y-49295D01*
X27666Y-49324D01*
X27713Y-49345D01*
X27754Y-49354D01*
X27754Y-51279D01*
X27106Y-51279D01*
X27106Y-52460D01*
X27254Y-52460D01*
X27254Y-52610D01*
X27256Y-52628D01*
X27258Y-52646D01*
X27258Y-52647D01*
X27258Y-52648D01*
X27264Y-52666D01*
X27269Y-52683D01*
X27269Y-52684D01*
X27269Y-52685D01*
X27278Y-52701D01*
X27286Y-52717D01*
X27287Y-52718D01*
X27288Y-52719D01*
X27299Y-52733D01*
X27310Y-52748D01*
X27312Y-52749D01*
X27312Y-52749D01*
X27312Y-52749D01*
X27312Y-52750D01*
X27419Y-52856D01*
X27433Y-52868D01*
X27447Y-52879D01*
X27448Y-52880D01*
X27449Y-52880D01*
X27465Y-52889D01*
X27481Y-52898D01*
X27482Y-52898D01*
X27483Y-52899D01*
X27500Y-52904D01*
X27517Y-52910D01*
X27518Y-52910D01*
X27519Y-52910D01*
X27538Y-52912D01*
X27556Y-52914D01*
X27558Y-52914D01*
X27558Y-52914D01*
X27558Y-52914D01*
X27559Y-52914D01*
X28582Y-52914D01*
X28600Y-52912D01*
X28619Y-52910D01*
X28620Y-52910D01*
X28621Y-52910D01*
X28638Y-52905D01*
X28656Y-52900D01*
X28657Y-52899D01*
X28658Y-52899D01*
X28674Y-52890D01*
X28690Y-52882D01*
X28691Y-52881D01*
X28692Y-52881D01*
X28706Y-52869D01*
X28720Y-52858D01*
X28722Y-52856D01*
X28722Y-52856D01*
X28722Y-52856D01*
X28722Y-52856D01*
X29628Y-51950D01*
X29639Y-51936D01*
X29651Y-51922D01*
X29651Y-51921D01*
X29652Y-51921D01*
X29661Y-51904D01*
X29669Y-51888D01*
X29670Y-51887D01*
X29670Y-51887D01*
X29676Y-51869D01*
X29681Y-51852D01*
X29681Y-51851D01*
X29682Y-51850D01*
X29683Y-51831D01*
X29685Y-51813D01*
X29685Y-51811D01*
X29685Y-51811D01*
X29685Y-51811D01*
X29685Y-51811D01*
X29685Y-49820D01*
X29688Y-49818D01*
X29717Y-49776D01*
X29738Y-49729D01*
X29750Y-49678D01*
X29750Y-49619D01*
X29750Y-54350D01*
X26010Y-54350D01*
X26010Y-40446D01*
X26000Y-40396D01*
X25981Y-40348D01*
X25952Y-40305D01*
X25916Y-40268D01*
X25873Y-40240D01*
X25826Y-40220D01*
X25807Y-40216D01*
X25807Y-19212D01*
X25807Y-16456D01*
X25807Y-16456D01*
X25807Y-16455D01*
X25807Y-16448D01*
X25806Y-16440D01*
X25806Y-16432D01*
X25805Y-16429D01*
X25794Y-16330D01*
X25791Y-16314D01*
X25788Y-16299D01*
X25787Y-16296D01*
X25787Y-16296D01*
X25757Y-16201D01*
X25751Y-16186D01*
X25744Y-16171D01*
X25743Y-16169D01*
X25743Y-16169D01*
X25695Y-16082D01*
X25686Y-16068D01*
X25677Y-16055D01*
X25676Y-16053D01*
X25676Y-16053D01*
X25676Y-16053D01*
X25611Y-15977D01*
X25600Y-15965D01*
X25589Y-15954D01*
X25587Y-15952D01*
X25587Y-15952D01*
X25587Y-15952D01*
X25509Y-15890D01*
X25495Y-15881D01*
X25482Y-15872D01*
X25480Y-15871D01*
X25480Y-15871D01*
X25480Y-15871D01*
X25391Y-15825D01*
X25377Y-15819D01*
X25362Y-15812D01*
X25359Y-15812D01*
X25359Y-15812D01*
X25359Y-15812D01*
X25264Y-15783D01*
X25248Y-15780D01*
X25232Y-15777D01*
X25230Y-15777D01*
X25130Y-15768D01*
X25114Y-15768D01*
X25098Y-15768D01*
X25096Y-15768D01*
X24996Y-15779D01*
X24980Y-15782D01*
X24965Y-15785D01*
X24962Y-15786D01*
X24962Y-15786D01*
X24962Y-15786D01*
X24867Y-15815D01*
X24852Y-15821D01*
X24837Y-15827D01*
X24835Y-15829D01*
X24835Y-15829D01*
X24835Y-15829D01*
X24747Y-15876D01*
X24734Y-15885D01*
X24720Y-15894D01*
X24718Y-15895D01*
X24718Y-15895D01*
X24718Y-15895D01*
X24642Y-15959D01*
X24630Y-15970D01*
X24619Y-15982D01*
X24617Y-15984D01*
X24554Y-16061D01*
X24545Y-16074D01*
X24536Y-16088D01*
X24535Y-16090D01*
X24535Y-16090D01*
X24535Y-16090D01*
X24535Y-16090D01*
X24488Y-16178D01*
X24482Y-16193D01*
X24476Y-16208D01*
X24475Y-16210D01*
X24446Y-16306D01*
X24443Y-16321D01*
X24439Y-16337D01*
X24439Y-16339D01*
X24439Y-16339D01*
X24439Y-16339D01*
X24429Y-16439D01*
X24429Y-16446D01*
X24429Y-16454D01*
X24429Y-16456D01*
X24429Y-19212D01*
X24429Y-19212D01*
X24429Y-19213D01*
X24429Y-19220D01*
X24430Y-19228D01*
X24430Y-19237D01*
X24430Y-19239D01*
X24441Y-19338D01*
X24444Y-19354D01*
X24447Y-19370D01*
X24448Y-19372D01*
X24478Y-19467D01*
X24485Y-19482D01*
X24491Y-19497D01*
X24492Y-19499D01*
X24492Y-19499D01*
X24492Y-19499D01*
X24540Y-19587D01*
X24549Y-19600D01*
X24558Y-19613D01*
X24560Y-19615D01*
X24560Y-19615D01*
X24560Y-19615D01*
X24560Y-19615D01*
X24624Y-19692D01*
X24635Y-19703D01*
X24647Y-19714D01*
X24649Y-19716D01*
X24649Y-19716D01*
X24649Y-19716D01*
X24649Y-19716D01*
X24726Y-19778D01*
X24740Y-19787D01*
X24753Y-19796D01*
X24755Y-19797D01*
X24755Y-19797D01*
X24755Y-19797D01*
X24844Y-19844D01*
X24859Y-19850D01*
X24873Y-19856D01*
X24876Y-19857D01*
X24876Y-19857D01*
X24972Y-19885D01*
X24987Y-19888D01*
X25003Y-19891D01*
X25006Y-19891D01*
X25006Y-19891D01*
X25105Y-19900D01*
X25121Y-19900D01*
X25137Y-19900D01*
X25140Y-19900D01*
X25239Y-19890D01*
X25255Y-19886D01*
X25271Y-19883D01*
X25273Y-19883D01*
X25273Y-19883D01*
X25273Y-19883D01*
X25273Y-19883D01*
X25368Y-19853D01*
X25383Y-19847D01*
X25398Y-19841D01*
X25400Y-19840D01*
X25400Y-19840D01*
X25400Y-19840D01*
X25400Y-19840D01*
X25488Y-19792D01*
X25501Y-19783D01*
X25515Y-19774D01*
X25517Y-19773D01*
X25517Y-19773D01*
X25517Y-19773D01*
X25517Y-19773D01*
X25594Y-19709D01*
X25605Y-19698D01*
X25616Y-19687D01*
X25618Y-19685D01*
X25618Y-19685D01*
X25618Y-19685D01*
X25618Y-19685D01*
X25681Y-19607D01*
X25690Y-19594D01*
X25699Y-19581D01*
X25700Y-19579D01*
X25700Y-19579D01*
X25700Y-19579D01*
X25700Y-19579D01*
X25747Y-19490D01*
X25753Y-19475D01*
X25760Y-19461D01*
X25760Y-19458D01*
X25760Y-19458D01*
X25789Y-19363D01*
X25792Y-19347D01*
X25796Y-19331D01*
X25796Y-19329D01*
X25796Y-19329D01*
X25796Y-19329D01*
X25796Y-19329D01*
X25806Y-19229D01*
X25806Y-19222D01*
X25807Y-19215D01*
X25807Y-19212D01*
X25807Y-40216D01*
X25775Y-40209D01*
X25724Y-40209D01*
X25673Y-40219D01*
X25625Y-40238D01*
X25582Y-40266D01*
X25545Y-40302D01*
X25516Y-40345D01*
X25496Y-40392D01*
X25485Y-40443D01*
X25485Y-40455D01*
X25272Y-40668D01*
X24977Y-40668D01*
X24971Y-40662D01*
X24928Y-40633D01*
X24881Y-40613D01*
X24830Y-40603D01*
X24779Y-40603D01*
X24728Y-40612D01*
X24680Y-40632D01*
X24637Y-40660D01*
X24600Y-40696D01*
X24571Y-40738D01*
X24551Y-40786D01*
X24540Y-40836D01*
X24540Y-40888D01*
X24549Y-40938D01*
X24568Y-40986D01*
X24596Y-41030D01*
X24632Y-41067D01*
X24674Y-41096D01*
X24721Y-41117D01*
X24771Y-41128D01*
X24823Y-41129D01*
X24874Y-41120D01*
X24922Y-41101D01*
X24965Y-41074D01*
X24976Y-41063D01*
X25354Y-41063D01*
X25372Y-41062D01*
X25390Y-41060D01*
X25391Y-41060D01*
X25392Y-41060D01*
X25410Y-41054D01*
X25427Y-41049D01*
X25428Y-41049D01*
X25429Y-41049D01*
X25445Y-41040D01*
X25462Y-41032D01*
X25462Y-41031D01*
X25463Y-41030D01*
X25477Y-41019D01*
X25492Y-41007D01*
X25493Y-41006D01*
X25493Y-41006D01*
X25493Y-41006D01*
X25494Y-41006D01*
X25764Y-40735D01*
X25768Y-40735D01*
X25819Y-40726D01*
X25867Y-40708D01*
X25910Y-40680D01*
X25947Y-40644D01*
X25977Y-40602D01*
X25998Y-40555D01*
X26010Y-40505D01*
X26010Y-40446D01*
X26010Y-54350D01*
X25807Y-54350D01*
X25807Y-53228D01*
X25807Y-50472D01*
X25807Y-50472D01*
X25807Y-50471D01*
X25807Y-50464D01*
X25806Y-50456D01*
X25806Y-50448D01*
X25805Y-50445D01*
X25794Y-50346D01*
X25791Y-50330D01*
X25788Y-50314D01*
X25787Y-50312D01*
X25787Y-50312D01*
X25757Y-50217D01*
X25751Y-50202D01*
X25744Y-50187D01*
X25743Y-50185D01*
X25743Y-50185D01*
X25695Y-50097D01*
X25686Y-50084D01*
X25677Y-50071D01*
X25676Y-50069D01*
X25676Y-50069D01*
X25676Y-50069D01*
X25611Y-49992D01*
X25600Y-49981D01*
X25589Y-49970D01*
X25587Y-49968D01*
X25587Y-49968D01*
X25587Y-49968D01*
X25509Y-49906D01*
X25495Y-49897D01*
X25482Y-49888D01*
X25480Y-49887D01*
X25480Y-49887D01*
X25480Y-49887D01*
X25391Y-49840D01*
X25377Y-49834D01*
X25362Y-49828D01*
X25359Y-49827D01*
X25359Y-49827D01*
X25359Y-49827D01*
X25264Y-49799D01*
X25248Y-49796D01*
X25232Y-49793D01*
X25230Y-49793D01*
X25130Y-49784D01*
X25114Y-49784D01*
X25098Y-49784D01*
X25096Y-49784D01*
X24996Y-49794D01*
X24980Y-49798D01*
X24965Y-49801D01*
X24962Y-49801D01*
X24962Y-49801D01*
X24962Y-49801D01*
X24867Y-49831D01*
X24852Y-49837D01*
X24837Y-49843D01*
X24835Y-49844D01*
X24835Y-49844D01*
X24835Y-49844D01*
X24747Y-49892D01*
X24734Y-49901D01*
X24720Y-49910D01*
X24718Y-49911D01*
X24718Y-49911D01*
X24718Y-49911D01*
X24642Y-49975D01*
X24630Y-49986D01*
X24619Y-49997D01*
X24617Y-49999D01*
X24554Y-50077D01*
X24545Y-50090D01*
X24536Y-50103D01*
X24535Y-50106D01*
X24535Y-50106D01*
X24535Y-50106D01*
X24535Y-50106D01*
X24488Y-50194D01*
X24482Y-50209D01*
X24476Y-50223D01*
X24475Y-50226D01*
X24446Y-50321D01*
X24443Y-50337D01*
X24439Y-50353D01*
X24439Y-50355D01*
X24439Y-50355D01*
X24439Y-50355D01*
X24429Y-50455D01*
X24429Y-50462D01*
X24429Y-50469D01*
X24429Y-50472D01*
X24429Y-53228D01*
X24429Y-53228D01*
X24429Y-53229D01*
X24429Y-53236D01*
X24430Y-53244D01*
X24430Y-53252D01*
X24430Y-53255D01*
X24441Y-53354D01*
X24444Y-53370D01*
X24447Y-53385D01*
X24448Y-53388D01*
X24478Y-53483D01*
X24485Y-53498D01*
X24491Y-53513D01*
X24492Y-53515D01*
X24492Y-53515D01*
X24492Y-53515D01*
X24540Y-53602D01*
X24549Y-53616D01*
X24558Y-53629D01*
X24560Y-53631D01*
X24560Y-53631D01*
X24560Y-53631D01*
X24560Y-53631D01*
X24624Y-53707D01*
X24635Y-53719D01*
X24647Y-53730D01*
X24649Y-53732D01*
X24649Y-53732D01*
X24649Y-53732D01*
X24649Y-53732D01*
X24726Y-53794D01*
X24740Y-53803D01*
X24753Y-53812D01*
X24755Y-53813D01*
X24755Y-53813D01*
X24755Y-53813D01*
X24844Y-53859D01*
X24859Y-53865D01*
X24873Y-53872D01*
X24876Y-53872D01*
X24876Y-53872D01*
X24972Y-53901D01*
X24987Y-53904D01*
X25003Y-53907D01*
X25006Y-53907D01*
X25006Y-53907D01*
X25105Y-53916D01*
X25121Y-53916D01*
X25137Y-53916D01*
X25140Y-53916D01*
X25239Y-53905D01*
X25255Y-53902D01*
X25271Y-53899D01*
X25273Y-53898D01*
X25273Y-53898D01*
X25273Y-53898D01*
X25273Y-53898D01*
X25368Y-53869D01*
X25383Y-53863D01*
X25398Y-53857D01*
X25400Y-53856D01*
X25400Y-53856D01*
X25400Y-53856D01*
X25400Y-53856D01*
X25488Y-53808D01*
X25501Y-53799D01*
X25515Y-53790D01*
X25517Y-53789D01*
X25517Y-53789D01*
X25517Y-53789D01*
X25517Y-53789D01*
X25594Y-53725D01*
X25605Y-53714D01*
X25616Y-53702D01*
X25618Y-53700D01*
X25618Y-53700D01*
X25618Y-53700D01*
X25618Y-53700D01*
X25681Y-53623D01*
X25690Y-53610D01*
X25699Y-53596D01*
X25700Y-53594D01*
X25700Y-53594D01*
X25700Y-53594D01*
X25700Y-53594D01*
X25747Y-53506D01*
X25753Y-53491D01*
X25760Y-53476D01*
X25760Y-53474D01*
X25760Y-53474D01*
X25789Y-53378D01*
X25792Y-53363D01*
X25796Y-53347D01*
X25796Y-53345D01*
X25796Y-53345D01*
X25796Y-53345D01*
X25796Y-53345D01*
X25806Y-53245D01*
X25806Y-53238D01*
X25807Y-53230D01*
X25807Y-53228D01*
X25807Y-54350D01*
X25008Y-54350D01*
X24805Y-54330D01*
X24617Y-54273D01*
X24444Y-54181D01*
X24293Y-54058D01*
X24168Y-53907D01*
X24075Y-53735D01*
X24017Y-53548D01*
X23996Y-53345D01*
X23996Y-16347D01*
X24016Y-16143D01*
X24072Y-15956D01*
X24164Y-15783D01*
X24288Y-15631D01*
X24439Y-15506D01*
X24611Y-15413D01*
X24798Y-15355D01*
X25001Y-15334D01*
X30896Y-15334D01*
X31100Y-15354D01*
X31287Y-15411D01*
X31460Y-15503D01*
X31612Y-15626D01*
X31737Y-15777D01*
X31830Y-15949D01*
X31888Y-16136D01*
X31909Y-16339D01*
X31909Y-53337D01*
X31909Y-53337D01*
G37*
X31909Y-53337D02*
X31889Y-53541D01*
X31832Y-53728D01*
X31741Y-53901D01*
X31692Y-53960D01*
X31692Y-40905D01*
X31692Y-40866D01*
X31692Y-39882D01*
X31685Y-39844D01*
X31670Y-39808D01*
X31648Y-39776D01*
X31621Y-39748D01*
X31589Y-39727D01*
X31562Y-39715D01*
X31562Y-23517D01*
X31552Y-23466D01*
X31532Y-23419D01*
X31503Y-23376D01*
X31476Y-23348D01*
X31476Y-19212D01*
X31476Y-16456D01*
X31476Y-16456D01*
X31476Y-16455D01*
X31476Y-16448D01*
X31475Y-16440D01*
X31475Y-16432D01*
X31475Y-16429D01*
X31464Y-16330D01*
X31460Y-16314D01*
X31457Y-16299D01*
X31456Y-16296D01*
X31456Y-16296D01*
X31426Y-16201D01*
X31420Y-16186D01*
X31414Y-16171D01*
X31413Y-16169D01*
X31413Y-16169D01*
X31364Y-16082D01*
X31355Y-16068D01*
X31346Y-16055D01*
X31345Y-16053D01*
X31345Y-16053D01*
X31345Y-16053D01*
X31281Y-15977D01*
X31269Y-15965D01*
X31258Y-15954D01*
X31256Y-15952D01*
X31256Y-15952D01*
X31256Y-15952D01*
X31178Y-15890D01*
X31165Y-15881D01*
X31151Y-15872D01*
X31149Y-15871D01*
X31149Y-15871D01*
X31149Y-15871D01*
X31061Y-15825D01*
X31046Y-15819D01*
X31031Y-15812D01*
X31029Y-15812D01*
X31029Y-15812D01*
X31029Y-15812D01*
X30933Y-15783D01*
X30917Y-15780D01*
X30901Y-15777D01*
X30899Y-15777D01*
X30799Y-15768D01*
X30783Y-15768D01*
X30767Y-15768D01*
X30765Y-15768D01*
X30665Y-15779D01*
X30650Y-15782D01*
X30634Y-15785D01*
X30632Y-15786D01*
X30632Y-15786D01*
X30632Y-15786D01*
X30536Y-15815D01*
X30521Y-15821D01*
X30506Y-15827D01*
X30504Y-15829D01*
X30504Y-15829D01*
X30504Y-15829D01*
X30416Y-15876D01*
X30403Y-15885D01*
X30390Y-15894D01*
X30388Y-15895D01*
X30388Y-15895D01*
X30388Y-15895D01*
X30311Y-15959D01*
X30299Y-15970D01*
X30288Y-15982D01*
X30286Y-15984D01*
X30223Y-16061D01*
X30214Y-16074D01*
X30205Y-16088D01*
X30204Y-16090D01*
X30204Y-16090D01*
X30204Y-16090D01*
X30204Y-16090D01*
X30157Y-16178D01*
X30151Y-16193D01*
X30145Y-16208D01*
X30144Y-16210D01*
X30115Y-16306D01*
X30112Y-16321D01*
X30109Y-16337D01*
X30109Y-16339D01*
X30109Y-16339D01*
X30109Y-16339D01*
X30099Y-16439D01*
X30099Y-16446D01*
X30098Y-16454D01*
X30098Y-16456D01*
X30098Y-19212D01*
X30098Y-19212D01*
X30098Y-19213D01*
X30098Y-19220D01*
X30099Y-19228D01*
X30099Y-19237D01*
X30099Y-19239D01*
X30110Y-19338D01*
X30114Y-19354D01*
X30117Y-19370D01*
X30117Y-19372D01*
X30148Y-19467D01*
X30154Y-19482D01*
X30160Y-19497D01*
X30161Y-19499D01*
X30161Y-19499D01*
X30161Y-19499D01*
X30209Y-19587D01*
X30218Y-19600D01*
X30227Y-19613D01*
X30229Y-19615D01*
X30229Y-19615D01*
X30229Y-19615D01*
X30229Y-19615D01*
X30293Y-19692D01*
X30305Y-19703D01*
X30316Y-19714D01*
X30318Y-19716D01*
X30318Y-19716D01*
X30318Y-19716D01*
X30318Y-19716D01*
X30396Y-19778D01*
X30409Y-19787D01*
X30422Y-19796D01*
X30425Y-19797D01*
X30425Y-19797D01*
X30425Y-19797D01*
X30513Y-19844D01*
X30528Y-19850D01*
X30543Y-19856D01*
X30545Y-19857D01*
X30545Y-19857D01*
X30641Y-19885D01*
X30657Y-19888D01*
X30672Y-19891D01*
X30675Y-19891D01*
X30675Y-19891D01*
X30774Y-19900D01*
X30790Y-19900D01*
X30807Y-19900D01*
X30809Y-19900D01*
X30908Y-19890D01*
X30924Y-19886D01*
X30940Y-19883D01*
X30942Y-19883D01*
X30942Y-19883D01*
X30942Y-19883D01*
X30942Y-19883D01*
X31038Y-19853D01*
X31052Y-19847D01*
X31067Y-19841D01*
X31069Y-19840D01*
X31070Y-19840D01*
X31070Y-19840D01*
X31070Y-19840D01*
X31157Y-19792D01*
X31171Y-19783D01*
X31184Y-19774D01*
X31186Y-19773D01*
X31186Y-19773D01*
X31186Y-19773D01*
X31186Y-19773D01*
X31263Y-19709D01*
X31274Y-19698D01*
X31286Y-19687D01*
X31287Y-19685D01*
X31287Y-19685D01*
X31287Y-19685D01*
X31287Y-19685D01*
X31350Y-19607D01*
X31359Y-19594D01*
X31368Y-19581D01*
X31370Y-19579D01*
X31370Y-19579D01*
X31370Y-19579D01*
X31370Y-19579D01*
X31417Y-19490D01*
X31423Y-19475D01*
X31429Y-19461D01*
X31430Y-19458D01*
X31430Y-19458D01*
X31459Y-19363D01*
X31462Y-19347D01*
X31465Y-19331D01*
X31465Y-19329D01*
X31465Y-19329D01*
X31465Y-19329D01*
X31465Y-19329D01*
X31475Y-19229D01*
X31475Y-19222D01*
X31476Y-19215D01*
X31476Y-19212D01*
X31476Y-23348D01*
X31467Y-23339D01*
X31424Y-23311D01*
X31377Y-23291D01*
X31349Y-23285D01*
X30075Y-22011D01*
X30059Y-21998D01*
X30044Y-21985D01*
X30043Y-21985D01*
X30042Y-21984D01*
X30024Y-21974D01*
X30007Y-21965D01*
X30005Y-21964D01*
X30004Y-21964D01*
X29985Y-21958D01*
X29966Y-21952D01*
X29965Y-21952D01*
X29964Y-21951D01*
X29944Y-21949D01*
X29924Y-21947D01*
X29922Y-21947D01*
X29922Y-21947D01*
X29921Y-21947D01*
X29921Y-21947D01*
X28915Y-21947D01*
X28915Y-19245D01*
X28897Y-19156D01*
X28863Y-19073D01*
X28813Y-18997D01*
X28749Y-18933D01*
X28673Y-18882D01*
X28590Y-18847D01*
X28501Y-18828D01*
X28410Y-18828D01*
X28321Y-18845D01*
X28237Y-18879D01*
X28161Y-18928D01*
X28096Y-18992D01*
X28045Y-19067D01*
X28009Y-19150D01*
X27990Y-19239D01*
X27989Y-19330D01*
X28005Y-19419D01*
X28039Y-19503D01*
X28088Y-19580D01*
X28151Y-19645D01*
X28225Y-19697D01*
X28309Y-19733D01*
X28397Y-19753D01*
X28488Y-19755D01*
X28577Y-19739D01*
X28662Y-19706D01*
X28739Y-19657D01*
X28804Y-19595D01*
X28857Y-19521D01*
X28894Y-19438D01*
X28914Y-19349D01*
X28915Y-19245D01*
X28915Y-21947D01*
X27937Y-21947D01*
X27937Y-19270D01*
X27923Y-19176D01*
X27892Y-19087D01*
X27866Y-19039D01*
X27794Y-19005D01*
X27738Y-19061D01*
X27738Y-18949D01*
X27704Y-18877D01*
X27619Y-18836D01*
X27527Y-18812D01*
X27432Y-18806D01*
X27338Y-18820D01*
X27248Y-18851D01*
X27200Y-18877D01*
X27166Y-18949D01*
X27452Y-19235D01*
X27738Y-18949D01*
X27738Y-19061D01*
X27508Y-19291D01*
X27794Y-19577D01*
X27866Y-19543D01*
X27908Y-19457D01*
X27931Y-19365D01*
X27937Y-19270D01*
X27937Y-21947D01*
X27738Y-21947D01*
X27738Y-19632D01*
X27452Y-19347D01*
X27397Y-19402D01*
X27397Y-19291D01*
X27111Y-19005D01*
X27038Y-19039D01*
X26997Y-19124D01*
X26973Y-19216D01*
X26968Y-19311D01*
X26981Y-19405D01*
X27013Y-19495D01*
X27038Y-19543D01*
X27111Y-19577D01*
X27397Y-19291D01*
X27397Y-19402D01*
X27166Y-19632D01*
X27200Y-19705D01*
X27286Y-19746D01*
X27378Y-19770D01*
X27473Y-19775D01*
X27567Y-19762D01*
X27656Y-19731D01*
X27704Y-19705D01*
X27738Y-19632D01*
X27738Y-21947D01*
X27062Y-21947D01*
X27035Y-21942D01*
X26983Y-21941D01*
X26933Y-21951D01*
X26885Y-21970D01*
X26842Y-21998D01*
X26805Y-22034D01*
X26776Y-22077D01*
X26756Y-22124D01*
X26745Y-22175D01*
X26744Y-22226D01*
X26754Y-22277D01*
X26773Y-22325D01*
X26800Y-22368D01*
X26836Y-22405D01*
X26879Y-22435D01*
X26926Y-22455D01*
X26976Y-22466D01*
X27028Y-22468D01*
X27078Y-22459D01*
X27126Y-22440D01*
X27170Y-22412D01*
X27201Y-22383D01*
X29831Y-22383D01*
X31041Y-23593D01*
X31045Y-23616D01*
X31064Y-23664D01*
X31092Y-23707D01*
X31128Y-23744D01*
X31170Y-23773D01*
X31217Y-23794D01*
X31267Y-23805D01*
X31319Y-23806D01*
X31370Y-23797D01*
X31418Y-23779D01*
X31461Y-23751D01*
X31499Y-23715D01*
X31528Y-23673D01*
X31549Y-23626D01*
X31561Y-23576D01*
X31562Y-23517D01*
X31562Y-39715D01*
X31553Y-39712D01*
X31515Y-39704D01*
X31476Y-39704D01*
X31418Y-39704D01*
X31418Y-35000D01*
X31416Y-34981D01*
X31414Y-34963D01*
X31414Y-34962D01*
X31414Y-34961D01*
X31409Y-34944D01*
X31404Y-34926D01*
X31403Y-34925D01*
X31403Y-34924D01*
X31394Y-34908D01*
X31386Y-34892D01*
X31385Y-34891D01*
X31385Y-34890D01*
X31373Y-34876D01*
X31362Y-34862D01*
X31360Y-34860D01*
X31360Y-34860D01*
X31360Y-34860D01*
X31360Y-34860D01*
X30512Y-34012D01*
X30512Y-30944D01*
X30512Y-30604D01*
X30540Y-30624D01*
X30587Y-30644D01*
X30638Y-30655D01*
X30689Y-30656D01*
X30740Y-30648D01*
X30788Y-30629D01*
X30825Y-30605D01*
X30825Y-32857D01*
X30821Y-32861D01*
X30792Y-32904D01*
X30771Y-32951D01*
X30761Y-33002D01*
X30760Y-33053D01*
X30769Y-33104D01*
X30788Y-33152D01*
X30816Y-33195D01*
X30852Y-33232D01*
X30894Y-33262D01*
X30942Y-33282D01*
X30992Y-33293D01*
X31043Y-33294D01*
X31094Y-33285D01*
X31142Y-33267D01*
X31186Y-33239D01*
X31223Y-33204D01*
X31253Y-33161D01*
X31274Y-33114D01*
X31285Y-33064D01*
X31286Y-33005D01*
X31276Y-32955D01*
X31256Y-32907D01*
X31228Y-32864D01*
X31221Y-32857D01*
X31221Y-29980D01*
X31318Y-29980D01*
X31356Y-29972D01*
X31392Y-29957D01*
X31424Y-29936D01*
X31452Y-29908D01*
X31473Y-29876D01*
X31488Y-29840D01*
X31496Y-29802D01*
X31496Y-29764D01*
X31496Y-28779D01*
X31488Y-28741D01*
X31473Y-28705D01*
X31452Y-28673D01*
X31424Y-28646D01*
X31392Y-28624D01*
X31356Y-28609D01*
X31318Y-28602D01*
X31279Y-28602D01*
X30728Y-28602D01*
X30690Y-28609D01*
X30669Y-28618D01*
X30647Y-28609D01*
X30609Y-28602D01*
X30571Y-28602D01*
X30019Y-28602D01*
X29981Y-28609D01*
X29946Y-28624D01*
X29913Y-28646D01*
X29886Y-28673D01*
X29864Y-28705D01*
X29850Y-28741D01*
X29842Y-28779D01*
X29842Y-28818D01*
X29842Y-29802D01*
X29850Y-29840D01*
X29864Y-29876D01*
X29886Y-29908D01*
X29913Y-29936D01*
X29946Y-29957D01*
X29981Y-29972D01*
X30019Y-29980D01*
X30058Y-29980D01*
X30117Y-29980D01*
X30117Y-30393D01*
X30117Y-30944D01*
X30117Y-34094D01*
X30118Y-34112D01*
X30120Y-34130D01*
X30120Y-34131D01*
X30120Y-34132D01*
X30126Y-34150D01*
X30131Y-34167D01*
X30131Y-34168D01*
X30132Y-34169D01*
X30140Y-34186D01*
X30149Y-34202D01*
X30149Y-34203D01*
X30150Y-34203D01*
X30161Y-34218D01*
X30173Y-34232D01*
X30174Y-34233D01*
X30174Y-34233D01*
X30174Y-34233D01*
X30175Y-34234D01*
X31022Y-35081D01*
X31022Y-39704D01*
X30925Y-39704D01*
X30887Y-39712D01*
X30866Y-39721D01*
X30844Y-39712D01*
X30806Y-39704D01*
X30768Y-39704D01*
X30216Y-39704D01*
X30178Y-39712D01*
X30142Y-39727D01*
X30110Y-39748D01*
X30083Y-39776D01*
X30061Y-39808D01*
X30046Y-39844D01*
X30039Y-39882D01*
X30039Y-39920D01*
X30039Y-40195D01*
X29960Y-40195D01*
X29602Y-40195D01*
X29566Y-40180D01*
X29515Y-40170D01*
X29464Y-40170D01*
X29413Y-40179D01*
X29365Y-40199D01*
X29322Y-40227D01*
X29285Y-40263D01*
X29256Y-40305D01*
X29236Y-40353D01*
X29225Y-40403D01*
X29225Y-40455D01*
X29234Y-40505D01*
X29253Y-40553D01*
X29281Y-40597D01*
X29317Y-40634D01*
X29359Y-40663D01*
X29406Y-40684D01*
X29456Y-40695D01*
X29508Y-40696D01*
X29559Y-40687D01*
X29607Y-40668D01*
X29650Y-40641D01*
X29688Y-40605D01*
X29698Y-40591D01*
X29960Y-40591D01*
X30039Y-40591D01*
X30039Y-40905D01*
X30046Y-40943D01*
X30061Y-40979D01*
X30083Y-41011D01*
X30110Y-41038D01*
X30142Y-41060D01*
X30178Y-41075D01*
X30216Y-41082D01*
X30255Y-41082D01*
X30806Y-41082D01*
X30844Y-41075D01*
X30866Y-41066D01*
X30887Y-41075D01*
X30925Y-41082D01*
X30964Y-41082D01*
X31022Y-41082D01*
X31022Y-41204D01*
X30972Y-41194D01*
X30920Y-41193D01*
X30870Y-41203D01*
X30822Y-41222D01*
X30779Y-41250D01*
X30742Y-41286D01*
X30713Y-41329D01*
X30693Y-41376D01*
X30682Y-41427D01*
X30681Y-41478D01*
X30691Y-41529D01*
X30710Y-41577D01*
X30737Y-41620D01*
X30773Y-41657D01*
X30816Y-41687D01*
X30863Y-41707D01*
X30913Y-41718D01*
X30965Y-41719D01*
X31015Y-41711D01*
X31022Y-41708D01*
X31022Y-41929D01*
X31022Y-47162D01*
X30258Y-47926D01*
X30251Y-47925D01*
X30201Y-47935D01*
X30153Y-47954D01*
X30110Y-47983D01*
X30073Y-48019D01*
X30044Y-48061D01*
X30023Y-48109D01*
X30013Y-48159D01*
X30012Y-48211D01*
X30021Y-48261D01*
X30040Y-48309D01*
X30068Y-48353D01*
X30104Y-48390D01*
X30146Y-48419D01*
X30193Y-48440D01*
X30244Y-48451D01*
X30295Y-48452D01*
X30346Y-48443D01*
X30394Y-48424D01*
X30438Y-48397D01*
X30475Y-48361D01*
X30505Y-48319D01*
X30526Y-48272D01*
X30537Y-48222D01*
X30537Y-48206D01*
X31360Y-47383D01*
X31371Y-47369D01*
X31383Y-47355D01*
X31384Y-47354D01*
X31384Y-47354D01*
X31393Y-47338D01*
X31402Y-47322D01*
X31402Y-47321D01*
X31403Y-47320D01*
X31408Y-47302D01*
X31413Y-47285D01*
X31414Y-47284D01*
X31414Y-47283D01*
X31416Y-47264D01*
X31418Y-47246D01*
X31418Y-47244D01*
X31418Y-47244D01*
X31418Y-47244D01*
X31418Y-47244D01*
X31418Y-41929D01*
X31418Y-41456D01*
X31418Y-41082D01*
X31515Y-41082D01*
X31553Y-41075D01*
X31589Y-41060D01*
X31621Y-41038D01*
X31648Y-41011D01*
X31670Y-40979D01*
X31685Y-40943D01*
X31692Y-40905D01*
X31692Y-53960D01*
X31617Y-54053D01*
X31476Y-54169D01*
X31476Y-53228D01*
X31476Y-50472D01*
X31476Y-50472D01*
X31476Y-50471D01*
X31476Y-50464D01*
X31475Y-50456D01*
X31475Y-50448D01*
X31475Y-50445D01*
X31464Y-50346D01*
X31460Y-50330D01*
X31457Y-50314D01*
X31456Y-50312D01*
X31456Y-50312D01*
X31426Y-50217D01*
X31420Y-50202D01*
X31414Y-50187D01*
X31413Y-50185D01*
X31413Y-50185D01*
X31364Y-50097D01*
X31355Y-50084D01*
X31346Y-50071D01*
X31345Y-50069D01*
X31345Y-50069D01*
X31345Y-50069D01*
X31281Y-49992D01*
X31269Y-49981D01*
X31258Y-49970D01*
X31256Y-49968D01*
X31256Y-49968D01*
X31256Y-49968D01*
X31178Y-49906D01*
X31165Y-49897D01*
X31151Y-49888D01*
X31149Y-49887D01*
X31149Y-49887D01*
X31149Y-49887D01*
X31061Y-49840D01*
X31046Y-49834D01*
X31031Y-49828D01*
X31029Y-49827D01*
X31029Y-49827D01*
X31029Y-49827D01*
X30933Y-49799D01*
X30917Y-49796D01*
X30901Y-49793D01*
X30899Y-49793D01*
X30799Y-49784D01*
X30783Y-49784D01*
X30767Y-49784D01*
X30765Y-49784D01*
X30665Y-49794D01*
X30650Y-49798D01*
X30634Y-49801D01*
X30632Y-49801D01*
X30632Y-49801D01*
X30632Y-49801D01*
X30536Y-49831D01*
X30521Y-49837D01*
X30506Y-49843D01*
X30504Y-49844D01*
X30504Y-49844D01*
X30504Y-49844D01*
X30416Y-49892D01*
X30403Y-49901D01*
X30390Y-49910D01*
X30388Y-49911D01*
X30388Y-49911D01*
X30388Y-49911D01*
X30311Y-49975D01*
X30299Y-49986D01*
X30288Y-49997D01*
X30286Y-49999D01*
X30223Y-50077D01*
X30214Y-50090D01*
X30205Y-50103D01*
X30204Y-50106D01*
X30204Y-50106D01*
X30204Y-50106D01*
X30204Y-50106D01*
X30157Y-50194D01*
X30151Y-50209D01*
X30145Y-50223D01*
X30144Y-50226D01*
X30115Y-50321D01*
X30112Y-50337D01*
X30109Y-50353D01*
X30109Y-50355D01*
X30109Y-50355D01*
X30109Y-50355D01*
X30099Y-50455D01*
X30099Y-50462D01*
X30098Y-50469D01*
X30098Y-50472D01*
X30098Y-53228D01*
X30098Y-53228D01*
X30098Y-53229D01*
X30098Y-53236D01*
X30099Y-53244D01*
X30099Y-53252D01*
X30099Y-53255D01*
X30110Y-53354D01*
X30114Y-53370D01*
X30117Y-53385D01*
X30117Y-53388D01*
X30148Y-53483D01*
X30154Y-53498D01*
X30160Y-53513D01*
X30161Y-53515D01*
X30161Y-53515D01*
X30161Y-53515D01*
X30209Y-53602D01*
X30218Y-53616D01*
X30227Y-53629D01*
X30229Y-53631D01*
X30229Y-53631D01*
X30229Y-53631D01*
X30229Y-53631D01*
X30293Y-53707D01*
X30305Y-53719D01*
X30316Y-53730D01*
X30318Y-53732D01*
X30318Y-53732D01*
X30318Y-53732D01*
X30318Y-53732D01*
X30396Y-53794D01*
X30409Y-53803D01*
X30422Y-53812D01*
X30425Y-53813D01*
X30425Y-53813D01*
X30425Y-53813D01*
X30513Y-53859D01*
X30528Y-53865D01*
X30543Y-53872D01*
X30545Y-53872D01*
X30545Y-53872D01*
X30641Y-53901D01*
X30657Y-53904D01*
X30672Y-53907D01*
X30675Y-53907D01*
X30675Y-53907D01*
X30774Y-53916D01*
X30790Y-53916D01*
X30807Y-53916D01*
X30809Y-53916D01*
X30908Y-53905D01*
X30924Y-53902D01*
X30940Y-53899D01*
X30942Y-53898D01*
X30942Y-53898D01*
X30942Y-53898D01*
X30942Y-53898D01*
X31038Y-53869D01*
X31052Y-53863D01*
X31067Y-53857D01*
X31069Y-53856D01*
X31070Y-53856D01*
X31070Y-53856D01*
X31070Y-53856D01*
X31157Y-53808D01*
X31171Y-53799D01*
X31184Y-53790D01*
X31186Y-53789D01*
X31186Y-53789D01*
X31186Y-53789D01*
X31186Y-53789D01*
X31263Y-53725D01*
X31274Y-53714D01*
X31286Y-53702D01*
X31287Y-53700D01*
X31287Y-53700D01*
X31287Y-53700D01*
X31287Y-53700D01*
X31350Y-53623D01*
X31359Y-53610D01*
X31368Y-53596D01*
X31370Y-53594D01*
X31370Y-53594D01*
X31370Y-53594D01*
X31370Y-53594D01*
X31417Y-53506D01*
X31423Y-53491D01*
X31429Y-53476D01*
X31430Y-53474D01*
X31430Y-53474D01*
X31459Y-53378D01*
X31462Y-53363D01*
X31465Y-53347D01*
X31465Y-53345D01*
X31465Y-53345D01*
X31465Y-53345D01*
X31465Y-53345D01*
X31475Y-53245D01*
X31475Y-53238D01*
X31476Y-53230D01*
X31476Y-53228D01*
X31476Y-54169D01*
X31466Y-54178D01*
X31294Y-54271D01*
X31107Y-54329D01*
X30904Y-54350D01*
X29750Y-54350D01*
X29750Y-49619D01*
X29740Y-49569D01*
X29721Y-49521D01*
X29692Y-49478D01*
X29656Y-49442D01*
X29613Y-49413D01*
X29566Y-49393D01*
X29515Y-49383D01*
X29464Y-49382D01*
X29413Y-49392D01*
X29365Y-49411D01*
X29322Y-49439D01*
X29285Y-49475D01*
X29256Y-49518D01*
X29236Y-49565D01*
X29225Y-49616D01*
X29225Y-49667D01*
X29234Y-49718D01*
X29253Y-49766D01*
X29281Y-49809D01*
X29290Y-49819D01*
X29290Y-51729D01*
X29095Y-51924D01*
X29095Y-49094D01*
X29093Y-49076D01*
X29092Y-49058D01*
X29091Y-49057D01*
X29091Y-49056D01*
X29086Y-49038D01*
X29081Y-49021D01*
X29080Y-49020D01*
X29080Y-49019D01*
X29071Y-49002D01*
X29063Y-48986D01*
X29062Y-48985D01*
X29062Y-48985D01*
X29050Y-48970D01*
X29039Y-48956D01*
X29038Y-48955D01*
X29037Y-48955D01*
X29037Y-48955D01*
X29037Y-48954D01*
X28809Y-48726D01*
X28809Y-46098D01*
X28809Y-46051D01*
X28809Y-45775D01*
X28799Y-45730D01*
X28782Y-45687D01*
X28756Y-45648D01*
X28723Y-45615D01*
X28684Y-45589D01*
X28641Y-45572D01*
X28641Y-45572D01*
X28641Y-45571D01*
X28632Y-45525D01*
X28614Y-45482D01*
X28600Y-45461D01*
X28614Y-45440D01*
X28632Y-45397D01*
X28641Y-45352D01*
X28641Y-45305D01*
X28641Y-44975D01*
X28641Y-44975D01*
X28684Y-44957D01*
X28723Y-44931D01*
X28756Y-44898D01*
X28782Y-44859D01*
X28799Y-44816D01*
X28809Y-44771D01*
X28809Y-44724D01*
X28809Y-44449D01*
X28799Y-44403D01*
X28782Y-44360D01*
X28756Y-44321D01*
X28723Y-44288D01*
X28684Y-44263D01*
X28641Y-44245D01*
X28596Y-44236D01*
X28549Y-44236D01*
X28340Y-44236D01*
X28340Y-42177D01*
X28596Y-42177D01*
X28641Y-42168D01*
X28684Y-42150D01*
X28723Y-42124D01*
X28756Y-42091D01*
X28782Y-42052D01*
X28799Y-42009D01*
X28809Y-41964D01*
X28809Y-41917D01*
X28809Y-41642D01*
X28799Y-41596D01*
X28782Y-41553D01*
X28756Y-41514D01*
X28723Y-41481D01*
X28684Y-41456D01*
X28641Y-41438D01*
X28641Y-41438D01*
X28641Y-41437D01*
X28632Y-41391D01*
X28614Y-41348D01*
X28600Y-41327D01*
X28614Y-41306D01*
X28632Y-41263D01*
X28641Y-41218D01*
X28641Y-41171D01*
X28641Y-40841D01*
X28641Y-40841D01*
X28684Y-40823D01*
X28723Y-40797D01*
X28756Y-40764D01*
X28782Y-40726D01*
X28799Y-40683D01*
X28809Y-40637D01*
X28809Y-40590D01*
X28809Y-40315D01*
X28799Y-40269D01*
X28782Y-40226D01*
X28756Y-40188D01*
X28723Y-40155D01*
X28684Y-40129D01*
X28641Y-40111D01*
X28596Y-40102D01*
X28549Y-40102D01*
X28340Y-40102D01*
X28340Y-38043D01*
X28596Y-38043D01*
X28641Y-38034D01*
X28684Y-38016D01*
X28723Y-37990D01*
X28756Y-37957D01*
X28782Y-37918D01*
X28799Y-37875D01*
X28809Y-37830D01*
X28809Y-37783D01*
X28809Y-37508D01*
X28799Y-37462D01*
X28782Y-37419D01*
X28756Y-37380D01*
X28723Y-37348D01*
X28684Y-37322D01*
X28641Y-37304D01*
X28641Y-37304D01*
X28641Y-37303D01*
X28632Y-37257D01*
X28614Y-37214D01*
X28600Y-37193D01*
X28614Y-37172D01*
X28632Y-37129D01*
X28641Y-37084D01*
X28641Y-37037D01*
X28641Y-36707D01*
X28641Y-36707D01*
X28684Y-36689D01*
X28723Y-36663D01*
X28756Y-36630D01*
X28782Y-36592D01*
X28799Y-36549D01*
X28809Y-36503D01*
X28809Y-36457D01*
X28809Y-36181D01*
X28799Y-36135D01*
X28782Y-36092D01*
X28756Y-36054D01*
X28723Y-36021D01*
X28684Y-35995D01*
X28641Y-35977D01*
X28596Y-35968D01*
X28549Y-35968D01*
X28340Y-35968D01*
X28340Y-33712D01*
X28596Y-33712D01*
X28641Y-33703D01*
X28684Y-33685D01*
X28723Y-33659D01*
X28756Y-33626D01*
X28782Y-33588D01*
X28799Y-33545D01*
X28809Y-33499D01*
X28809Y-33453D01*
X28809Y-33177D01*
X28799Y-33131D01*
X28782Y-33088D01*
X28756Y-33050D01*
X28723Y-33017D01*
X28684Y-32991D01*
X28641Y-32973D01*
X28641Y-32973D01*
X28641Y-32972D01*
X28632Y-32927D01*
X28614Y-32884D01*
X28600Y-32863D01*
X28614Y-32842D01*
X28632Y-32799D01*
X28641Y-32753D01*
X28641Y-32707D01*
X28641Y-32376D01*
X28641Y-32376D01*
X28684Y-32358D01*
X28723Y-32333D01*
X28756Y-32300D01*
X28782Y-32261D01*
X28799Y-32218D01*
X28809Y-32172D01*
X28809Y-32126D01*
X28809Y-31850D01*
X28799Y-31805D01*
X28782Y-31762D01*
X28756Y-31723D01*
X28723Y-31690D01*
X28684Y-31664D01*
X28641Y-31646D01*
X28596Y-31637D01*
X28549Y-31637D01*
X28340Y-31637D01*
X28340Y-29578D01*
X28596Y-29578D01*
X28641Y-29569D01*
X28684Y-29551D01*
X28723Y-29526D01*
X28756Y-29493D01*
X28782Y-29454D01*
X28799Y-29411D01*
X28809Y-29365D01*
X28809Y-29319D01*
X28809Y-29043D01*
X28799Y-28998D01*
X28782Y-28955D01*
X28756Y-28916D01*
X28723Y-28883D01*
X28684Y-28857D01*
X28641Y-28839D01*
X28641Y-28839D01*
X28641Y-28838D01*
X28632Y-28793D01*
X28614Y-28750D01*
X28600Y-28729D01*
X28614Y-28708D01*
X28632Y-28665D01*
X28641Y-28619D01*
X28641Y-28573D01*
X28641Y-28242D01*
X28641Y-28242D01*
X28684Y-28225D01*
X28723Y-28199D01*
X28756Y-28166D01*
X28782Y-28127D01*
X28799Y-28084D01*
X28809Y-28039D01*
X28809Y-27992D01*
X28809Y-27716D01*
X28799Y-27671D01*
X28782Y-27628D01*
X28756Y-27589D01*
X28723Y-27556D01*
X28684Y-27530D01*
X28641Y-27513D01*
X28596Y-27503D01*
X28549Y-27503D01*
X28340Y-27503D01*
X28340Y-25444D01*
X28596Y-25444D01*
X28641Y-25435D01*
X28684Y-25417D01*
X28723Y-25392D01*
X28756Y-25359D01*
X28782Y-25320D01*
X28799Y-25277D01*
X28809Y-25231D01*
X28809Y-25185D01*
X28809Y-24909D01*
X28799Y-24864D01*
X28782Y-24821D01*
X28756Y-24782D01*
X28723Y-24749D01*
X28684Y-24723D01*
X28641Y-24705D01*
X28641Y-24705D01*
X28641Y-24705D01*
X28632Y-24659D01*
X28614Y-24616D01*
X28600Y-24595D01*
X28614Y-24574D01*
X28632Y-24531D01*
X28641Y-24485D01*
X28641Y-24439D01*
X28641Y-24109D01*
X28641Y-24109D01*
X28684Y-24091D01*
X28723Y-24065D01*
X28756Y-24032D01*
X28782Y-23993D01*
X28799Y-23950D01*
X28809Y-23905D01*
X28809Y-23858D01*
X28809Y-23583D01*
X28799Y-23537D01*
X28782Y-23494D01*
X28756Y-23455D01*
X28723Y-23422D01*
X28684Y-23396D01*
X28641Y-23379D01*
X28596Y-23370D01*
X28549Y-23370D01*
X27309Y-23370D01*
X27263Y-23379D01*
X27220Y-23396D01*
X27182Y-23422D01*
X27149Y-23455D01*
X27123Y-23494D01*
X27105Y-23537D01*
X27096Y-23583D01*
X27096Y-23629D01*
X27096Y-23773D01*
X26980Y-23773D01*
X26944Y-23777D01*
X26908Y-23780D01*
X26907Y-23780D01*
X26904Y-23781D01*
X26870Y-23791D01*
X26836Y-23801D01*
X26834Y-23802D01*
X26832Y-23802D01*
X26800Y-23819D01*
X26769Y-23836D01*
X26767Y-23837D01*
X26765Y-23838D01*
X26737Y-23861D01*
X26709Y-23883D01*
X26707Y-23886D01*
X26707Y-23886D01*
X26707Y-23886D01*
X26706Y-23887D01*
X26143Y-24450D01*
X26120Y-24477D01*
X26097Y-24505D01*
X26096Y-24507D01*
X26095Y-24508D01*
X26078Y-24540D01*
X26060Y-24571D01*
X26060Y-24573D01*
X26059Y-24575D01*
X26048Y-24609D01*
X26038Y-24643D01*
X26037Y-24645D01*
X26037Y-24647D01*
X26033Y-24683D01*
X26029Y-24718D01*
X26029Y-24722D01*
X26029Y-24723D01*
X26029Y-24723D01*
X26029Y-24724D01*
X26029Y-25980D01*
X26029Y-26771D01*
X26036Y-26846D01*
X26058Y-26919D01*
X26094Y-26986D01*
X26142Y-27044D01*
X26200Y-27093D01*
X26267Y-27129D01*
X26339Y-27151D01*
X26414Y-27159D01*
X26489Y-27152D01*
X26562Y-27131D01*
X26629Y-27096D01*
X26688Y-27048D01*
X26737Y-26990D01*
X26773Y-26924D01*
X26796Y-26852D01*
X26805Y-26777D01*
X26805Y-26771D01*
X26805Y-25980D01*
X26805Y-24885D01*
X27140Y-24549D01*
X27280Y-24549D01*
X27290Y-24574D01*
X27304Y-24595D01*
X27290Y-24616D01*
X27272Y-24659D01*
X27263Y-24705D01*
X27263Y-24705D01*
X27263Y-24705D01*
X27220Y-24723D01*
X27182Y-24749D01*
X27149Y-24782D01*
X27123Y-24821D01*
X27105Y-24864D01*
X27096Y-24909D01*
X27096Y-24956D01*
X27096Y-25231D01*
X27105Y-25277D01*
X27123Y-25320D01*
X27149Y-25359D01*
X27182Y-25392D01*
X27220Y-25417D01*
X27263Y-25435D01*
X27309Y-25444D01*
X27355Y-25444D01*
X27564Y-25444D01*
X27564Y-27503D01*
X27309Y-27503D01*
X27263Y-27513D01*
X27220Y-27530D01*
X27182Y-27556D01*
X27149Y-27589D01*
X27123Y-27628D01*
X27105Y-27671D01*
X27096Y-27716D01*
X27096Y-27763D01*
X27096Y-28039D01*
X27105Y-28084D01*
X27123Y-28127D01*
X27149Y-28166D01*
X27182Y-28199D01*
X27220Y-28225D01*
X27263Y-28242D01*
X27263Y-28242D01*
X27263Y-28619D01*
X27272Y-28665D01*
X27290Y-28708D01*
X27304Y-28729D01*
X27290Y-28750D01*
X27272Y-28793D01*
X27263Y-28838D01*
X27263Y-28839D01*
X27263Y-28839D01*
X27220Y-28857D01*
X27182Y-28883D01*
X27149Y-28916D01*
X27123Y-28955D01*
X27105Y-28998D01*
X27096Y-29043D01*
X27096Y-29090D01*
X27096Y-29365D01*
X27105Y-29411D01*
X27123Y-29454D01*
X27149Y-29493D01*
X27182Y-29526D01*
X27220Y-29551D01*
X27263Y-29569D01*
X27309Y-29578D01*
X27355Y-29578D01*
X27564Y-29578D01*
X27564Y-31637D01*
X27309Y-31637D01*
X27263Y-31646D01*
X27220Y-31664D01*
X27182Y-31690D01*
X27149Y-31723D01*
X27123Y-31762D01*
X27105Y-31805D01*
X27096Y-31850D01*
X27096Y-31897D01*
X27096Y-32172D01*
X27105Y-32218D01*
X27123Y-32261D01*
X27149Y-32300D01*
X27182Y-32333D01*
X27220Y-32358D01*
X27263Y-32376D01*
X27263Y-32376D01*
X27263Y-32753D01*
X27272Y-32799D01*
X27290Y-32842D01*
X27304Y-32863D01*
X27290Y-32884D01*
X27272Y-32927D01*
X27263Y-32972D01*
X27263Y-32973D01*
X27263Y-32973D01*
X27220Y-32991D01*
X27182Y-33017D01*
X27149Y-33050D01*
X27123Y-33088D01*
X27105Y-33131D01*
X27096Y-33177D01*
X27096Y-33224D01*
X27096Y-33499D01*
X27105Y-33545D01*
X27123Y-33588D01*
X27149Y-33626D01*
X27182Y-33659D01*
X27220Y-33685D01*
X27263Y-33703D01*
X27309Y-33712D01*
X27355Y-33712D01*
X27564Y-33712D01*
X27564Y-35968D01*
X27309Y-35968D01*
X27263Y-35977D01*
X27220Y-35995D01*
X27182Y-36021D01*
X27149Y-36054D01*
X27123Y-36092D01*
X27105Y-36135D01*
X27096Y-36181D01*
X27096Y-36227D01*
X27096Y-36503D01*
X27105Y-36549D01*
X27123Y-36592D01*
X27149Y-36630D01*
X27182Y-36663D01*
X27220Y-36689D01*
X27263Y-36707D01*
X27263Y-36707D01*
X27263Y-37084D01*
X27272Y-37129D01*
X27290Y-37172D01*
X27304Y-37193D01*
X27290Y-37214D01*
X27272Y-37257D01*
X27263Y-37303D01*
X27263Y-37304D01*
X27263Y-37304D01*
X27220Y-37322D01*
X27182Y-37348D01*
X27149Y-37380D01*
X27123Y-37419D01*
X27105Y-37462D01*
X27096Y-37508D01*
X27096Y-37554D01*
X27096Y-37830D01*
X27105Y-37875D01*
X27123Y-37918D01*
X27149Y-37957D01*
X27182Y-37990D01*
X27220Y-38016D01*
X27263Y-38034D01*
X27309Y-38043D01*
X27355Y-38043D01*
X27564Y-38043D01*
X27564Y-40102D01*
X27309Y-40102D01*
X27263Y-40111D01*
X27220Y-40129D01*
X27182Y-40155D01*
X27149Y-40188D01*
X27123Y-40226D01*
X27105Y-40269D01*
X27096Y-40315D01*
X27096Y-40361D01*
X27096Y-40637D01*
X27105Y-40683D01*
X27123Y-40726D01*
X27149Y-40764D01*
X27182Y-40797D01*
X27220Y-40823D01*
X27263Y-40841D01*
X27263Y-40841D01*
X27263Y-41218D01*
X27272Y-41263D01*
X27290Y-41306D01*
X27304Y-41327D01*
X27290Y-41348D01*
X27272Y-41391D01*
X27263Y-41437D01*
X27263Y-41438D01*
X27263Y-41438D01*
X27220Y-41456D01*
X27182Y-41481D01*
X27149Y-41514D01*
X27123Y-41553D01*
X27105Y-41596D01*
X27096Y-41642D01*
X27096Y-41688D01*
X27096Y-41964D01*
X27105Y-42009D01*
X27123Y-42052D01*
X27149Y-42091D01*
X27182Y-42124D01*
X27220Y-42150D01*
X27263Y-42168D01*
X27309Y-42177D01*
X27355Y-42177D01*
X27564Y-42177D01*
X27564Y-44236D01*
X27309Y-44236D01*
X27263Y-44245D01*
X27220Y-44263D01*
X27182Y-44288D01*
X27149Y-44321D01*
X27123Y-44360D01*
X27105Y-44403D01*
X27096Y-44449D01*
X27096Y-44495D01*
X27096Y-44771D01*
X27105Y-44816D01*
X27123Y-44859D01*
X27149Y-44898D01*
X27182Y-44931D01*
X27220Y-44957D01*
X27263Y-44975D01*
X27263Y-44975D01*
X27263Y-45352D01*
X27272Y-45397D01*
X27290Y-45440D01*
X27304Y-45461D01*
X27290Y-45482D01*
X27272Y-45525D01*
X27263Y-45571D01*
X27263Y-45572D01*
X27263Y-45572D01*
X27220Y-45589D01*
X27182Y-45615D01*
X27149Y-45648D01*
X27123Y-45687D01*
X27105Y-45730D01*
X27096Y-45775D01*
X27096Y-45822D01*
X27096Y-46098D01*
X27104Y-46136D01*
X27097Y-46142D01*
X27049Y-46200D01*
X27048Y-46201D01*
X27048Y-44330D01*
X27048Y-43346D01*
X27046Y-43324D01*
X27044Y-43302D01*
X27044Y-43301D01*
X27044Y-43300D01*
X27037Y-43279D01*
X27031Y-43258D01*
X27031Y-43257D01*
X27030Y-43255D01*
X27028Y-43251D01*
X27024Y-43230D01*
X27004Y-43183D01*
X26976Y-43140D01*
X26939Y-43103D01*
X26897Y-43074D01*
X26849Y-43054D01*
X26799Y-43044D01*
X26747Y-43044D01*
X26697Y-43053D01*
X26649Y-43073D01*
X26606Y-43101D01*
X26569Y-43137D01*
X26540Y-43179D01*
X26519Y-43227D01*
X26509Y-43277D01*
X26508Y-43329D01*
X26517Y-43379D01*
X26536Y-43427D01*
X26564Y-43471D01*
X26573Y-43479D01*
X26573Y-44232D01*
X26289Y-44516D01*
X26255Y-44529D01*
X26212Y-44557D01*
X26175Y-44594D01*
X26146Y-44636D01*
X26126Y-44683D01*
X26115Y-44734D01*
X26114Y-44785D01*
X26124Y-44836D01*
X26143Y-44884D01*
X26171Y-44927D01*
X26206Y-44964D01*
X26249Y-44994D01*
X26296Y-45014D01*
X26346Y-45025D01*
X26398Y-45027D01*
X26448Y-45018D01*
X26497Y-44999D01*
X26540Y-44971D01*
X26577Y-44936D01*
X26607Y-44894D01*
X26626Y-44851D01*
X26979Y-44498D01*
X26993Y-44481D01*
X27007Y-44465D01*
X27007Y-44463D01*
X27008Y-44462D01*
X27019Y-44443D01*
X27029Y-44424D01*
X27029Y-44423D01*
X27030Y-44422D01*
X27036Y-44401D01*
X27043Y-44380D01*
X27043Y-44378D01*
X27044Y-44377D01*
X27046Y-44355D01*
X27048Y-44334D01*
X27048Y-44331D01*
X27048Y-44331D01*
X27048Y-44331D01*
X27048Y-44330D01*
X27048Y-46201D01*
X27013Y-46267D01*
X26991Y-46339D01*
X26983Y-46414D01*
X26990Y-46489D01*
X27011Y-46562D01*
X27046Y-46629D01*
X27094Y-46688D01*
X27152Y-46737D01*
X27218Y-46773D01*
X27290Y-46796D01*
X27365Y-46805D01*
X27371Y-46805D01*
X27952Y-46805D01*
X27989Y-46801D01*
X28025Y-46798D01*
X28026Y-46797D01*
X28028Y-46797D01*
X28063Y-46787D01*
X28098Y-46776D01*
X28099Y-46776D01*
X28100Y-46775D01*
X28132Y-46758D01*
X28165Y-46741D01*
X28166Y-46740D01*
X28167Y-46740D01*
X28195Y-46717D01*
X28224Y-46694D01*
X28224Y-46693D01*
X28226Y-46692D01*
X28249Y-46664D01*
X28272Y-46636D01*
X28273Y-46635D01*
X28274Y-46634D01*
X28291Y-46602D01*
X28309Y-46570D01*
X28309Y-46568D01*
X28310Y-46567D01*
X28321Y-46532D01*
X28332Y-46497D01*
X28332Y-46496D01*
X28332Y-46495D01*
X28336Y-46458D01*
X28340Y-46422D01*
X28340Y-46420D01*
X28340Y-46420D01*
X28340Y-46419D01*
X28340Y-46417D01*
X28340Y-46311D01*
X28596Y-46311D01*
X28641Y-46301D01*
X28684Y-46284D01*
X28723Y-46258D01*
X28756Y-46225D01*
X28782Y-46186D01*
X28799Y-46143D01*
X28809Y-46098D01*
X28809Y-48726D01*
X28075Y-47992D01*
X28318Y-47748D01*
X28351Y-47727D01*
X28388Y-47692D01*
X28418Y-47650D01*
X28439Y-47603D01*
X28450Y-47552D01*
X28451Y-47493D01*
X28441Y-47443D01*
X28422Y-47395D01*
X28393Y-47352D01*
X28357Y-47316D01*
X28314Y-47287D01*
X28267Y-47267D01*
X28216Y-47257D01*
X28165Y-47256D01*
X28114Y-47266D01*
X28066Y-47285D01*
X28023Y-47313D01*
X27986Y-47349D01*
X27957Y-47392D01*
X27937Y-47439D01*
X27926Y-47490D01*
X27925Y-47541D01*
X27932Y-47575D01*
X27795Y-47712D01*
X27620Y-47537D01*
X27606Y-47525D01*
X27592Y-47513D01*
X27591Y-47513D01*
X27590Y-47512D01*
X27574Y-47504D01*
X27558Y-47495D01*
X27557Y-47495D01*
X27556Y-47494D01*
X27538Y-47489D01*
X27521Y-47483D01*
X27520Y-47483D01*
X27519Y-47483D01*
X27501Y-47481D01*
X27483Y-47479D01*
X27481Y-47479D01*
X27481Y-47479D01*
X27480Y-47479D01*
X27480Y-47479D01*
X27339Y-47479D01*
X27333Y-47473D01*
X27290Y-47444D01*
X27243Y-47424D01*
X27192Y-47414D01*
X27141Y-47414D01*
X27090Y-47423D01*
X27043Y-47443D01*
X26999Y-47471D01*
X26963Y-47507D01*
X26933Y-47549D01*
X26913Y-47597D01*
X26902Y-47647D01*
X26902Y-47699D01*
X26911Y-47749D01*
X26930Y-47797D01*
X26958Y-47841D01*
X26994Y-47878D01*
X27036Y-47907D01*
X27083Y-47928D01*
X27134Y-47939D01*
X27185Y-47940D01*
X27236Y-47931D01*
X27284Y-47912D01*
X27327Y-47885D01*
X27338Y-47874D01*
X27398Y-47874D01*
X27655Y-48131D01*
X27655Y-48131D01*
X28699Y-49176D01*
X28699Y-49881D01*
X28697Y-49876D01*
X28669Y-49833D01*
X28632Y-49796D01*
X28590Y-49767D01*
X28542Y-49747D01*
X28492Y-49737D01*
X28440Y-49737D01*
X28390Y-49746D01*
X28342Y-49765D01*
X28299Y-49794D01*
X28262Y-49830D01*
X28233Y-49872D01*
X28212Y-49920D01*
X28202Y-49970D01*
X28201Y-50022D01*
X28210Y-50072D01*
X28229Y-50120D01*
X28254Y-50159D01*
X28254Y-51279D01*
X28150Y-51279D01*
X28150Y-49251D01*
X28148Y-49233D01*
X28147Y-49215D01*
X28146Y-49214D01*
X28146Y-49213D01*
X28141Y-49196D01*
X28136Y-49178D01*
X28135Y-49177D01*
X28135Y-49176D01*
X28127Y-49160D01*
X28118Y-49144D01*
X28117Y-49143D01*
X28117Y-49142D01*
X28105Y-49128D01*
X28094Y-49114D01*
X28093Y-49112D01*
X28093Y-49112D01*
X28093Y-49112D01*
X28092Y-49112D01*
X28060Y-49079D01*
X28060Y-49079D01*
X28060Y-49079D01*
X28057Y-49077D01*
X28058Y-49068D01*
X28048Y-49018D01*
X28028Y-48970D01*
X27999Y-48927D01*
X27963Y-48891D01*
X27920Y-48862D01*
X27873Y-48842D01*
X27822Y-48831D01*
X27771Y-48831D01*
X27720Y-48841D01*
X27672Y-48860D01*
X27629Y-48888D01*
X27592Y-48924D01*
X27563Y-48967D01*
X27543Y-49014D01*
X27532Y-49065D01*
X27532Y-49116D01*
X27541Y-49167D01*
X27560Y-49215D01*
X27588Y-49258D01*
X27624Y-49295D01*
X27666Y-49324D01*
X27713Y-49345D01*
X27754Y-49354D01*
X27754Y-51279D01*
X27106Y-51279D01*
X27106Y-52460D01*
X27254Y-52460D01*
X27254Y-52610D01*
X27256Y-52628D01*
X27258Y-52646D01*
X27258Y-52647D01*
X27258Y-52648D01*
X27264Y-52666D01*
X27269Y-52683D01*
X27269Y-52684D01*
X27269Y-52685D01*
X27278Y-52701D01*
X27286Y-52717D01*
X27287Y-52718D01*
X27288Y-52719D01*
X27299Y-52733D01*
X27310Y-52748D01*
X27312Y-52749D01*
X27312Y-52749D01*
X27312Y-52749D01*
X27312Y-52750D01*
X27419Y-52856D01*
X27433Y-52868D01*
X27447Y-52879D01*
X27448Y-52880D01*
X27449Y-52880D01*
X27465Y-52889D01*
X27481Y-52898D01*
X27482Y-52898D01*
X27483Y-52899D01*
X27500Y-52904D01*
X27517Y-52910D01*
X27518Y-52910D01*
X27519Y-52910D01*
X27538Y-52912D01*
X27556Y-52914D01*
X27558Y-52914D01*
X27558Y-52914D01*
X27558Y-52914D01*
X27559Y-52914D01*
X28582Y-52914D01*
X28600Y-52912D01*
X28619Y-52910D01*
X28620Y-52910D01*
X28621Y-52910D01*
X28638Y-52905D01*
X28656Y-52900D01*
X28657Y-52899D01*
X28658Y-52899D01*
X28674Y-52890D01*
X28690Y-52882D01*
X28691Y-52881D01*
X28692Y-52881D01*
X28706Y-52869D01*
X28720Y-52858D01*
X28722Y-52856D01*
X28722Y-52856D01*
X28722Y-52856D01*
X28722Y-52856D01*
X29628Y-51950D01*
X29639Y-51936D01*
X29651Y-51922D01*
X29651Y-51921D01*
X29652Y-51921D01*
X29661Y-51904D01*
X29669Y-51888D01*
X29670Y-51887D01*
X29670Y-51887D01*
X29676Y-51869D01*
X29681Y-51852D01*
X29681Y-51851D01*
X29682Y-51850D01*
X29683Y-51831D01*
X29685Y-51813D01*
X29685Y-51811D01*
X29685Y-51811D01*
X29685Y-51811D01*
X29685Y-51811D01*
X29685Y-49820D01*
X29688Y-49818D01*
X29717Y-49776D01*
X29738Y-49729D01*
X29750Y-49678D01*
X29750Y-49619D01*
X29750Y-54350D01*
X26010Y-54350D01*
X26010Y-40446D01*
X26000Y-40396D01*
X25981Y-40348D01*
X25952Y-40305D01*
X25916Y-40268D01*
X25873Y-40240D01*
X25826Y-40220D01*
X25807Y-40216D01*
X25807Y-19212D01*
X25807Y-16456D01*
X25807Y-16456D01*
X25807Y-16455D01*
X25807Y-16448D01*
X25806Y-16440D01*
X25806Y-16432D01*
X25805Y-16429D01*
X25794Y-16330D01*
X25791Y-16314D01*
X25788Y-16299D01*
X25787Y-16296D01*
X25787Y-16296D01*
X25757Y-16201D01*
X25751Y-16186D01*
X25744Y-16171D01*
X25743Y-16169D01*
X25743Y-16169D01*
X25695Y-16082D01*
X25686Y-16068D01*
X25677Y-16055D01*
X25676Y-16053D01*
X25676Y-16053D01*
X25676Y-16053D01*
X25611Y-15977D01*
X25600Y-15965D01*
X25589Y-15954D01*
X25587Y-15952D01*
X25587Y-15952D01*
X25587Y-15952D01*
X25509Y-15890D01*
X25495Y-15881D01*
X25482Y-15872D01*
X25480Y-15871D01*
X25480Y-15871D01*
X25480Y-15871D01*
X25391Y-15825D01*
X25377Y-15819D01*
X25362Y-15812D01*
X25359Y-15812D01*
X25359Y-15812D01*
X25359Y-15812D01*
X25264Y-15783D01*
X25248Y-15780D01*
X25232Y-15777D01*
X25230Y-15777D01*
X25130Y-15768D01*
X25114Y-15768D01*
X25098Y-15768D01*
X25096Y-15768D01*
X24996Y-15779D01*
X24980Y-15782D01*
X24965Y-15785D01*
X24962Y-15786D01*
X24962Y-15786D01*
X24962Y-15786D01*
X24867Y-15815D01*
X24852Y-15821D01*
X24837Y-15827D01*
X24835Y-15829D01*
X24835Y-15829D01*
X24835Y-15829D01*
X24747Y-15876D01*
X24734Y-15885D01*
X24720Y-15894D01*
X24718Y-15895D01*
X24718Y-15895D01*
X24718Y-15895D01*
X24642Y-15959D01*
X24630Y-15970D01*
X24619Y-15982D01*
X24617Y-15984D01*
X24554Y-16061D01*
X24545Y-16074D01*
X24536Y-16088D01*
X24535Y-16090D01*
X24535Y-16090D01*
X24535Y-16090D01*
X24535Y-16090D01*
X24488Y-16178D01*
X24482Y-16193D01*
X24476Y-16208D01*
X24475Y-16210D01*
X24446Y-16306D01*
X24443Y-16321D01*
X24439Y-16337D01*
X24439Y-16339D01*
X24439Y-16339D01*
X24439Y-16339D01*
X24429Y-16439D01*
X24429Y-16446D01*
X24429Y-16454D01*
X24429Y-16456D01*
X24429Y-19212D01*
X24429Y-19212D01*
X24429Y-19213D01*
X24429Y-19220D01*
X24430Y-19228D01*
X24430Y-19237D01*
X24430Y-19239D01*
X24441Y-19338D01*
X24444Y-19354D01*
X24447Y-19370D01*
X24448Y-19372D01*
X24478Y-19467D01*
X24485Y-19482D01*
X24491Y-19497D01*
X24492Y-19499D01*
X24492Y-19499D01*
X24492Y-19499D01*
X24540Y-19587D01*
X24549Y-19600D01*
X24558Y-19613D01*
X24560Y-19615D01*
X24560Y-19615D01*
X24560Y-19615D01*
X24560Y-19615D01*
X24624Y-19692D01*
X24635Y-19703D01*
X24647Y-19714D01*
X24649Y-19716D01*
X24649Y-19716D01*
X24649Y-19716D01*
X24649Y-19716D01*
X24726Y-19778D01*
X24740Y-19787D01*
X24753Y-19796D01*
X24755Y-19797D01*
X24755Y-19797D01*
X24755Y-19797D01*
X24844Y-19844D01*
X24859Y-19850D01*
X24873Y-19856D01*
X24876Y-19857D01*
X24876Y-19857D01*
X24972Y-19885D01*
X24987Y-19888D01*
X25003Y-19891D01*
X25006Y-19891D01*
X25006Y-19891D01*
X25105Y-19900D01*
X25121Y-19900D01*
X25137Y-19900D01*
X25140Y-19900D01*
X25239Y-19890D01*
X25255Y-19886D01*
X25271Y-19883D01*
X25273Y-19883D01*
X25273Y-19883D01*
X25273Y-19883D01*
X25273Y-19883D01*
X25368Y-19853D01*
X25383Y-19847D01*
X25398Y-19841D01*
X25400Y-19840D01*
X25400Y-19840D01*
X25400Y-19840D01*
X25400Y-19840D01*
X25488Y-19792D01*
X25501Y-19783D01*
X25515Y-19774D01*
X25517Y-19773D01*
X25517Y-19773D01*
X25517Y-19773D01*
X25517Y-19773D01*
X25594Y-19709D01*
X25605Y-19698D01*
X25616Y-19687D01*
X25618Y-19685D01*
X25618Y-19685D01*
X25618Y-19685D01*
X25618Y-19685D01*
X25681Y-19607D01*
X25690Y-19594D01*
X25699Y-19581D01*
X25700Y-19579D01*
X25700Y-19579D01*
X25700Y-19579D01*
X25700Y-19579D01*
X25747Y-19490D01*
X25753Y-19475D01*
X25760Y-19461D01*
X25760Y-19458D01*
X25760Y-19458D01*
X25789Y-19363D01*
X25792Y-19347D01*
X25796Y-19331D01*
X25796Y-19329D01*
X25796Y-19329D01*
X25796Y-19329D01*
X25796Y-19329D01*
X25806Y-19229D01*
X25806Y-19222D01*
X25807Y-19215D01*
X25807Y-19212D01*
X25807Y-40216D01*
X25775Y-40209D01*
X25724Y-40209D01*
X25673Y-40219D01*
X25625Y-40238D01*
X25582Y-40266D01*
X25545Y-40302D01*
X25516Y-40345D01*
X25496Y-40392D01*
X25485Y-40443D01*
X25485Y-40455D01*
X25272Y-40668D01*
X24977Y-40668D01*
X24971Y-40662D01*
X24928Y-40633D01*
X24881Y-40613D01*
X24830Y-40603D01*
X24779Y-40603D01*
X24728Y-40612D01*
X24680Y-40632D01*
X24637Y-40660D01*
X24600Y-40696D01*
X24571Y-40738D01*
X24551Y-40786D01*
X24540Y-40836D01*
X24540Y-40888D01*
X24549Y-40938D01*
X24568Y-40986D01*
X24596Y-41030D01*
X24632Y-41067D01*
X24674Y-41096D01*
X24721Y-41117D01*
X24771Y-41128D01*
X24823Y-41129D01*
X24874Y-41120D01*
X24922Y-41101D01*
X24965Y-41074D01*
X24976Y-41063D01*
X25354Y-41063D01*
X25372Y-41062D01*
X25390Y-41060D01*
X25391Y-41060D01*
X25392Y-41060D01*
X25410Y-41054D01*
X25427Y-41049D01*
X25428Y-41049D01*
X25429Y-41049D01*
X25445Y-41040D01*
X25462Y-41032D01*
X25462Y-41031D01*
X25463Y-41030D01*
X25477Y-41019D01*
X25492Y-41007D01*
X25493Y-41006D01*
X25493Y-41006D01*
X25493Y-41006D01*
X25494Y-41006D01*
X25764Y-40735D01*
X25768Y-40735D01*
X25819Y-40726D01*
X25867Y-40708D01*
X25910Y-40680D01*
X25947Y-40644D01*
X25977Y-40602D01*
X25998Y-40555D01*
X26010Y-40505D01*
X26010Y-40446D01*
X26010Y-54350D01*
X25807Y-54350D01*
X25807Y-53228D01*
X25807Y-50472D01*
X25807Y-50472D01*
X25807Y-50471D01*
X25807Y-50464D01*
X25806Y-50456D01*
X25806Y-50448D01*
X25805Y-50445D01*
X25794Y-50346D01*
X25791Y-50330D01*
X25788Y-50314D01*
X25787Y-50312D01*
X25787Y-50312D01*
X25757Y-50217D01*
X25751Y-50202D01*
X25744Y-50187D01*
X25743Y-50185D01*
X25743Y-50185D01*
X25695Y-50097D01*
X25686Y-50084D01*
X25677Y-50071D01*
X25676Y-50069D01*
X25676Y-50069D01*
X25676Y-50069D01*
X25611Y-49992D01*
X25600Y-49981D01*
X25589Y-49970D01*
X25587Y-49968D01*
X25587Y-49968D01*
X25587Y-49968D01*
X25509Y-49906D01*
X25495Y-49897D01*
X25482Y-49888D01*
X25480Y-49887D01*
X25480Y-49887D01*
X25480Y-49887D01*
X25391Y-49840D01*
X25377Y-49834D01*
X25362Y-49828D01*
X25359Y-49827D01*
X25359Y-49827D01*
X25359Y-49827D01*
X25264Y-49799D01*
X25248Y-49796D01*
X25232Y-49793D01*
X25230Y-49793D01*
X25130Y-49784D01*
X25114Y-49784D01*
X25098Y-49784D01*
X25096Y-49784D01*
X24996Y-49794D01*
X24980Y-49798D01*
X24965Y-49801D01*
X24962Y-49801D01*
X24962Y-49801D01*
X24962Y-49801D01*
X24867Y-49831D01*
X24852Y-49837D01*
X24837Y-49843D01*
X24835Y-49844D01*
X24835Y-49844D01*
X24835Y-49844D01*
X24747Y-49892D01*
X24734Y-49901D01*
X24720Y-49910D01*
X24718Y-49911D01*
X24718Y-49911D01*
X24718Y-49911D01*
X24642Y-49975D01*
X24630Y-49986D01*
X24619Y-49997D01*
X24617Y-49999D01*
X24554Y-50077D01*
X24545Y-50090D01*
X24536Y-50103D01*
X24535Y-50106D01*
X24535Y-50106D01*
X24535Y-50106D01*
X24535Y-50106D01*
X24488Y-50194D01*
X24482Y-50209D01*
X24476Y-50223D01*
X24475Y-50226D01*
X24446Y-50321D01*
X24443Y-50337D01*
X24439Y-50353D01*
X24439Y-50355D01*
X24439Y-50355D01*
X24439Y-50355D01*
X24429Y-50455D01*
X24429Y-50462D01*
X24429Y-50469D01*
X24429Y-50472D01*
X24429Y-53228D01*
X24429Y-53228D01*
X24429Y-53229D01*
X24429Y-53236D01*
X24430Y-53244D01*
X24430Y-53252D01*
X24430Y-53255D01*
X24441Y-53354D01*
X24444Y-53370D01*
X24447Y-53385D01*
X24448Y-53388D01*
X24478Y-53483D01*
X24485Y-53498D01*
X24491Y-53513D01*
X24492Y-53515D01*
X24492Y-53515D01*
X24492Y-53515D01*
X24540Y-53602D01*
X24549Y-53616D01*
X24558Y-53629D01*
X24560Y-53631D01*
X24560Y-53631D01*
X24560Y-53631D01*
X24560Y-53631D01*
X24624Y-53707D01*
X24635Y-53719D01*
X24647Y-53730D01*
X24649Y-53732D01*
X24649Y-53732D01*
X24649Y-53732D01*
X24649Y-53732D01*
X24726Y-53794D01*
X24740Y-53803D01*
X24753Y-53812D01*
X24755Y-53813D01*
X24755Y-53813D01*
X24755Y-53813D01*
X24844Y-53859D01*
X24859Y-53865D01*
X24873Y-53872D01*
X24876Y-53872D01*
X24876Y-53872D01*
X24972Y-53901D01*
X24987Y-53904D01*
X25003Y-53907D01*
X25006Y-53907D01*
X25006Y-53907D01*
X25105Y-53916D01*
X25121Y-53916D01*
X25137Y-53916D01*
X25140Y-53916D01*
X25239Y-53905D01*
X25255Y-53902D01*
X25271Y-53899D01*
X25273Y-53898D01*
X25273Y-53898D01*
X25273Y-53898D01*
X25273Y-53898D01*
X25368Y-53869D01*
X25383Y-53863D01*
X25398Y-53857D01*
X25400Y-53856D01*
X25400Y-53856D01*
X25400Y-53856D01*
X25400Y-53856D01*
X25488Y-53808D01*
X25501Y-53799D01*
X25515Y-53790D01*
X25517Y-53789D01*
X25517Y-53789D01*
X25517Y-53789D01*
X25517Y-53789D01*
X25594Y-53725D01*
X25605Y-53714D01*
X25616Y-53702D01*
X25618Y-53700D01*
X25618Y-53700D01*
X25618Y-53700D01*
X25618Y-53700D01*
X25681Y-53623D01*
X25690Y-53610D01*
X25699Y-53596D01*
X25700Y-53594D01*
X25700Y-53594D01*
X25700Y-53594D01*
X25700Y-53594D01*
X25747Y-53506D01*
X25753Y-53491D01*
X25760Y-53476D01*
X25760Y-53474D01*
X25760Y-53474D01*
X25789Y-53378D01*
X25792Y-53363D01*
X25796Y-53347D01*
X25796Y-53345D01*
X25796Y-53345D01*
X25796Y-53345D01*
X25796Y-53345D01*
X25806Y-53245D01*
X25806Y-53238D01*
X25807Y-53230D01*
X25807Y-53228D01*
X25807Y-54350D01*
X25008Y-54350D01*
X24805Y-54330D01*
X24617Y-54273D01*
X24444Y-54181D01*
X24293Y-54058D01*
X24168Y-53907D01*
X24075Y-53735D01*
X24017Y-53548D01*
X23996Y-53345D01*
X23996Y-16347D01*
X24016Y-16143D01*
X24072Y-15956D01*
X24164Y-15783D01*
X24288Y-15631D01*
X24439Y-15506D01*
X24611Y-15413D01*
X24798Y-15355D01*
X25001Y-15334D01*
X30896Y-15334D01*
X31100Y-15354D01*
X31287Y-15411D01*
X31460Y-15503D01*
X31612Y-15626D01*
X31737Y-15777D01*
X31830Y-15949D01*
X31888Y-16136D01*
X31909Y-16339D01*
X31909Y-53337D01*
M02*
