%FSLAX34Y34*%
G04 Gerber Fmt 3.4, Leading zero omitted, Abs format*
G04 (created by PCBNEW (2014-05-29 BZR 4898)-product) date Thu 29 May 2014 09:35:06 PM CEST*
%MOIN*%
G01*
G70*
G90*
G04 APERTURE LIST*
%ADD10C,0.005906*%
%ADD11C,0.007874*%
G04 APERTURE END LIST*
G54D10*
G54D11*
X27519Y-16456D02*
G75*
G03X26496Y-16456I-511J0D01*
G74*
G01*
X26496Y-17519D02*
X26496Y-16456D01*
X27519Y-17519D02*
X27519Y-16456D01*
X26496Y-17519D02*
G75*
G03X27519Y-17519I511J0D01*
G74*
G01*
X29409Y-16456D02*
G75*
G03X28385Y-16456I-511J0D01*
G74*
G01*
X29409Y-17519D02*
X29409Y-16456D01*
X28385Y-17519D02*
X28385Y-16456D01*
X28385Y-17519D02*
G75*
G03X29409Y-17519I511J0D01*
G74*
G01*
X31299Y-18290D02*
X31299Y-16456D01*
X31299Y-53228D02*
X31299Y-48502D01*
X30275Y-48503D02*
X30275Y-53228D01*
X30275Y-53228D02*
G75*
G03X31299Y-53228I511J0D01*
G74*
G01*
X31299Y-48503D02*
G75*
G03X30275Y-48503I-511J0D01*
G74*
G01*
X25629Y-48503D02*
G75*
G03X24606Y-48503I-511J0D01*
G74*
G01*
X24606Y-53228D02*
G75*
G03X25629Y-53228I511J0D01*
G74*
G01*
X31299Y-21181D02*
X31299Y-18290D01*
X30275Y-16456D02*
X30275Y-21181D01*
X25629Y-21181D02*
X25629Y-16456D01*
X24606Y-16456D02*
X24606Y-21181D01*
X31299Y-16456D02*
G75*
G03X30275Y-16456I-511J0D01*
G74*
G01*
X30275Y-21181D02*
G75*
G03X31299Y-21181I511J0D01*
G74*
G01*
X24606Y-21181D02*
G75*
G03X25629Y-21181I511J0D01*
G74*
G01*
X25629Y-16456D02*
G75*
G03X24606Y-16456I-511J0D01*
G74*
G01*
X24606Y-48503D02*
X24606Y-53228D01*
X25629Y-53228D02*
X25629Y-48503D01*
X30905Y-54527D02*
G75*
G03X32086Y-53346I0J1181D01*
G74*
G01*
X23818Y-53346D02*
G75*
G03X25000Y-54527I1181J0D01*
G74*
G01*
X32086Y-16338D02*
G75*
G03X30905Y-15157I-1181J0D01*
G74*
G01*
X25000Y-15157D02*
G75*
G03X23818Y-16338I0J-1181D01*
G74*
G01*
X30905Y-15157D02*
X25000Y-15157D01*
X32086Y-53346D02*
X32086Y-16338D01*
X25000Y-54527D02*
X30905Y-54527D01*
X23818Y-16338D02*
X23818Y-53346D01*
M02*
