%FSLAX34Y34*%
G04 Gerber Fmt 3.4, Leading zero omitted, Abs format*
G04 (created by PCBNEW (2014-05-27 BZR 4891)-product) date Wed 28 May 2014 06:52:20 AM CEST*
%MOIN*%
G01*
G70*
G90*
G04 APERTURE LIST*
%ADD10C,0.005906*%
%ADD11C,0.009843*%
%ADD12R,0.065000X0.065000*%
%ADD13C,0.065000*%
%ADD14R,0.059000X0.051100*%
%ADD15R,0.098400X0.177200*%
%ADD16R,0.051100X0.059000*%
%ADD17R,0.070866X0.070866*%
%ADD18R,0.039370X0.055118*%
%ADD19R,0.086614X0.027559*%
%ADD20R,0.039300X0.043300*%
%ADD21R,0.049213X0.025591*%
%ADD22R,0.027600X0.063000*%
%ADD23R,0.039400X0.086600*%
%ADD24R,0.070866X0.133858*%
%ADD25R,0.019685X0.019685*%
%ADD26C,0.025000*%
%ADD27C,0.012000*%
%ADD28C,0.020000*%
%ADD29C,0.050000*%
%ADD30C,0.016000*%
%ADD31C,0.008000*%
%ADD32C,0.030000*%
%ADD33C,0.040000*%
%ADD34C,0.007874*%
G04 APERTURE END LIST*
G54D10*
G54D11*
X25071Y-41939D02*
X24771Y-41939D01*
X25071Y-41839D02*
X24771Y-41839D01*
X25071Y-41889D02*
X24771Y-41889D01*
G54D12*
X28952Y-51389D03*
G54D13*
X28952Y-52389D03*
X27952Y-51389D03*
X27952Y-52389D03*
X26952Y-51389D03*
X26952Y-52389D03*
G54D14*
X30157Y-26397D03*
X30157Y-27145D03*
G54D15*
X28719Y-26771D03*
X27185Y-26771D03*
G54D16*
X28326Y-20275D03*
X27578Y-20275D03*
X25964Y-41889D03*
X25216Y-41889D03*
X25964Y-45826D03*
X25216Y-45826D03*
X25964Y-44763D03*
X25216Y-44763D03*
X28326Y-21456D03*
X27578Y-21456D03*
G54D17*
X29527Y-24291D03*
X29527Y-22952D03*
G54D18*
X25728Y-22755D03*
X26476Y-22755D03*
X26102Y-23622D03*
G54D19*
X29452Y-47517D03*
X29452Y-48017D03*
X29452Y-48517D03*
X29452Y-49017D03*
X26452Y-49017D03*
X26452Y-48517D03*
X26452Y-48017D03*
X26452Y-47517D03*
G54D20*
X25768Y-24645D03*
X26436Y-24645D03*
G54D21*
X25078Y-43681D03*
X25078Y-43307D03*
X25078Y-42933D03*
X26102Y-42933D03*
X26102Y-43681D03*
X26102Y-43307D03*
G54D22*
X28543Y-24330D03*
G54D23*
X27952Y-24212D03*
G54D22*
X27361Y-24330D03*
X27361Y-22834D03*
X28543Y-22834D03*
G54D24*
X27952Y-23188D03*
G54D16*
X30295Y-29291D03*
X31043Y-29291D03*
X30492Y-40393D03*
X31240Y-40393D03*
G54D14*
X31102Y-26397D03*
X31102Y-27145D03*
G54D13*
X28452Y-19291D03*
X27452Y-19291D03*
G54D25*
X25071Y-41889D03*
X24771Y-41889D03*
G54D17*
X29409Y-20275D03*
X29409Y-21614D03*
G54D26*
X29488Y-40433D03*
X27007Y-22204D03*
X27952Y-46417D03*
X27670Y-46417D03*
X27371Y-46417D03*
X31102Y-22204D03*
X28661Y-48077D03*
X24803Y-41417D03*
X25590Y-41181D03*
X25078Y-47086D03*
X27795Y-49094D03*
X26771Y-43307D03*
X26377Y-44763D03*
X31023Y-33031D03*
X27913Y-47874D03*
X27125Y-47913D03*
X26417Y-25980D03*
X26417Y-26363D03*
X26417Y-26771D03*
X30669Y-30393D03*
X30944Y-41456D03*
X30275Y-48188D03*
G54D27*
X26952Y-52389D02*
X27555Y-52992D01*
X27555Y-52992D02*
X29370Y-52992D01*
X29527Y-52834D02*
X29527Y-49350D01*
X29370Y-52992D02*
X29527Y-52834D01*
X29527Y-49350D02*
X29452Y-49275D01*
X29452Y-49275D02*
X29452Y-49017D01*
G54D28*
X27519Y-47480D02*
X26811Y-46771D01*
X26811Y-46771D02*
X26811Y-44448D01*
X26811Y-44448D02*
X26535Y-44173D01*
X26535Y-44173D02*
X24606Y-44173D01*
X24606Y-44173D02*
X24606Y-44763D01*
X24606Y-44763D02*
X25216Y-44763D01*
X24685Y-43307D02*
X24606Y-43385D01*
X24606Y-43385D02*
X24606Y-44370D01*
X24771Y-41889D02*
X24685Y-41889D01*
X24685Y-41889D02*
X24606Y-41968D01*
X24606Y-41968D02*
X24606Y-43235D01*
X24677Y-43307D02*
X24685Y-43307D01*
X24606Y-43235D02*
X24677Y-43307D01*
X24685Y-43307D02*
X25078Y-43307D01*
X25216Y-44763D02*
X25216Y-45826D01*
G54D27*
X31043Y-30728D02*
X29488Y-32283D01*
X31043Y-29291D02*
X31043Y-30728D01*
X29488Y-32283D02*
X29488Y-40433D01*
X27519Y-47480D02*
X29488Y-45511D01*
X29488Y-45511D02*
X29488Y-40433D01*
G54D28*
X29452Y-49017D02*
X28566Y-49017D01*
X27519Y-47971D02*
X27519Y-47480D01*
X28566Y-49017D02*
X27519Y-47971D01*
G54D29*
X27952Y-32913D02*
X27952Y-46417D01*
X29527Y-31338D02*
X27952Y-32913D01*
X29527Y-28818D02*
X29527Y-31338D01*
X30609Y-27736D02*
X29527Y-28818D01*
G54D30*
X27007Y-22204D02*
X26968Y-22244D01*
X26968Y-22244D02*
X26968Y-22755D01*
X26968Y-22755D02*
X27047Y-22834D01*
X27047Y-22834D02*
X27361Y-22834D01*
G54D29*
X27952Y-46417D02*
X27670Y-46417D01*
X27670Y-46417D02*
X27371Y-46417D01*
X31102Y-27145D02*
X31102Y-27145D01*
X30609Y-27145D02*
X30609Y-27736D01*
X30157Y-27145D02*
X30609Y-27145D01*
X30609Y-27145D02*
X31102Y-27145D01*
G54D30*
X31557Y-26014D02*
X31557Y-27145D01*
X31259Y-25716D02*
X31557Y-26014D01*
X31259Y-25708D02*
X31259Y-25716D01*
X31102Y-25551D02*
X31259Y-25708D01*
X31557Y-27145D02*
X31102Y-27145D01*
X31102Y-22204D02*
X31102Y-25551D01*
G54D28*
X28937Y-24291D02*
X28897Y-24330D01*
G54D29*
X28719Y-25385D02*
X28908Y-25196D01*
X28908Y-25196D02*
X29476Y-25196D01*
G54D28*
X28897Y-24330D02*
X28543Y-24330D01*
G54D29*
X28719Y-26771D02*
X28719Y-25385D01*
X29476Y-25196D02*
X29527Y-25145D01*
X29527Y-24291D02*
X28937Y-24291D01*
X29527Y-25145D02*
X29527Y-24291D01*
G54D27*
X28950Y-48517D02*
X28661Y-48228D01*
X29452Y-48517D02*
X28950Y-48517D01*
X28661Y-48228D02*
X28661Y-48077D01*
X25768Y-40826D02*
X25590Y-41004D01*
X25768Y-24645D02*
X25768Y-40826D01*
X25590Y-41004D02*
X25590Y-41181D01*
X24803Y-41417D02*
X24330Y-41889D01*
X24330Y-41889D02*
X24330Y-46338D01*
X24330Y-46338D02*
X24953Y-46961D01*
X24953Y-46961D02*
X25078Y-47086D01*
X26811Y-53307D02*
X29488Y-53307D01*
X30629Y-48141D02*
X30005Y-47517D01*
X29488Y-53307D02*
X29842Y-52952D01*
X29842Y-52952D02*
X29842Y-49763D01*
X26952Y-51389D02*
X26417Y-51925D01*
X26417Y-51925D02*
X26417Y-52913D01*
X26417Y-52913D02*
X26811Y-53307D01*
X29842Y-49763D02*
X30629Y-48976D01*
X30629Y-48976D02*
X30629Y-48141D01*
X30005Y-47517D02*
X29452Y-47517D01*
G54D31*
X26452Y-49017D02*
X26812Y-49017D01*
G54D27*
X27952Y-52401D02*
X27952Y-52139D01*
X27417Y-51854D02*
X27952Y-52389D01*
X27417Y-49622D02*
X27417Y-51854D01*
X26812Y-49017D02*
X27417Y-49622D01*
X28952Y-51389D02*
X28952Y-50722D01*
X28952Y-50722D02*
X26748Y-48517D01*
X26748Y-48517D02*
X26452Y-48517D01*
X27795Y-49064D02*
X27795Y-49094D01*
X26452Y-48017D02*
X26748Y-48017D01*
X26748Y-48017D02*
X27795Y-49064D01*
G54D28*
X25964Y-44763D02*
X26377Y-44763D01*
X26771Y-43307D02*
X26102Y-43307D01*
G54D27*
X30492Y-39547D02*
X30492Y-40393D01*
X31023Y-39015D02*
X30492Y-39547D01*
X31023Y-33031D02*
X31023Y-39015D01*
G54D28*
X25964Y-45826D02*
X25964Y-46515D01*
X26452Y-47003D02*
X26452Y-47517D01*
X25964Y-46515D02*
X26452Y-47003D01*
X25964Y-44763D02*
X25964Y-45826D01*
G54D27*
X30492Y-40393D02*
X30492Y-45295D01*
X30492Y-45295D02*
X28038Y-47749D01*
X28038Y-47749D02*
X27913Y-47874D01*
X26452Y-47517D02*
X26748Y-47517D01*
X26748Y-47517D02*
X27125Y-47895D01*
X27125Y-47895D02*
X27125Y-47913D01*
G54D29*
X29409Y-21614D02*
X28759Y-21614D01*
X28759Y-21614D02*
X28622Y-21751D01*
G54D28*
X25964Y-41889D02*
X25964Y-42381D01*
X25964Y-42381D02*
X26102Y-42519D01*
X26102Y-42519D02*
X26102Y-42933D01*
G54D27*
X26102Y-42933D02*
X25767Y-42933D01*
X25492Y-43681D02*
X25078Y-43681D01*
X25590Y-43582D02*
X25492Y-43681D01*
X25590Y-43110D02*
X25590Y-43582D01*
X25767Y-42933D02*
X25590Y-43110D01*
G54D32*
X28622Y-22204D02*
X28558Y-22204D01*
X28558Y-22204D02*
X28543Y-22219D01*
X28543Y-22219D02*
X28543Y-22834D01*
G54D29*
X28622Y-21751D02*
X28622Y-22204D01*
X28326Y-21456D02*
X28622Y-21751D01*
X30157Y-26397D02*
X30157Y-26397D01*
X30608Y-23179D02*
X30381Y-22952D01*
X30608Y-26397D02*
X30608Y-23179D01*
X31102Y-26397D02*
X30608Y-26397D01*
X30381Y-22952D02*
X29527Y-22952D01*
X30608Y-26397D02*
X30157Y-26397D01*
X28326Y-20275D02*
X28326Y-21456D01*
G54D32*
X28761Y-22834D02*
X28761Y-22834D01*
X28543Y-22834D02*
X28761Y-22834D01*
X28761Y-22834D02*
X28976Y-22834D01*
G54D29*
X29409Y-22834D02*
X29527Y-22952D01*
X28976Y-22834D02*
X29409Y-22834D01*
G54D28*
X25964Y-41043D02*
X25964Y-41889D01*
X29685Y-27915D02*
X26377Y-31222D01*
X29685Y-27547D02*
X29685Y-27915D01*
X26377Y-40629D02*
X25964Y-41043D01*
X29606Y-27468D02*
X29685Y-27547D01*
X29606Y-26822D02*
X29606Y-27468D01*
X29685Y-26417D02*
X29685Y-26743D01*
X29685Y-26743D02*
X29606Y-26822D01*
X29704Y-26397D02*
X29685Y-26417D01*
X26377Y-31222D02*
X26377Y-40629D01*
X30157Y-26397D02*
X29704Y-26397D01*
G54D29*
X26417Y-26771D02*
X26417Y-26363D01*
X26417Y-25980D02*
X26417Y-26363D01*
X27185Y-26771D02*
X26417Y-26771D01*
G54D30*
X27063Y-23855D02*
X27063Y-24330D01*
X26102Y-23622D02*
X26830Y-23622D01*
X26830Y-23622D02*
X27063Y-23855D01*
X27007Y-24430D02*
X27007Y-24386D01*
X27007Y-24386D02*
X27063Y-24330D01*
X27063Y-24330D02*
X27361Y-24330D01*
X26436Y-24645D02*
X26792Y-24645D01*
X26792Y-24645D02*
X27007Y-24430D01*
G54D27*
X30295Y-29704D02*
X30669Y-30078D01*
X30669Y-30078D02*
X30669Y-30393D01*
X30295Y-29704D02*
X30295Y-29291D01*
X30944Y-41456D02*
X30944Y-41259D01*
X31240Y-40964D02*
X31240Y-40393D01*
X30944Y-41259D02*
X31240Y-40964D01*
X29452Y-48017D02*
X30104Y-48017D01*
X30104Y-48017D02*
X30275Y-48188D01*
X27952Y-23188D02*
X27952Y-24212D01*
G54D29*
X27578Y-21456D02*
X26251Y-21456D01*
G54D33*
X25728Y-22019D02*
X25728Y-22755D01*
X25708Y-22000D02*
X25728Y-22019D01*
G54D29*
X26251Y-21456D02*
X25708Y-22000D01*
X27578Y-22004D02*
X27952Y-22378D01*
X27578Y-21456D02*
X27578Y-22004D01*
X27952Y-22378D02*
X27952Y-23188D01*
X27452Y-19291D02*
X27452Y-20149D01*
X27452Y-20149D02*
X27578Y-20275D01*
X27578Y-20275D02*
X27578Y-21456D01*
G54D28*
X25206Y-41385D02*
X25206Y-23753D01*
X25728Y-23231D02*
X25728Y-22755D01*
X25216Y-41889D02*
X25216Y-41394D01*
X25216Y-41394D02*
X25206Y-41385D01*
X25206Y-23753D02*
X25728Y-23231D01*
G54D29*
X28452Y-19291D02*
X29094Y-19291D01*
X29409Y-19606D02*
X29409Y-20275D01*
X29094Y-19291D02*
X29409Y-19606D01*
G54D34*
G36*
X31909Y-53337D02*
X31889Y-53541D01*
X31832Y-53728D01*
X31775Y-53837D01*
X31775Y-26014D01*
X31773Y-25994D01*
X31771Y-25974D01*
X31771Y-25972D01*
X31771Y-25971D01*
X31765Y-25952D01*
X31759Y-25933D01*
X31759Y-25932D01*
X31758Y-25931D01*
X31749Y-25913D01*
X31740Y-25895D01*
X31739Y-25894D01*
X31738Y-25893D01*
X31726Y-25878D01*
X31713Y-25862D01*
X31711Y-25860D01*
X31711Y-25860D01*
X31711Y-25860D01*
X31711Y-25860D01*
X31476Y-25625D01*
X31476Y-19212D01*
X31476Y-16456D01*
X31476Y-16456D01*
X31476Y-16455D01*
X31476Y-16448D01*
X31475Y-16440D01*
X31475Y-16432D01*
X31475Y-16429D01*
X31464Y-16330D01*
X31460Y-16314D01*
X31457Y-16299D01*
X31456Y-16296D01*
X31456Y-16296D01*
X31426Y-16201D01*
X31420Y-16186D01*
X31414Y-16171D01*
X31413Y-16169D01*
X31413Y-16169D01*
X31364Y-16082D01*
X31355Y-16068D01*
X31346Y-16055D01*
X31345Y-16053D01*
X31345Y-16053D01*
X31345Y-16053D01*
X31281Y-15977D01*
X31269Y-15965D01*
X31258Y-15954D01*
X31256Y-15952D01*
X31256Y-15952D01*
X31256Y-15952D01*
X31178Y-15890D01*
X31165Y-15881D01*
X31151Y-15872D01*
X31149Y-15871D01*
X31149Y-15871D01*
X31149Y-15871D01*
X31061Y-15825D01*
X31046Y-15819D01*
X31031Y-15812D01*
X31029Y-15812D01*
X31029Y-15812D01*
X31029Y-15812D01*
X30933Y-15783D01*
X30917Y-15780D01*
X30901Y-15777D01*
X30899Y-15777D01*
X30799Y-15768D01*
X30783Y-15768D01*
X30767Y-15768D01*
X30765Y-15768D01*
X30665Y-15779D01*
X30650Y-15782D01*
X30634Y-15785D01*
X30632Y-15786D01*
X30632Y-15786D01*
X30632Y-15786D01*
X30536Y-15815D01*
X30521Y-15821D01*
X30506Y-15827D01*
X30504Y-15829D01*
X30504Y-15829D01*
X30504Y-15829D01*
X30416Y-15876D01*
X30403Y-15885D01*
X30390Y-15894D01*
X30388Y-15895D01*
X30388Y-15895D01*
X30388Y-15895D01*
X30311Y-15959D01*
X30299Y-15970D01*
X30288Y-15982D01*
X30286Y-15984D01*
X30223Y-16061D01*
X30214Y-16074D01*
X30205Y-16088D01*
X30204Y-16090D01*
X30204Y-16090D01*
X30204Y-16090D01*
X30204Y-16090D01*
X30157Y-16178D01*
X30151Y-16193D01*
X30145Y-16208D01*
X30144Y-16210D01*
X30115Y-16306D01*
X30112Y-16321D01*
X30109Y-16337D01*
X30109Y-16339D01*
X30109Y-16339D01*
X30109Y-16339D01*
X30099Y-16439D01*
X30099Y-16446D01*
X30098Y-16454D01*
X30098Y-16456D01*
X30098Y-19212D01*
X30098Y-19212D01*
X30098Y-19213D01*
X30098Y-19220D01*
X30099Y-19228D01*
X30099Y-19237D01*
X30099Y-19239D01*
X30110Y-19338D01*
X30114Y-19354D01*
X30117Y-19370D01*
X30117Y-19372D01*
X30148Y-19467D01*
X30154Y-19482D01*
X30160Y-19497D01*
X30161Y-19499D01*
X30161Y-19499D01*
X30161Y-19499D01*
X30209Y-19587D01*
X30218Y-19600D01*
X30227Y-19613D01*
X30229Y-19615D01*
X30229Y-19615D01*
X30229Y-19615D01*
X30229Y-19615D01*
X30293Y-19692D01*
X30305Y-19703D01*
X30316Y-19714D01*
X30318Y-19716D01*
X30318Y-19716D01*
X30318Y-19716D01*
X30318Y-19716D01*
X30396Y-19778D01*
X30409Y-19787D01*
X30422Y-19796D01*
X30425Y-19797D01*
X30425Y-19797D01*
X30425Y-19797D01*
X30513Y-19844D01*
X30528Y-19850D01*
X30543Y-19856D01*
X30545Y-19857D01*
X30545Y-19857D01*
X30641Y-19885D01*
X30657Y-19888D01*
X30672Y-19891D01*
X30675Y-19891D01*
X30675Y-19891D01*
X30774Y-19900D01*
X30790Y-19900D01*
X30807Y-19900D01*
X30809Y-19900D01*
X30908Y-19890D01*
X30924Y-19886D01*
X30940Y-19883D01*
X30942Y-19883D01*
X30942Y-19883D01*
X30942Y-19883D01*
X30942Y-19883D01*
X31038Y-19853D01*
X31052Y-19847D01*
X31067Y-19841D01*
X31069Y-19840D01*
X31070Y-19840D01*
X31070Y-19840D01*
X31070Y-19840D01*
X31157Y-19792D01*
X31171Y-19783D01*
X31184Y-19774D01*
X31186Y-19773D01*
X31186Y-19773D01*
X31186Y-19773D01*
X31186Y-19773D01*
X31263Y-19709D01*
X31274Y-19698D01*
X31286Y-19687D01*
X31287Y-19685D01*
X31287Y-19685D01*
X31287Y-19685D01*
X31287Y-19685D01*
X31350Y-19607D01*
X31359Y-19594D01*
X31368Y-19581D01*
X31370Y-19579D01*
X31370Y-19579D01*
X31370Y-19579D01*
X31370Y-19579D01*
X31417Y-19490D01*
X31423Y-19475D01*
X31429Y-19461D01*
X31430Y-19458D01*
X31430Y-19458D01*
X31459Y-19363D01*
X31462Y-19347D01*
X31465Y-19331D01*
X31465Y-19329D01*
X31465Y-19329D01*
X31465Y-19329D01*
X31465Y-19329D01*
X31475Y-19229D01*
X31475Y-19222D01*
X31476Y-19215D01*
X31476Y-19212D01*
X31476Y-25625D01*
X31443Y-25592D01*
X31442Y-25590D01*
X31441Y-25589D01*
X31441Y-25588D01*
X31428Y-25572D01*
X31415Y-25556D01*
X31414Y-25555D01*
X31414Y-25555D01*
X31414Y-25555D01*
X31413Y-25554D01*
X31320Y-25460D01*
X31320Y-22351D01*
X31331Y-22335D01*
X31352Y-22288D01*
X31364Y-22237D01*
X31365Y-22178D01*
X31355Y-22128D01*
X31335Y-22080D01*
X31306Y-22037D01*
X31270Y-22001D01*
X31227Y-21972D01*
X31180Y-21952D01*
X31129Y-21942D01*
X31078Y-21941D01*
X31027Y-21951D01*
X30980Y-21970D01*
X30936Y-21998D01*
X30900Y-22034D01*
X30870Y-22077D01*
X30850Y-22124D01*
X30839Y-22175D01*
X30839Y-22226D01*
X30848Y-22277D01*
X30867Y-22325D01*
X30884Y-22351D01*
X30884Y-22907D01*
X30883Y-22906D01*
X30883Y-22906D01*
X30883Y-22905D01*
X30882Y-22905D01*
X30656Y-22678D01*
X30628Y-22655D01*
X30600Y-22632D01*
X30599Y-22631D01*
X30597Y-22630D01*
X30566Y-22613D01*
X30534Y-22596D01*
X30532Y-22595D01*
X30530Y-22594D01*
X30496Y-22584D01*
X30462Y-22573D01*
X30460Y-22573D01*
X30458Y-22572D01*
X30422Y-22568D01*
X30387Y-22564D01*
X30383Y-22564D01*
X30383Y-22564D01*
X30383Y-22564D01*
X30381Y-22564D01*
X30015Y-22564D01*
X30014Y-22558D01*
X30004Y-22533D01*
X29988Y-22510D01*
X29969Y-22491D01*
X29947Y-22476D01*
X29922Y-22465D01*
X29895Y-22460D01*
X29868Y-22460D01*
X29506Y-22460D01*
X29490Y-22455D01*
X29488Y-22455D01*
X29486Y-22454D01*
X29450Y-22450D01*
X29414Y-22446D01*
X29410Y-22446D01*
X29410Y-22446D01*
X29410Y-22446D01*
X29409Y-22446D01*
X28976Y-22446D01*
X28917Y-22452D01*
X28942Y-22423D01*
X28978Y-22357D01*
X29001Y-22285D01*
X29009Y-22210D01*
X29009Y-22204D01*
X29009Y-22098D01*
X29014Y-22101D01*
X29041Y-22106D01*
X29068Y-22106D01*
X29777Y-22106D01*
X29803Y-22101D01*
X29829Y-22090D01*
X29851Y-22075D01*
X29870Y-22056D01*
X29885Y-22033D01*
X29896Y-22008D01*
X29901Y-21982D01*
X29901Y-21954D01*
X29901Y-21246D01*
X29901Y-20643D01*
X29901Y-20616D01*
X29901Y-19907D01*
X29896Y-19881D01*
X29885Y-19855D01*
X29870Y-19833D01*
X29851Y-19814D01*
X29829Y-19799D01*
X29803Y-19788D01*
X29797Y-19787D01*
X29797Y-19606D01*
X29793Y-19570D01*
X29790Y-19534D01*
X29790Y-19533D01*
X29789Y-19530D01*
X29779Y-19496D01*
X29769Y-19462D01*
X29768Y-19460D01*
X29767Y-19458D01*
X29751Y-19426D01*
X29734Y-19395D01*
X29733Y-19393D01*
X29732Y-19391D01*
X29709Y-19363D01*
X29687Y-19335D01*
X29684Y-19333D01*
X29684Y-19333D01*
X29684Y-19332D01*
X29683Y-19332D01*
X29368Y-19017D01*
X29341Y-18994D01*
X29313Y-18971D01*
X29311Y-18970D01*
X29310Y-18969D01*
X29278Y-18952D01*
X29247Y-18934D01*
X29245Y-18934D01*
X29243Y-18933D01*
X29209Y-18922D01*
X29175Y-18912D01*
X29173Y-18911D01*
X29171Y-18911D01*
X29135Y-18907D01*
X29099Y-18903D01*
X29095Y-18903D01*
X29095Y-18903D01*
X29095Y-18903D01*
X29094Y-18903D01*
X28705Y-18903D01*
X28673Y-18882D01*
X28590Y-18847D01*
X28501Y-18828D01*
X28410Y-18828D01*
X28321Y-18845D01*
X28237Y-18879D01*
X28161Y-18928D01*
X28096Y-18992D01*
X28045Y-19067D01*
X28009Y-19150D01*
X27990Y-19239D01*
X27989Y-19330D01*
X28005Y-19419D01*
X28039Y-19503D01*
X28088Y-19580D01*
X28151Y-19645D01*
X28225Y-19697D01*
X28309Y-19733D01*
X28397Y-19753D01*
X28488Y-19755D01*
X28577Y-19739D01*
X28662Y-19706D01*
X28705Y-19679D01*
X28933Y-19679D01*
X29021Y-19766D01*
X29021Y-19787D01*
X29014Y-19788D01*
X28989Y-19799D01*
X28967Y-19814D01*
X28948Y-19833D01*
X28933Y-19855D01*
X28922Y-19881D01*
X28917Y-19907D01*
X28917Y-19934D01*
X28917Y-20643D01*
X28922Y-20670D01*
X28933Y-20695D01*
X28948Y-20717D01*
X28967Y-20736D01*
X28989Y-20752D01*
X29014Y-20762D01*
X29041Y-20767D01*
X29068Y-20767D01*
X29777Y-20767D01*
X29803Y-20762D01*
X29829Y-20752D01*
X29851Y-20736D01*
X29870Y-20717D01*
X29885Y-20695D01*
X29896Y-20670D01*
X29901Y-20643D01*
X29901Y-21246D01*
X29896Y-21219D01*
X29885Y-21194D01*
X29870Y-21172D01*
X29851Y-21152D01*
X29829Y-21137D01*
X29803Y-21127D01*
X29777Y-21122D01*
X29750Y-21122D01*
X29041Y-21122D01*
X29014Y-21127D01*
X28989Y-21137D01*
X28967Y-21152D01*
X28948Y-21172D01*
X28933Y-21194D01*
X28922Y-21219D01*
X28921Y-21226D01*
X28759Y-21226D01*
X28724Y-21229D01*
X28720Y-21230D01*
X28720Y-21148D01*
X28714Y-21121D01*
X28714Y-21121D01*
X28714Y-20611D01*
X28714Y-20610D01*
X28720Y-20584D01*
X28720Y-20557D01*
X28720Y-19967D01*
X28714Y-19940D01*
X28704Y-19915D01*
X28689Y-19892D01*
X28670Y-19873D01*
X28647Y-19858D01*
X28622Y-19848D01*
X28595Y-19842D01*
X28568Y-19842D01*
X28057Y-19842D01*
X28031Y-19848D01*
X28005Y-19858D01*
X27983Y-19873D01*
X27964Y-19892D01*
X27952Y-19909D01*
X27941Y-19892D01*
X27922Y-19873D01*
X27899Y-19858D01*
X27874Y-19848D01*
X27847Y-19842D01*
X27840Y-19842D01*
X27840Y-19544D01*
X27857Y-19521D01*
X27894Y-19438D01*
X27914Y-19349D01*
X27915Y-19245D01*
X27897Y-19156D01*
X27863Y-19073D01*
X27813Y-18997D01*
X27749Y-18933D01*
X27673Y-18882D01*
X27590Y-18847D01*
X27501Y-18828D01*
X27410Y-18828D01*
X27321Y-18845D01*
X27237Y-18879D01*
X27161Y-18928D01*
X27096Y-18992D01*
X27045Y-19067D01*
X27009Y-19150D01*
X26990Y-19239D01*
X26989Y-19330D01*
X27005Y-19419D01*
X27039Y-19503D01*
X27064Y-19543D01*
X27064Y-20149D01*
X27068Y-20185D01*
X27071Y-20220D01*
X27072Y-20222D01*
X27072Y-20224D01*
X27082Y-20259D01*
X27092Y-20293D01*
X27093Y-20295D01*
X27094Y-20297D01*
X27111Y-20329D01*
X27127Y-20360D01*
X27128Y-20362D01*
X27129Y-20364D01*
X27152Y-20391D01*
X27174Y-20419D01*
X27177Y-20422D01*
X27177Y-20422D01*
X27177Y-20422D01*
X27178Y-20423D01*
X27185Y-20430D01*
X27185Y-20584D01*
X27190Y-20610D01*
X27190Y-20611D01*
X27190Y-21068D01*
X26251Y-21068D01*
X26216Y-21072D01*
X26180Y-21075D01*
X26178Y-21076D01*
X26176Y-21076D01*
X26142Y-21086D01*
X26107Y-21096D01*
X26106Y-21097D01*
X26104Y-21098D01*
X26072Y-21114D01*
X26040Y-21131D01*
X26039Y-21132D01*
X26037Y-21133D01*
X26009Y-21156D01*
X25981Y-21178D01*
X25978Y-21181D01*
X25978Y-21181D01*
X25978Y-21181D01*
X25977Y-21182D01*
X25807Y-21353D01*
X25807Y-19212D01*
X25807Y-16456D01*
X25807Y-16456D01*
X25807Y-16455D01*
X25807Y-16448D01*
X25806Y-16440D01*
X25806Y-16432D01*
X25805Y-16429D01*
X25794Y-16330D01*
X25791Y-16314D01*
X25788Y-16299D01*
X25787Y-16296D01*
X25787Y-16296D01*
X25757Y-16201D01*
X25751Y-16186D01*
X25744Y-16171D01*
X25743Y-16169D01*
X25743Y-16169D01*
X25695Y-16082D01*
X25686Y-16068D01*
X25677Y-16055D01*
X25676Y-16053D01*
X25676Y-16053D01*
X25676Y-16053D01*
X25611Y-15977D01*
X25600Y-15965D01*
X25589Y-15954D01*
X25587Y-15952D01*
X25587Y-15952D01*
X25587Y-15952D01*
X25509Y-15890D01*
X25495Y-15881D01*
X25482Y-15872D01*
X25480Y-15871D01*
X25480Y-15871D01*
X25480Y-15871D01*
X25391Y-15825D01*
X25377Y-15819D01*
X25362Y-15812D01*
X25359Y-15812D01*
X25359Y-15812D01*
X25359Y-15812D01*
X25264Y-15783D01*
X25248Y-15780D01*
X25232Y-15777D01*
X25230Y-15777D01*
X25130Y-15768D01*
X25114Y-15768D01*
X25098Y-15768D01*
X25096Y-15768D01*
X24996Y-15779D01*
X24980Y-15782D01*
X24965Y-15785D01*
X24962Y-15786D01*
X24962Y-15786D01*
X24962Y-15786D01*
X24867Y-15815D01*
X24852Y-15821D01*
X24837Y-15827D01*
X24835Y-15829D01*
X24835Y-15829D01*
X24835Y-15829D01*
X24747Y-15876D01*
X24734Y-15885D01*
X24720Y-15894D01*
X24718Y-15895D01*
X24718Y-15895D01*
X24718Y-15895D01*
X24642Y-15959D01*
X24630Y-15970D01*
X24619Y-15982D01*
X24617Y-15984D01*
X24554Y-16061D01*
X24545Y-16074D01*
X24536Y-16088D01*
X24535Y-16090D01*
X24535Y-16090D01*
X24535Y-16090D01*
X24535Y-16090D01*
X24488Y-16178D01*
X24482Y-16193D01*
X24476Y-16208D01*
X24475Y-16210D01*
X24446Y-16306D01*
X24443Y-16321D01*
X24439Y-16337D01*
X24439Y-16339D01*
X24439Y-16339D01*
X24439Y-16339D01*
X24429Y-16439D01*
X24429Y-16446D01*
X24429Y-16454D01*
X24429Y-16456D01*
X24429Y-19212D01*
X24429Y-19212D01*
X24429Y-19213D01*
X24429Y-19220D01*
X24430Y-19228D01*
X24430Y-19237D01*
X24430Y-19239D01*
X24441Y-19338D01*
X24444Y-19354D01*
X24447Y-19370D01*
X24448Y-19372D01*
X24478Y-19467D01*
X24485Y-19482D01*
X24491Y-19497D01*
X24492Y-19499D01*
X24492Y-19499D01*
X24492Y-19499D01*
X24540Y-19587D01*
X24549Y-19600D01*
X24558Y-19613D01*
X24560Y-19615D01*
X24560Y-19615D01*
X24560Y-19615D01*
X24560Y-19615D01*
X24624Y-19692D01*
X24635Y-19703D01*
X24647Y-19714D01*
X24649Y-19716D01*
X24649Y-19716D01*
X24649Y-19716D01*
X24649Y-19716D01*
X24726Y-19778D01*
X24740Y-19787D01*
X24753Y-19796D01*
X24755Y-19797D01*
X24755Y-19797D01*
X24755Y-19797D01*
X24844Y-19844D01*
X24859Y-19850D01*
X24873Y-19856D01*
X24876Y-19857D01*
X24876Y-19857D01*
X24972Y-19885D01*
X24987Y-19888D01*
X25003Y-19891D01*
X25006Y-19891D01*
X25006Y-19891D01*
X25105Y-19900D01*
X25121Y-19900D01*
X25137Y-19900D01*
X25140Y-19900D01*
X25239Y-19890D01*
X25255Y-19886D01*
X25271Y-19883D01*
X25273Y-19883D01*
X25273Y-19883D01*
X25273Y-19883D01*
X25273Y-19883D01*
X25368Y-19853D01*
X25383Y-19847D01*
X25398Y-19841D01*
X25400Y-19840D01*
X25400Y-19840D01*
X25400Y-19840D01*
X25400Y-19840D01*
X25488Y-19792D01*
X25501Y-19783D01*
X25515Y-19774D01*
X25517Y-19773D01*
X25517Y-19773D01*
X25517Y-19773D01*
X25517Y-19773D01*
X25594Y-19709D01*
X25605Y-19698D01*
X25616Y-19687D01*
X25618Y-19685D01*
X25618Y-19685D01*
X25618Y-19685D01*
X25618Y-19685D01*
X25681Y-19607D01*
X25690Y-19594D01*
X25699Y-19581D01*
X25700Y-19579D01*
X25700Y-19579D01*
X25700Y-19579D01*
X25700Y-19579D01*
X25747Y-19490D01*
X25753Y-19475D01*
X25760Y-19461D01*
X25760Y-19458D01*
X25760Y-19458D01*
X25789Y-19363D01*
X25792Y-19347D01*
X25796Y-19331D01*
X25796Y-19329D01*
X25796Y-19329D01*
X25796Y-19329D01*
X25796Y-19329D01*
X25806Y-19229D01*
X25806Y-19222D01*
X25807Y-19215D01*
X25807Y-19212D01*
X25807Y-21353D01*
X25434Y-21725D01*
X25386Y-21784D01*
X25350Y-21850D01*
X25328Y-21923D01*
X25320Y-21998D01*
X25327Y-22073D01*
X25349Y-22146D01*
X25384Y-22213D01*
X25390Y-22220D01*
X25390Y-22755D01*
X25393Y-22788D01*
X25393Y-23045D01*
X25398Y-23071D01*
X25409Y-23096D01*
X25424Y-23119D01*
X25443Y-23138D01*
X25466Y-23153D01*
X25468Y-23154D01*
X25038Y-23584D01*
X25024Y-23601D01*
X25010Y-23618D01*
X25009Y-23619D01*
X25009Y-23620D01*
X24998Y-23640D01*
X24988Y-23659D01*
X24987Y-23660D01*
X24987Y-23661D01*
X24980Y-23682D01*
X24974Y-23703D01*
X24974Y-23704D01*
X24973Y-23706D01*
X24971Y-23727D01*
X24969Y-23749D01*
X24969Y-23752D01*
X24969Y-23752D01*
X24969Y-23752D01*
X24969Y-23753D01*
X24969Y-41212D01*
X24928Y-41185D01*
X24881Y-41165D01*
X24830Y-41154D01*
X24779Y-41154D01*
X24728Y-41163D01*
X24680Y-41183D01*
X24637Y-41211D01*
X24600Y-41247D01*
X24571Y-41290D01*
X24551Y-41337D01*
X24540Y-41387D01*
X24540Y-41400D01*
X24190Y-41749D01*
X24179Y-41764D01*
X24167Y-41778D01*
X24167Y-41778D01*
X24166Y-41779D01*
X24157Y-41795D01*
X24148Y-41811D01*
X24148Y-41812D01*
X24148Y-41813D01*
X24142Y-41831D01*
X24137Y-41848D01*
X24137Y-41849D01*
X24136Y-41850D01*
X24134Y-41868D01*
X24132Y-41887D01*
X24132Y-41889D01*
X24132Y-41889D01*
X24132Y-41889D01*
X24132Y-41889D01*
X24132Y-46338D01*
X24134Y-46356D01*
X24136Y-46374D01*
X24136Y-46375D01*
X24136Y-46377D01*
X24141Y-46394D01*
X24147Y-46412D01*
X24147Y-46412D01*
X24147Y-46413D01*
X24156Y-46430D01*
X24164Y-46446D01*
X24165Y-46447D01*
X24165Y-46448D01*
X24177Y-46462D01*
X24188Y-46476D01*
X24190Y-46477D01*
X24190Y-46477D01*
X24190Y-46477D01*
X24190Y-46478D01*
X24813Y-47101D01*
X24813Y-47101D01*
X24813Y-47101D01*
X24815Y-47103D01*
X24815Y-47108D01*
X24824Y-47159D01*
X24843Y-47207D01*
X24871Y-47250D01*
X24907Y-47287D01*
X24949Y-47317D01*
X24997Y-47337D01*
X25047Y-47348D01*
X25098Y-47349D01*
X25149Y-47340D01*
X25197Y-47322D01*
X25241Y-47294D01*
X25278Y-47259D01*
X25308Y-47217D01*
X25329Y-47169D01*
X25340Y-47119D01*
X25341Y-47060D01*
X25331Y-47010D01*
X25311Y-46962D01*
X25283Y-46919D01*
X25247Y-46883D01*
X25204Y-46854D01*
X25177Y-46842D01*
X25177Y-46239D01*
X25177Y-45866D01*
X25177Y-45787D01*
X25177Y-45413D01*
X25177Y-45176D01*
X25177Y-44803D01*
X25177Y-44724D01*
X25177Y-44350D01*
X25137Y-44311D01*
X24945Y-44311D01*
X24915Y-44317D01*
X24886Y-44329D01*
X24860Y-44346D01*
X24838Y-44368D01*
X24821Y-44394D01*
X24809Y-44422D01*
X24803Y-44453D01*
X24803Y-44484D01*
X24803Y-44685D01*
X24842Y-44724D01*
X25177Y-44724D01*
X25177Y-44803D01*
X24842Y-44803D01*
X24803Y-44842D01*
X24803Y-45043D01*
X24803Y-45074D01*
X24809Y-45104D01*
X24821Y-45133D01*
X24838Y-45159D01*
X24860Y-45181D01*
X24886Y-45198D01*
X24915Y-45210D01*
X24945Y-45216D01*
X25137Y-45216D01*
X25177Y-45176D01*
X25177Y-45413D01*
X25137Y-45374D01*
X24945Y-45374D01*
X24915Y-45380D01*
X24886Y-45392D01*
X24860Y-45409D01*
X24838Y-45431D01*
X24821Y-45457D01*
X24809Y-45485D01*
X24803Y-45516D01*
X24803Y-45547D01*
X24803Y-45748D01*
X24842Y-45787D01*
X25177Y-45787D01*
X25177Y-45866D01*
X24842Y-45866D01*
X24803Y-45905D01*
X24803Y-46106D01*
X24803Y-46137D01*
X24809Y-46167D01*
X24821Y-46196D01*
X24838Y-46222D01*
X24860Y-46244D01*
X24886Y-46261D01*
X24915Y-46273D01*
X24945Y-46279D01*
X25137Y-46279D01*
X25177Y-46239D01*
X25177Y-46842D01*
X25156Y-46834D01*
X25106Y-46823D01*
X25095Y-46823D01*
X25093Y-46821D01*
X25093Y-46821D01*
X25093Y-46821D01*
X24528Y-46256D01*
X24528Y-42051D01*
X24533Y-42062D01*
X24550Y-42088D01*
X24572Y-42110D01*
X24598Y-42127D01*
X24626Y-42139D01*
X24657Y-42145D01*
X24692Y-42145D01*
X24719Y-42118D01*
X24732Y-42122D01*
X24768Y-42126D01*
X24771Y-42126D01*
X24823Y-42126D01*
X24823Y-42198D01*
X24828Y-42224D01*
X24838Y-42250D01*
X24854Y-42272D01*
X24873Y-42291D01*
X24895Y-42306D01*
X24920Y-42317D01*
X24947Y-42322D01*
X24974Y-42322D01*
X25485Y-42322D01*
X25512Y-42317D01*
X25537Y-42306D01*
X25559Y-42291D01*
X25579Y-42272D01*
X25590Y-42255D01*
X25602Y-42272D01*
X25621Y-42291D01*
X25643Y-42306D01*
X25668Y-42317D01*
X25695Y-42322D01*
X25722Y-42322D01*
X25726Y-42322D01*
X25726Y-42381D01*
X25728Y-42403D01*
X25730Y-42425D01*
X25731Y-42426D01*
X25731Y-42428D01*
X25737Y-42449D01*
X25743Y-42470D01*
X25744Y-42471D01*
X25744Y-42472D01*
X25755Y-42491D01*
X25765Y-42511D01*
X25765Y-42512D01*
X25766Y-42513D01*
X25780Y-42530D01*
X25794Y-42547D01*
X25795Y-42549D01*
X25795Y-42549D01*
X25795Y-42549D01*
X25796Y-42550D01*
X25864Y-42618D01*
X25864Y-42667D01*
X25842Y-42667D01*
X25816Y-42672D01*
X25791Y-42683D01*
X25768Y-42698D01*
X25749Y-42717D01*
X25735Y-42738D01*
X25731Y-42738D01*
X25730Y-42738D01*
X25729Y-42739D01*
X25711Y-42744D01*
X25694Y-42749D01*
X25693Y-42749D01*
X25692Y-42750D01*
X25676Y-42758D01*
X25659Y-42767D01*
X25659Y-42767D01*
X25658Y-42768D01*
X25644Y-42779D01*
X25629Y-42791D01*
X25628Y-42792D01*
X25628Y-42792D01*
X25628Y-42792D01*
X25627Y-42793D01*
X25462Y-42958D01*
X25462Y-42791D01*
X25457Y-42764D01*
X25446Y-42739D01*
X25431Y-42717D01*
X25412Y-42698D01*
X25390Y-42683D01*
X25364Y-42672D01*
X25338Y-42667D01*
X25311Y-42667D01*
X24819Y-42667D01*
X24792Y-42672D01*
X24767Y-42683D01*
X24744Y-42698D01*
X24725Y-42717D01*
X24710Y-42739D01*
X24700Y-42764D01*
X24694Y-42791D01*
X24694Y-42818D01*
X24694Y-43074D01*
X24699Y-43095D01*
X24693Y-43104D01*
X24681Y-43133D01*
X24675Y-43163D01*
X24675Y-43228D01*
X24714Y-43267D01*
X25039Y-43267D01*
X25039Y-43259D01*
X25118Y-43259D01*
X25118Y-43267D01*
X25125Y-43267D01*
X25125Y-43346D01*
X25118Y-43346D01*
X25118Y-43354D01*
X25039Y-43354D01*
X25039Y-43346D01*
X24714Y-43346D01*
X24675Y-43385D01*
X24675Y-43450D01*
X24681Y-43480D01*
X24693Y-43509D01*
X24699Y-43518D01*
X24694Y-43539D01*
X24694Y-43566D01*
X24694Y-43822D01*
X24700Y-43849D01*
X24710Y-43874D01*
X24725Y-43896D01*
X24744Y-43916D01*
X24767Y-43931D01*
X24792Y-43941D01*
X24819Y-43946D01*
X24846Y-43946D01*
X25338Y-43946D01*
X25364Y-43941D01*
X25390Y-43931D01*
X25412Y-43916D01*
X25431Y-43896D01*
X25443Y-43878D01*
X25492Y-43878D01*
X25510Y-43877D01*
X25528Y-43875D01*
X25529Y-43875D01*
X25530Y-43875D01*
X25548Y-43869D01*
X25565Y-43864D01*
X25566Y-43864D01*
X25567Y-43863D01*
X25583Y-43855D01*
X25599Y-43846D01*
X25600Y-43846D01*
X25601Y-43845D01*
X25615Y-43834D01*
X25630Y-43822D01*
X25631Y-43821D01*
X25631Y-43821D01*
X25631Y-43821D01*
X25631Y-43820D01*
X25718Y-43734D01*
X25718Y-43822D01*
X25723Y-43849D01*
X25734Y-43874D01*
X25749Y-43896D01*
X25768Y-43916D01*
X25791Y-43931D01*
X25816Y-43941D01*
X25842Y-43946D01*
X25869Y-43946D01*
X26361Y-43946D01*
X26388Y-43941D01*
X26413Y-43931D01*
X26436Y-43916D01*
X26455Y-43896D01*
X26470Y-43874D01*
X26480Y-43849D01*
X26486Y-43822D01*
X26486Y-43795D01*
X26486Y-43544D01*
X26659Y-43544D01*
X26690Y-43558D01*
X26740Y-43569D01*
X26791Y-43570D01*
X26842Y-43561D01*
X26890Y-43542D01*
X26934Y-43515D01*
X26971Y-43479D01*
X27001Y-43437D01*
X27022Y-43390D01*
X27033Y-43340D01*
X27034Y-43281D01*
X27024Y-43230D01*
X27004Y-43183D01*
X26976Y-43140D01*
X26939Y-43103D01*
X26897Y-43074D01*
X26849Y-43054D01*
X26799Y-43044D01*
X26747Y-43044D01*
X26697Y-43053D01*
X26658Y-43069D01*
X26486Y-43069D01*
X26486Y-43047D01*
X26486Y-42791D01*
X26480Y-42764D01*
X26470Y-42739D01*
X26455Y-42717D01*
X26436Y-42698D01*
X26413Y-42683D01*
X26388Y-42672D01*
X26361Y-42667D01*
X26340Y-42667D01*
X26340Y-42519D01*
X26338Y-42497D01*
X26336Y-42475D01*
X26335Y-42474D01*
X26335Y-42473D01*
X26329Y-42452D01*
X26323Y-42431D01*
X26322Y-42430D01*
X26322Y-42429D01*
X26311Y-42409D01*
X26301Y-42390D01*
X26301Y-42389D01*
X26300Y-42388D01*
X26286Y-42371D01*
X26272Y-42353D01*
X26271Y-42352D01*
X26271Y-42352D01*
X26271Y-42352D01*
X26270Y-42351D01*
X26240Y-42321D01*
X26260Y-42317D01*
X26285Y-42306D01*
X26307Y-42291D01*
X26327Y-42272D01*
X26342Y-42250D01*
X26352Y-42224D01*
X26357Y-42198D01*
X26357Y-42171D01*
X26357Y-41581D01*
X26352Y-41554D01*
X26342Y-41529D01*
X26327Y-41506D01*
X26307Y-41487D01*
X26285Y-41472D01*
X26260Y-41462D01*
X26233Y-41456D01*
X26206Y-41456D01*
X26202Y-41456D01*
X26202Y-41141D01*
X26546Y-40798D01*
X26560Y-40781D01*
X26574Y-40764D01*
X26574Y-40763D01*
X26575Y-40762D01*
X26585Y-40742D01*
X26596Y-40723D01*
X26596Y-40722D01*
X26597Y-40721D01*
X26603Y-40700D01*
X26610Y-40679D01*
X26610Y-40678D01*
X26611Y-40676D01*
X26613Y-40655D01*
X26615Y-40633D01*
X26615Y-40630D01*
X26615Y-40630D01*
X26615Y-40630D01*
X26615Y-40629D01*
X26615Y-31320D01*
X29141Y-28794D01*
X29139Y-28813D01*
X29139Y-28817D01*
X29139Y-28817D01*
X29139Y-28817D01*
X29139Y-28818D01*
X29139Y-31177D01*
X27678Y-32639D01*
X27655Y-32666D01*
X27632Y-32694D01*
X27631Y-32696D01*
X27630Y-32697D01*
X27613Y-32729D01*
X27596Y-32760D01*
X27595Y-32762D01*
X27594Y-32764D01*
X27584Y-32798D01*
X27573Y-32832D01*
X27573Y-32834D01*
X27572Y-32836D01*
X27568Y-32872D01*
X27564Y-32907D01*
X27564Y-32911D01*
X27564Y-32912D01*
X27564Y-32912D01*
X27564Y-32913D01*
X27564Y-46029D01*
X27371Y-46029D01*
X27295Y-46036D01*
X27223Y-46058D01*
X27156Y-46094D01*
X27097Y-46142D01*
X27049Y-46200D01*
X27013Y-46267D01*
X26991Y-46339D01*
X26983Y-46414D01*
X26990Y-46489D01*
X27011Y-46562D01*
X27046Y-46629D01*
X27094Y-46688D01*
X27152Y-46737D01*
X27218Y-46773D01*
X27290Y-46796D01*
X27365Y-46805D01*
X27371Y-46805D01*
X27670Y-46805D01*
X27952Y-46805D01*
X27989Y-46801D01*
X28025Y-46798D01*
X28026Y-46797D01*
X28028Y-46797D01*
X28063Y-46787D01*
X28098Y-46776D01*
X28099Y-46776D01*
X28100Y-46775D01*
X28132Y-46758D01*
X28165Y-46741D01*
X28166Y-46740D01*
X28167Y-46740D01*
X28195Y-46717D01*
X28224Y-46694D01*
X28224Y-46693D01*
X28226Y-46692D01*
X28249Y-46664D01*
X28272Y-46636D01*
X28273Y-46635D01*
X28274Y-46634D01*
X28291Y-46602D01*
X28309Y-46570D01*
X28309Y-46568D01*
X28310Y-46567D01*
X28321Y-46532D01*
X28332Y-46497D01*
X28332Y-46496D01*
X28332Y-46495D01*
X28336Y-46458D01*
X28340Y-46422D01*
X28340Y-46420D01*
X28340Y-46420D01*
X28340Y-46419D01*
X28340Y-46417D01*
X28340Y-33074D01*
X29801Y-31612D01*
X29824Y-31585D01*
X29847Y-31557D01*
X29848Y-31555D01*
X29849Y-31554D01*
X29866Y-31522D01*
X29883Y-31491D01*
X29884Y-31489D01*
X29885Y-31487D01*
X29896Y-31453D01*
X29906Y-31419D01*
X29907Y-31417D01*
X29907Y-31415D01*
X29911Y-31379D01*
X29915Y-31343D01*
X29915Y-31340D01*
X29915Y-31339D01*
X29915Y-31339D01*
X29915Y-31338D01*
X29915Y-29645D01*
X29917Y-29651D01*
X29932Y-29674D01*
X29951Y-29693D01*
X29974Y-29708D01*
X29999Y-29718D01*
X30026Y-29724D01*
X30053Y-29724D01*
X30099Y-29724D01*
X30100Y-29741D01*
X30101Y-29742D01*
X30101Y-29743D01*
X30106Y-29760D01*
X30111Y-29778D01*
X30112Y-29779D01*
X30112Y-29780D01*
X30121Y-29796D01*
X30129Y-29812D01*
X30130Y-29813D01*
X30130Y-29814D01*
X30142Y-29828D01*
X30153Y-29842D01*
X30154Y-29844D01*
X30154Y-29844D01*
X30154Y-29844D01*
X30155Y-29844D01*
X30471Y-30160D01*
X30471Y-30219D01*
X30467Y-30223D01*
X30437Y-30266D01*
X30417Y-30313D01*
X30406Y-30364D01*
X30406Y-30415D01*
X30415Y-30466D01*
X30434Y-30514D01*
X30462Y-30557D01*
X30498Y-30594D01*
X30540Y-30624D01*
X30587Y-30644D01*
X30638Y-30655D01*
X30689Y-30656D01*
X30740Y-30648D01*
X30788Y-30629D01*
X30831Y-30601D01*
X30869Y-30566D01*
X30898Y-30524D01*
X30919Y-30477D01*
X30931Y-30426D01*
X30932Y-30367D01*
X30922Y-30317D01*
X30902Y-30269D01*
X30873Y-30226D01*
X30867Y-30219D01*
X30867Y-30078D01*
X30865Y-30060D01*
X30863Y-30042D01*
X30863Y-30041D01*
X30863Y-30040D01*
X30858Y-30022D01*
X30852Y-30005D01*
X30852Y-30004D01*
X30852Y-30003D01*
X30843Y-29987D01*
X30835Y-29971D01*
X30834Y-29970D01*
X30834Y-29969D01*
X30822Y-29955D01*
X30811Y-29940D01*
X30809Y-29939D01*
X30809Y-29939D01*
X30809Y-29939D01*
X30809Y-29938D01*
X30589Y-29719D01*
X30590Y-29718D01*
X30616Y-29708D01*
X30638Y-29693D01*
X30657Y-29674D01*
X30665Y-29686D01*
X30687Y-29708D01*
X30713Y-29725D01*
X30741Y-29737D01*
X30772Y-29743D01*
X30964Y-29743D01*
X31003Y-29704D01*
X31003Y-29330D01*
X30996Y-29330D01*
X30996Y-29251D01*
X31003Y-29251D01*
X31003Y-28878D01*
X30964Y-28838D01*
X30772Y-28838D01*
X30741Y-28844D01*
X30713Y-28856D01*
X30687Y-28874D01*
X30665Y-28895D01*
X30657Y-28908D01*
X30638Y-28889D01*
X30616Y-28874D01*
X30590Y-28863D01*
X30564Y-28858D01*
X30537Y-28858D01*
X30036Y-28858D01*
X30884Y-28010D01*
X30906Y-27983D01*
X30929Y-27955D01*
X30930Y-27953D01*
X30932Y-27952D01*
X30949Y-27920D01*
X30966Y-27889D01*
X30967Y-27887D01*
X30967Y-27885D01*
X30978Y-27851D01*
X30989Y-27817D01*
X30989Y-27815D01*
X30990Y-27813D01*
X30993Y-27777D01*
X30997Y-27741D01*
X30997Y-27737D01*
X30997Y-27737D01*
X30997Y-27737D01*
X30997Y-27736D01*
X30997Y-27538D01*
X31410Y-27538D01*
X31437Y-27533D01*
X31462Y-27523D01*
X31485Y-27508D01*
X31504Y-27488D01*
X31519Y-27466D01*
X31529Y-27441D01*
X31535Y-27414D01*
X31535Y-27387D01*
X31535Y-27363D01*
X31557Y-27363D01*
X31577Y-27361D01*
X31598Y-27359D01*
X31598Y-27359D01*
X31599Y-27359D01*
X31619Y-27353D01*
X31638Y-27347D01*
X31639Y-27347D01*
X31640Y-27347D01*
X31658Y-27337D01*
X31676Y-27327D01*
X31677Y-27327D01*
X31677Y-27327D01*
X31693Y-27314D01*
X31709Y-27301D01*
X31710Y-27300D01*
X31710Y-27300D01*
X31723Y-27284D01*
X31737Y-27268D01*
X31737Y-27268D01*
X31737Y-27267D01*
X31747Y-27249D01*
X31757Y-27231D01*
X31757Y-27230D01*
X31758Y-27230D01*
X31764Y-27210D01*
X31770Y-27190D01*
X31770Y-27190D01*
X31770Y-27189D01*
X31772Y-27169D01*
X31775Y-27148D01*
X31775Y-27147D01*
X31775Y-27147D01*
X31775Y-27147D01*
X31775Y-27145D01*
X31775Y-26014D01*
X31775Y-53837D01*
X31741Y-53901D01*
X31633Y-54033D01*
X31633Y-40702D01*
X31633Y-40675D01*
X31633Y-40085D01*
X31628Y-40058D01*
X31617Y-40033D01*
X31602Y-40010D01*
X31583Y-39991D01*
X31560Y-39976D01*
X31535Y-39966D01*
X31509Y-39960D01*
X31482Y-39960D01*
X31456Y-39960D01*
X31456Y-29601D01*
X31456Y-29570D01*
X31456Y-29370D01*
X31456Y-29212D01*
X31456Y-29011D01*
X31456Y-28980D01*
X31450Y-28950D01*
X31438Y-28921D01*
X31421Y-28895D01*
X31399Y-28874D01*
X31373Y-28856D01*
X31344Y-28844D01*
X31314Y-28838D01*
X31122Y-28838D01*
X31082Y-28878D01*
X31082Y-29251D01*
X31416Y-29251D01*
X31456Y-29212D01*
X31456Y-29370D01*
X31416Y-29330D01*
X31082Y-29330D01*
X31082Y-29704D01*
X31122Y-29743D01*
X31314Y-29743D01*
X31344Y-29737D01*
X31373Y-29725D01*
X31399Y-29708D01*
X31421Y-29686D01*
X31438Y-29660D01*
X31450Y-29632D01*
X31456Y-29601D01*
X31456Y-39960D01*
X30971Y-39960D01*
X30944Y-39966D01*
X30919Y-39976D01*
X30896Y-39991D01*
X30877Y-40010D01*
X30866Y-40028D01*
X30854Y-40010D01*
X30835Y-39991D01*
X30812Y-39976D01*
X30787Y-39966D01*
X30761Y-39960D01*
X30734Y-39960D01*
X30689Y-39960D01*
X30689Y-39629D01*
X31163Y-39155D01*
X31175Y-39141D01*
X31186Y-39127D01*
X31187Y-39126D01*
X31187Y-39125D01*
X31196Y-39109D01*
X31205Y-39093D01*
X31205Y-39092D01*
X31206Y-39091D01*
X31211Y-39074D01*
X31217Y-39056D01*
X31217Y-39055D01*
X31217Y-39054D01*
X31219Y-39036D01*
X31221Y-39018D01*
X31221Y-39016D01*
X31221Y-39016D01*
X31221Y-39016D01*
X31221Y-39015D01*
X31221Y-33206D01*
X31223Y-33204D01*
X31253Y-33161D01*
X31274Y-33114D01*
X31285Y-33064D01*
X31286Y-33005D01*
X31276Y-32955D01*
X31256Y-32907D01*
X31228Y-32864D01*
X31191Y-32828D01*
X31149Y-32799D01*
X31101Y-32779D01*
X31051Y-32768D01*
X30999Y-32768D01*
X30949Y-32778D01*
X30901Y-32797D01*
X30858Y-32825D01*
X30821Y-32861D01*
X30792Y-32904D01*
X30771Y-32951D01*
X30761Y-33002D01*
X30760Y-33053D01*
X30769Y-33104D01*
X30788Y-33152D01*
X30816Y-33195D01*
X30825Y-33204D01*
X30825Y-38933D01*
X30352Y-39407D01*
X30340Y-39421D01*
X30328Y-39435D01*
X30328Y-39436D01*
X30327Y-39437D01*
X30319Y-39453D01*
X30310Y-39469D01*
X30310Y-39470D01*
X30309Y-39471D01*
X30304Y-39488D01*
X30298Y-39506D01*
X30298Y-39507D01*
X30298Y-39508D01*
X30296Y-39526D01*
X30294Y-39544D01*
X30294Y-39546D01*
X30294Y-39546D01*
X30294Y-39546D01*
X30294Y-39547D01*
X30294Y-39960D01*
X30223Y-39960D01*
X30196Y-39966D01*
X30171Y-39976D01*
X30148Y-39991D01*
X30129Y-40010D01*
X30114Y-40033D01*
X30104Y-40058D01*
X30098Y-40085D01*
X30098Y-40112D01*
X30098Y-40702D01*
X30104Y-40728D01*
X30114Y-40753D01*
X30129Y-40776D01*
X30148Y-40795D01*
X30171Y-40810D01*
X30196Y-40821D01*
X30223Y-40826D01*
X30250Y-40826D01*
X30294Y-40826D01*
X30294Y-45213D01*
X27898Y-47609D01*
X27898Y-47609D01*
X27896Y-47611D01*
X27889Y-47611D01*
X27838Y-47620D01*
X27791Y-47639D01*
X27747Y-47668D01*
X27711Y-47704D01*
X27681Y-47746D01*
X27661Y-47794D01*
X27650Y-47844D01*
X27650Y-47896D01*
X27659Y-47946D01*
X27678Y-47994D01*
X27706Y-48038D01*
X27742Y-48075D01*
X27784Y-48104D01*
X27831Y-48125D01*
X27882Y-48136D01*
X27933Y-48137D01*
X27984Y-48128D01*
X28032Y-48109D01*
X28075Y-48082D01*
X28113Y-48046D01*
X28142Y-48004D01*
X28163Y-47957D01*
X28175Y-47907D01*
X28175Y-47891D01*
X28178Y-47888D01*
X28178Y-47888D01*
X28178Y-47888D01*
X30632Y-45435D01*
X30643Y-45421D01*
X30655Y-45407D01*
X30655Y-45406D01*
X30656Y-45405D01*
X30665Y-45389D01*
X30673Y-45373D01*
X30674Y-45372D01*
X30674Y-45371D01*
X30680Y-45353D01*
X30685Y-45336D01*
X30685Y-45335D01*
X30686Y-45334D01*
X30687Y-45316D01*
X30689Y-45298D01*
X30689Y-45295D01*
X30689Y-45295D01*
X30689Y-45295D01*
X30689Y-45295D01*
X30689Y-41523D01*
X30691Y-41529D01*
X30710Y-41577D01*
X30737Y-41620D01*
X30773Y-41657D01*
X30816Y-41687D01*
X30863Y-41707D01*
X30913Y-41718D01*
X30965Y-41719D01*
X31015Y-41711D01*
X31063Y-41692D01*
X31107Y-41664D01*
X31144Y-41629D01*
X31174Y-41587D01*
X31195Y-41540D01*
X31206Y-41489D01*
X31207Y-41430D01*
X31197Y-41380D01*
X31178Y-41332D01*
X31167Y-41316D01*
X31380Y-41104D01*
X31391Y-41090D01*
X31403Y-41076D01*
X31403Y-41075D01*
X31404Y-41074D01*
X31413Y-41058D01*
X31421Y-41042D01*
X31422Y-41041D01*
X31422Y-41040D01*
X31428Y-41023D01*
X31433Y-41005D01*
X31433Y-41004D01*
X31434Y-41003D01*
X31435Y-40985D01*
X31437Y-40967D01*
X31437Y-40965D01*
X31437Y-40965D01*
X31437Y-40965D01*
X31437Y-40964D01*
X31437Y-40826D01*
X31509Y-40826D01*
X31535Y-40821D01*
X31560Y-40810D01*
X31583Y-40795D01*
X31602Y-40776D01*
X31617Y-40753D01*
X31628Y-40728D01*
X31633Y-40702D01*
X31633Y-54033D01*
X31617Y-54053D01*
X31476Y-54169D01*
X31476Y-53228D01*
X31476Y-50472D01*
X31476Y-50472D01*
X31476Y-50471D01*
X31476Y-50464D01*
X31475Y-50456D01*
X31475Y-50448D01*
X31475Y-50445D01*
X31464Y-50346D01*
X31460Y-50330D01*
X31457Y-50314D01*
X31456Y-50312D01*
X31456Y-50312D01*
X31426Y-50217D01*
X31420Y-50202D01*
X31414Y-50187D01*
X31413Y-50185D01*
X31413Y-50185D01*
X31364Y-50097D01*
X31355Y-50084D01*
X31346Y-50071D01*
X31345Y-50069D01*
X31345Y-50069D01*
X31345Y-50069D01*
X31281Y-49992D01*
X31269Y-49981D01*
X31258Y-49970D01*
X31256Y-49968D01*
X31256Y-49968D01*
X31256Y-49968D01*
X31178Y-49906D01*
X31165Y-49897D01*
X31151Y-49888D01*
X31149Y-49887D01*
X31149Y-49887D01*
X31149Y-49887D01*
X31061Y-49840D01*
X31046Y-49834D01*
X31031Y-49828D01*
X31029Y-49827D01*
X31029Y-49827D01*
X31029Y-49827D01*
X30933Y-49799D01*
X30917Y-49796D01*
X30901Y-49793D01*
X30899Y-49793D01*
X30827Y-49786D01*
X30827Y-48976D01*
X30827Y-48141D01*
X30825Y-48123D01*
X30824Y-48105D01*
X30824Y-48104D01*
X30823Y-48103D01*
X30818Y-48085D01*
X30813Y-48068D01*
X30813Y-48067D01*
X30812Y-48066D01*
X30804Y-48050D01*
X30795Y-48034D01*
X30795Y-48033D01*
X30794Y-48032D01*
X30783Y-48018D01*
X30771Y-48003D01*
X30770Y-48002D01*
X30770Y-48002D01*
X30770Y-48002D01*
X30769Y-48001D01*
X30145Y-47377D01*
X30131Y-47366D01*
X30117Y-47354D01*
X30116Y-47354D01*
X30115Y-47353D01*
X30099Y-47344D01*
X30083Y-47335D01*
X30082Y-47335D01*
X30081Y-47335D01*
X30064Y-47329D01*
X30046Y-47324D01*
X30045Y-47324D01*
X30044Y-47323D01*
X30026Y-47321D01*
X30010Y-47320D01*
X30007Y-47314D01*
X29992Y-47292D01*
X29973Y-47272D01*
X29951Y-47257D01*
X29926Y-47247D01*
X29899Y-47242D01*
X29872Y-47242D01*
X29006Y-47242D01*
X28979Y-47247D01*
X28954Y-47257D01*
X28931Y-47272D01*
X28912Y-47292D01*
X28897Y-47314D01*
X28887Y-47339D01*
X28881Y-47366D01*
X28881Y-47393D01*
X28881Y-47669D01*
X28887Y-47695D01*
X28897Y-47720D01*
X28912Y-47743D01*
X28931Y-47762D01*
X28939Y-47767D01*
X28931Y-47772D01*
X28912Y-47792D01*
X28897Y-47814D01*
X28887Y-47839D01*
X28881Y-47866D01*
X28881Y-47893D01*
X28881Y-47934D01*
X28866Y-47910D01*
X28829Y-47874D01*
X28787Y-47845D01*
X28739Y-47825D01*
X28689Y-47815D01*
X28637Y-47814D01*
X28586Y-47824D01*
X28539Y-47843D01*
X28495Y-47872D01*
X28459Y-47908D01*
X28430Y-47950D01*
X28409Y-47998D01*
X28398Y-48048D01*
X28398Y-48099D01*
X28407Y-48150D01*
X28426Y-48198D01*
X28454Y-48241D01*
X28466Y-48253D01*
X28466Y-48264D01*
X28467Y-48265D01*
X28467Y-48266D01*
X28472Y-48284D01*
X28477Y-48301D01*
X28478Y-48302D01*
X28478Y-48303D01*
X28487Y-48319D01*
X28495Y-48336D01*
X28496Y-48336D01*
X28496Y-48337D01*
X28508Y-48351D01*
X28519Y-48366D01*
X28521Y-48367D01*
X28521Y-48367D01*
X28521Y-48367D01*
X28521Y-48368D01*
X28810Y-48657D01*
X28825Y-48669D01*
X28839Y-48680D01*
X28839Y-48681D01*
X28840Y-48682D01*
X28856Y-48690D01*
X28872Y-48699D01*
X28873Y-48699D01*
X28874Y-48700D01*
X28891Y-48705D01*
X28897Y-48720D01*
X28912Y-48743D01*
X28923Y-48754D01*
X28919Y-48757D01*
X28897Y-48779D01*
X28880Y-48805D01*
X28868Y-48833D01*
X28862Y-48864D01*
X28862Y-48938D01*
X28901Y-48978D01*
X29413Y-48978D01*
X29413Y-48970D01*
X29492Y-48970D01*
X29492Y-48978D01*
X30003Y-48978D01*
X30043Y-48938D01*
X30043Y-48864D01*
X30037Y-48833D01*
X30025Y-48805D01*
X30008Y-48779D01*
X29986Y-48757D01*
X29981Y-48754D01*
X29992Y-48743D01*
X30007Y-48720D01*
X30018Y-48695D01*
X30023Y-48669D01*
X30023Y-48641D01*
X30023Y-48366D01*
X30018Y-48339D01*
X30007Y-48314D01*
X29992Y-48292D01*
X29973Y-48272D01*
X29965Y-48267D01*
X29973Y-48262D01*
X29992Y-48243D01*
X30007Y-48220D01*
X30010Y-48215D01*
X30013Y-48215D01*
X30021Y-48261D01*
X30040Y-48309D01*
X30068Y-48353D01*
X30104Y-48390D01*
X30146Y-48419D01*
X30193Y-48440D01*
X30244Y-48451D01*
X30295Y-48452D01*
X30346Y-48443D01*
X30394Y-48424D01*
X30432Y-48400D01*
X30432Y-48894D01*
X30043Y-49283D01*
X30043Y-49171D01*
X30043Y-49096D01*
X30003Y-49057D01*
X29492Y-49057D01*
X29492Y-49273D01*
X29531Y-49312D01*
X29870Y-49312D01*
X29901Y-49312D01*
X29931Y-49306D01*
X29960Y-49295D01*
X29986Y-49277D01*
X30008Y-49255D01*
X30025Y-49230D01*
X30037Y-49201D01*
X30043Y-49171D01*
X30043Y-49283D01*
X29702Y-49623D01*
X29691Y-49638D01*
X29679Y-49652D01*
X29678Y-49652D01*
X29678Y-49653D01*
X29669Y-49669D01*
X29660Y-49685D01*
X29660Y-49686D01*
X29659Y-49687D01*
X29654Y-49705D01*
X29649Y-49722D01*
X29648Y-49723D01*
X29648Y-49724D01*
X29646Y-49742D01*
X29644Y-49761D01*
X29644Y-49763D01*
X29644Y-49763D01*
X29644Y-49763D01*
X29644Y-49763D01*
X29644Y-52870D01*
X29406Y-53109D01*
X26892Y-53109D01*
X26716Y-52933D01*
X29507Y-52933D01*
X29507Y-50846D01*
X29413Y-50846D01*
X29413Y-49273D01*
X29413Y-49057D01*
X28901Y-49057D01*
X28862Y-49096D01*
X28862Y-49171D01*
X28868Y-49201D01*
X28880Y-49230D01*
X28897Y-49255D01*
X28919Y-49277D01*
X28945Y-49295D01*
X28973Y-49306D01*
X29004Y-49312D01*
X29035Y-49312D01*
X29374Y-49312D01*
X29413Y-49273D01*
X29413Y-50846D01*
X29150Y-50846D01*
X29150Y-50722D01*
X29148Y-50704D01*
X29147Y-50686D01*
X29146Y-50685D01*
X29146Y-50684D01*
X29141Y-50666D01*
X29136Y-50648D01*
X29135Y-50648D01*
X29135Y-50647D01*
X29127Y-50630D01*
X29118Y-50614D01*
X29117Y-50613D01*
X29117Y-50612D01*
X29105Y-50598D01*
X29094Y-50584D01*
X29093Y-50583D01*
X29093Y-50583D01*
X29093Y-50583D01*
X29092Y-50582D01*
X27859Y-49349D01*
X27866Y-49348D01*
X27914Y-49330D01*
X27957Y-49302D01*
X27995Y-49267D01*
X28024Y-49224D01*
X28045Y-49177D01*
X28057Y-49127D01*
X28058Y-49068D01*
X28048Y-49018D01*
X28028Y-48970D01*
X27999Y-48927D01*
X27963Y-48891D01*
X27920Y-48862D01*
X27873Y-48842D01*
X27846Y-48836D01*
X27180Y-48170D01*
X27196Y-48167D01*
X27245Y-48149D01*
X27288Y-48121D01*
X27325Y-48085D01*
X27355Y-48043D01*
X27376Y-47996D01*
X27387Y-47946D01*
X27388Y-47887D01*
X27378Y-47837D01*
X27359Y-47789D01*
X27330Y-47746D01*
X27294Y-47709D01*
X27251Y-47681D01*
X27204Y-47661D01*
X27162Y-47652D01*
X27023Y-47513D01*
X27023Y-47366D01*
X27018Y-47339D01*
X27007Y-47314D01*
X26992Y-47292D01*
X26973Y-47272D01*
X26951Y-47257D01*
X26926Y-47247D01*
X26899Y-47242D01*
X26872Y-47242D01*
X26690Y-47242D01*
X26690Y-47003D01*
X26688Y-46982D01*
X26686Y-46960D01*
X26686Y-46958D01*
X26686Y-46957D01*
X26679Y-46936D01*
X26673Y-46915D01*
X26672Y-46914D01*
X26672Y-46913D01*
X26662Y-46893D01*
X26652Y-46874D01*
X26651Y-46873D01*
X26650Y-46872D01*
X26636Y-46855D01*
X26623Y-46838D01*
X26621Y-46836D01*
X26621Y-46836D01*
X26621Y-46836D01*
X26620Y-46835D01*
X26202Y-46417D01*
X26202Y-46259D01*
X26233Y-46259D01*
X26260Y-46254D01*
X26285Y-46243D01*
X26307Y-46228D01*
X26327Y-46209D01*
X26342Y-46187D01*
X26352Y-46161D01*
X26357Y-46135D01*
X26357Y-46108D01*
X26357Y-45518D01*
X26352Y-45491D01*
X26342Y-45466D01*
X26327Y-45443D01*
X26307Y-45424D01*
X26285Y-45409D01*
X26260Y-45399D01*
X26233Y-45393D01*
X26206Y-45393D01*
X26202Y-45393D01*
X26202Y-45196D01*
X26233Y-45196D01*
X26260Y-45191D01*
X26285Y-45180D01*
X26307Y-45165D01*
X26327Y-45146D01*
X26342Y-45124D01*
X26352Y-45098D01*
X26357Y-45072D01*
X26357Y-45045D01*
X26357Y-45026D01*
X26398Y-45027D01*
X26448Y-45018D01*
X26497Y-44999D01*
X26540Y-44971D01*
X26577Y-44936D01*
X26607Y-44894D01*
X26628Y-44847D01*
X26639Y-44796D01*
X26640Y-44738D01*
X26630Y-44687D01*
X26611Y-44639D01*
X26582Y-44596D01*
X26546Y-44560D01*
X26503Y-44531D01*
X26456Y-44511D01*
X26405Y-44501D01*
X26357Y-44500D01*
X26357Y-44455D01*
X26352Y-44428D01*
X26342Y-44403D01*
X26327Y-44380D01*
X26307Y-44361D01*
X26285Y-44346D01*
X26260Y-44336D01*
X26233Y-44330D01*
X26206Y-44330D01*
X25695Y-44330D01*
X25668Y-44336D01*
X25643Y-44346D01*
X25621Y-44361D01*
X25602Y-44380D01*
X25594Y-44368D01*
X25572Y-44346D01*
X25546Y-44329D01*
X25517Y-44317D01*
X25487Y-44311D01*
X25295Y-44311D01*
X25255Y-44350D01*
X25255Y-44724D01*
X25263Y-44724D01*
X25263Y-44803D01*
X25255Y-44803D01*
X25255Y-45176D01*
X25295Y-45216D01*
X25487Y-45216D01*
X25517Y-45210D01*
X25546Y-45198D01*
X25572Y-45181D01*
X25594Y-45159D01*
X25602Y-45147D01*
X25621Y-45165D01*
X25643Y-45180D01*
X25668Y-45191D01*
X25695Y-45196D01*
X25722Y-45196D01*
X25726Y-45196D01*
X25726Y-45393D01*
X25695Y-45393D01*
X25668Y-45399D01*
X25643Y-45409D01*
X25621Y-45424D01*
X25602Y-45443D01*
X25594Y-45431D01*
X25572Y-45409D01*
X25546Y-45392D01*
X25517Y-45380D01*
X25487Y-45374D01*
X25295Y-45374D01*
X25255Y-45413D01*
X25255Y-45787D01*
X25263Y-45787D01*
X25263Y-45866D01*
X25255Y-45866D01*
X25255Y-46239D01*
X25295Y-46279D01*
X25487Y-46279D01*
X25517Y-46273D01*
X25546Y-46261D01*
X25572Y-46244D01*
X25594Y-46222D01*
X25602Y-46210D01*
X25621Y-46228D01*
X25643Y-46243D01*
X25668Y-46254D01*
X25695Y-46259D01*
X25722Y-46259D01*
X25726Y-46259D01*
X25726Y-46515D01*
X25728Y-46537D01*
X25730Y-46559D01*
X25731Y-46560D01*
X25731Y-46561D01*
X25737Y-46582D01*
X25743Y-46604D01*
X25744Y-46605D01*
X25744Y-46606D01*
X25755Y-46625D01*
X25765Y-46645D01*
X25765Y-46646D01*
X25766Y-46647D01*
X25780Y-46664D01*
X25794Y-46681D01*
X25795Y-46683D01*
X25795Y-46683D01*
X25795Y-46683D01*
X25796Y-46683D01*
X26214Y-47102D01*
X26214Y-47242D01*
X26006Y-47242D01*
X25979Y-47247D01*
X25954Y-47257D01*
X25931Y-47272D01*
X25912Y-47292D01*
X25897Y-47314D01*
X25887Y-47339D01*
X25881Y-47366D01*
X25881Y-47393D01*
X25881Y-47669D01*
X25887Y-47695D01*
X25897Y-47720D01*
X25912Y-47743D01*
X25931Y-47762D01*
X25939Y-47767D01*
X25931Y-47772D01*
X25912Y-47792D01*
X25897Y-47814D01*
X25887Y-47839D01*
X25881Y-47866D01*
X25881Y-47893D01*
X25881Y-48169D01*
X25887Y-48195D01*
X25897Y-48220D01*
X25912Y-48243D01*
X25931Y-48262D01*
X25939Y-48267D01*
X25931Y-48272D01*
X25912Y-48292D01*
X25897Y-48314D01*
X25887Y-48339D01*
X25881Y-48366D01*
X25881Y-48393D01*
X25881Y-48669D01*
X25887Y-48695D01*
X25897Y-48720D01*
X25912Y-48743D01*
X25931Y-48762D01*
X25939Y-48767D01*
X25931Y-48772D01*
X25912Y-48792D01*
X25897Y-48814D01*
X25887Y-48839D01*
X25881Y-48866D01*
X25881Y-48893D01*
X25881Y-49169D01*
X25887Y-49195D01*
X25897Y-49220D01*
X25912Y-49243D01*
X25931Y-49262D01*
X25954Y-49277D01*
X25979Y-49288D01*
X26006Y-49293D01*
X26033Y-49293D01*
X26808Y-49293D01*
X27219Y-49704D01*
X27219Y-50846D01*
X26437Y-50846D01*
X26437Y-51625D01*
X26277Y-51785D01*
X26265Y-51799D01*
X26254Y-51813D01*
X26253Y-51814D01*
X26252Y-51815D01*
X26244Y-51831D01*
X26235Y-51847D01*
X26235Y-51848D01*
X26234Y-51849D01*
X26229Y-51866D01*
X26223Y-51884D01*
X26223Y-51885D01*
X26223Y-51886D01*
X26221Y-51904D01*
X26219Y-51922D01*
X26219Y-51924D01*
X26219Y-51924D01*
X26219Y-51924D01*
X26219Y-51925D01*
X26219Y-52913D01*
X26221Y-52931D01*
X26222Y-52949D01*
X26223Y-52950D01*
X26223Y-52951D01*
X26228Y-52969D01*
X26233Y-52986D01*
X26234Y-52987D01*
X26234Y-52988D01*
X26243Y-53004D01*
X26251Y-53021D01*
X26252Y-53021D01*
X26252Y-53022D01*
X26264Y-53037D01*
X26275Y-53051D01*
X26276Y-53052D01*
X26276Y-53052D01*
X26277Y-53052D01*
X26277Y-53053D01*
X26671Y-53446D01*
X26685Y-53458D01*
X26699Y-53470D01*
X26700Y-53470D01*
X26700Y-53471D01*
X26717Y-53480D01*
X26733Y-53488D01*
X26734Y-53489D01*
X26735Y-53489D01*
X26752Y-53495D01*
X26769Y-53500D01*
X26770Y-53500D01*
X26771Y-53500D01*
X26790Y-53502D01*
X26808Y-53504D01*
X26810Y-53504D01*
X26810Y-53504D01*
X26810Y-53504D01*
X26811Y-53504D01*
X29488Y-53504D01*
X29506Y-53503D01*
X29524Y-53501D01*
X29525Y-53501D01*
X29526Y-53501D01*
X29544Y-53495D01*
X29561Y-53490D01*
X29562Y-53490D01*
X29563Y-53489D01*
X29579Y-53481D01*
X29595Y-53472D01*
X29596Y-53472D01*
X29597Y-53471D01*
X29611Y-53460D01*
X29626Y-53448D01*
X29627Y-53447D01*
X29627Y-53447D01*
X29627Y-53447D01*
X29628Y-53446D01*
X29982Y-53092D01*
X29993Y-53078D01*
X30005Y-53064D01*
X30006Y-53063D01*
X30006Y-53062D01*
X30015Y-53046D01*
X30024Y-53030D01*
X30024Y-53029D01*
X30025Y-53028D01*
X30030Y-53011D01*
X30035Y-52993D01*
X30036Y-52992D01*
X30036Y-52991D01*
X30038Y-52973D01*
X30040Y-52955D01*
X30040Y-52953D01*
X30040Y-52953D01*
X30040Y-52953D01*
X30040Y-52952D01*
X30040Y-49845D01*
X30769Y-49116D01*
X30781Y-49102D01*
X30793Y-49088D01*
X30793Y-49087D01*
X30794Y-49086D01*
X30802Y-49070D01*
X30811Y-49054D01*
X30812Y-49053D01*
X30812Y-49052D01*
X30817Y-49034D01*
X30823Y-49017D01*
X30823Y-49016D01*
X30823Y-49015D01*
X30825Y-48997D01*
X30827Y-48979D01*
X30827Y-48977D01*
X30827Y-48977D01*
X30827Y-48977D01*
X30827Y-48976D01*
X30827Y-49786D01*
X30799Y-49784D01*
X30783Y-49784D01*
X30767Y-49784D01*
X30765Y-49784D01*
X30665Y-49794D01*
X30650Y-49798D01*
X30634Y-49801D01*
X30632Y-49801D01*
X30632Y-49801D01*
X30632Y-49801D01*
X30536Y-49831D01*
X30521Y-49837D01*
X30506Y-49843D01*
X30504Y-49844D01*
X30504Y-49844D01*
X30504Y-49844D01*
X30416Y-49892D01*
X30403Y-49901D01*
X30390Y-49910D01*
X30388Y-49911D01*
X30388Y-49911D01*
X30388Y-49911D01*
X30311Y-49975D01*
X30299Y-49986D01*
X30288Y-49997D01*
X30286Y-49999D01*
X30223Y-50077D01*
X30214Y-50090D01*
X30205Y-50103D01*
X30204Y-50106D01*
X30204Y-50106D01*
X30204Y-50106D01*
X30204Y-50106D01*
X30157Y-50194D01*
X30151Y-50209D01*
X30145Y-50223D01*
X30144Y-50226D01*
X30115Y-50321D01*
X30112Y-50337D01*
X30109Y-50353D01*
X30109Y-50355D01*
X30109Y-50355D01*
X30109Y-50355D01*
X30099Y-50455D01*
X30099Y-50462D01*
X30098Y-50469D01*
X30098Y-50472D01*
X30098Y-53228D01*
X30098Y-53228D01*
X30098Y-53229D01*
X30098Y-53236D01*
X30099Y-53244D01*
X30099Y-53252D01*
X30099Y-53255D01*
X30110Y-53354D01*
X30114Y-53370D01*
X30117Y-53385D01*
X30117Y-53388D01*
X30148Y-53483D01*
X30154Y-53498D01*
X30160Y-53513D01*
X30161Y-53515D01*
X30161Y-53515D01*
X30161Y-53515D01*
X30209Y-53602D01*
X30218Y-53616D01*
X30227Y-53629D01*
X30229Y-53631D01*
X30229Y-53631D01*
X30229Y-53631D01*
X30229Y-53631D01*
X30293Y-53707D01*
X30305Y-53719D01*
X30316Y-53730D01*
X30318Y-53732D01*
X30318Y-53732D01*
X30318Y-53732D01*
X30318Y-53732D01*
X30396Y-53794D01*
X30409Y-53803D01*
X30422Y-53812D01*
X30425Y-53813D01*
X30425Y-53813D01*
X30425Y-53813D01*
X30513Y-53859D01*
X30528Y-53865D01*
X30543Y-53872D01*
X30545Y-53872D01*
X30545Y-53872D01*
X30641Y-53901D01*
X30657Y-53904D01*
X30672Y-53907D01*
X30675Y-53907D01*
X30675Y-53907D01*
X30774Y-53916D01*
X30790Y-53916D01*
X30807Y-53916D01*
X30809Y-53916D01*
X30908Y-53905D01*
X30924Y-53902D01*
X30940Y-53899D01*
X30942Y-53898D01*
X30942Y-53898D01*
X30942Y-53898D01*
X30942Y-53898D01*
X31038Y-53869D01*
X31052Y-53863D01*
X31067Y-53857D01*
X31069Y-53856D01*
X31070Y-53856D01*
X31070Y-53856D01*
X31070Y-53856D01*
X31157Y-53808D01*
X31171Y-53799D01*
X31184Y-53790D01*
X31186Y-53789D01*
X31186Y-53789D01*
X31186Y-53789D01*
X31186Y-53789D01*
X31263Y-53725D01*
X31274Y-53714D01*
X31286Y-53702D01*
X31287Y-53700D01*
X31287Y-53700D01*
X31287Y-53700D01*
X31287Y-53700D01*
X31350Y-53623D01*
X31359Y-53610D01*
X31368Y-53596D01*
X31370Y-53594D01*
X31370Y-53594D01*
X31370Y-53594D01*
X31370Y-53594D01*
X31417Y-53506D01*
X31423Y-53491D01*
X31429Y-53476D01*
X31430Y-53474D01*
X31430Y-53474D01*
X31459Y-53378D01*
X31462Y-53363D01*
X31465Y-53347D01*
X31465Y-53345D01*
X31465Y-53345D01*
X31465Y-53345D01*
X31465Y-53345D01*
X31475Y-53245D01*
X31475Y-53238D01*
X31476Y-53230D01*
X31476Y-53228D01*
X31476Y-54169D01*
X31466Y-54178D01*
X31294Y-54271D01*
X31107Y-54329D01*
X30904Y-54350D01*
X25807Y-54350D01*
X25807Y-53228D01*
X25807Y-50472D01*
X25807Y-50472D01*
X25807Y-50471D01*
X25807Y-50464D01*
X25806Y-50456D01*
X25806Y-50448D01*
X25805Y-50445D01*
X25794Y-50346D01*
X25791Y-50330D01*
X25788Y-50314D01*
X25787Y-50312D01*
X25787Y-50312D01*
X25757Y-50217D01*
X25751Y-50202D01*
X25744Y-50187D01*
X25743Y-50185D01*
X25743Y-50185D01*
X25695Y-50097D01*
X25686Y-50084D01*
X25677Y-50071D01*
X25676Y-50069D01*
X25676Y-50069D01*
X25676Y-50069D01*
X25611Y-49992D01*
X25600Y-49981D01*
X25589Y-49970D01*
X25587Y-49968D01*
X25587Y-49968D01*
X25587Y-49968D01*
X25509Y-49906D01*
X25495Y-49897D01*
X25482Y-49888D01*
X25480Y-49887D01*
X25480Y-49887D01*
X25480Y-49887D01*
X25391Y-49840D01*
X25377Y-49834D01*
X25362Y-49828D01*
X25359Y-49827D01*
X25359Y-49827D01*
X25359Y-49827D01*
X25264Y-49799D01*
X25248Y-49796D01*
X25232Y-49793D01*
X25230Y-49793D01*
X25130Y-49784D01*
X25114Y-49784D01*
X25098Y-49784D01*
X25096Y-49784D01*
X24996Y-49794D01*
X24980Y-49798D01*
X24965Y-49801D01*
X24962Y-49801D01*
X24962Y-49801D01*
X24962Y-49801D01*
X24867Y-49831D01*
X24852Y-49837D01*
X24837Y-49843D01*
X24835Y-49844D01*
X24835Y-49844D01*
X24835Y-49844D01*
X24747Y-49892D01*
X24734Y-49901D01*
X24720Y-49910D01*
X24718Y-49911D01*
X24718Y-49911D01*
X24718Y-49911D01*
X24642Y-49975D01*
X24630Y-49986D01*
X24619Y-49997D01*
X24617Y-49999D01*
X24554Y-50077D01*
X24545Y-50090D01*
X24536Y-50103D01*
X24535Y-50106D01*
X24535Y-50106D01*
X24535Y-50106D01*
X24535Y-50106D01*
X24488Y-50194D01*
X24482Y-50209D01*
X24476Y-50223D01*
X24475Y-50226D01*
X24446Y-50321D01*
X24443Y-50337D01*
X24439Y-50353D01*
X24439Y-50355D01*
X24439Y-50355D01*
X24439Y-50355D01*
X24429Y-50455D01*
X24429Y-50462D01*
X24429Y-50469D01*
X24429Y-50472D01*
X24429Y-53228D01*
X24429Y-53228D01*
X24429Y-53229D01*
X24429Y-53236D01*
X24430Y-53244D01*
X24430Y-53252D01*
X24430Y-53255D01*
X24441Y-53354D01*
X24444Y-53370D01*
X24447Y-53385D01*
X24448Y-53388D01*
X24478Y-53483D01*
X24485Y-53498D01*
X24491Y-53513D01*
X24492Y-53515D01*
X24492Y-53515D01*
X24492Y-53515D01*
X24540Y-53602D01*
X24549Y-53616D01*
X24558Y-53629D01*
X24560Y-53631D01*
X24560Y-53631D01*
X24560Y-53631D01*
X24560Y-53631D01*
X24624Y-53707D01*
X24635Y-53719D01*
X24647Y-53730D01*
X24649Y-53732D01*
X24649Y-53732D01*
X24649Y-53732D01*
X24649Y-53732D01*
X24726Y-53794D01*
X24740Y-53803D01*
X24753Y-53812D01*
X24755Y-53813D01*
X24755Y-53813D01*
X24755Y-53813D01*
X24844Y-53859D01*
X24859Y-53865D01*
X24873Y-53872D01*
X24876Y-53872D01*
X24876Y-53872D01*
X24972Y-53901D01*
X24987Y-53904D01*
X25003Y-53907D01*
X25006Y-53907D01*
X25006Y-53907D01*
X25105Y-53916D01*
X25121Y-53916D01*
X25137Y-53916D01*
X25140Y-53916D01*
X25239Y-53905D01*
X25255Y-53902D01*
X25271Y-53899D01*
X25273Y-53898D01*
X25273Y-53898D01*
X25273Y-53898D01*
X25273Y-53898D01*
X25368Y-53869D01*
X25383Y-53863D01*
X25398Y-53857D01*
X25400Y-53856D01*
X25400Y-53856D01*
X25400Y-53856D01*
X25400Y-53856D01*
X25488Y-53808D01*
X25501Y-53799D01*
X25515Y-53790D01*
X25517Y-53789D01*
X25517Y-53789D01*
X25517Y-53789D01*
X25517Y-53789D01*
X25594Y-53725D01*
X25605Y-53714D01*
X25616Y-53702D01*
X25618Y-53700D01*
X25618Y-53700D01*
X25618Y-53700D01*
X25618Y-53700D01*
X25681Y-53623D01*
X25690Y-53610D01*
X25699Y-53596D01*
X25700Y-53594D01*
X25700Y-53594D01*
X25700Y-53594D01*
X25700Y-53594D01*
X25747Y-53506D01*
X25753Y-53491D01*
X25760Y-53476D01*
X25760Y-53474D01*
X25760Y-53474D01*
X25789Y-53378D01*
X25792Y-53363D01*
X25796Y-53347D01*
X25796Y-53345D01*
X25796Y-53345D01*
X25796Y-53345D01*
X25796Y-53345D01*
X25806Y-53245D01*
X25806Y-53238D01*
X25807Y-53230D01*
X25807Y-53228D01*
X25807Y-54350D01*
X25008Y-54350D01*
X24805Y-54330D01*
X24617Y-54273D01*
X24444Y-54181D01*
X24293Y-54058D01*
X24168Y-53907D01*
X24075Y-53735D01*
X24017Y-53548D01*
X23996Y-53345D01*
X23996Y-16347D01*
X24016Y-16143D01*
X24072Y-15956D01*
X24164Y-15783D01*
X24288Y-15631D01*
X24439Y-15506D01*
X24611Y-15413D01*
X24798Y-15355D01*
X25001Y-15334D01*
X30896Y-15334D01*
X31100Y-15354D01*
X31287Y-15411D01*
X31460Y-15503D01*
X31612Y-15626D01*
X31737Y-15777D01*
X31830Y-15949D01*
X31888Y-16136D01*
X31909Y-16339D01*
X31909Y-53337D01*
X31909Y-53337D01*
G37*
X31909Y-53337D02*
X31889Y-53541D01*
X31832Y-53728D01*
X31775Y-53837D01*
X31775Y-26014D01*
X31773Y-25994D01*
X31771Y-25974D01*
X31771Y-25972D01*
X31771Y-25971D01*
X31765Y-25952D01*
X31759Y-25933D01*
X31759Y-25932D01*
X31758Y-25931D01*
X31749Y-25913D01*
X31740Y-25895D01*
X31739Y-25894D01*
X31738Y-25893D01*
X31726Y-25878D01*
X31713Y-25862D01*
X31711Y-25860D01*
X31711Y-25860D01*
X31711Y-25860D01*
X31711Y-25860D01*
X31476Y-25625D01*
X31476Y-19212D01*
X31476Y-16456D01*
X31476Y-16456D01*
X31476Y-16455D01*
X31476Y-16448D01*
X31475Y-16440D01*
X31475Y-16432D01*
X31475Y-16429D01*
X31464Y-16330D01*
X31460Y-16314D01*
X31457Y-16299D01*
X31456Y-16296D01*
X31456Y-16296D01*
X31426Y-16201D01*
X31420Y-16186D01*
X31414Y-16171D01*
X31413Y-16169D01*
X31413Y-16169D01*
X31364Y-16082D01*
X31355Y-16068D01*
X31346Y-16055D01*
X31345Y-16053D01*
X31345Y-16053D01*
X31345Y-16053D01*
X31281Y-15977D01*
X31269Y-15965D01*
X31258Y-15954D01*
X31256Y-15952D01*
X31256Y-15952D01*
X31256Y-15952D01*
X31178Y-15890D01*
X31165Y-15881D01*
X31151Y-15872D01*
X31149Y-15871D01*
X31149Y-15871D01*
X31149Y-15871D01*
X31061Y-15825D01*
X31046Y-15819D01*
X31031Y-15812D01*
X31029Y-15812D01*
X31029Y-15812D01*
X31029Y-15812D01*
X30933Y-15783D01*
X30917Y-15780D01*
X30901Y-15777D01*
X30899Y-15777D01*
X30799Y-15768D01*
X30783Y-15768D01*
X30767Y-15768D01*
X30765Y-15768D01*
X30665Y-15779D01*
X30650Y-15782D01*
X30634Y-15785D01*
X30632Y-15786D01*
X30632Y-15786D01*
X30632Y-15786D01*
X30536Y-15815D01*
X30521Y-15821D01*
X30506Y-15827D01*
X30504Y-15829D01*
X30504Y-15829D01*
X30504Y-15829D01*
X30416Y-15876D01*
X30403Y-15885D01*
X30390Y-15894D01*
X30388Y-15895D01*
X30388Y-15895D01*
X30388Y-15895D01*
X30311Y-15959D01*
X30299Y-15970D01*
X30288Y-15982D01*
X30286Y-15984D01*
X30223Y-16061D01*
X30214Y-16074D01*
X30205Y-16088D01*
X30204Y-16090D01*
X30204Y-16090D01*
X30204Y-16090D01*
X30204Y-16090D01*
X30157Y-16178D01*
X30151Y-16193D01*
X30145Y-16208D01*
X30144Y-16210D01*
X30115Y-16306D01*
X30112Y-16321D01*
X30109Y-16337D01*
X30109Y-16339D01*
X30109Y-16339D01*
X30109Y-16339D01*
X30099Y-16439D01*
X30099Y-16446D01*
X30098Y-16454D01*
X30098Y-16456D01*
X30098Y-19212D01*
X30098Y-19212D01*
X30098Y-19213D01*
X30098Y-19220D01*
X30099Y-19228D01*
X30099Y-19237D01*
X30099Y-19239D01*
X30110Y-19338D01*
X30114Y-19354D01*
X30117Y-19370D01*
X30117Y-19372D01*
X30148Y-19467D01*
X30154Y-19482D01*
X30160Y-19497D01*
X30161Y-19499D01*
X30161Y-19499D01*
X30161Y-19499D01*
X30209Y-19587D01*
X30218Y-19600D01*
X30227Y-19613D01*
X30229Y-19615D01*
X30229Y-19615D01*
X30229Y-19615D01*
X30229Y-19615D01*
X30293Y-19692D01*
X30305Y-19703D01*
X30316Y-19714D01*
X30318Y-19716D01*
X30318Y-19716D01*
X30318Y-19716D01*
X30318Y-19716D01*
X30396Y-19778D01*
X30409Y-19787D01*
X30422Y-19796D01*
X30425Y-19797D01*
X30425Y-19797D01*
X30425Y-19797D01*
X30513Y-19844D01*
X30528Y-19850D01*
X30543Y-19856D01*
X30545Y-19857D01*
X30545Y-19857D01*
X30641Y-19885D01*
X30657Y-19888D01*
X30672Y-19891D01*
X30675Y-19891D01*
X30675Y-19891D01*
X30774Y-19900D01*
X30790Y-19900D01*
X30807Y-19900D01*
X30809Y-19900D01*
X30908Y-19890D01*
X30924Y-19886D01*
X30940Y-19883D01*
X30942Y-19883D01*
X30942Y-19883D01*
X30942Y-19883D01*
X30942Y-19883D01*
X31038Y-19853D01*
X31052Y-19847D01*
X31067Y-19841D01*
X31069Y-19840D01*
X31070Y-19840D01*
X31070Y-19840D01*
X31070Y-19840D01*
X31157Y-19792D01*
X31171Y-19783D01*
X31184Y-19774D01*
X31186Y-19773D01*
X31186Y-19773D01*
X31186Y-19773D01*
X31186Y-19773D01*
X31263Y-19709D01*
X31274Y-19698D01*
X31286Y-19687D01*
X31287Y-19685D01*
X31287Y-19685D01*
X31287Y-19685D01*
X31287Y-19685D01*
X31350Y-19607D01*
X31359Y-19594D01*
X31368Y-19581D01*
X31370Y-19579D01*
X31370Y-19579D01*
X31370Y-19579D01*
X31370Y-19579D01*
X31417Y-19490D01*
X31423Y-19475D01*
X31429Y-19461D01*
X31430Y-19458D01*
X31430Y-19458D01*
X31459Y-19363D01*
X31462Y-19347D01*
X31465Y-19331D01*
X31465Y-19329D01*
X31465Y-19329D01*
X31465Y-19329D01*
X31465Y-19329D01*
X31475Y-19229D01*
X31475Y-19222D01*
X31476Y-19215D01*
X31476Y-19212D01*
X31476Y-25625D01*
X31443Y-25592D01*
X31442Y-25590D01*
X31441Y-25589D01*
X31441Y-25588D01*
X31428Y-25572D01*
X31415Y-25556D01*
X31414Y-25555D01*
X31414Y-25555D01*
X31414Y-25555D01*
X31413Y-25554D01*
X31320Y-25460D01*
X31320Y-22351D01*
X31331Y-22335D01*
X31352Y-22288D01*
X31364Y-22237D01*
X31365Y-22178D01*
X31355Y-22128D01*
X31335Y-22080D01*
X31306Y-22037D01*
X31270Y-22001D01*
X31227Y-21972D01*
X31180Y-21952D01*
X31129Y-21942D01*
X31078Y-21941D01*
X31027Y-21951D01*
X30980Y-21970D01*
X30936Y-21998D01*
X30900Y-22034D01*
X30870Y-22077D01*
X30850Y-22124D01*
X30839Y-22175D01*
X30839Y-22226D01*
X30848Y-22277D01*
X30867Y-22325D01*
X30884Y-22351D01*
X30884Y-22907D01*
X30883Y-22906D01*
X30883Y-22906D01*
X30883Y-22905D01*
X30882Y-22905D01*
X30656Y-22678D01*
X30628Y-22655D01*
X30600Y-22632D01*
X30599Y-22631D01*
X30597Y-22630D01*
X30566Y-22613D01*
X30534Y-22596D01*
X30532Y-22595D01*
X30530Y-22594D01*
X30496Y-22584D01*
X30462Y-22573D01*
X30460Y-22573D01*
X30458Y-22572D01*
X30422Y-22568D01*
X30387Y-22564D01*
X30383Y-22564D01*
X30383Y-22564D01*
X30383Y-22564D01*
X30381Y-22564D01*
X30015Y-22564D01*
X30014Y-22558D01*
X30004Y-22533D01*
X29988Y-22510D01*
X29969Y-22491D01*
X29947Y-22476D01*
X29922Y-22465D01*
X29895Y-22460D01*
X29868Y-22460D01*
X29506Y-22460D01*
X29490Y-22455D01*
X29488Y-22455D01*
X29486Y-22454D01*
X29450Y-22450D01*
X29414Y-22446D01*
X29410Y-22446D01*
X29410Y-22446D01*
X29410Y-22446D01*
X29409Y-22446D01*
X28976Y-22446D01*
X28917Y-22452D01*
X28942Y-22423D01*
X28978Y-22357D01*
X29001Y-22285D01*
X29009Y-22210D01*
X29009Y-22204D01*
X29009Y-22098D01*
X29014Y-22101D01*
X29041Y-22106D01*
X29068Y-22106D01*
X29777Y-22106D01*
X29803Y-22101D01*
X29829Y-22090D01*
X29851Y-22075D01*
X29870Y-22056D01*
X29885Y-22033D01*
X29896Y-22008D01*
X29901Y-21982D01*
X29901Y-21954D01*
X29901Y-21246D01*
X29901Y-20643D01*
X29901Y-20616D01*
X29901Y-19907D01*
X29896Y-19881D01*
X29885Y-19855D01*
X29870Y-19833D01*
X29851Y-19814D01*
X29829Y-19799D01*
X29803Y-19788D01*
X29797Y-19787D01*
X29797Y-19606D01*
X29793Y-19570D01*
X29790Y-19534D01*
X29790Y-19533D01*
X29789Y-19530D01*
X29779Y-19496D01*
X29769Y-19462D01*
X29768Y-19460D01*
X29767Y-19458D01*
X29751Y-19426D01*
X29734Y-19395D01*
X29733Y-19393D01*
X29732Y-19391D01*
X29709Y-19363D01*
X29687Y-19335D01*
X29684Y-19333D01*
X29684Y-19333D01*
X29684Y-19332D01*
X29683Y-19332D01*
X29368Y-19017D01*
X29341Y-18994D01*
X29313Y-18971D01*
X29311Y-18970D01*
X29310Y-18969D01*
X29278Y-18952D01*
X29247Y-18934D01*
X29245Y-18934D01*
X29243Y-18933D01*
X29209Y-18922D01*
X29175Y-18912D01*
X29173Y-18911D01*
X29171Y-18911D01*
X29135Y-18907D01*
X29099Y-18903D01*
X29095Y-18903D01*
X29095Y-18903D01*
X29095Y-18903D01*
X29094Y-18903D01*
X28705Y-18903D01*
X28673Y-18882D01*
X28590Y-18847D01*
X28501Y-18828D01*
X28410Y-18828D01*
X28321Y-18845D01*
X28237Y-18879D01*
X28161Y-18928D01*
X28096Y-18992D01*
X28045Y-19067D01*
X28009Y-19150D01*
X27990Y-19239D01*
X27989Y-19330D01*
X28005Y-19419D01*
X28039Y-19503D01*
X28088Y-19580D01*
X28151Y-19645D01*
X28225Y-19697D01*
X28309Y-19733D01*
X28397Y-19753D01*
X28488Y-19755D01*
X28577Y-19739D01*
X28662Y-19706D01*
X28705Y-19679D01*
X28933Y-19679D01*
X29021Y-19766D01*
X29021Y-19787D01*
X29014Y-19788D01*
X28989Y-19799D01*
X28967Y-19814D01*
X28948Y-19833D01*
X28933Y-19855D01*
X28922Y-19881D01*
X28917Y-19907D01*
X28917Y-19934D01*
X28917Y-20643D01*
X28922Y-20670D01*
X28933Y-20695D01*
X28948Y-20717D01*
X28967Y-20736D01*
X28989Y-20752D01*
X29014Y-20762D01*
X29041Y-20767D01*
X29068Y-20767D01*
X29777Y-20767D01*
X29803Y-20762D01*
X29829Y-20752D01*
X29851Y-20736D01*
X29870Y-20717D01*
X29885Y-20695D01*
X29896Y-20670D01*
X29901Y-20643D01*
X29901Y-21246D01*
X29896Y-21219D01*
X29885Y-21194D01*
X29870Y-21172D01*
X29851Y-21152D01*
X29829Y-21137D01*
X29803Y-21127D01*
X29777Y-21122D01*
X29750Y-21122D01*
X29041Y-21122D01*
X29014Y-21127D01*
X28989Y-21137D01*
X28967Y-21152D01*
X28948Y-21172D01*
X28933Y-21194D01*
X28922Y-21219D01*
X28921Y-21226D01*
X28759Y-21226D01*
X28724Y-21229D01*
X28720Y-21230D01*
X28720Y-21148D01*
X28714Y-21121D01*
X28714Y-21121D01*
X28714Y-20611D01*
X28714Y-20610D01*
X28720Y-20584D01*
X28720Y-20557D01*
X28720Y-19967D01*
X28714Y-19940D01*
X28704Y-19915D01*
X28689Y-19892D01*
X28670Y-19873D01*
X28647Y-19858D01*
X28622Y-19848D01*
X28595Y-19842D01*
X28568Y-19842D01*
X28057Y-19842D01*
X28031Y-19848D01*
X28005Y-19858D01*
X27983Y-19873D01*
X27964Y-19892D01*
X27952Y-19909D01*
X27941Y-19892D01*
X27922Y-19873D01*
X27899Y-19858D01*
X27874Y-19848D01*
X27847Y-19842D01*
X27840Y-19842D01*
X27840Y-19544D01*
X27857Y-19521D01*
X27894Y-19438D01*
X27914Y-19349D01*
X27915Y-19245D01*
X27897Y-19156D01*
X27863Y-19073D01*
X27813Y-18997D01*
X27749Y-18933D01*
X27673Y-18882D01*
X27590Y-18847D01*
X27501Y-18828D01*
X27410Y-18828D01*
X27321Y-18845D01*
X27237Y-18879D01*
X27161Y-18928D01*
X27096Y-18992D01*
X27045Y-19067D01*
X27009Y-19150D01*
X26990Y-19239D01*
X26989Y-19330D01*
X27005Y-19419D01*
X27039Y-19503D01*
X27064Y-19543D01*
X27064Y-20149D01*
X27068Y-20185D01*
X27071Y-20220D01*
X27072Y-20222D01*
X27072Y-20224D01*
X27082Y-20259D01*
X27092Y-20293D01*
X27093Y-20295D01*
X27094Y-20297D01*
X27111Y-20329D01*
X27127Y-20360D01*
X27128Y-20362D01*
X27129Y-20364D01*
X27152Y-20391D01*
X27174Y-20419D01*
X27177Y-20422D01*
X27177Y-20422D01*
X27177Y-20422D01*
X27178Y-20423D01*
X27185Y-20430D01*
X27185Y-20584D01*
X27190Y-20610D01*
X27190Y-20611D01*
X27190Y-21068D01*
X26251Y-21068D01*
X26216Y-21072D01*
X26180Y-21075D01*
X26178Y-21076D01*
X26176Y-21076D01*
X26142Y-21086D01*
X26107Y-21096D01*
X26106Y-21097D01*
X26104Y-21098D01*
X26072Y-21114D01*
X26040Y-21131D01*
X26039Y-21132D01*
X26037Y-21133D01*
X26009Y-21156D01*
X25981Y-21178D01*
X25978Y-21181D01*
X25978Y-21181D01*
X25978Y-21181D01*
X25977Y-21182D01*
X25807Y-21353D01*
X25807Y-19212D01*
X25807Y-16456D01*
X25807Y-16456D01*
X25807Y-16455D01*
X25807Y-16448D01*
X25806Y-16440D01*
X25806Y-16432D01*
X25805Y-16429D01*
X25794Y-16330D01*
X25791Y-16314D01*
X25788Y-16299D01*
X25787Y-16296D01*
X25787Y-16296D01*
X25757Y-16201D01*
X25751Y-16186D01*
X25744Y-16171D01*
X25743Y-16169D01*
X25743Y-16169D01*
X25695Y-16082D01*
X25686Y-16068D01*
X25677Y-16055D01*
X25676Y-16053D01*
X25676Y-16053D01*
X25676Y-16053D01*
X25611Y-15977D01*
X25600Y-15965D01*
X25589Y-15954D01*
X25587Y-15952D01*
X25587Y-15952D01*
X25587Y-15952D01*
X25509Y-15890D01*
X25495Y-15881D01*
X25482Y-15872D01*
X25480Y-15871D01*
X25480Y-15871D01*
X25480Y-15871D01*
X25391Y-15825D01*
X25377Y-15819D01*
X25362Y-15812D01*
X25359Y-15812D01*
X25359Y-15812D01*
X25359Y-15812D01*
X25264Y-15783D01*
X25248Y-15780D01*
X25232Y-15777D01*
X25230Y-15777D01*
X25130Y-15768D01*
X25114Y-15768D01*
X25098Y-15768D01*
X25096Y-15768D01*
X24996Y-15779D01*
X24980Y-15782D01*
X24965Y-15785D01*
X24962Y-15786D01*
X24962Y-15786D01*
X24962Y-15786D01*
X24867Y-15815D01*
X24852Y-15821D01*
X24837Y-15827D01*
X24835Y-15829D01*
X24835Y-15829D01*
X24835Y-15829D01*
X24747Y-15876D01*
X24734Y-15885D01*
X24720Y-15894D01*
X24718Y-15895D01*
X24718Y-15895D01*
X24718Y-15895D01*
X24642Y-15959D01*
X24630Y-15970D01*
X24619Y-15982D01*
X24617Y-15984D01*
X24554Y-16061D01*
X24545Y-16074D01*
X24536Y-16088D01*
X24535Y-16090D01*
X24535Y-16090D01*
X24535Y-16090D01*
X24535Y-16090D01*
X24488Y-16178D01*
X24482Y-16193D01*
X24476Y-16208D01*
X24475Y-16210D01*
X24446Y-16306D01*
X24443Y-16321D01*
X24439Y-16337D01*
X24439Y-16339D01*
X24439Y-16339D01*
X24439Y-16339D01*
X24429Y-16439D01*
X24429Y-16446D01*
X24429Y-16454D01*
X24429Y-16456D01*
X24429Y-19212D01*
X24429Y-19212D01*
X24429Y-19213D01*
X24429Y-19220D01*
X24430Y-19228D01*
X24430Y-19237D01*
X24430Y-19239D01*
X24441Y-19338D01*
X24444Y-19354D01*
X24447Y-19370D01*
X24448Y-19372D01*
X24478Y-19467D01*
X24485Y-19482D01*
X24491Y-19497D01*
X24492Y-19499D01*
X24492Y-19499D01*
X24492Y-19499D01*
X24540Y-19587D01*
X24549Y-19600D01*
X24558Y-19613D01*
X24560Y-19615D01*
X24560Y-19615D01*
X24560Y-19615D01*
X24560Y-19615D01*
X24624Y-19692D01*
X24635Y-19703D01*
X24647Y-19714D01*
X24649Y-19716D01*
X24649Y-19716D01*
X24649Y-19716D01*
X24649Y-19716D01*
X24726Y-19778D01*
X24740Y-19787D01*
X24753Y-19796D01*
X24755Y-19797D01*
X24755Y-19797D01*
X24755Y-19797D01*
X24844Y-19844D01*
X24859Y-19850D01*
X24873Y-19856D01*
X24876Y-19857D01*
X24876Y-19857D01*
X24972Y-19885D01*
X24987Y-19888D01*
X25003Y-19891D01*
X25006Y-19891D01*
X25006Y-19891D01*
X25105Y-19900D01*
X25121Y-19900D01*
X25137Y-19900D01*
X25140Y-19900D01*
X25239Y-19890D01*
X25255Y-19886D01*
X25271Y-19883D01*
X25273Y-19883D01*
X25273Y-19883D01*
X25273Y-19883D01*
X25273Y-19883D01*
X25368Y-19853D01*
X25383Y-19847D01*
X25398Y-19841D01*
X25400Y-19840D01*
X25400Y-19840D01*
X25400Y-19840D01*
X25400Y-19840D01*
X25488Y-19792D01*
X25501Y-19783D01*
X25515Y-19774D01*
X25517Y-19773D01*
X25517Y-19773D01*
X25517Y-19773D01*
X25517Y-19773D01*
X25594Y-19709D01*
X25605Y-19698D01*
X25616Y-19687D01*
X25618Y-19685D01*
X25618Y-19685D01*
X25618Y-19685D01*
X25618Y-19685D01*
X25681Y-19607D01*
X25690Y-19594D01*
X25699Y-19581D01*
X25700Y-19579D01*
X25700Y-19579D01*
X25700Y-19579D01*
X25700Y-19579D01*
X25747Y-19490D01*
X25753Y-19475D01*
X25760Y-19461D01*
X25760Y-19458D01*
X25760Y-19458D01*
X25789Y-19363D01*
X25792Y-19347D01*
X25796Y-19331D01*
X25796Y-19329D01*
X25796Y-19329D01*
X25796Y-19329D01*
X25796Y-19329D01*
X25806Y-19229D01*
X25806Y-19222D01*
X25807Y-19215D01*
X25807Y-19212D01*
X25807Y-21353D01*
X25434Y-21725D01*
X25386Y-21784D01*
X25350Y-21850D01*
X25328Y-21923D01*
X25320Y-21998D01*
X25327Y-22073D01*
X25349Y-22146D01*
X25384Y-22213D01*
X25390Y-22220D01*
X25390Y-22755D01*
X25393Y-22788D01*
X25393Y-23045D01*
X25398Y-23071D01*
X25409Y-23096D01*
X25424Y-23119D01*
X25443Y-23138D01*
X25466Y-23153D01*
X25468Y-23154D01*
X25038Y-23584D01*
X25024Y-23601D01*
X25010Y-23618D01*
X25009Y-23619D01*
X25009Y-23620D01*
X24998Y-23640D01*
X24988Y-23659D01*
X24987Y-23660D01*
X24987Y-23661D01*
X24980Y-23682D01*
X24974Y-23703D01*
X24974Y-23704D01*
X24973Y-23706D01*
X24971Y-23727D01*
X24969Y-23749D01*
X24969Y-23752D01*
X24969Y-23752D01*
X24969Y-23752D01*
X24969Y-23753D01*
X24969Y-41212D01*
X24928Y-41185D01*
X24881Y-41165D01*
X24830Y-41154D01*
X24779Y-41154D01*
X24728Y-41163D01*
X24680Y-41183D01*
X24637Y-41211D01*
X24600Y-41247D01*
X24571Y-41290D01*
X24551Y-41337D01*
X24540Y-41387D01*
X24540Y-41400D01*
X24190Y-41749D01*
X24179Y-41764D01*
X24167Y-41778D01*
X24167Y-41778D01*
X24166Y-41779D01*
X24157Y-41795D01*
X24148Y-41811D01*
X24148Y-41812D01*
X24148Y-41813D01*
X24142Y-41831D01*
X24137Y-41848D01*
X24137Y-41849D01*
X24136Y-41850D01*
X24134Y-41868D01*
X24132Y-41887D01*
X24132Y-41889D01*
X24132Y-41889D01*
X24132Y-41889D01*
X24132Y-41889D01*
X24132Y-46338D01*
X24134Y-46356D01*
X24136Y-46374D01*
X24136Y-46375D01*
X24136Y-46377D01*
X24141Y-46394D01*
X24147Y-46412D01*
X24147Y-46412D01*
X24147Y-46413D01*
X24156Y-46430D01*
X24164Y-46446D01*
X24165Y-46447D01*
X24165Y-46448D01*
X24177Y-46462D01*
X24188Y-46476D01*
X24190Y-46477D01*
X24190Y-46477D01*
X24190Y-46477D01*
X24190Y-46478D01*
X24813Y-47101D01*
X24813Y-47101D01*
X24813Y-47101D01*
X24815Y-47103D01*
X24815Y-47108D01*
X24824Y-47159D01*
X24843Y-47207D01*
X24871Y-47250D01*
X24907Y-47287D01*
X24949Y-47317D01*
X24997Y-47337D01*
X25047Y-47348D01*
X25098Y-47349D01*
X25149Y-47340D01*
X25197Y-47322D01*
X25241Y-47294D01*
X25278Y-47259D01*
X25308Y-47217D01*
X25329Y-47169D01*
X25340Y-47119D01*
X25341Y-47060D01*
X25331Y-47010D01*
X25311Y-46962D01*
X25283Y-46919D01*
X25247Y-46883D01*
X25204Y-46854D01*
X25177Y-46842D01*
X25177Y-46239D01*
X25177Y-45866D01*
X25177Y-45787D01*
X25177Y-45413D01*
X25177Y-45176D01*
X25177Y-44803D01*
X25177Y-44724D01*
X25177Y-44350D01*
X25137Y-44311D01*
X24945Y-44311D01*
X24915Y-44317D01*
X24886Y-44329D01*
X24860Y-44346D01*
X24838Y-44368D01*
X24821Y-44394D01*
X24809Y-44422D01*
X24803Y-44453D01*
X24803Y-44484D01*
X24803Y-44685D01*
X24842Y-44724D01*
X25177Y-44724D01*
X25177Y-44803D01*
X24842Y-44803D01*
X24803Y-44842D01*
X24803Y-45043D01*
X24803Y-45074D01*
X24809Y-45104D01*
X24821Y-45133D01*
X24838Y-45159D01*
X24860Y-45181D01*
X24886Y-45198D01*
X24915Y-45210D01*
X24945Y-45216D01*
X25137Y-45216D01*
X25177Y-45176D01*
X25177Y-45413D01*
X25137Y-45374D01*
X24945Y-45374D01*
X24915Y-45380D01*
X24886Y-45392D01*
X24860Y-45409D01*
X24838Y-45431D01*
X24821Y-45457D01*
X24809Y-45485D01*
X24803Y-45516D01*
X24803Y-45547D01*
X24803Y-45748D01*
X24842Y-45787D01*
X25177Y-45787D01*
X25177Y-45866D01*
X24842Y-45866D01*
X24803Y-45905D01*
X24803Y-46106D01*
X24803Y-46137D01*
X24809Y-46167D01*
X24821Y-46196D01*
X24838Y-46222D01*
X24860Y-46244D01*
X24886Y-46261D01*
X24915Y-46273D01*
X24945Y-46279D01*
X25137Y-46279D01*
X25177Y-46239D01*
X25177Y-46842D01*
X25156Y-46834D01*
X25106Y-46823D01*
X25095Y-46823D01*
X25093Y-46821D01*
X25093Y-46821D01*
X25093Y-46821D01*
X24528Y-46256D01*
X24528Y-42051D01*
X24533Y-42062D01*
X24550Y-42088D01*
X24572Y-42110D01*
X24598Y-42127D01*
X24626Y-42139D01*
X24657Y-42145D01*
X24692Y-42145D01*
X24719Y-42118D01*
X24732Y-42122D01*
X24768Y-42126D01*
X24771Y-42126D01*
X24823Y-42126D01*
X24823Y-42198D01*
X24828Y-42224D01*
X24838Y-42250D01*
X24854Y-42272D01*
X24873Y-42291D01*
X24895Y-42306D01*
X24920Y-42317D01*
X24947Y-42322D01*
X24974Y-42322D01*
X25485Y-42322D01*
X25512Y-42317D01*
X25537Y-42306D01*
X25559Y-42291D01*
X25579Y-42272D01*
X25590Y-42255D01*
X25602Y-42272D01*
X25621Y-42291D01*
X25643Y-42306D01*
X25668Y-42317D01*
X25695Y-42322D01*
X25722Y-42322D01*
X25726Y-42322D01*
X25726Y-42381D01*
X25728Y-42403D01*
X25730Y-42425D01*
X25731Y-42426D01*
X25731Y-42428D01*
X25737Y-42449D01*
X25743Y-42470D01*
X25744Y-42471D01*
X25744Y-42472D01*
X25755Y-42491D01*
X25765Y-42511D01*
X25765Y-42512D01*
X25766Y-42513D01*
X25780Y-42530D01*
X25794Y-42547D01*
X25795Y-42549D01*
X25795Y-42549D01*
X25795Y-42549D01*
X25796Y-42550D01*
X25864Y-42618D01*
X25864Y-42667D01*
X25842Y-42667D01*
X25816Y-42672D01*
X25791Y-42683D01*
X25768Y-42698D01*
X25749Y-42717D01*
X25735Y-42738D01*
X25731Y-42738D01*
X25730Y-42738D01*
X25729Y-42739D01*
X25711Y-42744D01*
X25694Y-42749D01*
X25693Y-42749D01*
X25692Y-42750D01*
X25676Y-42758D01*
X25659Y-42767D01*
X25659Y-42767D01*
X25658Y-42768D01*
X25644Y-42779D01*
X25629Y-42791D01*
X25628Y-42792D01*
X25628Y-42792D01*
X25628Y-42792D01*
X25627Y-42793D01*
X25462Y-42958D01*
X25462Y-42791D01*
X25457Y-42764D01*
X25446Y-42739D01*
X25431Y-42717D01*
X25412Y-42698D01*
X25390Y-42683D01*
X25364Y-42672D01*
X25338Y-42667D01*
X25311Y-42667D01*
X24819Y-42667D01*
X24792Y-42672D01*
X24767Y-42683D01*
X24744Y-42698D01*
X24725Y-42717D01*
X24710Y-42739D01*
X24700Y-42764D01*
X24694Y-42791D01*
X24694Y-42818D01*
X24694Y-43074D01*
X24699Y-43095D01*
X24693Y-43104D01*
X24681Y-43133D01*
X24675Y-43163D01*
X24675Y-43228D01*
X24714Y-43267D01*
X25039Y-43267D01*
X25039Y-43259D01*
X25118Y-43259D01*
X25118Y-43267D01*
X25125Y-43267D01*
X25125Y-43346D01*
X25118Y-43346D01*
X25118Y-43354D01*
X25039Y-43354D01*
X25039Y-43346D01*
X24714Y-43346D01*
X24675Y-43385D01*
X24675Y-43450D01*
X24681Y-43480D01*
X24693Y-43509D01*
X24699Y-43518D01*
X24694Y-43539D01*
X24694Y-43566D01*
X24694Y-43822D01*
X24700Y-43849D01*
X24710Y-43874D01*
X24725Y-43896D01*
X24744Y-43916D01*
X24767Y-43931D01*
X24792Y-43941D01*
X24819Y-43946D01*
X24846Y-43946D01*
X25338Y-43946D01*
X25364Y-43941D01*
X25390Y-43931D01*
X25412Y-43916D01*
X25431Y-43896D01*
X25443Y-43878D01*
X25492Y-43878D01*
X25510Y-43877D01*
X25528Y-43875D01*
X25529Y-43875D01*
X25530Y-43875D01*
X25548Y-43869D01*
X25565Y-43864D01*
X25566Y-43864D01*
X25567Y-43863D01*
X25583Y-43855D01*
X25599Y-43846D01*
X25600Y-43846D01*
X25601Y-43845D01*
X25615Y-43834D01*
X25630Y-43822D01*
X25631Y-43821D01*
X25631Y-43821D01*
X25631Y-43821D01*
X25631Y-43820D01*
X25718Y-43734D01*
X25718Y-43822D01*
X25723Y-43849D01*
X25734Y-43874D01*
X25749Y-43896D01*
X25768Y-43916D01*
X25791Y-43931D01*
X25816Y-43941D01*
X25842Y-43946D01*
X25869Y-43946D01*
X26361Y-43946D01*
X26388Y-43941D01*
X26413Y-43931D01*
X26436Y-43916D01*
X26455Y-43896D01*
X26470Y-43874D01*
X26480Y-43849D01*
X26486Y-43822D01*
X26486Y-43795D01*
X26486Y-43544D01*
X26659Y-43544D01*
X26690Y-43558D01*
X26740Y-43569D01*
X26791Y-43570D01*
X26842Y-43561D01*
X26890Y-43542D01*
X26934Y-43515D01*
X26971Y-43479D01*
X27001Y-43437D01*
X27022Y-43390D01*
X27033Y-43340D01*
X27034Y-43281D01*
X27024Y-43230D01*
X27004Y-43183D01*
X26976Y-43140D01*
X26939Y-43103D01*
X26897Y-43074D01*
X26849Y-43054D01*
X26799Y-43044D01*
X26747Y-43044D01*
X26697Y-43053D01*
X26658Y-43069D01*
X26486Y-43069D01*
X26486Y-43047D01*
X26486Y-42791D01*
X26480Y-42764D01*
X26470Y-42739D01*
X26455Y-42717D01*
X26436Y-42698D01*
X26413Y-42683D01*
X26388Y-42672D01*
X26361Y-42667D01*
X26340Y-42667D01*
X26340Y-42519D01*
X26338Y-42497D01*
X26336Y-42475D01*
X26335Y-42474D01*
X26335Y-42473D01*
X26329Y-42452D01*
X26323Y-42431D01*
X26322Y-42430D01*
X26322Y-42429D01*
X26311Y-42409D01*
X26301Y-42390D01*
X26301Y-42389D01*
X26300Y-42388D01*
X26286Y-42371D01*
X26272Y-42353D01*
X26271Y-42352D01*
X26271Y-42352D01*
X26271Y-42352D01*
X26270Y-42351D01*
X26240Y-42321D01*
X26260Y-42317D01*
X26285Y-42306D01*
X26307Y-42291D01*
X26327Y-42272D01*
X26342Y-42250D01*
X26352Y-42224D01*
X26357Y-42198D01*
X26357Y-42171D01*
X26357Y-41581D01*
X26352Y-41554D01*
X26342Y-41529D01*
X26327Y-41506D01*
X26307Y-41487D01*
X26285Y-41472D01*
X26260Y-41462D01*
X26233Y-41456D01*
X26206Y-41456D01*
X26202Y-41456D01*
X26202Y-41141D01*
X26546Y-40798D01*
X26560Y-40781D01*
X26574Y-40764D01*
X26574Y-40763D01*
X26575Y-40762D01*
X26585Y-40742D01*
X26596Y-40723D01*
X26596Y-40722D01*
X26597Y-40721D01*
X26603Y-40700D01*
X26610Y-40679D01*
X26610Y-40678D01*
X26611Y-40676D01*
X26613Y-40655D01*
X26615Y-40633D01*
X26615Y-40630D01*
X26615Y-40630D01*
X26615Y-40630D01*
X26615Y-40629D01*
X26615Y-31320D01*
X29141Y-28794D01*
X29139Y-28813D01*
X29139Y-28817D01*
X29139Y-28817D01*
X29139Y-28817D01*
X29139Y-28818D01*
X29139Y-31177D01*
X27678Y-32639D01*
X27655Y-32666D01*
X27632Y-32694D01*
X27631Y-32696D01*
X27630Y-32697D01*
X27613Y-32729D01*
X27596Y-32760D01*
X27595Y-32762D01*
X27594Y-32764D01*
X27584Y-32798D01*
X27573Y-32832D01*
X27573Y-32834D01*
X27572Y-32836D01*
X27568Y-32872D01*
X27564Y-32907D01*
X27564Y-32911D01*
X27564Y-32912D01*
X27564Y-32912D01*
X27564Y-32913D01*
X27564Y-46029D01*
X27371Y-46029D01*
X27295Y-46036D01*
X27223Y-46058D01*
X27156Y-46094D01*
X27097Y-46142D01*
X27049Y-46200D01*
X27013Y-46267D01*
X26991Y-46339D01*
X26983Y-46414D01*
X26990Y-46489D01*
X27011Y-46562D01*
X27046Y-46629D01*
X27094Y-46688D01*
X27152Y-46737D01*
X27218Y-46773D01*
X27290Y-46796D01*
X27365Y-46805D01*
X27371Y-46805D01*
X27670Y-46805D01*
X27952Y-46805D01*
X27989Y-46801D01*
X28025Y-46798D01*
X28026Y-46797D01*
X28028Y-46797D01*
X28063Y-46787D01*
X28098Y-46776D01*
X28099Y-46776D01*
X28100Y-46775D01*
X28132Y-46758D01*
X28165Y-46741D01*
X28166Y-46740D01*
X28167Y-46740D01*
X28195Y-46717D01*
X28224Y-46694D01*
X28224Y-46693D01*
X28226Y-46692D01*
X28249Y-46664D01*
X28272Y-46636D01*
X28273Y-46635D01*
X28274Y-46634D01*
X28291Y-46602D01*
X28309Y-46570D01*
X28309Y-46568D01*
X28310Y-46567D01*
X28321Y-46532D01*
X28332Y-46497D01*
X28332Y-46496D01*
X28332Y-46495D01*
X28336Y-46458D01*
X28340Y-46422D01*
X28340Y-46420D01*
X28340Y-46420D01*
X28340Y-46419D01*
X28340Y-46417D01*
X28340Y-33074D01*
X29801Y-31612D01*
X29824Y-31585D01*
X29847Y-31557D01*
X29848Y-31555D01*
X29849Y-31554D01*
X29866Y-31522D01*
X29883Y-31491D01*
X29884Y-31489D01*
X29885Y-31487D01*
X29896Y-31453D01*
X29906Y-31419D01*
X29907Y-31417D01*
X29907Y-31415D01*
X29911Y-31379D01*
X29915Y-31343D01*
X29915Y-31340D01*
X29915Y-31339D01*
X29915Y-31339D01*
X29915Y-31338D01*
X29915Y-29645D01*
X29917Y-29651D01*
X29932Y-29674D01*
X29951Y-29693D01*
X29974Y-29708D01*
X29999Y-29718D01*
X30026Y-29724D01*
X30053Y-29724D01*
X30099Y-29724D01*
X30100Y-29741D01*
X30101Y-29742D01*
X30101Y-29743D01*
X30106Y-29760D01*
X30111Y-29778D01*
X30112Y-29779D01*
X30112Y-29780D01*
X30121Y-29796D01*
X30129Y-29812D01*
X30130Y-29813D01*
X30130Y-29814D01*
X30142Y-29828D01*
X30153Y-29842D01*
X30154Y-29844D01*
X30154Y-29844D01*
X30154Y-29844D01*
X30155Y-29844D01*
X30471Y-30160D01*
X30471Y-30219D01*
X30467Y-30223D01*
X30437Y-30266D01*
X30417Y-30313D01*
X30406Y-30364D01*
X30406Y-30415D01*
X30415Y-30466D01*
X30434Y-30514D01*
X30462Y-30557D01*
X30498Y-30594D01*
X30540Y-30624D01*
X30587Y-30644D01*
X30638Y-30655D01*
X30689Y-30656D01*
X30740Y-30648D01*
X30788Y-30629D01*
X30831Y-30601D01*
X30869Y-30566D01*
X30898Y-30524D01*
X30919Y-30477D01*
X30931Y-30426D01*
X30932Y-30367D01*
X30922Y-30317D01*
X30902Y-30269D01*
X30873Y-30226D01*
X30867Y-30219D01*
X30867Y-30078D01*
X30865Y-30060D01*
X30863Y-30042D01*
X30863Y-30041D01*
X30863Y-30040D01*
X30858Y-30022D01*
X30852Y-30005D01*
X30852Y-30004D01*
X30852Y-30003D01*
X30843Y-29987D01*
X30835Y-29971D01*
X30834Y-29970D01*
X30834Y-29969D01*
X30822Y-29955D01*
X30811Y-29940D01*
X30809Y-29939D01*
X30809Y-29939D01*
X30809Y-29939D01*
X30809Y-29938D01*
X30589Y-29719D01*
X30590Y-29718D01*
X30616Y-29708D01*
X30638Y-29693D01*
X30657Y-29674D01*
X30665Y-29686D01*
X30687Y-29708D01*
X30713Y-29725D01*
X30741Y-29737D01*
X30772Y-29743D01*
X30964Y-29743D01*
X31003Y-29704D01*
X31003Y-29330D01*
X30996Y-29330D01*
X30996Y-29251D01*
X31003Y-29251D01*
X31003Y-28878D01*
X30964Y-28838D01*
X30772Y-28838D01*
X30741Y-28844D01*
X30713Y-28856D01*
X30687Y-28874D01*
X30665Y-28895D01*
X30657Y-28908D01*
X30638Y-28889D01*
X30616Y-28874D01*
X30590Y-28863D01*
X30564Y-28858D01*
X30537Y-28858D01*
X30036Y-28858D01*
X30884Y-28010D01*
X30906Y-27983D01*
X30929Y-27955D01*
X30930Y-27953D01*
X30932Y-27952D01*
X30949Y-27920D01*
X30966Y-27889D01*
X30967Y-27887D01*
X30967Y-27885D01*
X30978Y-27851D01*
X30989Y-27817D01*
X30989Y-27815D01*
X30990Y-27813D01*
X30993Y-27777D01*
X30997Y-27741D01*
X30997Y-27737D01*
X30997Y-27737D01*
X30997Y-27737D01*
X30997Y-27736D01*
X30997Y-27538D01*
X31410Y-27538D01*
X31437Y-27533D01*
X31462Y-27523D01*
X31485Y-27508D01*
X31504Y-27488D01*
X31519Y-27466D01*
X31529Y-27441D01*
X31535Y-27414D01*
X31535Y-27387D01*
X31535Y-27363D01*
X31557Y-27363D01*
X31577Y-27361D01*
X31598Y-27359D01*
X31598Y-27359D01*
X31599Y-27359D01*
X31619Y-27353D01*
X31638Y-27347D01*
X31639Y-27347D01*
X31640Y-27347D01*
X31658Y-27337D01*
X31676Y-27327D01*
X31677Y-27327D01*
X31677Y-27327D01*
X31693Y-27314D01*
X31709Y-27301D01*
X31710Y-27300D01*
X31710Y-27300D01*
X31723Y-27284D01*
X31737Y-27268D01*
X31737Y-27268D01*
X31737Y-27267D01*
X31747Y-27249D01*
X31757Y-27231D01*
X31757Y-27230D01*
X31758Y-27230D01*
X31764Y-27210D01*
X31770Y-27190D01*
X31770Y-27190D01*
X31770Y-27189D01*
X31772Y-27169D01*
X31775Y-27148D01*
X31775Y-27147D01*
X31775Y-27147D01*
X31775Y-27147D01*
X31775Y-27145D01*
X31775Y-26014D01*
X31775Y-53837D01*
X31741Y-53901D01*
X31633Y-54033D01*
X31633Y-40702D01*
X31633Y-40675D01*
X31633Y-40085D01*
X31628Y-40058D01*
X31617Y-40033D01*
X31602Y-40010D01*
X31583Y-39991D01*
X31560Y-39976D01*
X31535Y-39966D01*
X31509Y-39960D01*
X31482Y-39960D01*
X31456Y-39960D01*
X31456Y-29601D01*
X31456Y-29570D01*
X31456Y-29370D01*
X31456Y-29212D01*
X31456Y-29011D01*
X31456Y-28980D01*
X31450Y-28950D01*
X31438Y-28921D01*
X31421Y-28895D01*
X31399Y-28874D01*
X31373Y-28856D01*
X31344Y-28844D01*
X31314Y-28838D01*
X31122Y-28838D01*
X31082Y-28878D01*
X31082Y-29251D01*
X31416Y-29251D01*
X31456Y-29212D01*
X31456Y-29370D01*
X31416Y-29330D01*
X31082Y-29330D01*
X31082Y-29704D01*
X31122Y-29743D01*
X31314Y-29743D01*
X31344Y-29737D01*
X31373Y-29725D01*
X31399Y-29708D01*
X31421Y-29686D01*
X31438Y-29660D01*
X31450Y-29632D01*
X31456Y-29601D01*
X31456Y-39960D01*
X30971Y-39960D01*
X30944Y-39966D01*
X30919Y-39976D01*
X30896Y-39991D01*
X30877Y-40010D01*
X30866Y-40028D01*
X30854Y-40010D01*
X30835Y-39991D01*
X30812Y-39976D01*
X30787Y-39966D01*
X30761Y-39960D01*
X30734Y-39960D01*
X30689Y-39960D01*
X30689Y-39629D01*
X31163Y-39155D01*
X31175Y-39141D01*
X31186Y-39127D01*
X31187Y-39126D01*
X31187Y-39125D01*
X31196Y-39109D01*
X31205Y-39093D01*
X31205Y-39092D01*
X31206Y-39091D01*
X31211Y-39074D01*
X31217Y-39056D01*
X31217Y-39055D01*
X31217Y-39054D01*
X31219Y-39036D01*
X31221Y-39018D01*
X31221Y-39016D01*
X31221Y-39016D01*
X31221Y-39016D01*
X31221Y-39015D01*
X31221Y-33206D01*
X31223Y-33204D01*
X31253Y-33161D01*
X31274Y-33114D01*
X31285Y-33064D01*
X31286Y-33005D01*
X31276Y-32955D01*
X31256Y-32907D01*
X31228Y-32864D01*
X31191Y-32828D01*
X31149Y-32799D01*
X31101Y-32779D01*
X31051Y-32768D01*
X30999Y-32768D01*
X30949Y-32778D01*
X30901Y-32797D01*
X30858Y-32825D01*
X30821Y-32861D01*
X30792Y-32904D01*
X30771Y-32951D01*
X30761Y-33002D01*
X30760Y-33053D01*
X30769Y-33104D01*
X30788Y-33152D01*
X30816Y-33195D01*
X30825Y-33204D01*
X30825Y-38933D01*
X30352Y-39407D01*
X30340Y-39421D01*
X30328Y-39435D01*
X30328Y-39436D01*
X30327Y-39437D01*
X30319Y-39453D01*
X30310Y-39469D01*
X30310Y-39470D01*
X30309Y-39471D01*
X30304Y-39488D01*
X30298Y-39506D01*
X30298Y-39507D01*
X30298Y-39508D01*
X30296Y-39526D01*
X30294Y-39544D01*
X30294Y-39546D01*
X30294Y-39546D01*
X30294Y-39546D01*
X30294Y-39547D01*
X30294Y-39960D01*
X30223Y-39960D01*
X30196Y-39966D01*
X30171Y-39976D01*
X30148Y-39991D01*
X30129Y-40010D01*
X30114Y-40033D01*
X30104Y-40058D01*
X30098Y-40085D01*
X30098Y-40112D01*
X30098Y-40702D01*
X30104Y-40728D01*
X30114Y-40753D01*
X30129Y-40776D01*
X30148Y-40795D01*
X30171Y-40810D01*
X30196Y-40821D01*
X30223Y-40826D01*
X30250Y-40826D01*
X30294Y-40826D01*
X30294Y-45213D01*
X27898Y-47609D01*
X27898Y-47609D01*
X27896Y-47611D01*
X27889Y-47611D01*
X27838Y-47620D01*
X27791Y-47639D01*
X27747Y-47668D01*
X27711Y-47704D01*
X27681Y-47746D01*
X27661Y-47794D01*
X27650Y-47844D01*
X27650Y-47896D01*
X27659Y-47946D01*
X27678Y-47994D01*
X27706Y-48038D01*
X27742Y-48075D01*
X27784Y-48104D01*
X27831Y-48125D01*
X27882Y-48136D01*
X27933Y-48137D01*
X27984Y-48128D01*
X28032Y-48109D01*
X28075Y-48082D01*
X28113Y-48046D01*
X28142Y-48004D01*
X28163Y-47957D01*
X28175Y-47907D01*
X28175Y-47891D01*
X28178Y-47888D01*
X28178Y-47888D01*
X28178Y-47888D01*
X30632Y-45435D01*
X30643Y-45421D01*
X30655Y-45407D01*
X30655Y-45406D01*
X30656Y-45405D01*
X30665Y-45389D01*
X30673Y-45373D01*
X30674Y-45372D01*
X30674Y-45371D01*
X30680Y-45353D01*
X30685Y-45336D01*
X30685Y-45335D01*
X30686Y-45334D01*
X30687Y-45316D01*
X30689Y-45298D01*
X30689Y-45295D01*
X30689Y-45295D01*
X30689Y-45295D01*
X30689Y-45295D01*
X30689Y-41523D01*
X30691Y-41529D01*
X30710Y-41577D01*
X30737Y-41620D01*
X30773Y-41657D01*
X30816Y-41687D01*
X30863Y-41707D01*
X30913Y-41718D01*
X30965Y-41719D01*
X31015Y-41711D01*
X31063Y-41692D01*
X31107Y-41664D01*
X31144Y-41629D01*
X31174Y-41587D01*
X31195Y-41540D01*
X31206Y-41489D01*
X31207Y-41430D01*
X31197Y-41380D01*
X31178Y-41332D01*
X31167Y-41316D01*
X31380Y-41104D01*
X31391Y-41090D01*
X31403Y-41076D01*
X31403Y-41075D01*
X31404Y-41074D01*
X31413Y-41058D01*
X31421Y-41042D01*
X31422Y-41041D01*
X31422Y-41040D01*
X31428Y-41023D01*
X31433Y-41005D01*
X31433Y-41004D01*
X31434Y-41003D01*
X31435Y-40985D01*
X31437Y-40967D01*
X31437Y-40965D01*
X31437Y-40965D01*
X31437Y-40965D01*
X31437Y-40964D01*
X31437Y-40826D01*
X31509Y-40826D01*
X31535Y-40821D01*
X31560Y-40810D01*
X31583Y-40795D01*
X31602Y-40776D01*
X31617Y-40753D01*
X31628Y-40728D01*
X31633Y-40702D01*
X31633Y-54033D01*
X31617Y-54053D01*
X31476Y-54169D01*
X31476Y-53228D01*
X31476Y-50472D01*
X31476Y-50472D01*
X31476Y-50471D01*
X31476Y-50464D01*
X31475Y-50456D01*
X31475Y-50448D01*
X31475Y-50445D01*
X31464Y-50346D01*
X31460Y-50330D01*
X31457Y-50314D01*
X31456Y-50312D01*
X31456Y-50312D01*
X31426Y-50217D01*
X31420Y-50202D01*
X31414Y-50187D01*
X31413Y-50185D01*
X31413Y-50185D01*
X31364Y-50097D01*
X31355Y-50084D01*
X31346Y-50071D01*
X31345Y-50069D01*
X31345Y-50069D01*
X31345Y-50069D01*
X31281Y-49992D01*
X31269Y-49981D01*
X31258Y-49970D01*
X31256Y-49968D01*
X31256Y-49968D01*
X31256Y-49968D01*
X31178Y-49906D01*
X31165Y-49897D01*
X31151Y-49888D01*
X31149Y-49887D01*
X31149Y-49887D01*
X31149Y-49887D01*
X31061Y-49840D01*
X31046Y-49834D01*
X31031Y-49828D01*
X31029Y-49827D01*
X31029Y-49827D01*
X31029Y-49827D01*
X30933Y-49799D01*
X30917Y-49796D01*
X30901Y-49793D01*
X30899Y-49793D01*
X30827Y-49786D01*
X30827Y-48976D01*
X30827Y-48141D01*
X30825Y-48123D01*
X30824Y-48105D01*
X30824Y-48104D01*
X30823Y-48103D01*
X30818Y-48085D01*
X30813Y-48068D01*
X30813Y-48067D01*
X30812Y-48066D01*
X30804Y-48050D01*
X30795Y-48034D01*
X30795Y-48033D01*
X30794Y-48032D01*
X30783Y-48018D01*
X30771Y-48003D01*
X30770Y-48002D01*
X30770Y-48002D01*
X30770Y-48002D01*
X30769Y-48001D01*
X30145Y-47377D01*
X30131Y-47366D01*
X30117Y-47354D01*
X30116Y-47354D01*
X30115Y-47353D01*
X30099Y-47344D01*
X30083Y-47335D01*
X30082Y-47335D01*
X30081Y-47335D01*
X30064Y-47329D01*
X30046Y-47324D01*
X30045Y-47324D01*
X30044Y-47323D01*
X30026Y-47321D01*
X30010Y-47320D01*
X30007Y-47314D01*
X29992Y-47292D01*
X29973Y-47272D01*
X29951Y-47257D01*
X29926Y-47247D01*
X29899Y-47242D01*
X29872Y-47242D01*
X29006Y-47242D01*
X28979Y-47247D01*
X28954Y-47257D01*
X28931Y-47272D01*
X28912Y-47292D01*
X28897Y-47314D01*
X28887Y-47339D01*
X28881Y-47366D01*
X28881Y-47393D01*
X28881Y-47669D01*
X28887Y-47695D01*
X28897Y-47720D01*
X28912Y-47743D01*
X28931Y-47762D01*
X28939Y-47767D01*
X28931Y-47772D01*
X28912Y-47792D01*
X28897Y-47814D01*
X28887Y-47839D01*
X28881Y-47866D01*
X28881Y-47893D01*
X28881Y-47934D01*
X28866Y-47910D01*
X28829Y-47874D01*
X28787Y-47845D01*
X28739Y-47825D01*
X28689Y-47815D01*
X28637Y-47814D01*
X28586Y-47824D01*
X28539Y-47843D01*
X28495Y-47872D01*
X28459Y-47908D01*
X28430Y-47950D01*
X28409Y-47998D01*
X28398Y-48048D01*
X28398Y-48099D01*
X28407Y-48150D01*
X28426Y-48198D01*
X28454Y-48241D01*
X28466Y-48253D01*
X28466Y-48264D01*
X28467Y-48265D01*
X28467Y-48266D01*
X28472Y-48284D01*
X28477Y-48301D01*
X28478Y-48302D01*
X28478Y-48303D01*
X28487Y-48319D01*
X28495Y-48336D01*
X28496Y-48336D01*
X28496Y-48337D01*
X28508Y-48351D01*
X28519Y-48366D01*
X28521Y-48367D01*
X28521Y-48367D01*
X28521Y-48367D01*
X28521Y-48368D01*
X28810Y-48657D01*
X28825Y-48669D01*
X28839Y-48680D01*
X28839Y-48681D01*
X28840Y-48682D01*
X28856Y-48690D01*
X28872Y-48699D01*
X28873Y-48699D01*
X28874Y-48700D01*
X28891Y-48705D01*
X28897Y-48720D01*
X28912Y-48743D01*
X28923Y-48754D01*
X28919Y-48757D01*
X28897Y-48779D01*
X28880Y-48805D01*
X28868Y-48833D01*
X28862Y-48864D01*
X28862Y-48938D01*
X28901Y-48978D01*
X29413Y-48978D01*
X29413Y-48970D01*
X29492Y-48970D01*
X29492Y-48978D01*
X30003Y-48978D01*
X30043Y-48938D01*
X30043Y-48864D01*
X30037Y-48833D01*
X30025Y-48805D01*
X30008Y-48779D01*
X29986Y-48757D01*
X29981Y-48754D01*
X29992Y-48743D01*
X30007Y-48720D01*
X30018Y-48695D01*
X30023Y-48669D01*
X30023Y-48641D01*
X30023Y-48366D01*
X30018Y-48339D01*
X30007Y-48314D01*
X29992Y-48292D01*
X29973Y-48272D01*
X29965Y-48267D01*
X29973Y-48262D01*
X29992Y-48243D01*
X30007Y-48220D01*
X30010Y-48215D01*
X30013Y-48215D01*
X30021Y-48261D01*
X30040Y-48309D01*
X30068Y-48353D01*
X30104Y-48390D01*
X30146Y-48419D01*
X30193Y-48440D01*
X30244Y-48451D01*
X30295Y-48452D01*
X30346Y-48443D01*
X30394Y-48424D01*
X30432Y-48400D01*
X30432Y-48894D01*
X30043Y-49283D01*
X30043Y-49171D01*
X30043Y-49096D01*
X30003Y-49057D01*
X29492Y-49057D01*
X29492Y-49273D01*
X29531Y-49312D01*
X29870Y-49312D01*
X29901Y-49312D01*
X29931Y-49306D01*
X29960Y-49295D01*
X29986Y-49277D01*
X30008Y-49255D01*
X30025Y-49230D01*
X30037Y-49201D01*
X30043Y-49171D01*
X30043Y-49283D01*
X29702Y-49623D01*
X29691Y-49638D01*
X29679Y-49652D01*
X29678Y-49652D01*
X29678Y-49653D01*
X29669Y-49669D01*
X29660Y-49685D01*
X29660Y-49686D01*
X29659Y-49687D01*
X29654Y-49705D01*
X29649Y-49722D01*
X29648Y-49723D01*
X29648Y-49724D01*
X29646Y-49742D01*
X29644Y-49761D01*
X29644Y-49763D01*
X29644Y-49763D01*
X29644Y-49763D01*
X29644Y-49763D01*
X29644Y-52870D01*
X29406Y-53109D01*
X26892Y-53109D01*
X26716Y-52933D01*
X29507Y-52933D01*
X29507Y-50846D01*
X29413Y-50846D01*
X29413Y-49273D01*
X29413Y-49057D01*
X28901Y-49057D01*
X28862Y-49096D01*
X28862Y-49171D01*
X28868Y-49201D01*
X28880Y-49230D01*
X28897Y-49255D01*
X28919Y-49277D01*
X28945Y-49295D01*
X28973Y-49306D01*
X29004Y-49312D01*
X29035Y-49312D01*
X29374Y-49312D01*
X29413Y-49273D01*
X29413Y-50846D01*
X29150Y-50846D01*
X29150Y-50722D01*
X29148Y-50704D01*
X29147Y-50686D01*
X29146Y-50685D01*
X29146Y-50684D01*
X29141Y-50666D01*
X29136Y-50648D01*
X29135Y-50648D01*
X29135Y-50647D01*
X29127Y-50630D01*
X29118Y-50614D01*
X29117Y-50613D01*
X29117Y-50612D01*
X29105Y-50598D01*
X29094Y-50584D01*
X29093Y-50583D01*
X29093Y-50583D01*
X29093Y-50583D01*
X29092Y-50582D01*
X27859Y-49349D01*
X27866Y-49348D01*
X27914Y-49330D01*
X27957Y-49302D01*
X27995Y-49267D01*
X28024Y-49224D01*
X28045Y-49177D01*
X28057Y-49127D01*
X28058Y-49068D01*
X28048Y-49018D01*
X28028Y-48970D01*
X27999Y-48927D01*
X27963Y-48891D01*
X27920Y-48862D01*
X27873Y-48842D01*
X27846Y-48836D01*
X27180Y-48170D01*
X27196Y-48167D01*
X27245Y-48149D01*
X27288Y-48121D01*
X27325Y-48085D01*
X27355Y-48043D01*
X27376Y-47996D01*
X27387Y-47946D01*
X27388Y-47887D01*
X27378Y-47837D01*
X27359Y-47789D01*
X27330Y-47746D01*
X27294Y-47709D01*
X27251Y-47681D01*
X27204Y-47661D01*
X27162Y-47652D01*
X27023Y-47513D01*
X27023Y-47366D01*
X27018Y-47339D01*
X27007Y-47314D01*
X26992Y-47292D01*
X26973Y-47272D01*
X26951Y-47257D01*
X26926Y-47247D01*
X26899Y-47242D01*
X26872Y-47242D01*
X26690Y-47242D01*
X26690Y-47003D01*
X26688Y-46982D01*
X26686Y-46960D01*
X26686Y-46958D01*
X26686Y-46957D01*
X26679Y-46936D01*
X26673Y-46915D01*
X26672Y-46914D01*
X26672Y-46913D01*
X26662Y-46893D01*
X26652Y-46874D01*
X26651Y-46873D01*
X26650Y-46872D01*
X26636Y-46855D01*
X26623Y-46838D01*
X26621Y-46836D01*
X26621Y-46836D01*
X26621Y-46836D01*
X26620Y-46835D01*
X26202Y-46417D01*
X26202Y-46259D01*
X26233Y-46259D01*
X26260Y-46254D01*
X26285Y-46243D01*
X26307Y-46228D01*
X26327Y-46209D01*
X26342Y-46187D01*
X26352Y-46161D01*
X26357Y-46135D01*
X26357Y-46108D01*
X26357Y-45518D01*
X26352Y-45491D01*
X26342Y-45466D01*
X26327Y-45443D01*
X26307Y-45424D01*
X26285Y-45409D01*
X26260Y-45399D01*
X26233Y-45393D01*
X26206Y-45393D01*
X26202Y-45393D01*
X26202Y-45196D01*
X26233Y-45196D01*
X26260Y-45191D01*
X26285Y-45180D01*
X26307Y-45165D01*
X26327Y-45146D01*
X26342Y-45124D01*
X26352Y-45098D01*
X26357Y-45072D01*
X26357Y-45045D01*
X26357Y-45026D01*
X26398Y-45027D01*
X26448Y-45018D01*
X26497Y-44999D01*
X26540Y-44971D01*
X26577Y-44936D01*
X26607Y-44894D01*
X26628Y-44847D01*
X26639Y-44796D01*
X26640Y-44738D01*
X26630Y-44687D01*
X26611Y-44639D01*
X26582Y-44596D01*
X26546Y-44560D01*
X26503Y-44531D01*
X26456Y-44511D01*
X26405Y-44501D01*
X26357Y-44500D01*
X26357Y-44455D01*
X26352Y-44428D01*
X26342Y-44403D01*
X26327Y-44380D01*
X26307Y-44361D01*
X26285Y-44346D01*
X26260Y-44336D01*
X26233Y-44330D01*
X26206Y-44330D01*
X25695Y-44330D01*
X25668Y-44336D01*
X25643Y-44346D01*
X25621Y-44361D01*
X25602Y-44380D01*
X25594Y-44368D01*
X25572Y-44346D01*
X25546Y-44329D01*
X25517Y-44317D01*
X25487Y-44311D01*
X25295Y-44311D01*
X25255Y-44350D01*
X25255Y-44724D01*
X25263Y-44724D01*
X25263Y-44803D01*
X25255Y-44803D01*
X25255Y-45176D01*
X25295Y-45216D01*
X25487Y-45216D01*
X25517Y-45210D01*
X25546Y-45198D01*
X25572Y-45181D01*
X25594Y-45159D01*
X25602Y-45147D01*
X25621Y-45165D01*
X25643Y-45180D01*
X25668Y-45191D01*
X25695Y-45196D01*
X25722Y-45196D01*
X25726Y-45196D01*
X25726Y-45393D01*
X25695Y-45393D01*
X25668Y-45399D01*
X25643Y-45409D01*
X25621Y-45424D01*
X25602Y-45443D01*
X25594Y-45431D01*
X25572Y-45409D01*
X25546Y-45392D01*
X25517Y-45380D01*
X25487Y-45374D01*
X25295Y-45374D01*
X25255Y-45413D01*
X25255Y-45787D01*
X25263Y-45787D01*
X25263Y-45866D01*
X25255Y-45866D01*
X25255Y-46239D01*
X25295Y-46279D01*
X25487Y-46279D01*
X25517Y-46273D01*
X25546Y-46261D01*
X25572Y-46244D01*
X25594Y-46222D01*
X25602Y-46210D01*
X25621Y-46228D01*
X25643Y-46243D01*
X25668Y-46254D01*
X25695Y-46259D01*
X25722Y-46259D01*
X25726Y-46259D01*
X25726Y-46515D01*
X25728Y-46537D01*
X25730Y-46559D01*
X25731Y-46560D01*
X25731Y-46561D01*
X25737Y-46582D01*
X25743Y-46604D01*
X25744Y-46605D01*
X25744Y-46606D01*
X25755Y-46625D01*
X25765Y-46645D01*
X25765Y-46646D01*
X25766Y-46647D01*
X25780Y-46664D01*
X25794Y-46681D01*
X25795Y-46683D01*
X25795Y-46683D01*
X25795Y-46683D01*
X25796Y-46683D01*
X26214Y-47102D01*
X26214Y-47242D01*
X26006Y-47242D01*
X25979Y-47247D01*
X25954Y-47257D01*
X25931Y-47272D01*
X25912Y-47292D01*
X25897Y-47314D01*
X25887Y-47339D01*
X25881Y-47366D01*
X25881Y-47393D01*
X25881Y-47669D01*
X25887Y-47695D01*
X25897Y-47720D01*
X25912Y-47743D01*
X25931Y-47762D01*
X25939Y-47767D01*
X25931Y-47772D01*
X25912Y-47792D01*
X25897Y-47814D01*
X25887Y-47839D01*
X25881Y-47866D01*
X25881Y-47893D01*
X25881Y-48169D01*
X25887Y-48195D01*
X25897Y-48220D01*
X25912Y-48243D01*
X25931Y-48262D01*
X25939Y-48267D01*
X25931Y-48272D01*
X25912Y-48292D01*
X25897Y-48314D01*
X25887Y-48339D01*
X25881Y-48366D01*
X25881Y-48393D01*
X25881Y-48669D01*
X25887Y-48695D01*
X25897Y-48720D01*
X25912Y-48743D01*
X25931Y-48762D01*
X25939Y-48767D01*
X25931Y-48772D01*
X25912Y-48792D01*
X25897Y-48814D01*
X25887Y-48839D01*
X25881Y-48866D01*
X25881Y-48893D01*
X25881Y-49169D01*
X25887Y-49195D01*
X25897Y-49220D01*
X25912Y-49243D01*
X25931Y-49262D01*
X25954Y-49277D01*
X25979Y-49288D01*
X26006Y-49293D01*
X26033Y-49293D01*
X26808Y-49293D01*
X27219Y-49704D01*
X27219Y-50846D01*
X26437Y-50846D01*
X26437Y-51625D01*
X26277Y-51785D01*
X26265Y-51799D01*
X26254Y-51813D01*
X26253Y-51814D01*
X26252Y-51815D01*
X26244Y-51831D01*
X26235Y-51847D01*
X26235Y-51848D01*
X26234Y-51849D01*
X26229Y-51866D01*
X26223Y-51884D01*
X26223Y-51885D01*
X26223Y-51886D01*
X26221Y-51904D01*
X26219Y-51922D01*
X26219Y-51924D01*
X26219Y-51924D01*
X26219Y-51924D01*
X26219Y-51925D01*
X26219Y-52913D01*
X26221Y-52931D01*
X26222Y-52949D01*
X26223Y-52950D01*
X26223Y-52951D01*
X26228Y-52969D01*
X26233Y-52986D01*
X26234Y-52987D01*
X26234Y-52988D01*
X26243Y-53004D01*
X26251Y-53021D01*
X26252Y-53021D01*
X26252Y-53022D01*
X26264Y-53037D01*
X26275Y-53051D01*
X26276Y-53052D01*
X26276Y-53052D01*
X26277Y-53052D01*
X26277Y-53053D01*
X26671Y-53446D01*
X26685Y-53458D01*
X26699Y-53470D01*
X26700Y-53470D01*
X26700Y-53471D01*
X26717Y-53480D01*
X26733Y-53488D01*
X26734Y-53489D01*
X26735Y-53489D01*
X26752Y-53495D01*
X26769Y-53500D01*
X26770Y-53500D01*
X26771Y-53500D01*
X26790Y-53502D01*
X26808Y-53504D01*
X26810Y-53504D01*
X26810Y-53504D01*
X26810Y-53504D01*
X26811Y-53504D01*
X29488Y-53504D01*
X29506Y-53503D01*
X29524Y-53501D01*
X29525Y-53501D01*
X29526Y-53501D01*
X29544Y-53495D01*
X29561Y-53490D01*
X29562Y-53490D01*
X29563Y-53489D01*
X29579Y-53481D01*
X29595Y-53472D01*
X29596Y-53472D01*
X29597Y-53471D01*
X29611Y-53460D01*
X29626Y-53448D01*
X29627Y-53447D01*
X29627Y-53447D01*
X29627Y-53447D01*
X29628Y-53446D01*
X29982Y-53092D01*
X29993Y-53078D01*
X30005Y-53064D01*
X30006Y-53063D01*
X30006Y-53062D01*
X30015Y-53046D01*
X30024Y-53030D01*
X30024Y-53029D01*
X30025Y-53028D01*
X30030Y-53011D01*
X30035Y-52993D01*
X30036Y-52992D01*
X30036Y-52991D01*
X30038Y-52973D01*
X30040Y-52955D01*
X30040Y-52953D01*
X30040Y-52953D01*
X30040Y-52953D01*
X30040Y-52952D01*
X30040Y-49845D01*
X30769Y-49116D01*
X30781Y-49102D01*
X30793Y-49088D01*
X30793Y-49087D01*
X30794Y-49086D01*
X30802Y-49070D01*
X30811Y-49054D01*
X30812Y-49053D01*
X30812Y-49052D01*
X30817Y-49034D01*
X30823Y-49017D01*
X30823Y-49016D01*
X30823Y-49015D01*
X30825Y-48997D01*
X30827Y-48979D01*
X30827Y-48977D01*
X30827Y-48977D01*
X30827Y-48977D01*
X30827Y-48976D01*
X30827Y-49786D01*
X30799Y-49784D01*
X30783Y-49784D01*
X30767Y-49784D01*
X30765Y-49784D01*
X30665Y-49794D01*
X30650Y-49798D01*
X30634Y-49801D01*
X30632Y-49801D01*
X30632Y-49801D01*
X30632Y-49801D01*
X30536Y-49831D01*
X30521Y-49837D01*
X30506Y-49843D01*
X30504Y-49844D01*
X30504Y-49844D01*
X30504Y-49844D01*
X30416Y-49892D01*
X30403Y-49901D01*
X30390Y-49910D01*
X30388Y-49911D01*
X30388Y-49911D01*
X30388Y-49911D01*
X30311Y-49975D01*
X30299Y-49986D01*
X30288Y-49997D01*
X30286Y-49999D01*
X30223Y-50077D01*
X30214Y-50090D01*
X30205Y-50103D01*
X30204Y-50106D01*
X30204Y-50106D01*
X30204Y-50106D01*
X30204Y-50106D01*
X30157Y-50194D01*
X30151Y-50209D01*
X30145Y-50223D01*
X30144Y-50226D01*
X30115Y-50321D01*
X30112Y-50337D01*
X30109Y-50353D01*
X30109Y-50355D01*
X30109Y-50355D01*
X30109Y-50355D01*
X30099Y-50455D01*
X30099Y-50462D01*
X30098Y-50469D01*
X30098Y-50472D01*
X30098Y-53228D01*
X30098Y-53228D01*
X30098Y-53229D01*
X30098Y-53236D01*
X30099Y-53244D01*
X30099Y-53252D01*
X30099Y-53255D01*
X30110Y-53354D01*
X30114Y-53370D01*
X30117Y-53385D01*
X30117Y-53388D01*
X30148Y-53483D01*
X30154Y-53498D01*
X30160Y-53513D01*
X30161Y-53515D01*
X30161Y-53515D01*
X30161Y-53515D01*
X30209Y-53602D01*
X30218Y-53616D01*
X30227Y-53629D01*
X30229Y-53631D01*
X30229Y-53631D01*
X30229Y-53631D01*
X30229Y-53631D01*
X30293Y-53707D01*
X30305Y-53719D01*
X30316Y-53730D01*
X30318Y-53732D01*
X30318Y-53732D01*
X30318Y-53732D01*
X30318Y-53732D01*
X30396Y-53794D01*
X30409Y-53803D01*
X30422Y-53812D01*
X30425Y-53813D01*
X30425Y-53813D01*
X30425Y-53813D01*
X30513Y-53859D01*
X30528Y-53865D01*
X30543Y-53872D01*
X30545Y-53872D01*
X30545Y-53872D01*
X30641Y-53901D01*
X30657Y-53904D01*
X30672Y-53907D01*
X30675Y-53907D01*
X30675Y-53907D01*
X30774Y-53916D01*
X30790Y-53916D01*
X30807Y-53916D01*
X30809Y-53916D01*
X30908Y-53905D01*
X30924Y-53902D01*
X30940Y-53899D01*
X30942Y-53898D01*
X30942Y-53898D01*
X30942Y-53898D01*
X30942Y-53898D01*
X31038Y-53869D01*
X31052Y-53863D01*
X31067Y-53857D01*
X31069Y-53856D01*
X31070Y-53856D01*
X31070Y-53856D01*
X31070Y-53856D01*
X31157Y-53808D01*
X31171Y-53799D01*
X31184Y-53790D01*
X31186Y-53789D01*
X31186Y-53789D01*
X31186Y-53789D01*
X31186Y-53789D01*
X31263Y-53725D01*
X31274Y-53714D01*
X31286Y-53702D01*
X31287Y-53700D01*
X31287Y-53700D01*
X31287Y-53700D01*
X31287Y-53700D01*
X31350Y-53623D01*
X31359Y-53610D01*
X31368Y-53596D01*
X31370Y-53594D01*
X31370Y-53594D01*
X31370Y-53594D01*
X31370Y-53594D01*
X31417Y-53506D01*
X31423Y-53491D01*
X31429Y-53476D01*
X31430Y-53474D01*
X31430Y-53474D01*
X31459Y-53378D01*
X31462Y-53363D01*
X31465Y-53347D01*
X31465Y-53345D01*
X31465Y-53345D01*
X31465Y-53345D01*
X31465Y-53345D01*
X31475Y-53245D01*
X31475Y-53238D01*
X31476Y-53230D01*
X31476Y-53228D01*
X31476Y-54169D01*
X31466Y-54178D01*
X31294Y-54271D01*
X31107Y-54329D01*
X30904Y-54350D01*
X25807Y-54350D01*
X25807Y-53228D01*
X25807Y-50472D01*
X25807Y-50472D01*
X25807Y-50471D01*
X25807Y-50464D01*
X25806Y-50456D01*
X25806Y-50448D01*
X25805Y-50445D01*
X25794Y-50346D01*
X25791Y-50330D01*
X25788Y-50314D01*
X25787Y-50312D01*
X25787Y-50312D01*
X25757Y-50217D01*
X25751Y-50202D01*
X25744Y-50187D01*
X25743Y-50185D01*
X25743Y-50185D01*
X25695Y-50097D01*
X25686Y-50084D01*
X25677Y-50071D01*
X25676Y-50069D01*
X25676Y-50069D01*
X25676Y-50069D01*
X25611Y-49992D01*
X25600Y-49981D01*
X25589Y-49970D01*
X25587Y-49968D01*
X25587Y-49968D01*
X25587Y-49968D01*
X25509Y-49906D01*
X25495Y-49897D01*
X25482Y-49888D01*
X25480Y-49887D01*
X25480Y-49887D01*
X25480Y-49887D01*
X25391Y-49840D01*
X25377Y-49834D01*
X25362Y-49828D01*
X25359Y-49827D01*
X25359Y-49827D01*
X25359Y-49827D01*
X25264Y-49799D01*
X25248Y-49796D01*
X25232Y-49793D01*
X25230Y-49793D01*
X25130Y-49784D01*
X25114Y-49784D01*
X25098Y-49784D01*
X25096Y-49784D01*
X24996Y-49794D01*
X24980Y-49798D01*
X24965Y-49801D01*
X24962Y-49801D01*
X24962Y-49801D01*
X24962Y-49801D01*
X24867Y-49831D01*
X24852Y-49837D01*
X24837Y-49843D01*
X24835Y-49844D01*
X24835Y-49844D01*
X24835Y-49844D01*
X24747Y-49892D01*
X24734Y-49901D01*
X24720Y-49910D01*
X24718Y-49911D01*
X24718Y-49911D01*
X24718Y-49911D01*
X24642Y-49975D01*
X24630Y-49986D01*
X24619Y-49997D01*
X24617Y-49999D01*
X24554Y-50077D01*
X24545Y-50090D01*
X24536Y-50103D01*
X24535Y-50106D01*
X24535Y-50106D01*
X24535Y-50106D01*
X24535Y-50106D01*
X24488Y-50194D01*
X24482Y-50209D01*
X24476Y-50223D01*
X24475Y-50226D01*
X24446Y-50321D01*
X24443Y-50337D01*
X24439Y-50353D01*
X24439Y-50355D01*
X24439Y-50355D01*
X24439Y-50355D01*
X24429Y-50455D01*
X24429Y-50462D01*
X24429Y-50469D01*
X24429Y-50472D01*
X24429Y-53228D01*
X24429Y-53228D01*
X24429Y-53229D01*
X24429Y-53236D01*
X24430Y-53244D01*
X24430Y-53252D01*
X24430Y-53255D01*
X24441Y-53354D01*
X24444Y-53370D01*
X24447Y-53385D01*
X24448Y-53388D01*
X24478Y-53483D01*
X24485Y-53498D01*
X24491Y-53513D01*
X24492Y-53515D01*
X24492Y-53515D01*
X24492Y-53515D01*
X24540Y-53602D01*
X24549Y-53616D01*
X24558Y-53629D01*
X24560Y-53631D01*
X24560Y-53631D01*
X24560Y-53631D01*
X24560Y-53631D01*
X24624Y-53707D01*
X24635Y-53719D01*
X24647Y-53730D01*
X24649Y-53732D01*
X24649Y-53732D01*
X24649Y-53732D01*
X24649Y-53732D01*
X24726Y-53794D01*
X24740Y-53803D01*
X24753Y-53812D01*
X24755Y-53813D01*
X24755Y-53813D01*
X24755Y-53813D01*
X24844Y-53859D01*
X24859Y-53865D01*
X24873Y-53872D01*
X24876Y-53872D01*
X24876Y-53872D01*
X24972Y-53901D01*
X24987Y-53904D01*
X25003Y-53907D01*
X25006Y-53907D01*
X25006Y-53907D01*
X25105Y-53916D01*
X25121Y-53916D01*
X25137Y-53916D01*
X25140Y-53916D01*
X25239Y-53905D01*
X25255Y-53902D01*
X25271Y-53899D01*
X25273Y-53898D01*
X25273Y-53898D01*
X25273Y-53898D01*
X25273Y-53898D01*
X25368Y-53869D01*
X25383Y-53863D01*
X25398Y-53857D01*
X25400Y-53856D01*
X25400Y-53856D01*
X25400Y-53856D01*
X25400Y-53856D01*
X25488Y-53808D01*
X25501Y-53799D01*
X25515Y-53790D01*
X25517Y-53789D01*
X25517Y-53789D01*
X25517Y-53789D01*
X25517Y-53789D01*
X25594Y-53725D01*
X25605Y-53714D01*
X25616Y-53702D01*
X25618Y-53700D01*
X25618Y-53700D01*
X25618Y-53700D01*
X25618Y-53700D01*
X25681Y-53623D01*
X25690Y-53610D01*
X25699Y-53596D01*
X25700Y-53594D01*
X25700Y-53594D01*
X25700Y-53594D01*
X25700Y-53594D01*
X25747Y-53506D01*
X25753Y-53491D01*
X25760Y-53476D01*
X25760Y-53474D01*
X25760Y-53474D01*
X25789Y-53378D01*
X25792Y-53363D01*
X25796Y-53347D01*
X25796Y-53345D01*
X25796Y-53345D01*
X25796Y-53345D01*
X25796Y-53345D01*
X25806Y-53245D01*
X25806Y-53238D01*
X25807Y-53230D01*
X25807Y-53228D01*
X25807Y-54350D01*
X25008Y-54350D01*
X24805Y-54330D01*
X24617Y-54273D01*
X24444Y-54181D01*
X24293Y-54058D01*
X24168Y-53907D01*
X24075Y-53735D01*
X24017Y-53548D01*
X23996Y-53345D01*
X23996Y-16347D01*
X24016Y-16143D01*
X24072Y-15956D01*
X24164Y-15783D01*
X24288Y-15631D01*
X24439Y-15506D01*
X24611Y-15413D01*
X24798Y-15355D01*
X25001Y-15334D01*
X30896Y-15334D01*
X31100Y-15354D01*
X31287Y-15411D01*
X31460Y-15503D01*
X31612Y-15626D01*
X31737Y-15777D01*
X31830Y-15949D01*
X31888Y-16136D01*
X31909Y-16339D01*
X31909Y-53337D01*
M02*
